<svg width="53" height="60" viewBox="0 0 53 60" fill="none" xmlns="http://www.w3.org/2000/svg">
<g clip-path="url(#clip0_31_2674)">
<path d="M52.9412 39.704C52.9412 41.6452 51.6194 44.1158 50.0029 45.194L29.4088 58.9235C27.7924 59.9999 25.1488 59.9999 23.5324 58.9235L2.93824 45.194C1.32176 44.1158 0 41.647 0 39.704V20.2958C0 18.3546 1.32176 15.884 2.93824 14.8058L23.5324 1.0764C25.1488 -7.46846e-05 27.7924 -7.46846e-05 29.4088 1.0764L50.0029 14.8058C51.6194 15.884 52.9412 18.3529 52.9412 20.2958V39.704Z" fill="#D868C3"/>
<path d="M26.4708 47.647L44.1178 26.4705L38.8237 17.647H14.1178L8.82373 26.4705L26.4708 47.647Z" fill="white"/>
</g>
<defs>
<clipPath id="clip0_31_2674">
<rect width="52.9412" height="60" fill="white"/>
</clipPath>
</defs>
</svg>
