<svg width="24" height="24" viewBox="0 0 24 24" fill="none" xmlns="http://www.w3.org/2000/svg">
<g clip-path="url(#clip0_799_218)">
<path d="M23.6 11.9999C23.6 18.6527 18.004 23.9947 11.2608 23.5771C5.48324 23.2191 0.780836 18.5167 0.423236 12.7391C0.00523624 5.9959 5.34724 0.399902 12 0.399902C13.8272 0.399902 15.5572 0.821502 17.096 1.5763C17.5084 1.7787 17.6596 2.2923 17.432 2.6915L17.4304 2.6943C17.22 3.0631 16.7608 3.2003 16.38 3.0127C14.8528 2.2607 13.1068 1.8947 11.264 2.0263C6.42404 2.3715 2.47124 6.2535 2.04044 11.0867C1.50444 17.1023 6.32524 22.1515 12.2656 21.9963C17.3528 21.8635 21.5992 17.8291 21.9716 12.7539C22.0684 11.4355 21.9096 10.1591 21.532 8.9823C21.4124 8.6091 21.5864 8.2063 21.9368 8.0311C22.3744 7.8123 22.9108 8.0311 23.0592 8.4971C23.4104 9.6015 23.6 10.7783 23.6 11.9999Z" fill="#72FF3A"/>
<path d="M6.16401 8.9887L12.4896 17.5475C12.9672 18.1939 13.9392 18.1379 14.342 17.4411L23.4828 1.6179C23.9588 0.793896 22.8728 -0.0345042 22.2252 0.659096L12.702 10.8599L7.17641 7.8015C6.42961 7.3883 5.65361 8.2979 6.16401 8.9887Z" fill="#72FF3A"/>
</g>
<defs>
<clipPath id="clip0_799_218">
<rect width="24" height="24" fill="white"/>
</clipPath>
</defs>
</svg>
