<svg width="55" height="54" viewBox="0 0 55 54" fill="none" xmlns="http://www.w3.org/2000/svg">
<g clip-path="url(#clip0_774_230)">
<path d="M46.1767 7.9081C41.0771 2.80845 34.2968 0 27.0848 0C19.8729 0 13.0926 2.80845 7.99294 7.9081C2.89329 13.0078 0.0848389 19.788 0.0848389 27C0.0848389 34.212 2.89329 40.9922 7.99294 46.0919C13.0926 51.1915 19.8729 54 27.0848 54C34.2968 54 41.0771 51.1915 46.1767 46.0919C51.2764 40.9922 54.0848 34.212 54.0848 27C54.0848 19.788 51.2763 13.0078 46.1767 7.9081ZM17.0642 19.5292C18.7799 19.5292 20.1757 20.9249 20.1757 22.6407C20.1757 24.3564 18.7799 25.7521 17.0642 25.7521C15.3485 25.7521 13.9527 24.3564 13.9527 22.6407C13.9527 20.9249 15.3485 19.5292 17.0642 19.5292ZM27.0848 44.2634C22.1014 44.2634 17.4918 41.9998 14.4381 38.0531L16.9407 36.1168C19.3907 39.2833 23.0881 41.0993 27.0848 41.0993C31.0817 41.0993 34.779 39.2833 37.229 36.1168L39.7317 38.0531C36.6779 41.9998 32.0683 44.2634 27.0848 44.2634ZM37.1055 25.7521C35.3897 25.7521 33.994 24.3564 33.994 22.6407C33.994 20.9249 35.3897 19.5292 37.1055 19.5292C38.8212 19.5292 40.2169 20.9249 40.2169 22.6407C40.2169 24.3564 38.8211 25.7521 37.1055 25.7521Z" fill="#1B1C2D"/>
</g>
<defs>
<clipPath id="clip0_774_230">
<rect width="54" height="54" fill="white" transform="translate(0.0848389)"/>
</clipPath>
</defs>
</svg>
