<svg width="55" height="54" viewBox="0 0 55 54" fill="none" xmlns="http://www.w3.org/2000/svg">
<path fill-rule="evenodd" clip-rule="evenodd" d="M54.8436 21.6758C54.7395 22.0735 54.5278 22.4289 54.2339 22.6999L54.2372 22.7034L41.6621 34.3103L45.3224 51.439C45.4064 51.8385 45.3779 52.2555 45.2384 52.6391C45.1007 53.0228 44.8571 53.3553 44.5396 53.5964C44.2238 53.8357 43.8459 53.9747 43.4562 53.9941C43.0648 54.0135 42.6767 53.9114 42.3408 53.7038L42.3374 53.7073L27.9179 44.7663L13.4984 53.7073C13.1507 53.9219 12.7492 54.0223 12.346 53.9959C11.9446 53.9695 11.5582 53.8164 11.239 53.5577C10.9215 53.2973 10.6847 52.9436 10.5604 52.5424C10.4361 52.1394 10.4294 51.7083 10.5419 51.3018L14.1737 34.3103L1.59858 22.7034C1.29454 22.4236 1.07784 22.0523 0.977051 21.6423C0.877942 21.2306 0.8981 20.7977 1.03584 20.3982C1.17527 19.9988 1.42556 19.6539 1.7548 19.4058C2.08405 19.1577 2.47712 19.0204 2.88196 19.0099L19.4264 17.3786L26.0751 1.26873C26.2314 0.892159 26.4884 0.570137 26.8159 0.344898C27.1418 0.119658 27.5265 0 27.9179 0C28.3093 0 28.6923 0.119658 29.0199 0.344898C29.3474 0.570137 29.6044 0.892159 29.7607 1.26873L36.4094 17.3786L53.0949 19.0239C53.4863 19.0626 53.8576 19.221 54.1633 19.4779C54.469 19.7348 54.6958 20.0797 54.8167 20.4704C54.9377 20.861 54.9478 21.2798 54.8436 21.6758Z" fill="#1B1C2D"/>
</svg>
