<svg width="55" height="54" viewBox="0 0 55 54" fill="none" xmlns="http://www.w3.org/2000/svg">
<g clip-path="url(#clip0_749_1714)">
<path d="M48.2614 35.0082C48.2614 36.6097 47.2423 38.6479 45.7864 39.5214L28.7526 50.8773C27.4423 51.7509 25.2585 51.7509 23.9482 50.8773L7.05996 39.5214C5.60408 38.6479 4.58496 36.6097 4.58496 35.0082V18.9935C4.58496 17.392 5.60408 15.3538 7.05996 14.4803L24.0938 3.12439C25.4041 2.25086 27.5879 2.25086 28.8982 3.12439L45.932 14.4803C47.2423 15.3538 48.407 17.392 48.407 18.9935V35.0082H48.2614Z" fill="white"/>
<path d="M17.6884 16.8086H35.159V21.1762H17.6884V16.8086ZM13.3208 24.088H39.5267V28.4557H13.3208V24.088ZM8.95312 31.3674H43.8943V35.7351H8.95312V31.3674Z" fill="#2E72FE"/>
</g>
<defs>
<clipPath id="clip0_749_1714">
<rect width="43.6765" height="49.5" fill="white" transform="translate(4.58496 2.25)"/>
</clipPath>
</defs>
</svg>
