<svg width="55" height="54" viewBox="0 0 55 54" fill="none" xmlns="http://www.w3.org/2000/svg">
<path fill-rule="evenodd" clip-rule="evenodd" d="M28.2415 54L50.7591 41.0062V15.0073L45.1773 18.2208V32.3188C45.1779 32.4944 45.1381 32.6677 45.061 32.8255C44.9838 32.9832 44.8713 33.121 44.7323 33.2282C44.5949 33.3399 44.4331 33.4177 44.26 33.4552C44.0869 33.4928 43.9074 33.4892 43.7361 33.4446L40.1425 32.5293L36.3716 36.3453C36.1536 36.562 35.8597 36.6852 35.5523 36.6888C35.4022 36.6885 35.2535 36.6592 35.1145 36.6025L35.1093 36.6004C34.8993 36.5113 34.72 36.3627 34.5932 36.173C34.4665 35.9833 34.398 35.7608 34.3961 35.5326V24.4527L28.2415 28.002V54ZM23.5938 47.8679C23.4927 48.0442 23.3468 48.1906 23.1708 48.2922C22.9948 48.3938 22.7951 48.447 22.5919 48.4464C22.3912 48.448 22.1934 48.398 22.0176 48.3012L14.4186 43.9159C14.1527 43.7614 13.9591 43.5077 13.8803 43.2104C13.8015 42.9132 13.844 42.5968 13.9985 42.3309C14.153 42.065 14.4068 41.8714 14.704 41.7926C15.0012 41.7139 15.3176 41.7564 15.5835 41.9109L23.1709 46.2923C23.4356 46.4455 23.6288 46.6973 23.7081 46.9927C23.7875 47.288 23.7465 47.6028 23.5942 47.8679H23.5938ZM3.41113 15.0077V41.0062L25.9289 54V28.0013L3.41134 15.0076L3.41113 15.0077ZM36.7087 23.1111L42.8648 19.5627V30.8314L40.0714 30.1293C39.8765 30.08 39.6721 30.0821 39.4782 30.1354C39.2843 30.1887 39.1075 30.2915 38.9652 30.4335L36.7087 32.7157V23.1111ZM35.3615 21.2193L12.843 8.22572L18.809 4.78164L41.326 17.7754L35.3615 21.2193ZM27.0849 26.0053L4.56654 13.0003L10.5311 9.55652L33.0498 22.5608L27.0849 26.0053ZM27.0849 0L49.6024 13.0003L43.6379 16.4444L21.1209 3.43944L27.0849 0Z" fill="#1B1C2D"/>
</svg>
