<svg width="55" height="54" viewBox="0 0 55 54" fill="none" xmlns="http://www.w3.org/2000/svg">
<g clip-path="url(#clip0_774_215)">
<path d="M22.0527 25.0342L20.5912 25.8779C20.3976 25.99 20.2563 26.1743 20.1984 26.3903C20.1405 26.6064 20.1707 26.8367 20.2824 27.0305L21.548 29.2226L24.4708 27.5351L23.2052 25.343C23.0932 25.1493 22.9089 25.0081 22.6928 24.9502C22.4767 24.8923 22.2465 24.9225 22.0527 25.0342Z" fill="#1B1C2D"/>
<path d="M53.2411 27.0001C53.2411 26.8835 53.2169 26.7681 53.1701 26.6613C53.1233 26.5545 53.0549 26.4586 52.9691 26.3796L49.7466 23.4109L51.8939 19.592C51.9511 19.4903 51.9866 19.3778 51.9982 19.2617C52.0097 19.1457 51.9971 19.0284 51.961 18.9175C51.925 18.8065 51.8663 18.7042 51.7887 18.6171C51.7112 18.5299 51.6163 18.4598 51.5103 18.4112L47.5289 16.5834L48.3908 12.2872C48.4137 12.1728 48.4127 12.055 48.3878 11.941C48.3629 11.8271 48.3146 11.7195 48.2461 11.6252C48.1775 11.5308 48.0901 11.4517 47.9894 11.3929C47.8888 11.334 47.777 11.2966 47.6611 11.2831L43.3093 10.7756L42.8014 6.4238C42.7878 6.30802 42.7503 6.19631 42.6914 6.09572C42.6325 5.99512 42.5533 5.90782 42.459 5.83931C42.3647 5.7708 42.2572 5.72257 42.1433 5.69766C42.0294 5.67274 41.9116 5.67168 41.7973 5.69455L37.5011 6.55728L35.6735 2.57478C35.6249 2.46874 35.5548 2.37394 35.4677 2.29636C35.3806 2.21877 35.2783 2.1601 35.1674 2.12404C35.0564 2.08798 34.9392 2.07531 34.8232 2.08685C34.7071 2.09838 34.5946 2.13386 34.493 2.19104L30.6745 4.3383L27.7053 1.11577C27.6243 1.03355 27.5277 0.968268 27.4211 0.923708C27.3146 0.879148 27.2003 0.856201 27.0848 0.856201C26.9694 0.856201 26.8551 0.879148 26.7485 0.923708C26.642 0.968268 26.5454 1.03355 26.4643 1.11577L23.4952 4.3383L19.6767 2.19104C19.575 2.13391 19.4626 2.09848 19.3465 2.08698C19.2305 2.07549 19.1133 2.08819 19.0024 2.12427C18.8915 2.16035 18.7892 2.21904 18.7021 2.29662C18.615 2.37421 18.545 2.46901 18.4964 2.57503L16.6688 6.55754L12.3728 5.69455C12.2585 5.67168 12.1407 5.67274 12.0268 5.69766C11.9129 5.72257 11.8054 5.7708 11.7111 5.83931C11.6167 5.90782 11.5376 5.99512 11.4787 6.09572C11.4198 6.19631 11.3823 6.30802 11.3687 6.4238L10.8612 10.776L6.50898 11.2835C6.39313 11.297 6.28133 11.3344 6.18065 11.3933C6.07997 11.4522 5.99258 11.5313 5.92402 11.6256C5.85545 11.72 5.80719 11.8275 5.78228 11.9414C5.75737 12.0554 5.75636 12.1733 5.7793 12.2876L6.64119 16.5838L2.65937 18.4107C2.55325 18.4593 2.45838 18.5295 2.38075 18.6166C2.30312 18.7038 2.24443 18.8061 2.20838 18.9172C2.17233 19.0282 2.15971 19.1455 2.17131 19.2616C2.18292 19.3778 2.2185 19.4903 2.2758 19.592L4.42306 23.4111L1.20052 26.3796C1.11477 26.4586 1.04633 26.5545 0.999513 26.6613C0.952698 26.7681 0.928528 26.8835 0.928528 27.0001C0.928528 27.1167 0.952698 27.232 0.999513 27.3388C1.04633 27.4456 1.11477 27.5416 1.20052 27.6206L4.42306 30.5893L2.2758 34.4082C2.2185 34.5099 2.18292 34.6224 2.17131 34.7385C2.15971 34.8547 2.17233 34.972 2.20838 35.083C2.24443 35.194 2.30312 35.2964 2.38075 35.3835C2.45838 35.4707 2.55325 35.5408 2.65937 35.5895L6.64119 37.417L5.7793 41.713C5.75636 41.8273 5.75737 41.9452 5.78228 42.0591C5.80719 42.1731 5.85545 42.2806 5.92402 42.375C5.99258 42.4693 6.07997 42.5484 6.18065 42.6073C6.28133 42.6662 6.39313 42.7035 6.50898 42.717L10.8608 43.2245L11.3683 47.5768C11.3819 47.6926 11.4194 47.8043 11.4783 47.9049C11.5372 48.0055 11.6163 48.0928 11.7106 48.1613C11.805 48.2298 11.9125 48.278 12.0264 48.3029C12.1402 48.3278 12.258 48.3289 12.3724 48.306L16.6686 47.4433L18.4961 51.4258C18.5447 51.5318 18.6148 51.6266 18.7019 51.7042C18.789 51.7818 18.8912 51.8405 19.0021 51.8766C19.113 51.9126 19.2302 51.9253 19.3463 51.9138C19.4623 51.9024 19.5748 51.8669 19.6765 51.8098L23.4952 49.6625L26.4643 52.8851C26.5434 52.9708 26.6393 53.0393 26.7461 53.0861C26.8529 53.1329 26.9682 53.1571 27.0848 53.1571C27.2014 53.1571 27.3168 53.1329 27.4236 53.0861C27.5304 53.0393 27.6263 52.9708 27.7053 52.8851L30.6745 49.6625L34.493 51.8091C34.5946 51.8662 34.7071 51.9017 34.8231 51.9132C34.9392 51.9247 35.0564 51.912 35.1673 51.8759C35.2782 51.8398 35.3804 51.7811 35.4675 51.7035C35.5546 51.6259 35.6247 51.5312 35.6733 51.4251L37.5008 47.4426L41.7966 48.3054C41.9109 48.3282 42.0288 48.3272 42.1426 48.3022C42.2565 48.2773 42.364 48.2291 42.4583 48.1606C42.5527 48.0921 42.6318 48.0048 42.6907 47.9042C42.7496 47.8036 42.7871 47.6919 42.8007 47.5761L43.3082 43.2239L47.6604 42.7164C47.7763 42.7029 47.8881 42.6655 47.9888 42.6066C48.0894 42.5478 48.1768 42.4686 48.2454 42.3743C48.314 42.2799 48.3622 42.1724 48.3871 42.0585C48.412 41.9445 48.4131 41.8266 48.3901 41.7123L47.5289 37.4168L51.5107 35.5892C51.6168 35.5406 51.7116 35.4705 51.7892 35.3833C51.8667 35.2962 51.9254 35.1939 51.9615 35.0829C51.9975 34.972 52.0101 34.8548 51.9986 34.7387C51.987 34.6226 51.9515 34.5101 51.8943 34.4085L49.747 30.5893L52.9696 27.6206C53.0552 27.5415 53.1236 27.4456 53.1703 27.3388C53.2171 27.232 53.2411 27.1167 53.2411 27.0001ZM19.8081 38.0213L18.3466 38.8651C17.7651 39.2 17.0744 39.2905 16.4262 39.1168C15.7779 38.9431 15.2251 38.5194 14.8888 37.9385C14.777 37.7447 14.7466 37.5144 14.8046 37.2983C14.8625 37.0821 15.0039 36.8978 15.1977 36.7859C15.3915 36.674 15.6218 36.6437 15.838 36.7016C16.0541 36.7596 16.2384 36.901 16.3503 37.0948C16.4623 37.2884 16.6466 37.4297 16.8627 37.4876C17.0788 37.5455 17.309 37.5153 17.5029 37.4036L18.9643 36.5599C19.158 36.4478 19.2992 36.2635 19.3571 36.0474C19.415 35.8314 19.3848 35.6011 19.2731 35.4073L18.4294 33.9459C18.3174 33.7523 18.1331 33.611 17.917 33.5531C17.7009 33.4952 17.4707 33.5254 17.2768 33.637L15.8154 34.4808C15.2338 34.8157 14.5431 34.9063 13.8949 34.7326C13.2466 34.5589 12.6938 34.1351 12.3576 33.5542L11.5138 32.0929C11.1789 31.5113 11.0884 30.8206 11.2621 30.1724C11.4358 29.5241 11.8595 28.9713 12.4404 28.6351L13.9018 27.7913C14.4834 27.4564 15.174 27.3659 15.8223 27.5396C16.4705 27.7133 17.0233 28.137 17.3595 28.7179C17.4158 28.8139 17.4525 28.92 17.4676 29.0303C17.4827 29.1405 17.4758 29.2527 17.4474 29.3603C17.4189 29.4678 17.3695 29.5687 17.3019 29.6571C17.2343 29.7455 17.1499 29.8197 17.0535 29.8753C16.9571 29.9309 16.8507 29.967 16.7404 29.9813C16.63 29.9956 16.5179 29.988 16.4106 29.9589C16.3032 29.9297 16.2026 29.8796 16.1147 29.8114C16.0267 29.7432 15.9531 29.6584 15.8981 29.5616C15.7861 29.368 15.6018 29.2267 15.3857 29.1688C15.1697 29.1109 14.9394 29.1411 14.7456 29.2528L13.2841 30.0966C13.0905 30.2086 12.9492 30.3929 12.8913 30.609C12.8334 30.8251 12.8636 31.0553 12.9753 31.2491L13.8191 32.7105C13.9311 32.9041 14.1154 33.0454 14.3315 33.1033C14.5475 33.1612 14.7778 33.131 14.9716 33.0194L16.4331 32.1756C17.0146 31.8407 17.7053 31.7502 18.3536 31.9239C19.0018 32.0976 19.5547 32.5213 19.8909 33.1022L20.7346 34.5635C21.0695 35.1451 21.16 35.8358 20.9863 36.484C20.8126 37.1322 20.3889 37.6851 19.8081 38.0213ZM28.5765 32.9588C28.3827 33.0707 28.1524 33.101 27.9363 33.0431C27.7201 32.9852 27.5358 32.8439 27.4239 32.6501L25.3146 28.9966L22.3917 30.6841L24.5011 34.3376C24.5565 34.4335 24.5925 34.5395 24.6069 34.6493C24.6214 34.7592 24.6141 34.8708 24.5854 34.9778C24.5567 35.0849 24.5072 35.1852 24.4398 35.2731C24.3723 35.361 24.2882 35.4348 24.1922 35.4902C24.0963 35.5456 23.9904 35.5815 23.8805 35.596C23.7706 35.6105 23.659 35.6031 23.552 35.5745C23.445 35.5458 23.3446 35.4963 23.2567 35.4289C23.1688 35.3614 23.095 35.2773 23.0396 35.1813L18.8209 27.8745C18.486 27.2929 18.3955 26.6022 18.5692 25.954C18.7429 25.3058 19.1666 24.7529 19.7474 24.4167L21.2089 23.5729C21.7904 23.238 22.4811 23.1475 23.1294 23.3212C23.7776 23.4949 24.3305 23.9186 24.6666 24.4995L28.8854 31.8063C28.9972 32.0001 29.0275 32.2304 28.9696 32.4465C28.9116 32.6626 28.7703 32.8469 28.5765 32.9588ZM35.8834 28.7401L31.4992 31.2713C31.4032 31.3267 31.2973 31.3627 31.1874 31.3772C31.0776 31.3916 30.9659 31.3843 30.8589 31.3556C30.7518 31.327 30.6515 31.2775 30.5636 31.21C30.4757 31.1426 30.4019 31.0585 30.3465 30.9625L25.284 22.194C25.1721 22.0002 25.1418 21.7699 25.1997 21.5537C25.2577 21.3376 25.3991 21.1533 25.5929 21.0414C25.7867 20.9295 26.017 20.8992 26.2331 20.9571C26.4493 21.015 26.6336 21.1564 26.7455 21.3502L31.3861 29.3881L35.0395 27.2787C35.1355 27.2224 35.2417 27.1857 35.352 27.1706C35.4622 27.1555 35.5744 27.1624 35.6819 27.1909C35.7895 27.2193 35.8904 27.2687 35.9788 27.3363C36.0672 27.4039 36.1413 27.4883 36.197 27.5847C36.2526 27.6811 36.2886 27.7875 36.303 27.8978C36.3173 28.0082 36.3097 28.1203 36.2805 28.2276C36.2514 28.335 36.2013 28.4356 36.1331 28.5235C36.0649 28.6115 35.9801 28.6851 35.8834 28.7401ZM43.1903 24.5213L38.806 27.0526C38.6123 27.1644 38.3819 27.1948 38.1658 27.1368C37.9497 27.0789 37.7654 26.9375 37.6535 26.7437L32.591 17.9752C32.4791 17.7814 32.4488 17.5511 32.5067 17.335C32.5647 17.1188 32.7061 16.9346 32.8999 16.8227L37.2841 14.2914C37.38 14.236 37.486 14.2001 37.5958 14.1856C37.7057 14.1711 37.8173 14.1785 37.9244 14.2071C38.0314 14.2358 38.1317 14.2853 38.2196 14.3528C38.3075 14.4202 38.3813 14.5043 38.4367 14.6003C38.4921 14.6962 38.528 14.8022 38.5425 14.912C38.557 15.0219 38.5497 15.1335 38.521 15.2406C38.4923 15.3476 38.4428 15.4479 38.3754 15.5358C38.3079 15.6237 38.2238 15.6975 38.1278 15.7529L34.4744 17.8623L36.1619 20.7851L39.8153 18.6757C39.9113 18.6194 40.0175 18.5827 40.1278 18.5676C40.238 18.5526 40.3501 18.5595 40.4577 18.5879C40.5653 18.6163 40.6662 18.6658 40.7546 18.7334C40.843 18.801 40.9171 18.8854 40.9728 18.9817C41.0284 19.0781 41.0644 19.1845 41.0788 19.2949C41.0931 19.4052 41.0855 19.5173 41.0563 19.6247C41.0272 19.7321 40.9771 19.8326 40.9089 19.9206C40.8407 20.0085 40.7558 20.0821 40.6591 20.1371L37.0056 22.2465L38.6931 25.1693L42.3466 23.0599C42.4426 23.0037 42.5488 22.9669 42.659 22.9519C42.7693 22.9368 42.8814 22.9437 42.989 22.9721C43.0965 23.0005 43.1974 23.05 43.2858 23.1176C43.3742 23.1852 43.4484 23.2696 43.504 23.3659C43.5597 23.4623 43.5957 23.5687 43.61 23.6791C43.6244 23.7894 43.6167 23.9015 43.5876 24.0089C43.5584 24.1163 43.5083 24.2168 43.4401 24.3048C43.372 24.3927 43.287 24.4663 43.1903 24.5213Z" fill="#1B1C2D"/>
</g>
<defs>
<clipPath id="clip0_774_215">
<rect width="54" height="54" fill="white" transform="translate(0.0848389)"/>
</clipPath>
</defs>
</svg>
