<svg width="55" height="54" viewBox="0 0 55 54" fill="none" xmlns="http://www.w3.org/2000/svg">
<g clip-path="url(#clip0_881_379)">
<path d="M28.83 54.0069C30.1627 54.0069 31.2431 52.9265 31.2431 51.5938C31.2431 50.2611 30.1627 49.1807 28.83 49.1807C27.4973 49.1807 26.4169 50.2611 26.4169 51.5938C26.4169 52.9265 27.4973 54.0069 28.83 54.0069Z" fill="#1B1C2D"/>
<path d="M42.7009 35.1405L29.0912 36.6002C28.8381 36.6255 28.7115 36.3133 28.914 36.153L42.2284 25.7833C43.089 25.0746 43.6459 23.9777 43.4096 22.7964C43.1734 20.9908 41.6799 19.8096 39.7899 20.0458L25.3196 22.1636C25.0665 22.1974 24.9315 21.8768 25.134 21.7164L39.4778 10.7646C42.3043 8.56238 42.5406 4.24241 39.9503 1.72803C37.5962 -0.626024 33.8162 -0.550087 31.4621 1.80397L8.35178 25.3193C7.49115 26.2643 7.09459 27.5214 7.33084 28.8546C7.7274 30.9808 9.84521 32.3899 11.9715 32.0018L24.4337 29.4621C24.7037 29.403 24.8471 29.7658 24.6193 29.9177L10.7987 38.7686C9.06896 39.8655 8.28428 41.8314 8.83271 43.7974C9.38115 46.3877 11.9799 47.8811 14.4943 47.2567L35.1578 42.1689C35.394 42.1099 35.5628 42.3799 35.4109 42.5655L32.1878 46.548C31.3271 47.6449 32.7362 49.1383 33.9174 48.2777L44.5318 39.5533C46.4218 37.9839 45.1646 34.9127 42.7262 35.1489L42.7009 35.1405Z" fill="#1B1C2D"/>
</g>
<defs>
<clipPath id="clip0_881_379">
<rect width="38.8125" height="54" fill="white" transform="translate(7.26355)"/>
</clipPath>
</defs>
</svg>
