<?xml version="1.0" encoding="utf-8"?>
<!-- Generator: Adobe Illustrator 27.0.1, SVG Export Plug-In . SVG Version: 6.00 Build 0)  -->
<svg version="1.1" id="Layer_1" xmlns="http://www.w3.org/2000/svg" xmlns:xlink="http://www.w3.org/1999/xlink" x="0px" y="0px"
	 viewBox="0 0 32 32" style="enable-background:new 0 0 32 32;" xml:space="preserve">
<style type="text/css">
	.st0{fill:url(#back_00000090260190955621091990000008355303245057540527_);}
	.st1{fill:#FFFFFF;}
	.st2{fill:#EF5488;}
</style>
<g id="elitequiz-web" transform="translate(0 -1)">
	
		<linearGradient id="back_00000162351736336579980780000007477093440615331721_" gradientUnits="userSpaceOnUse" x1="0" y1="17" x2="32" y2="17">
		<stop  offset="0" style="stop-color:#EF5488"/>
		<stop  offset="1" style="stop-color:#6C245A"/>
	</linearGradient>
	<path id="back" style="fill:url(#back_00000162351736336579980780000007477093440615331721_);" d="M4,1h24c2.2,0,4,1.8,4,4v24
		c0,2.2-1.8,4-4,4H4c-2.2,0-4-1.8-4-4V5C0,2.8,1.8,1,4,1z"/>
	<path id="Intersection_10" class="st1" d="M0,6.5V5c0-2.2,1.8-4,4-4h9.8v2.4c0,1.7-1.4,3-3,3H0z"/>
	<g id="Group_55">
		<path id="w" class="st2" d="M3,5.2L2.4,2.4h0.7l0.2,1.2c0.1,0.3,0.1,0.7,0.2,1h0c0-0.3,0.1-0.6,0.2-1l0.2-1.2h0.7l0.2,1.2
			c0.1,0.3,0.1,0.6,0.2,1h0c0-0.3,0.1-0.6,0.2-1l0.2-1.2H6L5.3,5.2H4.6L4.3,4C4.3,3.7,4.2,3.5,4.2,3.1h0C4.1,3.5,4.1,3.7,4,4
			L3.7,5.2L3,5.2z"/>
		<path id="e" class="st2" d="M8.3,4h-1v0.7h1.2v0.5H6.6V2.4h1.8v0.5H7.3v0.6h1V4z"/>
		<path id="b" class="st2" d="M9.2,2.4c0.3,0,0.6-0.1,0.8-0.1c0.3,0,0.6,0,0.8,0.2c0.2,0.1,0.3,0.3,0.3,0.6c0,0.3-0.2,0.5-0.5,0.6v0
			c0.3,0.1,0.6,0.4,0.6,0.7c0,0.2-0.1,0.5-0.3,0.6c-0.3,0.2-0.7,0.3-1.1,0.3c-0.2,0-0.5,0-0.7,0L9.2,2.4z M9.8,3.5H10
			c0.3,0,0.5-0.1,0.5-0.3s-0.2-0.3-0.5-0.3c-0.1,0-0.2,0-0.3,0L9.8,3.5z M9.8,4.8c0.1,0,0.2,0,0.2,0c0.3,0,0.5-0.1,0.5-0.4
			S10.4,4,10.1,4H9.8V4.8z"/>
	</g>
	<path id="Path_272" class="st1" d="M10,21.4c0.1-0.1,1.8-1.8,2.3-2.3c0,0,0-0.1,0.1-0.1c0,0-0.1-0.1-0.1-0.1
		c-0.5-0.5-0.7-1.1-0.8-1.8c-0.3-1.7,0.8-3.3,2.5-3.7c0.3-0.1,0.5-0.1,0.8-0.1c0.5,0,1.1,0.1,1.6,0.4c0.6,0.3,1,0.8,1.4,1.4
		c0.2,0.3,0.3,0.7,0.4,1.1c0.1,0.9-0.1,1.7-0.6,2.4c-0.1,0.1-0.2,0.2-0.2,0.3c-0.4,0.4-0.7,0.7-1.1,1.1c0,0-0.1,0.1-0.1,0.1
		c0,0,0,0.1,0.1,0.1c0,0,0.1,0.1,0.1,0.1l3.1,3.1c0.1,0,0.1,0.1,0.1,0.2c0,0,0,0-0.1,0.1c-0.9,0.6-1.8,1-2.9,1.2
		C16,25,15.7,25,15.3,25.1c-0.3,0-0.5,0-0.8,0c-0.2,0-0.5,0-0.7-0.1c-0.3,0-0.6-0.1-0.8-0.1c-1.3-0.3-2.5-0.8-3.5-1.7
		c-1.5-1.2-2.6-3-2.9-4.9c0-0.2-0.1-0.5-0.1-0.7c0-0.4,0-0.9,0-1.3c0-0.3,0.1-0.6,0.1-0.8c0.1-0.4,0.2-0.9,0.3-1.3
		c0.7-2,2.1-3.6,3.9-4.6c0.4-0.2,0.8-0.4,1.3-0.6c0.4-0.1,0.9-0.3,1.4-0.3c0.6-0.1,1.2-0.1,1.8-0.1c0.4,0,0.9,0.1,1.3,0.2
		c0.6,0.1,1.1,0.3,1.6,0.5c0.6,0.3,1.1,0.6,1.6,0.9c1.1,0.8,2,2,2.6,3.3c0.3,0.6,0.5,1.3,0.6,2c0.1,0.4,0.1,0.7,0.1,1.1
		c0,0.1,0,0.2,0,0.3c0,0.4,0,0.8-0.1,1.2c-0.1,0.6-0.2,1.1-0.4,1.7c-0.2,0.6-0.5,1.1-0.8,1.6c0,0-0.1,0.1-0.1,0.1c0,0,0,0,0,0h0
		c0,0,0,0,0,0c0,0-0.1-0.1-0.1-0.1l-1-1c0,0,0,0,0,0c0,0,0-0.1,0.1-0.1c0.3-0.6,0.6-1.3,0.7-2c0.1-0.3,0.1-0.6,0.1-0.9
		c0-0.3,0-0.6,0-0.9c0-0.3-0.1-0.5-0.1-0.8c-0.1-0.6-0.3-1.2-0.6-1.7c-0.2-0.4-0.5-0.8-0.8-1.2c-1-1.2-2.3-2-3.8-2.3
		c-0.6-0.1-1.2-0.2-1.8-0.1c-0.7,0-1.5,0.2-2.2,0.5c-0.6,0.2-1.1,0.6-1.6,0.9c-0.7,0.5-1.2,1.2-1.6,1.9c-0.3,0.4-0.5,0.9-0.6,1.4
		c-0.1,0.3-0.1,0.5-0.2,0.8c-0.1,0.3-0.1,0.6-0.1,0.9c0,0.1,0,0.2,0,0.2c0,0.3,0,0.6,0.1,0.9c0,0.3,0.1,0.6,0.2,0.9
		c0.1,0.5,0.3,0.9,0.5,1.4c0.3,0.5,0.6,1,1,1.4C10,21.4,10,21.4,10,21.4z"/>
	<path id="Path_273" class="st1" d="M20.6,25.1c0-1.4,1.1-2.5,2.5-2.5s2.5,1.1,2.5,2.5c0,1.4-1.1,2.5-2.5,2.5c0,0,0,0,0,0
		C21.7,27.6,20.6,26.4,20.6,25.1C20.6,25.1,20.6,25.1,20.6,25.1z"/>
</g>
</svg>
