<svg width="53" height="60" viewBox="0 0 53 60" fill="none" xmlns="http://www.w3.org/2000/svg">
<g clip-path="url(#clip0_31_2667)">
<path d="M52.9412 39.7058C52.9412 41.647 51.7059 44.1176 49.9412 45.1764L29.2941 58.9411C27.7059 59.9999 25.0588 59.9999 23.4706 58.9411L3 45.1764C1.23529 44.1176 0 41.647 0 39.7058V20.2941C0 18.3529 1.23529 15.8823 3 14.8235L23.6471 1.05877C25.2353 -5.74589e-05 27.8824 -5.74589e-05 29.4706 1.05877L50.1176 14.8235C51.7059 15.8823 53.1176 18.3529 53.1176 20.2941V39.7058H52.9412Z" fill="#F38844"/>
<path d="M15.8822 17.647H37.0586V22.9411H15.8822V17.647ZM10.5881 26.4705H42.3528V31.7646H10.5881V26.4705ZM5.29395 35.294H47.6469V40.5882H5.29395V35.294Z" fill="white"/>
</g>
<defs>
<clipPath id="clip0_31_2667">
<rect width="52.9412" height="60" fill="white"/>
</clipPath>
</defs>
</svg>
