<svg xmlns="http://www.w3.org/2000/svg" xmlns:xlink="http://www.w3.org/1999/xlink" width="1080" height="1080" viewBox="0 0 1080 1080">
  <defs>
    <clipPath id="clip-eRestro_Single_Vendor-1080x1080">
      <rect width="1080" height="1080"/>
    </clipPath>
  </defs>
  <g id="eRestro_Single_Vendor-1080x1080" data-name="eRestro Single Vendor-1080x1080" clip-path="url(#clip-eRestro_Single_Vendor-1080x1080)">
    <rect width="1080" height="1080" fill="#f0bb62"/>
    <g id="logo" transform="translate(-178.315 -13.395)">
      <path id="Path_1" data-name="Path 1" d="M742.4,681.387c24.049-38.164,39.946-68.84,50.378-93.144C737.541,757.216,597.555,852.789,417.635,852.789,186.976,852.789,0,661.887,0,426.395S186.976,0,417.635,0C574.652,0,715.678,90.984,783.6,222.886,720.469,126.315,607.473,72.429,473.722,72.429,254.4,72.429,76.6,250.228,76.6,469.566S254.4,830.361,473.722,830.361c109.069,0,215.438-77.746,268.677-148.974" transform="translate(239 127)" fill="#002f35"/>
      <path id="Path_2" data-name="Path 2" d="M399.66,151.9a31.186,31.186,0,1,0-26.753,8.841C255.656,203.611,167.041,291.512,120.224,398.254l623.882-206.3C642.909,134.172,519.36,116.423,399.66,151.9M248.214,265.567s-47.584,28.812-99.69,103.35c1.063-2.382,35.459-78.9,93.136-114.587,0,0,7.953,8.8,6.554,11.237M583.523,146.782c67.8,1.723,136.1,41.179,138.217,42.417-82.586-38.057-138.217-38.931-138.217-38.931-2.436-1.386,0-3.485,0-3.485" transform="translate(280.562 161.121)" fill="#002f35"/>
      <path id="Path_3" data-name="Path 3" d="M418.814,499.618a5.42,5.42,0,0,1,1.371-4.923L693.539,201.253l.682-.739a11.25,11.25,0,0,1,7.906-3.242,11.458,11.458,0,0,1,8.752,18.705.061.061,0,0,0-.026.032l-1.517,1.517-.007.005L425.942,501.186a5.279,5.279,0,0,1-3.343,1.6c-2.4.176-3.394-1.491-3.785-3.166" transform="translate(383.739 195.198)" fill="#002f35"/>
      <path id="Path_4" data-name="Path 4" d="M438.543,468.418a5.718,5.718,0,0,1,2.5-4.772L787.857,221.64l.868-.611a11.864,11.864,0,0,1,8.868-1.592,12.082,12.082,0,0,1,4.881,21.223.076.076,0,0,0-.032.027l-1.9,1.229-.008.005L445.545,471.613a5.561,5.561,0,0,1-3.8.908c-2.515-.35-3.168-2.289-3.2-4.1" transform="translate(390.606 202.769)" fill="#002f35"/>
      <path id="Path_5" data-name="Path 5" d="M772.241,379.19C756.438,545.748,614.9,676.085,442.62,676.085S128.816,545.748,113,379.19Z" transform="translate(278.064 258.088)" fill="#002f35"/>
      <path id="Path_6" data-name="Path 6" d="M339.74,383.519a7.26,7.26,0,0,1-4.156,1.171q-20.981.111-41.983.022a.322.322,0,0,1-.327-.327.389.389,0,0,1,.031-.148c6.994-14.958.6-28-11.3-37.658-6.235-5.063-19.5-13.4-8.587-22.448a1.7,1.7,0,0,1,.918-.369,331.383,331.383,0,0,1,47.575-.094.438.438,0,0,1,.4.474.176.176,0,0,1-.011.074c-4.168,16.994,6.614,29.367,19.62,38.07,10.316,6.909,6.107,15.675-2.184,21.234" transform="translate(332.082 238.614)" fill="#002f35"/>
      <path id="Path_7" data-name="Path 7" d="M284.343,383.385a1.672,1.672,0,0,1-.96.305l-43.84-.02a.351.351,0,0,1-.347-.349.318.318,0,0,1,.031-.137c3.228-7.288,3.756-14.62.8-22.184-4.336-11.107-14.8-16.994-21.951-23.744a.3.3,0,0,1-.011-.433.408.408,0,0,1,.137-.083,336.635,336.635,0,0,1,48.923-11.109.356.356,0,0,1,.4.3.174.174,0,0,1,0,.1c-2.416,15.992,7.922,26.688,19.863,35.022,11.72,8.164,5.591,16.255-3.048,22.331" transform="translate(314.357 239.571)" fill="#002f35"/>
      <path id="Path_8" data-name="Path 8" d="M238.23,354.593c5.77,3.5,12.014,10.275,7.257,16.867A37.681,37.681,0,0,1,237.8,378.8a1.59,1.59,0,0,1-.95.316l-91.329.031q-.822,0-.137-.464a383.525,383.525,0,0,1,77.426-39.651.666.666,0,0,1,.791.253q6.74,10.517,14.63,15.306" transform="translate(289.152 244.191)" fill="#002f35"/>
      <path id="Path_9" data-name="Path 9" d="M346.014,384.2a1.672,1.672,0,0,0,.96.305l43.84-.02a.351.351,0,0,0,.347-.349.318.318,0,0,0-.031-.137c-3.228-7.288-3.756-14.62-.8-22.184,4.336-11.107,14.8-16.993,21.951-23.744a.3.3,0,0,0,.011-.433.409.409,0,0,0-.137-.083c-16.107-4.937-63.959-13.532-80.569-14.273a.37.37,0,0,0-.4.295.18.18,0,0,0,0,.106c2.416,15.991,23.724,29.852,11.783,38.186-11.72,8.164-5.591,16.255,3.048,22.331" transform="translate(353.489 238.759)" fill="#002f35"/>
      <path id="Path_10" data-name="Path 10" d="M412.126,339.287a.665.665,0,0,1,.791-.253,383.559,383.559,0,0,1,77.427,39.651q.684.464-.137.464l-91.329-.031a1.589,1.589,0,0,1-.95-.316,37.682,37.682,0,0,1-7.689-7.342c-4.757-6.593,1.487-13.366,7.257-16.867q7.89-4.79,14.63-15.306" transform="translate(373.325 244.191)" fill="#002f35"/>
    </g>
  </g>
</svg>
