<svg xmlns="http://www.w3.org/2000/svg" width="32" height="32" viewBox="0 0 32 32">
  <g id="eShop_s_manager" data-name="eShop s manager" transform="translate(0 -1)">
    <rect id="back" width="32" height="32" rx="4" transform="translate(0 1)" fill="#00bbd4"/>
    <path id="frame" d="M-827,508h-24a4,4,0,0,0-4,4v24a4,4,0,0,0,4,4h24a4,4,0,0,0,4-4V512A4,4,0,0,0-827,508Zm2.4,27.4a3,3,0,0,1-3,3h-22.8a3,3,0,0,1-3-3V512.6a3,3,0,0,1,3-3h22.8a3,3,0,0,1,3,3Z" transform="translate(855 -507)" fill="#00bbd4"/>
    <path id="eshop" d="M62.874,521.521a.843.843,0,0,0,.351.528,1.242,1.242,0,0,0,.66.155,3.131,3.131,0,0,0,.592-.064,3.571,3.571,0,0,0,.647-.191,2.916,2.916,0,0,1,.223.565,2.672,2.672,0,0,1,.1.683,4.731,4.731,0,0,1-1.657.3,3.108,3.108,0,0,1-1.125-.182,2,2,0,0,1-.765-.505,2.029,2.029,0,0,1-.437-.769,3.217,3.217,0,0,1-.141-.974,3.18,3.18,0,0,1,.146-.975,2.239,2.239,0,0,1,.437-.792,2.063,2.063,0,0,1,.728-.533,2.476,2.476,0,0,1,1.02-.2,2.144,2.144,0,0,1,.861.164,1.873,1.873,0,0,1,.642.451,1.958,1.958,0,0,1,.405.692,2.654,2.654,0,0,1,.141.879,3.848,3.848,0,0,1-.023.442q-.023.2-.041.323Zm.728-1.794a.737.737,0,0,0-.5.182.818.818,0,0,0-.246.565h1.457a.889.889,0,0,0-.2-.533A.63.63,0,0,0,63.6,519.727Zm5.436-.337q.382.155.688.314a2.061,2.061,0,0,1,.524.383,1.525,1.525,0,0,1,.337.537,2.405,2.405,0,0,1-.05,1.63,1.806,1.806,0,0,1-.5.665,2.293,2.293,0,0,1-.806.428,3.663,3.663,0,0,1-1.1.15,4.873,4.873,0,0,1-1-.091,6.245,6.245,0,0,1-.933-.282,5.162,5.162,0,0,1,.127-.678q.091-.36.218-.733a3.757,3.757,0,0,0,1.457.364,1.533,1.533,0,0,0,.724-.141.509.509,0,0,0,.26-.487.535.535,0,0,0-.055-.25.551.551,0,0,0-.146-.178.919.919,0,0,0-.2-.123q-.114-.05-.232-.1l-.51-.191a3.28,3.28,0,0,1-.6-.282,1.912,1.912,0,0,1-.46-.387,1.63,1.63,0,0,1-.3-.515,2.02,2.02,0,0,1-.1-.683,2.111,2.111,0,0,1,.164-.856,1.782,1.782,0,0,1,.46-.633,1.962,1.962,0,0,1,.715-.392,3.109,3.109,0,0,1,.938-.132,4.345,4.345,0,0,1,.9.091,7.392,7.392,0,0,1,.924.264,4.655,4.655,0,0,1-.132.642,4.05,4.05,0,0,1-.241.66q-.237-.1-.555-.209a2.467,2.467,0,0,0-.792-.109,1.36,1.36,0,0,0-.278.027.813.813,0,0,0-.237.086.459.459,0,0,0-.168.164.491.491,0,0,0-.064.26.454.454,0,0,0,.173.391,1.74,1.74,0,0,0,.41.219Zm5.436,2.258H73.128v1.73q-.237.036-.428.055t-.346.018q-.155,0-.346-.018t-.419-.055v-4.7a3.071,3.071,0,0,1,.4-.064q.2-.018.378-.018t.373.018a2.776,2.776,0,0,1,.392.064v1.6h1.348v-1.6a3.071,3.071,0,0,1,.4-.064q.2-.018.378-.018t.373.018a2.776,2.776,0,0,1,.392.064v4.7q-.237.036-.428.055t-.346.018q-.155,0-.346-.018t-.419-.055Zm2.331-.592a3.256,3.256,0,0,1,.15-1.015,2.158,2.158,0,0,1,.446-.788,1.97,1.97,0,0,1,.733-.505,2.992,2.992,0,0,1,2.031,0,1.97,1.97,0,0,1,.733.505,2.158,2.158,0,0,1,.446.788,3.255,3.255,0,0,1,.15,1.015,3.139,3.139,0,0,1-.15,1,2.124,2.124,0,0,1-.446.774,1.95,1.95,0,0,1-.733.5,3.065,3.065,0,0,1-2.031,0,1.95,1.95,0,0,1-.733-.5,2.125,2.125,0,0,1-.446-.774,3.139,3.139,0,0,1-.15-1Zm3.132,0a1.678,1.678,0,0,0-.2-.892.657.657,0,0,0-.6-.31.646.646,0,0,0-.592.31,1.711,1.711,0,0,0-.191.893,1.689,1.689,0,0,0,.191.883.647.647,0,0,0,.592.31.657.657,0,0,0,.6-.31,1.657,1.657,0,0,0,.2-.883Zm3.852.055a.915.915,0,0,0,.114.014q.068,0,.114,0a.828.828,0,0,0,.524-.159.646.646,0,0,0,.2-.542.633.633,0,0,0-.2-.505.744.744,0,0,0-.505-.178h-.1a1.135,1.135,0,0,0-.141.009Zm-1.5-2.413q.419-.064.86-.1t.851-.032a4.3,4.3,0,0,1,.82.077,2.026,2.026,0,0,1,.719.282,1.519,1.519,0,0,1,.515.565,2.283,2.283,0,0,1,.018,1.808,1.593,1.593,0,0,1-.469.574,1.869,1.869,0,0,1-.66.314,2.982,2.982,0,0,1-.751.1q-.155,0-.264-.009a.8.8,0,0,1-.137-.018v1.12a3.691,3.691,0,0,1-.423.059q-.187.014-.332.014t-.332-.014a3.76,3.76,0,0,1-.414-.059Z" transform="translate(-57.788 -500.71)" fill="#fff"/>
    <path id="settings" d="M546.734,179.052l.013-.022c.67-.519,1.693-.567,2.259-1.547a2.283,2.283,0,0,0,.256-1.575c-.039-.216-.189-.213-.319-.065h0l-.013.022c-.229.269-.458.537-.665.819a1.108,1.108,0,0,0-.143.17c-.048.032-.074.076-.109.086a.657.657,0,0,1-.608.05,2.023,2.023,0,0,1-.584-.352,1.622,1.622,0,0,1-.4-.514.5.5,0,0,1-.035-.48,3.145,3.145,0,0,1,.289-.4c.155-.192.329-.389.5-.587.112-.143.305-.477-.053-.551a2.394,2.394,0,0,0-1.247.334,2.248,2.248,0,0,0-1.052,2.184,3.525,3.525,0,0,1,0,1.28c-.1.346-.689,1.5-.86,1.85-.072.151-.2.3,0,.507,0,.018.022.013.027.03a7.028,7.028,0,0,0,1.083.67.018.018,0,0,1,.022.012h0c.3.07.347-.112.454-.272a11.706,11.706,0,0,1,1.176-1.653Zm-.452-7.658a5.108,5.108,0,0,0-1.019.273l-.035.009c-.258.163-.158.325-.128.505a1.108,1.108,0,0,1-1.563,1.191c-.151-.073-.3-.2-.507,0-.018,0-.018,0-.03.027a4.134,4.134,0,0,0-.527.914l-.013.022c-.07.3.112.347.25.441a1.13,1.13,0,0,1,.472,1.06,1.061,1.061,0,0,1-.722.89c-.171.065-.356.077-.368.381l0,.018a5.3,5.3,0,0,0,.278,1.037l0,.018c.163.258.325.158.505.128a1.135,1.135,0,0,1,1.075.428.067.067,0,0,0,.032.048,4.509,4.509,0,0,0,.4-.956,2.015,2.015,0,0,0-.005-1.072,2.512,2.512,0,0,1-.013-.75,2.707,2.707,0,1,1,3.565,2.906c-1.088.367-1.08.534-1.53,1.314a.337.337,0,0,1,.132,0,1.086,1.086,0,0,1,.895.74c.06.154.072.339.359.356l.035-.009a5.286,5.286,0,0,0,1.036-.278l.018,0c.257-.163.158-.325.133-.488a1.137,1.137,0,0,1,.422-1.093,1.09,1.09,0,0,1,1.136-.116c.169.068.3.22.507,0l.035-.009a4.244,4.244,0,0,0,.522-.931.018.018,0,0,0,.013-.022h0c.075-.284-.112-.347-.25-.442a1.13,1.13,0,0,1-.472-1.06,1.117,1.117,0,0,1,.739-.895c.153-.06.343-.054.356-.359l-.009-.035a5.112,5.112,0,0,0-.273-1.019l-.01-.035c-.163-.258-.325-.158-.487-.133a1.137,1.137,0,0,1-1.092-.423,1.1,1.1,0,0,1-.116-1.137c.072-.151.22-.3,0-.507l-.009-.035a4.943,4.943,0,0,0-.931-.523l-.022-.013c-.284-.075-.347.112-.441.25a1.129,1.129,0,0,1-1.059.472,1.092,1.092,0,0,1-.89-.722c-.065-.171-.077-.356-.364-.373Z" transform="translate(-525.259 -164.913)" fill="#fff" fill-rule="evenodd"/>
    <g id="manager" transform="translate(-4.115 1.489)">
      <path id="Path_146" data-name="Path 146" d="M816.725,1798.457H793.616a.665.665,0,0,1-.663-.664v-2.851a.666.666,0,0,1,.663-.664h23.109a.665.665,0,0,1,.663.664v2.851A.665.665,0,0,1,816.725,1798.457Z" transform="translate(-784.224 -1770.067)" fill="#fff"/>
      <path id="Path_147" data-name="Path 147" d="M813.886,1802.357l-.5-1.641h-.013q.027.5.027.668v.973H813v-2.092h.6l.495,1.6h.009l.525-1.6h.6v2.092h-.413v-.99c0-.047,0-.1,0-.162s.008-.223.019-.486h-.013l-.539,1.638Z" transform="translate(-800.844 -1775.03)" fill="#00bbd4"/>
      <path id="Path_148" data-name="Path 148" d="M831.732,1802.315l-.152-.5h-.763l-.151.5h-.478l.738-2.1h.542l.741,2.1Zm-.258-.87q-.21-.677-.237-.766t-.038-.14q-.047.183-.27.906Z" transform="translate(-815.093 -1774.988)" fill="#00bbd4"/>
      <path id="Path_149" data-name="Path 149" d="M847.978,1802.357h-.564l-.91-1.582h-.013q.027.419.027.6v.984h-.4v-2.092h.559l.908,1.566h.01q-.021-.408-.021-.576v-.99h.4Z" transform="translate(-828.302 -1775.03)" fill="#00bbd4"/>
      <path id="Path_150" data-name="Path 150" d="M862.628,1802.315l-.152-.5h-.763l-.152.5h-.478l.738-2.1h.542l.741,2.1Zm-.258-.87q-.21-.677-.237-.766c-.018-.059-.03-.106-.038-.14q-.047.183-.27.906Z" transform="translate(-840.706 -1774.988)" fill="#00bbd4"/>
      <path id="Path_151" data-name="Path 151" d="M877.361,1801.036h.83v1.085a2.38,2.38,0,0,1-.38.092,2.486,2.486,0,0,1-.364.026.922.922,0,0,1-.723-.278,1.156,1.156,0,0,1-.25-.8,1.054,1.054,0,0,1,.29-.79,1.1,1.1,0,0,1,.8-.283,1.556,1.556,0,0,1,.621.128l-.147.355a1.056,1.056,0,0,0-.476-.115.589.589,0,0,0-.461.193.751.751,0,0,0-.173.52.833.833,0,0,0,.139.52.482.482,0,0,0,.406.18,1.42,1.42,0,0,0,.282-.029v-.436h-.4Z" transform="translate(-853.464 -1774.884)" fill="#00bbd4"/>
      <path id="Path_152" data-name="Path 152" d="M893.2,1802.357H892v-2.092h1.2v.363h-.761v.459h.708v.364h-.708v.539h.761Z" transform="translate(-866.333 -1775.03)" fill="#00bbd4"/>
      <path id="Path_153" data-name="Path 153" d="M904.61,1801.554v.8h-.444v-2.092h.609a1.044,1.044,0,0,1,.631.155.619.619,0,0,1,.1.8.67.67,0,0,1-.287.225q.472.705.615.911h-.492l-.5-.8Zm0-.36h.143a.549.549,0,0,0,.311-.07.251.251,0,0,0,.1-.221.228.228,0,0,0-.1-.212.617.617,0,0,0-.317-.063h-.134Z" transform="translate(-876.421 -1775.03)" fill="#00bbd4"/>
    </g>
  </g>
</svg>
