<?xml version="1.0" encoding="UTF-8"?><svg id="Layer_1" xmlns="http://www.w3.org/2000/svg" viewBox="0 0 32 32"><defs><style>.cls-1{fill:#fff;}.cls-1,.cls-2{stroke-width:0px;}.cls-2{fill:#1f5ad0;}</style></defs><g id="eShop_s_web"><path id="back" class="cls-2" d="M4,0h24c2.2,0,4,1.8,4,4v24c0,2.2-1.8,4-4,4H4c-2.2,0-4-1.8-4-4V4C0,1.8,1.8,0,4,0Z"/><path id="Intersection_4" class="cls-1" d="M0,5.5v-1.5C0,1.8,1.8,0,4,0h9.8v2.4c0,1.7-1.4,3-3,3H0v.1Z"/><g id="Group_48"><path id="w" class="cls-2" d="M3,4.2l-.6-2.8h.7l.2,1.2c.1.3.1.7.2,1h0c0-.3.1-.6.2-1l.2-1.2h.7l.2,1.2c.1.3.1.6.2,1h0c0-.3.1-.6.2-1l.2-1.2h.6l-.7,2.8h-.7l-.3-1.2c0-.3-.1-.5-.1-.9h0c-.1.4-.1.6-.2.9l-.3,1.2h-.7Z"/><path id="e" class="cls-2" d="M8.3,3h-1v.7h1.2v.5h-1.9V1.4h1.8v.5h-1.1v.6h1v.5Z"/><path id="b" class="cls-2" d="M9.2,1.4c.3,0,.6-.1.8-.1.3,0,.6,0,.8.2.2.1.3.3.3.6s-.2.5-.5.6h0c.3.1.6.4.6.7,0,.2-.1.5-.3.6-.3.2-.7.3-1.1.3h-.7l.1-2.9ZM9.8,2.5h.2c.3,0,.5-.1.5-.3s-.2-.3-.5-.3h-.3l.1.6ZM9.8,3.8h.2c.3,0,.5-.1.5-.4s-.1-.4-.4-.4h-.3v.8Z"/></g><g id="Group_49"><path id="Path_5852-2" class="cls-1" d="M4.57,20.21c.05.23.18.43.38.57.22.12.46.18.71.17.21,0,.43-.03.64-.07.24-.05.47-.11.69-.21.1.19.18.4.24.61.07.24.11.48.11.73-.57.21-1.17.32-1.78.32-.41,0-.82-.06-1.21-.2-.31-.11-.59-.3-.82-.54-.22-.24-.38-.52-.47-.83-.1-.34-.15-.69-.15-1.05,0-.35.05-.71.16-1.05.1-.31.26-.6.47-.85.22-.25.48-.44.78-.57.35-.15.72-.22,1.09-.21.32,0,.63.05.92.18.26.11.5.28.69.48.19.21.34.47.44.74.1.3.15.62.15.94,0,.16,0,.32-.03.47-.02.14-.03.26-.04.35h-2.97ZM5.36,18.29c-.2,0-.39.07-.54.2-.16.16-.26.38-.26.61h1.56c0-.21-.08-.41-.21-.57-.14-.16-.34-.25-.55-.24h0ZM11.19,17.93c.27.11.52.22.74.34.21.11.4.25.56.41.16.16.28.36.36.58.09.26.13.54.13.82,0,.32-.06.64-.18.93-.12.28-.3.52-.53.71-.25.21-.55.37-.86.46-.38.11-.78.17-1.18.16-.36,0-.72-.03-1.07-.1-.34-.07-.68-.17-1-.3.03-.25.08-.49.14-.73.07-.26.14-.52.23-.79.49.23,1.02.37,1.56.39.27.01.53-.04.78-.15.19-.1.3-.31.28-.52,0-.09-.02-.19-.06-.27-.04-.07-.09-.14-.16-.19-.07-.05-.14-.1-.22-.13-.08-.04-.16-.07-.25-.1l-.55-.21c-.22-.08-.44-.18-.64-.3-.19-.11-.35-.25-.49-.41-.14-.16-.25-.35-.32-.55-.08-.24-.12-.48-.11-.73,0-.32.05-.63.18-.92.11-.26.28-.49.49-.68.22-.19.48-.34.77-.42.33-.1.67-.15,1.01-.14.32,0,.65.03.96.1.34.07.67.17.99.28-.03.23-.08.46-.14.69-.07.24-.15.48-.26.71-.17-.07-.37-.15-.6-.22-.28-.08-.56-.12-.85-.12-.1,0-.2,0-.3.03-.09.02-.17.05-.25.09-.07.04-.14.1-.18.18-.05.08-.07.18-.07.28-.01.16.06.32.19.42.14.1.28.18.44.23l.47.18ZM17.02,20.35h-1.45v1.86c-.17.03-.32.05-.46.06-.14.01-.26.02-.37.02s-.23,0-.37-.02c-.14-.01-.29-.03-.45-.06v-5.04c.14-.03.28-.06.43-.07.14-.01.28-.02.41-.02s.26,0,.4.02c.14.01.28.04.42.07v1.72h1.45v-1.72c.14-.03.28-.06.43-.07.14-.01.28-.02.41-.02s.26,0,.4.02c.14.01.28.04.42.07v5.04c-.17.03-.32.05-.46.06-.14.01-.26.02-.37.02-.11,0-.23,0-.37-.02-.14-.01-.29-.03-.45-.06v-1.86ZM19.52,19.71c0-.37.05-.74.16-1.09.1-.31.26-.6.48-.84.22-.24.49-.42.79-.54.35-.13.71-.2,1.08-.19.37,0,.75.06,1.09.19.3.12.57.3.79.54.22.24.38.53.48.84.11.35.17.72.16,1.09,0,.36-.05.72-.16,1.07-.1.31-.26.59-.48.83-.22.24-.49.42-.79.53-.35.13-.72.19-1.09.19-.37,0-.74-.06-1.08-.19-.3-.11-.57-.3-.79-.53-.22-.24-.38-.52-.48-.83-.11-.35-.17-.71-.16-1.07ZM22.89,19.71c.02-.33-.05-.66-.21-.96-.14-.22-.38-.35-.64-.33-.26-.02-.5.11-.64.33-.15.29-.22.63-.2.96-.02.33.05.66.2.95.13.22.38.35.64.33.26.02.5-.11.64-.33.16-.29.23-.62.21-.95ZM27.02,19.77s.08.01.12.02h.12c.2,0,.4-.05.56-.17.16-.15.24-.36.22-.58.01-.2-.07-.4-.22-.54-.15-.13-.34-.2-.54-.19h-.11c-.05,0-.1,0-.15.01v1.46ZM25.41,17.18c.3-.05.61-.08.92-.1s.62-.03.91-.03c.3,0,.59.03.88.08.27.05.54.15.77.3.23.15.42.36.55.61.15.31.22.65.21,1,.01.32-.06.64-.19.94-.12.24-.29.45-.5.62-.21.16-.45.27-.71.34-.26.07-.53.1-.81.1-.11,0-.2,0-.28-.01-.05,0-.1,0-.15-.02v1.2c-.15.03-.3.05-.45.06-.13.01-.25.02-.36.02s-.22,0-.36-.02c-.15-.01-.3-.03-.44-.06v-5.02Z"/><path id="Path_5826-2" class="cls-1" d="M19.32,13.86c-.5,0-.9-.2-1.1-.6l-3.6-6.5c-.1-.2-.3-.3-.6-.4l-1.8-.2c-.1,0-.2-.1-.2-.3h0c0-.1.1-.2.3-.2h0l1.8.2c.4,0,.8.3,1,.6l3.6,6.5c.1.2.4.4.7.4l4.6-.3c.1,0,.3.1.3.2h0c0,.1-.1.3-.2.3h0l-4.8.3q.1,0,0,0Z"/><path id="Path_5827-2" class="cls-1" d="M23.02,10.86c-.2.1-.3.2-.5.2q0-.1.1-.1c0-.1.1-.1.1-.1.1-.2.2-.2.3-.4h.1c.2-.2.5-.4.7-.6.1,0,.1-.1.2-.1-.3.4-.6.8-1,1.1Z"/><path id="Path_5828-2" class="cls-1" d="M25.12,7.66h-8c-.2,0-.3.1-.3.3h0v.1l2.2,4.3c.1.2.3.3.5.3l4.4-.1c.3,0,.5-.2.6-.5l1.2-3.4c.1-.4-.1-.8-.5-1t-.1,0ZM24.42,10.96c-.2.2-.4.5-.7.6,0,.1-.1.1-.2.2,0,.1-.1,0-.1.1q-.1,0-.2.1c-.2,0-.2.1-.4,0h-.2c-.1,0-.2,0-.2-.1-.1,0-.1-.1-.2-.1-.1-.1-.3-.2-.3-.5,0-.1-.1-.1-.1-.2-.1-.1-.3-.1-.5-.1-.1,0-.3-.1-.4-.1h.9c0-.1,0-.2.1-.3v-.2s.1,0,.1-.1c.1-.1.1-.2.2-.3s.2-.3.3-.4c.2-.2.5-.3.7-.5q.1,0,.2-.1c.1,0,.2-.1.3-.1s.2.2.4.2h.1c.2.1.2.3.1.5,0,.1-.1.1-.1.2-.1.1-.1.2-.2.3,0,0-.1,0-.1.1-.1.1-.2.2-.2.3-.3.1-.5.4-.8.5-.1.1-.2.1-.3.1h-.1c-.2.3.5.3.7.3s.3-.1.4-.2c.4-.2.9-.5,1.2-.8-.1.4-.2.5-.4.6h0Z"/><ellipse id="Ellipse_475-2" class="cls-1" cx="19.62" cy="15.26" rx=".6" ry=".7"/><ellipse id="Ellipse_476-2" class="cls-1" cx="23.47" cy="14.83" rx=".7" ry=".6" transform="translate(6.4 36.72) rotate(-84.32)"/></g></g><path class="cls-1" d="M5.22,24.97c.06,0,.13,0,.23,0,.09,0,.19,0,.28,0,.11,0,.21,0,.31,0,.1,0,.17,0,.21,0,.27,0,.48.05.62.15.14.1.2.22.2.37,0,.08-.02.16-.07.24-.05.08-.12.15-.22.21-.1.06-.22.11-.38.14h0c.21.02.37.06.49.12s.21.13.26.22.08.17.08.26c0,.14-.04.26-.11.35-.07.1-.18.17-.31.22-.14.05-.3.07-.49.07-.05,0-.13,0-.23,0s-.22,0-.36,0c-.1,0-.19,0-.29,0-.09,0-.17,0-.23,0v-.07c.07,0,.12-.01.16-.03.04-.01.06-.04.07-.08.01-.04.02-.1.02-.18v-1.64c0-.08,0-.14-.02-.18-.01-.04-.04-.07-.07-.08-.04-.01-.09-.02-.16-.02v-.07ZM6.2,25.04c-.09,0-.14.02-.17.06-.03.04-.04.11-.04.23v1.64c0,.08,0,.14.02.18.01.04.03.07.07.08.03.01.08.02.14.02.16,0,.28-.05.35-.15.07-.1.11-.24.11-.43,0-.17-.04-.3-.13-.39-.08-.09-.23-.14-.42-.14h-.28v-.06h.29c.1,0,.18-.02.24-.07.06-.05.09-.12.12-.2s.03-.17.03-.27c0-.16-.03-.29-.08-.37-.05-.08-.13-.12-.25-.12Z"/><path class="cls-1" d="M9.06,25.57v1.39c0,.1.02.17.05.22.03.05.09.07.17.07v.07c-.07,0-.14,0-.21,0-.09,0-.18,0-.26,0s-.15.02-.23.04v-.3c-.05.11-.13.19-.22.24-.09.05-.2.07-.31.07-.09,0-.17-.01-.23-.04s-.1-.05-.14-.09c-.04-.04-.06-.1-.08-.17-.02-.07-.02-.16-.02-.26v-.84c0-.1-.02-.17-.04-.22-.03-.05-.09-.07-.17-.07v-.07c.07,0,.14.01.21.01.09,0,.18,0,.26-.01.08,0,.16-.02.22-.04v1.37c0,.05,0,.1.01.15.01.04.03.08.06.1.03.02.07.04.13.04.06,0,.11-.02.16-.05.05-.03.09-.08.12-.14.03-.06.04-.12.04-.2v-.87c0-.1-.01-.17-.04-.22-.03-.05-.09-.07-.17-.07v-.07c.07,0,.14.01.21.01.09,0,.18,0,.26-.01.08,0,.16-.02.22-.04Z"/><path class="cls-1" d="M11.03,25.6v.07s-.08.04-.12.08c-.04.04-.07.11-.11.21l-.47,1.31-.12.23-.72-1.64c-.04-.09-.07-.14-.11-.16-.04-.02-.07-.03-.09-.03v-.07c.07,0,.15.01.23.02.08,0,.15,0,.23,0,.09,0,.17,0,.25,0s.15,0,.21-.01v.07s-.09,0-.12,0c-.04,0-.07.02-.08.05-.01.03,0,.07.02.13l.42,1.01-.03.02.25-.69c.04-.12.06-.22.05-.29,0-.08-.03-.13-.07-.17-.04-.04-.1-.06-.17-.07v-.07s.07,0,.11,0h.11s.07,0,.1,0c.04,0,.09,0,.14,0,.05,0,.09,0,.12,0ZM10.33,27.27l-.13.35c-.02.06-.04.1-.07.14-.02.04-.05.07-.08.09-.03.03-.07.05-.12.06-.05.01-.1.02-.17.02-.05,0-.11,0-.16-.03-.06-.02-.1-.05-.14-.09s-.06-.09-.06-.15c0-.07.02-.12.07-.16.05-.04.11-.06.19-.06.07,0,.13.02.18.05s.07.09.07.16c0,.04-.01.09-.04.13-.03.04-.07.07-.12.09.01,0,.02,0,.04,0h.04c.07,0,.12-.02.18-.06s.09-.11.13-.2l.12-.34h.08Z"/><path class="cls-1" d="M13.62,24.97c0,.1-.01.19-.02.28,0,.09,0,.16,0,.21,0,.04,0,.09,0,.13,0,.04,0,.07,0,.1h-.08c-.02-.16-.06-.29-.1-.38-.05-.09-.11-.16-.18-.2-.07-.04-.16-.06-.26-.06h-.14c-.06,0-.11,0-.15.02s-.06.03-.07.07-.02.08-.02.15v1.72c0,.07,0,.12.02.15s.03.06.07.07.08.02.15.02h.16c.1,0,.19-.02.26-.06.08-.04.14-.12.2-.22.05-.1.1-.24.12-.42h.08c0,.07,0,.16,0,.28,0,.05,0,.12,0,.22,0,.09,0,.19.02.29-.11,0-.24,0-.38,0-.14,0-.27,0-.38,0h-.21c-.09,0-.18,0-.28,0-.1,0-.2,0-.3,0-.1,0-.2,0-.29,0v-.07c.07,0,.12-.01.16-.03.04-.01.06-.04.07-.08.01-.04.02-.1.02-.18v-1.64c0-.08,0-.14-.02-.18-.01-.04-.04-.07-.07-.08-.04-.01-.09-.02-.16-.02v-.07c.09,0,.19,0,.29,0,.1,0,.2,0,.3,0s.19,0,.28,0h.21c.1,0,.22,0,.35,0s.24,0,.35,0ZM13.1,26.1v.07h-.58v-.07h.58ZM13.19,25.67c0,.13-.01.22-.01.29s0,.13,0,.18,0,.12,0,.18c0,.07,0,.16.02.29h-.08c-.01-.08-.03-.15-.06-.21s-.07-.12-.13-.16-.13-.06-.22-.06v-.07c.07,0,.12-.01.17-.04.05-.03.08-.06.11-.11.03-.05.05-.09.07-.14s.03-.1.04-.14h.08Z"/><path class="cls-1" d="M15.5,25.6v.07s-.08.04-.12.08-.07.11-.11.21l-.48,1.37s-.07,0-.11,0-.07,0-.11,0l-.59-1.47c-.04-.09-.07-.14-.1-.16-.03-.02-.06-.03-.09-.03v-.07c.07,0,.14,0,.22.01.08,0,.16,0,.25,0,.07,0,.14,0,.22,0,.08,0,.15,0,.21-.01v.07s-.09,0-.12,0c-.04,0-.06.02-.07.04s-.01.07,0,.13l.39,1.03-.03.05.26-.73c.04-.12.06-.22.05-.29,0-.08-.03-.13-.07-.17-.04-.04-.1-.06-.17-.07v-.07s.07,0,.11,0c.04,0,.08,0,.11,0s.07,0,.1,0c.04,0,.09,0,.14,0,.05,0,.09,0,.12,0Z"/><path class="cls-1" d="M16.38,25.56c.19,0,.35.06.46.17.11.12.17.3.17.56h-1.09v-.06s.67,0,.67,0c0-.11,0-.21-.02-.3-.02-.09-.04-.17-.07-.22-.03-.05-.08-.08-.13-.08-.08,0-.14.05-.2.15-.05.1-.09.26-.1.48v.02s0,.05,0,.08c0,.03,0,.06,0,.09,0,.15.02.28.06.37.04.09.1.16.16.21.07.04.13.06.2.06.05,0,.09,0,.14-.02s.1-.04.15-.08c.05-.04.1-.09.14-.17l.06.02c-.03.08-.07.17-.13.25-.06.08-.13.14-.22.2s-.19.08-.32.08c-.15,0-.28-.03-.4-.1-.11-.06-.21-.16-.27-.29-.07-.13-.1-.3-.1-.5s.04-.38.1-.51c.07-.14.17-.24.29-.31.12-.07.26-.1.42-.1Z"/><path class="cls-1" d="M18.32,25.56c.07,0,.13.01.17.04.04.03.08.07.1.11.02.05.03.09.03.15,0,.08-.02.15-.07.2s-.11.08-.19.08-.14-.02-.18-.06c-.04-.04-.06-.09-.06-.15s.01-.11.04-.15c.03-.04.06-.08.1-.1-.03,0-.06,0-.09,0-.04,0-.08.02-.12.05-.04.03-.07.06-.1.1s-.05.08-.06.13c-.02.05-.02.09-.02.14v.88c0,.11.03.18.08.22.05.04.13.06.23.06v.07c-.05,0-.12,0-.22,0-.1,0-.2,0-.3,0-.09,0-.18,0-.27,0-.09,0-.16,0-.21,0v-.07c.08,0,.13-.02.16-.05s.05-.1.05-.19v-1.04c0-.1-.02-.17-.04-.22-.03-.05-.09-.07-.17-.07v-.07c.07,0,.14.01.21.01.09,0,.18,0,.26-.01.08,0,.16-.02.22-.04v.31c.03-.06.06-.11.11-.16.04-.05.1-.09.15-.11.06-.03.12-.04.19-.04Z"/><path class="cls-1" d="M20.35,25.6v.07s-.08.04-.12.08c-.04.04-.07.11-.11.21l-.47,1.31-.12.23-.72-1.64c-.04-.09-.07-.14-.11-.16-.04-.02-.07-.03-.09-.03v-.07c.07,0,.15.01.23.02.08,0,.15,0,.23,0,.09,0,.17,0,.25,0s.15,0,.21-.01v.07s-.09,0-.12,0c-.04,0-.06.02-.08.05s0,.07.02.13l.42,1.01-.03.02.25-.69c.04-.12.06-.22.05-.29,0-.08-.03-.13-.07-.17-.04-.04-.1-.06-.17-.07v-.07s.07,0,.11,0c.04,0,.08,0,.11,0,.04,0,.07,0,.1,0,.04,0,.09,0,.14,0s.09,0,.12,0ZM19.65,27.27l-.13.35c-.02.06-.04.1-.07.14-.02.04-.05.07-.08.09-.03.03-.07.05-.12.06-.05.01-.1.02-.17.02-.05,0-.11,0-.16-.03s-.1-.05-.14-.09c-.04-.04-.06-.09-.06-.15,0-.07.02-.12.07-.16.05-.04.11-.06.19-.06.07,0,.13.02.18.05.05.04.07.09.07.16,0,.04-.01.09-.04.13-.03.04-.07.07-.12.09.01,0,.02,0,.04,0h.04c.07,0,.12-.02.18-.06.05-.04.09-.11.13-.2l.12-.34h.08Z"/><path class="cls-1" d="M21.12,25.06v.54h.39v.07h-.39v1.34c0,.07.01.11.04.14.02.03.06.04.11.04.04,0,.08-.01.12-.04.04-.03.08-.08.11-.15l.06.03c-.04.1-.09.18-.16.25-.07.06-.17.1-.29.1-.07,0-.14,0-.19-.03-.06-.02-.1-.05-.14-.08-.05-.05-.08-.11-.1-.18-.02-.07-.02-.17-.02-.28v-1.12h-.28v-.07h.28v-.44c.09,0,.18,0,.26-.02s.15-.04.22-.08Z"/><path class="cls-1" d="M22.31,25.57v1.44c0,.09.02.16.05.19s.09.05.16.05v.07s-.1,0-.19,0c-.08,0-.17,0-.25,0s-.17,0-.26,0c-.09,0-.15,0-.2,0v-.07c.08,0,.13-.02.17-.05.03-.03.05-.1.05-.19v-1.04c0-.1-.01-.17-.04-.22-.03-.05-.09-.07-.17-.07v-.07c.07,0,.14.01.21.01.09,0,.18,0,.26-.01.08,0,.16-.02.22-.04ZM22.05,24.75c.09,0,.17.02.22.07.05.04.08.11.08.19s-.03.14-.08.19c-.05.04-.13.07-.22.07s-.17-.02-.22-.07c-.05-.05-.08-.11-.08-.19s.03-.14.08-.19c.05-.04.13-.07.22-.07Z"/><path class="cls-1" d="M23.9,25.56c.09,0,.17.01.23.04.06.02.1.05.14.09.04.04.06.1.08.16s.03.16.03.27v.89c0,.09.02.16.05.19s.09.05.16.05v.07s-.11,0-.19,0c-.08,0-.17,0-.25,0s-.17,0-.25,0c-.08,0-.14,0-.18,0v-.07c.07,0,.11-.02.14-.05s.04-.1.04-.19v-1.03c0-.05,0-.1-.02-.14-.01-.04-.03-.07-.06-.1-.03-.02-.07-.04-.13-.04s-.11.02-.16.05-.09.08-.12.14c-.03.06-.04.12-.04.2v.92c0,.09.01.16.04.19.03.03.07.05.14.05v.07s-.1,0-.17,0c-.08,0-.16,0-.24,0s-.17,0-.26,0c-.09,0-.15,0-.2,0v-.07c.08,0,.13-.02.17-.05.03-.03.05-.1.05-.19v-1.04c0-.1-.01-.17-.04-.22-.03-.05-.09-.07-.17-.07v-.07c.07,0,.14.01.21.01.09,0,.18,0,.26-.01.08,0,.16-.02.22-.04v.3c.05-.11.13-.19.23-.24.09-.05.2-.07.32-.07Z"/><path class="cls-1" d="M25.32,27.94c-.14,0-.26-.01-.37-.03s-.19-.06-.25-.11-.09-.11-.09-.17.03-.13.09-.18c.06-.05.15-.1.28-.13l.03.05s-.07.07-.09.11c-.02.04-.03.08-.03.12,0,.09.04.16.13.21.08.05.2.08.35.08.1,0,.19-.01.27-.04.08-.03.14-.07.19-.12.04-.05.07-.12.07-.2,0-.07-.02-.12-.07-.17-.05-.05-.15-.07-.29-.07h-.21c-.09,0-.17,0-.24-.03-.07-.02-.12-.05-.16-.09-.04-.04-.06-.1-.06-.16,0-.09.04-.17.11-.25.07-.07.18-.14.32-.2l.03.03s-.08.05-.12.08c-.04.03-.05.07-.05.11,0,.07.04.11.13.11h.36c.12,0,.23.01.33.04.1.03.17.08.23.14.06.07.08.15.08.25s-.03.21-.1.3c-.07.09-.18.17-.32.22-.14.06-.33.08-.55.08ZM25.35,26.61c-.13,0-.24-.02-.34-.06-.1-.04-.18-.09-.24-.17-.06-.08-.09-.18-.09-.3s.03-.22.09-.3c.06-.08.14-.14.24-.17s.21-.05.34-.05.24.02.34.05c.1.04.18.09.24.17.06.08.09.18.09.3s-.03.22-.09.3c-.06.08-.14.14-.24.17-.1.04-.21.06-.34.06ZM25.35,26.55c.06,0,.11-.03.14-.1s.05-.19.05-.37-.02-.3-.05-.37-.08-.1-.14-.1-.1.03-.14.1-.05.19-.05.37.02.3.05.37.08.1.14.1ZM25.87,25.84l-.07-.02c.03-.09.09-.16.16-.22.07-.06.15-.09.24-.09.07,0,.12.02.16.06.04.04.05.09.05.15,0,.07-.02.12-.05.15-.04.03-.08.05-.12.05-.04,0-.07-.01-.1-.04-.03-.03-.05-.07-.05-.12,0-.05.01-.12.06-.21l.02.02c-.08.03-.15.07-.19.11s-.08.1-.11.16Z"/><path class="cls-1" d="M26.91,26.85c.09,0,.15.02.21.07.05.05.08.11.08.19s-.03.14-.08.19c-.05.04-.12.07-.21.07s-.15-.02-.21-.07c-.05-.04-.08-.11-.08-.19s.03-.14.08-.19c.05-.04.12-.07.21-.07ZM26.91,24.73c.07,0,.13.03.19.08.05.06.08.14.08.24,0,.1-.01.2-.03.32-.02.12-.05.25-.08.39-.03.14-.06.28-.08.44s-.04.31-.05.47h-.06c0-.16-.02-.32-.04-.47s-.05-.3-.08-.44c-.03-.14-.06-.27-.08-.39-.02-.12-.03-.23-.03-.32,0-.1.03-.18.08-.24s.12-.08.19-.08Z"/></svg>