<?xml version="1.0" encoding="utf-8"?>
<!-- Generator: Adobe Illustrator 27.5.0, SVG Export Plug-In . SVG Version: 6.00 Build 0)  -->
<svg version="1.1" id="Layer_1" xmlns="http://www.w3.org/2000/svg" xmlns:xlink="http://www.w3.org/1999/xlink" x="0px" y="0px"
	 viewBox="0 0 32 32" style="enable-background:new 0 0 32 32;" xml:space="preserve">
<style type="text/css">
	.st0{fill:#00BBD4;}
	.st1{fill:#FFFFFF;}
</style>
<g id="eshop_single_app" transform="translate(0 -1)">
	<path id="back" class="st0" d="M4,1h24c2.2,0,4,1.8,4,4v24c0,2.2-1.8,4-4,4H4c-2.2,0-4-1.8-4-4V5C0,2.8,1.8,1,4,1z"/>
	<g id="Group_19" transform="translate(2194.433 -1364.455)">
		<path id="Path_5852-2" class="st1" d="M-2189.9,1387.8c0,0.2,0.2,0.4,0.4,0.6c0.2,0.1,0.5,0.2,0.7,0.2c0.2,0,0.4,0,0.6-0.1
			c0.2,0,0.5-0.1,0.7-0.2c0.1,0.2,0.2,0.4,0.2,0.6c0.1,0.2,0.1,0.5,0.1,0.7c-0.6,0.2-1.1,0.3-1.7,0.3c-0.4,0-0.8-0.1-1.2-0.2
			c-0.3-0.1-0.6-0.3-0.8-0.5c-0.2-0.2-0.4-0.5-0.5-0.8c-0.1-0.3-0.2-0.7-0.1-1c0-0.3,0-0.7,0.2-1c0.1-0.3,0.3-0.6,0.5-0.8
			c0.2-0.2,0.5-0.4,0.8-0.6c0.3-0.1,0.7-0.2,1.1-0.2c0.3,0,0.6,0.1,0.9,0.2c0.3,0.1,0.5,0.3,0.7,0.5c0.2,0.2,0.3,0.5,0.4,0.7
			c0.1,0.3,0.2,0.6,0.1,0.9c0,0.2,0,0.3,0,0.5c0,0.1,0,0.3,0,0.3L-2189.9,1387.8z M-2189.1,1385.9c-0.2,0-0.4,0.1-0.5,0.2
			c-0.2,0.2-0.3,0.4-0.3,0.6h1.5c0-0.2-0.1-0.4-0.2-0.6C-2188.7,1386-2188.9,1385.9-2189.1,1385.9L-2189.1,1385.9z M-2183.4,1385.6
			c0.3,0.1,0.5,0.2,0.7,0.3c0.2,0.1,0.4,0.2,0.6,0.4c0.2,0.2,0.3,0.4,0.4,0.6c0.1,0.3,0.1,0.5,0.1,0.8c0,0.3-0.1,0.6-0.2,0.9
			c-0.1,0.3-0.3,0.5-0.5,0.7c-0.2,0.2-0.5,0.4-0.8,0.4c-0.4,0.1-0.8,0.2-1.2,0.2c-0.4,0-0.7,0-1-0.1c-0.3-0.1-0.7-0.2-1-0.3
			c0-0.2,0.1-0.5,0.1-0.7c0.1-0.3,0.1-0.5,0.2-0.8c0.5,0.2,1,0.4,1.5,0.4c0.3,0,0.5,0,0.8-0.1c0.2-0.1,0.3-0.3,0.3-0.5
			c0-0.1,0-0.2-0.1-0.3c0-0.1-0.1-0.1-0.2-0.2c-0.1-0.1-0.1-0.1-0.2-0.1c-0.1,0-0.2-0.1-0.2-0.1l-0.5-0.2c-0.2-0.1-0.4-0.2-0.6-0.3
			c-0.2-0.1-0.3-0.2-0.5-0.4c-0.1-0.2-0.2-0.3-0.3-0.5c-0.1-0.2-0.1-0.5-0.1-0.7c0-0.3,0.1-0.6,0.2-0.9c0.1-0.3,0.3-0.5,0.5-0.7
			c0.2-0.2,0.5-0.3,0.8-0.4c0.3-0.1,0.7-0.1,1-0.1c0.3,0,0.6,0,0.9,0.1c0.3,0.1,0.7,0.2,1,0.3c0,0.2-0.1,0.5-0.1,0.7
			c-0.1,0.2-0.1,0.5-0.3,0.7c-0.2-0.1-0.4-0.1-0.6-0.2c-0.3-0.1-0.6-0.1-0.8-0.1c-0.1,0-0.2,0-0.3,0c-0.1,0-0.2,0-0.2,0.1
			c-0.1,0-0.1,0.1-0.2,0.2c0,0.1-0.1,0.2-0.1,0.3c0,0.2,0.1,0.3,0.2,0.4c0.1,0.1,0.3,0.2,0.4,0.2L-2183.4,1385.6z M-2177.7,1388
			h-1.4v1.8c-0.2,0-0.3,0-0.4,0.1c-0.1,0-0.3,0-0.4,0c-0.1,0-0.2,0-0.4,0s-0.3,0-0.4-0.1v-4.9c0.1,0,0.3-0.1,0.4-0.1
			c0.1,0,0.3,0,0.4,0s0.3,0,0.4,0c0.1,0,0.3,0,0.4,0.1v1.7h1.4v-1.7c0.1,0,0.3-0.1,0.4-0.1c0.1,0,0.3,0,0.4,0c0.1,0,0.3,0,0.4,0
			c0.1,0,0.3,0,0.4,0.1v4.9c-0.2,0-0.3,0-0.4,0.1c-0.1,0-0.3,0-0.4,0s-0.2,0-0.4,0s-0.3,0-0.4-0.1L-2177.7,1388z M-2175.3,1387.3
			c0-0.4,0-0.7,0.2-1.1c0.1-0.3,0.3-0.6,0.5-0.8c0.2-0.2,0.5-0.4,0.8-0.5c0.3-0.1,0.7-0.2,1.1-0.2c0.4,0,0.7,0.1,1.1,0.2
			c0.3,0.1,0.6,0.3,0.8,0.5c0.2,0.2,0.4,0.5,0.5,0.8c0.1,0.3,0.2,0.7,0.2,1.1c0,0.4,0,0.7-0.2,1c-0.1,0.3-0.3,0.6-0.5,0.8
			c-0.2,0.2-0.5,0.4-0.8,0.5c-0.3,0.1-0.7,0.2-1.1,0.2c-0.4,0-0.7-0.1-1.1-0.2c-0.3-0.1-0.6-0.3-0.8-0.5c-0.2-0.2-0.4-0.5-0.5-0.8
			C-2175.2,1388.1-2175.3,1387.7-2175.3,1387.3L-2175.3,1387.3z M-2172,1387.3c0-0.3-0.1-0.7-0.2-0.9c-0.1-0.2-0.4-0.3-0.6-0.3
			c-0.3,0-0.5,0.1-0.6,0.3c-0.2,0.3-0.2,0.6-0.2,0.9c0,0.3,0.1,0.6,0.2,0.9c0.1,0.2,0.4,0.3,0.6,0.3c0.3,0,0.5-0.1,0.6-0.3
			C-2172,1388-2171.9,1387.7-2172,1387.3z M-2167.9,1387.4c0,0,0.1,0,0.1,0c0,0,0.1,0,0.1,0c0.2,0,0.4-0.1,0.6-0.2
			c0.2-0.1,0.2-0.4,0.2-0.6c0-0.2-0.1-0.4-0.2-0.5c-0.1-0.1-0.3-0.2-0.5-0.2h-0.1c0,0-0.1,0-0.1,0L-2167.9,1387.4z M-2169.5,1384.9
			c0.3,0,0.6-0.1,0.9-0.1c0.3,0,0.6,0,0.9,0c0.3,0,0.6,0,0.9,0.1c0.3,0.1,0.5,0.2,0.8,0.3c0.2,0.1,0.4,0.4,0.5,0.6
			c0.1,0.3,0.2,0.6,0.2,1c0,0.3-0.1,0.6-0.2,0.9c-0.1,0.2-0.3,0.4-0.5,0.6c-0.2,0.2-0.4,0.3-0.7,0.3c-0.3,0.1-0.5,0.1-0.8,0.1
			c-0.1,0-0.2,0-0.3,0c0,0-0.1,0-0.1,0v1.2c-0.1,0-0.3,0-0.4,0.1c-0.1,0-0.2,0-0.4,0s-0.2,0-0.3,0c-0.1,0-0.3,0-0.4-0.1
			L-2169.5,1384.9z"/>
		<path id="Path_5826-2" class="st1" d="M-2175.1,1381.2c-0.5,0-0.9-0.2-1.1-0.6l-3.6-6.4c-0.1-0.2-0.3-0.3-0.6-0.4l-1.8-0.2
			c-0.1,0-0.2-0.1-0.2-0.3v0c0-0.1,0.1-0.2,0.3-0.2l0,0l1.8,0.2c0.4,0,0.8,0.3,1,0.6l3.6,6.4c0.1,0.2,0.4,0.4,0.7,0.4l4.6-0.3
			c0.1,0,0.3,0.1,0.3,0.2l0,0v0c0,0.1-0.1,0.3-0.2,0.3c0,0,0,0,0,0L-2175.1,1381.2C-2175,1381.2-2175.1,1381.2-2175.1,1381.2z"/>
		<path id="Path_5828-2" class="st1" d="M-2169.3,1374.9h-8c-0.2,0-0.3,0.1-0.3,0.3l0,0c0,0,0,0.1,0,0.1l2.2,4.3
			c0.1,0.2,0.3,0.3,0.5,0.3l4.4-0.1c0.3,0,0.5-0.2,0.6-0.5l1.2-3.4c0.1-0.4-0.1-0.8-0.5-1
			C-2169.2,1374.9-2169.2,1374.9-2169.3,1374.9z M-2170,1378.3c-0.3,0.3-0.5,0.6-0.9,0.8c-0.2,0.1-0.4,0.2-0.7,0.2
			c-0.4,0-0.7-0.3-0.9-0.7c0,0,0-0.1,0-0.1c0-0.1-0.2-0.1-0.2,0c-0.1,0-0.2,0-0.4,0c-0.1,0-0.1,0-0.2,0c0,0-0.1-0.1-0.1,0
			c0,0,0,0,0.1,0c0.3,0,0.5,0,0.8,0c0-0.2,0-0.3,0.1-0.5c0.1-0.2,0.3-0.4,0.4-0.6c0.2-0.2,0.4-0.4,0.6-0.5c0.1-0.1,0.2-0.1,0.3-0.2
			c0.1-0.1,0.3-0.1,0.4-0.1c0.1,0,0.2,0.1,0.3,0.1c0.1,0,0.1,0.1,0.1,0.1c0,0,0.1,0.1,0.1,0.2c0,0,0,0.1,0,0.1
			c0,0.2-0.1,0.4-0.3,0.6c-0.1,0.2-0.3,0.4-0.5,0.5c-0.2,0.1-0.4,0.2-0.5,0.4c-0.2,0.1-0.4,0.2-0.6,0.3c-0.1,0,0,0.1,0,0.2
			c0,0.1,0.1,0.1,0.2,0.1c0.2,0.1,0.4,0.1,0.6,0c0.2,0,0.4-0.1,0.5-0.2c0.2-0.1,0.4-0.2,0.5-0.3c0.1-0.1,0.2-0.1,0.2-0.2
			c0.1-0.1,0.2-0.1,0.2-0.2c0,0.1-0.1,0.1-0.1,0.2C-2169.9,1378.2-2169.9,1378.3-2170,1378.3z"/>
		<ellipse id="Ellipse_475-2" class="st1" cx="-2174.8" cy="1382.5" rx="0.6" ry="0.7"/>
		
			<ellipse id="Ellipse_476-2" transform="matrix(9.900861e-02 -0.9951 0.9951 9.900861e-02 -3331.366 -915.0698)" class="st1" cx="-2171" cy="1382.1" rx="0.7" ry="0.6"/>
	</g>
</g>
<path class="st1" d="M23.9,11.5c0,0-1.2,0.7-1.4,1.3l0,0.1C22.5,12.9,23.6,12.6,23.9,11.5z"/>
</svg>
