<svg width="197" height="40" viewBox="0 0 197 40" fill="none" xmlns="http://www.w3.org/2000/svg">
<g clip-path="url(#clip0_774_142)">
<path d="M135.79 3.8018L135.04 8.7528H130.451V8.7588H124.844V8.7528H117.895C117.887 8.6628 117.878 8.5728 117.867 8.4818C117.751 7.49227 117.452 6.55089 116.997 5.7328C116.511 4.89714 115.864 4.23186 115.118 3.7998L135.79 3.8018Z" fill="white"/>
<path d="M124.066 10.5562L121.392 28.1561H126.996L129.669 10.5562H124.066Z" fill="white"/>
<path d="M76.396 18.8972L74.2732 3.80322H68.525L72.629 28.1652L76.396 18.8972Z" fill="white"/>
<path d="M88.6952 16.9862L86.4395 3.80322H82.5159L72.6251 28.1492V28.1652H77.271L82.9147 13.9882L85.1048 25.8132L88.6952 16.9862Z" fill="white"/>
<path d="M95.5219 3.80322L85.6199 28.1652H90.1622L100.42 3.80322H95.5219Z" fill="white"/>
<path d="M110.712 18.6762C111.027 18.5828 111.337 18.4652 111.641 18.3242C112.532 17.9223 113.353 17.3078 114.06 16.5142C115.233 15.1881 116.031 13.4136 116.332 11.4612C116.471 10.5756 116.489 9.66662 116.386 8.77324C116.281 7.89388 116.015 7.05782 115.608 6.33224C115.129 5.51991 114.483 4.88852 113.74 4.50624C112.766 4.00387 111.72 3.7654 110.669 3.80624H96.8796L96.1287 8.73324H95.9554L100.616 8.73824H106.837V8.75624H107.416C108.769 8.75624 109.718 8.68824 110.177 9.11924C110.636 9.55024 110.777 10.3402 110.601 11.5002C110.527 12.1492 110.318 12.7618 109.995 13.2752C109.671 13.7126 109.245 14.0079 108.779 14.1182C108.059 14.2934 107.327 14.3702 106.594 14.3472H105.384L105.96 10.5592H100.343L97.6692 28.1592H103.287L104.675 19.0232H105.732L108.45 28.1592H113.804L110.712 18.6762Z" fill="white"/>
<path d="M154.393 24.5598C154.089 24.7717 153.75 24.888 153.404 24.8988C153.251 24.9051 153.1 24.8679 152.96 24.79C152.821 24.7121 152.697 24.5955 152.598 24.4488C152.491 24.2642 152.419 24.0509 152.388 23.8253C152.357 23.5998 152.368 23.3682 152.419 23.1488C152.477 22.7609 152.6 22.393 152.779 22.0695C152.957 21.746 153.189 21.4744 153.457 21.2728C153.967 20.8824 154.5 20.5408 155.05 20.2508L155.466 17.5088L155.15 17.6368C154.801 17.7761 154.288 17.9795 153.609 18.2468C152.617 18.6196 151.645 19.0711 150.698 19.5988C149.991 19.9972 149.352 20.5666 148.817 21.2748C148.293 21.9995 147.946 22.8998 147.817 23.8678C147.711 24.5335 147.727 25.2209 147.863 25.8778C148.014 26.5552 148.364 27.134 148.841 27.4958C149.509 27.9715 150.27 28.1944 151.035 28.1378C151.903 28.1353 152.759 27.8746 153.533 27.3768C153.706 27.2611 153.871 27.1273 154.026 26.9768L154.393 24.5598Z" fill="white"/>
<path d="M160.566 24.3151C160.492 24.3187 160.418 24.3002 160.35 24.2612C160.282 24.2222 160.222 24.1637 160.175 24.0904C160.129 24.0171 160.096 23.931 160.08 23.839C160.064 23.7469 160.065 23.6514 160.084 23.5601L161.244 15.9151C161.398 15.2268 161.402 14.4991 161.257 13.8079C161.112 13.1168 160.823 12.4876 160.419 11.9861C159.642 11.0671 158.53 10.5941 155.874 10.5621V10.5571H151.685L151.1 14.4031H155.172C155.82 14.4601 156.239 14.6781 156.397 15.0811C156.591 15.6973 156.622 16.3758 156.486 17.0161H156.482L156.072 19.7161H156.075L155.463 23.7351H155.458L155.154 25.7351C155.089 26.0084 155.075 26.2968 155.112 26.5782C155.149 26.8595 155.237 27.1263 155.368 27.3581C155.5 27.5899 155.672 27.7804 155.871 27.9151C156.07 28.0498 156.291 28.1251 156.516 28.1351H157.275H158.048H162.867L163.448 24.3081L160.566 24.3151Z" fill="white"/>
<path d="M187.591 16.6452C187.505 15.5388 187.226 14.4704 186.774 13.5172C186.311 12.5687 185.644 11.8058 184.852 11.3172C183.927 10.7728 182.916 10.5078 181.897 10.5432C180.908 10.5395 179.927 10.7589 178.999 11.1912C178.173 11.5859 177.403 12.1486 176.72 12.8572C176.295 12.2122 175.767 11.6872 175.171 11.3162C174.247 10.7716 173.235 10.5066 172.215 10.5422C171.227 10.5386 170.246 10.7581 169.318 11.1902C168.362 11.6434 167.482 12.319 166.723 13.1822C165.942 14.0629 165.289 15.1081 164.791 16.2712C164.274 17.4577 163.91 18.7403 163.711 20.0712C163.69 20.2072 163.67 20.3482 163.657 20.4512L162.487 28.1512H166.877L168.171 19.6352C168.302 18.7214 168.686 17.8962 169.254 17.306C169.821 16.7158 170.536 16.3988 171.271 16.4112C171.58 16.3796 171.89 16.4366 172.18 16.5782C172.469 16.7197 172.729 16.942 172.941 17.2285C173.152 17.515 173.31 17.8583 173.402 18.2326C173.494 18.6069 173.517 19.0027 173.471 19.3902L172.139 28.1512H176.57L177.769 20.2592C177.807 20.0112 177.838 19.7802 177.863 19.5592C178.003 18.6596 178.389 17.8508 178.953 17.2744C179.517 16.698 180.223 16.3907 180.949 16.4062C181.258 16.3746 181.569 16.4316 181.858 16.5732C182.147 16.7147 182.407 16.937 182.619 17.2235C182.83 17.51 182.988 17.8533 183.08 18.2276C183.172 18.6019 183.195 18.9977 183.149 19.3852L181.818 28.1462H186.249L187.429 20.3882C187.646 19.1604 187.701 17.8956 187.591 16.6452Z" fill="white"/>
<path d="M132.665 20.9078H137.449H146.587L146.772 19.6948C147.116 17.9505 147.061 16.1182 146.613 14.4118C146.253 13.1525 145.54 12.104 144.609 11.4649C143.699 10.8619 142.685 10.5527 141.658 10.5648C140.176 10.5284 138.706 10.9172 137.359 11.7018C136.159 12.409 135.119 13.4872 134.336 14.8368C133.569 16.185 133.046 17.7298 132.804 19.3618C132.728 19.7984 132.681 20.2423 132.664 20.6888C132.661 20.7628 132.665 20.8308 132.665 20.9078ZM138.782 15.2828C139.33 14.6309 140.057 14.2725 140.81 14.2828C141.13 14.2433 141.452 14.3141 141.742 14.4878C142.033 14.6614 142.28 14.9313 142.459 15.2689C142.792 16.0812 142.873 17.0223 142.684 17.9058H137.668C137.8 16.9014 138.191 15.9802 138.78 15.2858L138.782 15.2828Z" fill="white"/>
<path d="M137.693 22.2158H132.683C132.705 22.4668 132.724 22.7158 132.762 22.9618C132.925 23.9905 133.3 24.9466 133.849 25.7338C134.418 26.5354 135.135 27.1469 135.937 27.5138C136.85 27.9481 137.819 28.1602 138.795 28.1388C138.902 28.1388 139.009 28.1388 139.111 28.1328H141.154L141.827 23.7058H139.788C139.367 23.7012 138.955 23.5621 138.589 23.3016C138.222 23.041 137.914 22.6675 137.693 22.2158Z" fill="white"/>
<path d="M58.4442 0L50.453 34.492C50.3475 34.9013 50.2451 35.2893 50.146 35.656C49.4339 38.356 48.9861 39.865 47.8824 39.999H35.8473L40.6982 19.056L41.1689 17.026L45.1123 0H58.4442Z" fill="url(#paint0_linear_774_142)"/>
<path d="M50.1484 35.5921C49.4363 38.3301 48.9885 39.8642 47.8848 40.0002H46.1781L45.2405 38.9572L40.695 18.7412L40.6768 18.6582L41.1658 16.6812L41.2093 16.8612C41.2505 17.0325 41.2919 17.2035 41.3335 17.3742C41.3984 17.6408 41.4638 17.9075 41.5297 18.1741C41.6162 18.5248 41.7031 18.8755 41.7901 19.2262C41.8956 19.6455 42.001 20.0652 42.1065 20.4852C42.2263 20.9605 42.3465 21.4352 42.4673 21.9092C42.5992 22.4252 42.7311 22.9412 42.8629 23.4572C43.0043 23.9998 43.1475 24.5425 43.2926 25.0852C43.4403 25.6425 43.589 26.1991 43.7388 26.7551C43.8886 27.3111 44.041 27.8678 44.1961 28.4252C44.3475 28.9678 44.5008 29.5105 44.6558 30.0531C44.8041 30.5685 44.9554 31.0822 45.11 31.5942C45.2529 32.0675 45.3988 32.5395 45.5475 33.0101C45.6815 33.4281 45.8194 33.8438 45.9613 34.2572C46.0832 34.6062 46.209 34.9571 46.3435 35.2941C46.4862 35.7192 46.6808 36.1134 46.9203 36.4621C47.1502 36.7558 47.4427 36.9587 47.7621 37.0462C47.9363 37.0898 48.1153 37.0942 48.2907 37.0592C48.5403 37.0076 48.7811 36.9024 49.0027 36.7482C49.4304 36.4415 49.8171 36.0513 50.1484 35.5921Z" fill="url(#paint1_linear_774_142)"/>
<path d="M51.7119 29.506L58.4435 0H45.2445C45.6987 9.466 47.8421 20.972 51.7119 29.506Z" fill="url(#paint2_linear_774_142)"/>
<path d="M47.8428 40H34.5094C33.2268 39.849 32.7861 37.842 31.8762 34.255C31.8525 34.162 30.6198 28.87 29.2225 22.869L28.383 19.269C26.8006 12.469 25.272 5.901 25.2317 5.751C24.3186 2.157 23.8803 0.151 22.5969 0H35.8892C36.8553 0.113 37.3419 1.274 37.9108 3.367C38.0991 4.058 38.2961 4.851 38.5216 5.743C38.6007 6.054 45.1298 33.943 45.2097 34.251C46.1188 37.841 46.5595 39.848 47.8428 40Z" fill="url(#paint3_linear_774_142)"/>
<path d="M36.9692 33.0421C35.6685 27.0661 32.1318 20.3691 28.7059 20.3691C30.3002 27.3191 31.847 34.0621 31.8707 34.1691C32.783 37.8111 33.2221 39.8471 34.5046 40.0011H40.5305C39.0802 39.3191 37.6125 35.9951 36.9692 33.0421Z" fill="url(#paint4_linear_774_142)"/>
<path d="M37.9092 3.419C37.8933 3.37437 37.8753 3.33097 37.8554 3.289C37.6753 2.9114 37.4116 2.60884 37.0969 2.41883C36.7821 2.22881 36.4302 2.15968 36.0846 2.22C35.7524 2.24997 35.4382 2.42209 35.1937 2.708C34.9697 3.00713 34.7861 3.3507 34.6502 3.725L34.6154 3.81C34.2356 4.742 33.9033 5.702 33.5868 6.674C33.2703 7.646 32.9879 8.64 32.7022 9.63C32.1484 11.555 31.6294 13.495 31.1301 15.443C30.6976 17.1223 30.2772 18.807 29.8689 20.497C29.6579 21.371 29.4491 22.247 29.2423 23.125L29.2217 23.213L28.1488 24.538C28.0982 24.538 28.2627 21.573 28.3806 19.555C28.4415 18.513 28.4883 17.724 28.4883 17.724L31.3746 5.832L33.5662 1.332L34.4927 0H35.8876C36.8521 0.115 37.3403 1.294 37.9092 3.419Z" fill="url(#paint5_linear_774_142)"/>
<path d="M22.5969 40H10.5595C9.47156 39.872 9.01978 38.4 8.32589 35.772C8.2204 35.372 8.10804 34.946 7.98884 34.494L0 0H13.3327L17.2484 16.9L17.3631 17.4L22.5969 40Z" fill="url(#paint6_linear_774_142)"/>
<path d="M17.7064 18.6582L17.6882 18.7412L13.1427 38.9582L12.2052 40.0012H10.5602C9.47233 39.8712 9.02055 38.3732 8.32666 35.7092C8.63584 36.1218 8.99246 36.473 9.3845 36.7512C9.60607 36.9055 9.84692 37.0107 10.0966 37.0622C10.2723 37.0973 10.4514 37.0929 10.6259 37.0492C10.9451 36.9617 11.2373 36.7588 11.467 36.4652C11.7066 36.1166 11.9013 35.7224 12.0438 35.2972C12.1783 34.9582 12.3041 34.6092 12.4259 34.2602C12.5689 33.8469 12.7071 33.4312 12.8405 33.0132C12.9908 32.5432 13.1369 32.0712 13.2788 31.5972C13.4334 31.0852 13.5845 30.5715 13.7322 30.0562C13.8904 29.5135 14.0437 28.9709 14.1919 28.4282C14.3501 27.8722 17.2618 16.7522 17.2776 16.6792L17.3638 17.0572L17.7064 18.6582Z" fill="url(#paint7_linear_774_142)"/>
<path d="M7.50145 32.873C8.28488 23.1225 10.6738 13.687 14.5147 5.173L13.3327 0H0L7.50145 32.873Z" fill="url(#paint8_linear_774_142)"/>
<path d="M33.2133 5.745C33.1342 6.056 26.6234 34.045 26.5672 34.254C25.6549 37.842 25.2166 39.848 23.9332 39.999H10.6022C11.8847 39.848 12.3254 37.842 13.2361 34.254C13.3152 33.943 19.8443 6.054 19.9234 5.745C20.8357 2.159 21.274 0.152 22.5573 0H35.8496C34.5647 0.151 34.1256 2.158 33.2133 5.745Z" fill="url(#paint9_linear_774_142)"/>
<path d="M16.9398 40C18.576 36.14 19.8981 32.1 21.4061 28.151C23.1214 23.6921 25.2211 19.4863 27.667 15.61C29.1623 13.2648 30.7666 11.0338 32.4712 8.929C32.9143 7.029 33.1991 5.809 33.2157 5.746C34.1256 2.158 34.5647 0.151 35.8496 0H22.5573C21.274 0.151 20.8341 2.158 19.9234 5.745C19.8443 6.056 13.3152 33.945 13.2361 34.254C12.3239 37.842 11.8847 39.848 10.6022 39.999L16.9398 40Z" fill="url(#paint10_linear_774_142)"/>
<path d="M74.3016 35.1789L75.6222 32.0579H75.9616L74.4583 35.5579V37.7579H74.1339V35.5849L72.6259 32.0579H72.9866L74.3016 35.1789ZM83.4274 34.9019C83.4612 35.6764 83.2702 36.4398 82.8902 37.0489C82.7063 37.3129 82.4775 37.5211 82.2211 37.6579C81.9646 37.7947 81.6871 37.8566 81.4091 37.8389C81.1315 37.8563 80.8545 37.7943 80.5986 37.6575C80.3427 37.5207 80.1145 37.3127 79.9311 37.0489C79.5506 36.437 79.3597 35.6709 79.3939 34.8939C79.3591 34.1195 79.5521 33.3562 79.9358 32.7509C80.1209 32.4897 80.3497 32.2839 80.6057 32.1486C80.8617 32.0133 81.1383 31.9519 81.4154 31.9689C81.6927 31.9509 81.9696 32.0122 82.2255 32.1483C82.4814 32.2844 82.7097 32.4917 82.8934 32.7549C83.272 33.3647 83.4619 34.128 83.4274 34.9019ZM79.7364 34.9019C79.7025 35.5774 79.8552 36.2469 80.1684 36.7959C80.32 37.0214 80.511 37.1992 80.7264 37.3153C80.9417 37.4314 81.1754 37.4826 81.4091 37.4649C81.6431 37.4834 81.8773 37.4332 82.0933 37.3182C82.3094 37.2031 82.5014 37.0264 82.6544 36.8019C82.968 36.2509 83.1202 35.5792 83.0848 34.9019C83.1204 34.2277 82.9681 33.559 82.6544 33.0119C82.5017 32.7895 82.3104 32.6146 82.0956 32.5006C81.8807 32.3867 81.648 32.3368 81.4154 32.3549C81.182 32.3377 80.9486 32.3886 80.7332 32.5035C80.5178 32.6185 80.3262 32.7945 80.1732 33.0179C79.8568 33.5614 79.7021 34.2285 79.7364 34.9019ZM90.8134 32.0579V35.7479C90.8261 36.0296 90.7927 36.3115 90.7151 36.576C90.6374 36.8405 90.5174 37.0819 90.3624 37.2849C90.1924 37.4778 89.9938 37.626 89.7781 37.7211C89.5624 37.8162 89.334 37.8563 89.1059 37.8389C88.8828 37.8556 88.6593 37.8149 88.4489 37.7194C88.2385 37.6238 88.0456 37.4753 87.8819 37.2829C87.7297 37.0752 87.6122 36.8307 87.5366 36.5642C87.461 36.2977 87.4288 36.0146 87.442 35.7319V32.0579H87.7585V35.7479C87.7474 35.9811 87.7736 36.2148 87.8355 36.4349C87.8975 36.655 87.9941 36.8571 88.1193 37.0289C88.2562 37.1885 88.4174 37.3114 88.5929 37.3901C88.7685 37.4688 88.9548 37.5018 89.1408 37.4869C89.3229 37.5014 89.5056 37.4689 89.6775 37.3914C89.8494 37.3139 90.0071 37.1929 90.1408 37.0359C90.2636 36.8685 90.3584 36.6715 90.4194 36.4567C90.4805 36.2419 90.5066 36.0138 90.4961 35.7859V32.0569L90.8134 32.0579ZM95.3905 35.2759V37.7609H95.074V32.0609H96.1477C96.5839 32.0186 97.0192 32.1561 97.3883 32.4529C97.5248 32.5949 97.6325 32.7761 97.7023 32.9813C97.772 33.1866 97.8019 33.41 97.7895 33.6329C97.7987 33.9798 97.7151 34.3205 97.5521 34.5999C97.3656 34.8845 97.11 35.0835 96.825 35.1659L98.0506 37.7659H97.6739L96.5101 35.2809L95.3905 35.2759ZM95.3905 34.9329H96.2514C96.5673 34.9577 96.8803 34.844 97.1375 34.6109C97.2451 34.4946 97.3298 34.3482 97.3848 34.1833C97.4397 34.0183 97.4634 33.8395 97.454 33.6609C97.4664 33.4832 97.4448 33.3044 97.3911 33.1394C97.3374 32.9744 97.2531 32.8282 97.1454 32.7129C96.8431 32.482 96.4911 32.3771 96.139 32.4129H95.3921L95.3905 34.9329ZM110.136 37.7609H109.877L108.886 33.3609C108.804 32.9996 108.742 32.7032 108.701 32.4719C108.668 32.6979 108.622 32.9579 108.561 33.2519C108.5 33.5459 108.169 35.0489 107.566 37.7609H107.301L106.06 32.0609H106.39L107.181 35.7349C107.212 35.8829 107.241 36.0202 107.267 36.1469C107.294 36.2736 107.318 36.3919 107.34 36.5019C107.362 36.6126 107.381 36.7192 107.399 36.8219C107.416 36.9246 107.432 37.0279 107.446 37.1319C107.496 36.7786 107.601 36.2416 107.763 35.5209L108.534 32.0609H108.883L109.787 36.0319C109.893 36.4899 109.968 36.8592 110.013 37.1399C110.04 36.9526 110.074 36.7526 110.116 36.5399C110.159 36.3272 110.475 34.8332 111.066 32.0579H111.382L110.136 37.7609ZM119.006 34.9019C119.039 35.6764 118.848 36.4398 118.468 37.0489C118.285 37.3129 118.056 37.5211 117.799 37.6579C117.543 37.7947 117.265 37.8566 116.987 37.8389C116.71 37.8563 116.433 37.7943 116.177 37.6575C115.921 37.5207 115.693 37.3127 115.509 37.0489C115.129 36.437 114.938 35.6709 114.972 34.8939C114.937 34.1195 115.13 33.3562 115.514 32.7509C115.699 32.4897 115.928 32.2839 116.184 32.1486C116.44 32.0133 116.717 31.9519 116.994 31.9689C117.271 31.9509 117.548 32.0122 117.804 32.1483C118.06 32.2844 118.288 32.4917 118.472 32.7549C118.851 33.3642 119.042 34.1275 119.009 34.9019H119.006ZM115.315 34.9019C115.281 35.5774 115.433 36.2469 115.747 36.7959C115.898 37.0214 116.089 37.1992 116.305 37.3153C116.52 37.4314 116.754 37.4826 116.987 37.4649C117.221 37.4834 117.456 37.4332 117.672 37.3182C117.888 37.2031 118.08 37.0264 118.233 36.8019C118.546 36.2509 118.698 35.5792 118.663 34.9019C118.699 34.2277 118.546 33.559 118.233 33.0119C118.08 32.7895 117.889 32.6145 117.674 32.5005C117.459 32.3866 117.226 32.3368 116.994 32.3549C116.76 32.3377 116.527 32.3886 116.311 32.5035C116.096 32.6185 115.904 32.7945 115.751 33.0179C115.436 33.5619 115.283 34.229 115.318 34.9019H115.315ZM123.391 35.2759V37.7609H123.075V32.0609H124.149C124.585 32.0186 125.02 32.1561 125.389 32.4529C125.526 32.5949 125.633 32.7761 125.703 32.9813C125.773 33.1866 125.803 33.41 125.79 33.6329C125.8 33.9798 125.716 34.3205 125.553 34.5999C125.366 34.8845 125.111 35.0834 124.826 35.1659L126.051 37.7659H125.675L124.511 35.2809L123.391 35.2759ZM123.391 34.9329H124.252C124.568 34.9575 124.881 34.8438 125.138 34.6109C125.245 34.4946 125.33 34.3482 125.385 34.1833C125.44 34.0183 125.464 33.8395 125.454 33.6609C125.466 33.4832 125.445 33.3044 125.391 33.1394C125.337 32.9744 125.253 32.8282 125.146 32.7129C124.843 32.482 124.491 32.3771 124.139 32.4129H123.392L123.391 34.9329ZM132.9 37.7609H132.52L130.789 34.7499L130.187 35.4209V37.7609H129.871V32.0609H130.187V35.0259L130.687 34.3939L132.455 32.0609H132.857L131.008 34.4719L132.9 37.7609ZM143.964 33.6959C143.975 33.9367 143.941 34.1774 143.864 34.3979C143.786 34.6185 143.668 34.8125 143.52 34.9639C143.151 35.285 142.708 35.4403 142.261 35.4049H141.563V37.7609H141.247V32.0609H142.354C143.429 32.0589 143.967 32.6042 143.967 33.6969L143.964 33.6959ZM141.563 35.0609H142.183C142.568 35.1003 142.953 34.9893 143.286 34.7429C143.404 34.6186 143.497 34.4597 143.556 34.2799C143.615 34.1001 143.639 33.9048 143.625 33.7109C143.636 33.5276 143.613 33.3435 143.557 33.1737C143.501 33.0039 143.414 32.8532 143.304 32.7339C143.009 32.4934 142.66 32.3817 142.31 32.4159H141.563V35.0609ZM150.152 35.7479H148.322L147.689 37.7609H147.34L149.155 32.0349H149.356L151.134 37.7609H150.781L150.152 35.7479ZM148.436 35.3849H150.05L149.436 33.3289C149.383 33.1676 149.321 32.9439 149.25 32.6579C149.2 32.8884 149.139 33.1152 149.068 33.3369L148.436 35.3849ZM155.124 35.2719V37.7569H154.807V32.0569H155.881C156.317 32.0146 156.752 32.1521 157.121 32.4489C157.258 32.5909 157.366 32.7721 157.435 32.9773C157.505 33.1826 157.535 33.406 157.523 33.6289C157.532 33.9758 157.448 34.3165 157.285 34.5959C157.099 34.8805 156.843 35.0795 156.558 35.1619L157.784 37.7619H157.407L156.243 35.2769L155.124 35.2719ZM155.124 34.9289H155.984C156.3 34.9535 156.613 34.8398 156.87 34.6069C156.977 34.4906 157.062 34.3442 157.117 34.1793C157.172 34.0143 157.196 33.8355 157.186 33.6569C157.199 33.4792 157.177 33.3003 157.123 33.1354C157.07 32.9704 156.985 32.8241 156.878 32.7089C156.575 32.478 156.223 32.3731 155.871 32.4089H155.124L155.124 34.9289ZM162.775 37.7569H162.458V32.4289H160.992V32.0549H164.242V32.4289H162.775L162.775 37.7569ZM171.225 37.7569H170.908L168.236 32.6939H168.211C168.236 33.2939 168.248 33.7489 168.248 34.0589V37.7589H167.946V32.0589H168.262L170.932 37.1139H170.95C170.932 36.6472 170.922 36.2026 170.922 35.7799V32.0589H171.228L171.225 37.7569ZM178.002 37.7569H175.536V32.0569H178.002V32.4239H175.851V34.5849H177.882V34.9519H175.851V37.3979H178.002V37.7569ZM182.372 35.2719V37.7569H182.056V32.0569H183.129C183.565 32.0146 184.001 32.1521 184.37 32.4489C184.506 32.5909 184.614 32.7721 184.684 32.9773C184.754 33.1826 184.783 33.406 184.771 33.6289C184.78 33.9758 184.697 34.3165 184.534 34.5959C184.347 34.8805 184.092 35.0795 183.807 35.1619L185.032 37.7619H184.655L183.492 35.2769L182.372 35.2719ZM182.372 34.9289H183.237C183.553 34.9537 183.866 34.84 184.123 34.6069C184.231 34.4906 184.315 34.3442 184.37 34.1792C184.425 34.0143 184.449 33.8355 184.439 33.6569C184.452 33.4792 184.43 33.3003 184.377 33.1354C184.323 32.9704 184.239 32.8241 184.131 32.7089C183.829 32.478 183.477 32.3731 183.124 32.4089H182.378L182.372 34.9289Z" fill="white"/>
<path d="M195.646 7.9568C195.645 7.25579 195.424 6.58395 195.032 6.08826C194.64 5.59257 194.108 5.31338 193.553 5.3118C192.999 5.31365 192.467 5.59291 192.075 6.08855C191.683 6.58418 191.462 7.25587 191.461 7.9568C191.461 8.6583 191.681 9.33106 192.074 9.8271C192.466 10.3231 192.998 10.6018 193.553 10.6018C193.828 10.602 194.101 10.5335 194.355 10.4004C194.609 10.2672 194.84 10.0719 195.034 9.8258C195.096 9.74768 195.154 9.66486 195.208 9.5778C195.493 9.11386 195.648 8.54264 195.648 7.9548L195.646 7.9568ZM192.618 9.3128V6.5128H193.757C193.92 6.50498 194.083 6.5279 194.24 6.5808C194.35 6.6251 194.444 6.71455 194.508 6.8348C194.579 6.96831 194.615 7.12637 194.611 7.28681C194.615 7.42302 194.59 7.55823 194.538 7.67777C194.486 7.7973 194.41 7.89657 194.316 7.9648C194.242 8.01643 194.162 8.0532 194.079 8.0738C194.142 8.09634 194.202 8.13 194.258 8.1738C194.298 8.21736 194.334 8.26632 194.365 8.3198C194.401 8.374 194.433 8.43224 194.461 8.4938L194.792 9.3038H194.019L193.654 8.4498C193.624 8.36788 193.582 8.29439 193.53 8.2338C193.481 8.18963 193.423 8.16585 193.363 8.1658H193.303V9.2998H192.621L192.618 9.3128ZM193.305 7.6498H193.593C193.654 7.64413 193.715 7.63141 193.774 7.6118C193.818 7.60128 193.858 7.57025 193.885 7.5248C193.917 7.46991 193.932 7.40206 193.928 7.33396C193.923 7.26585 193.899 7.20216 193.86 7.1548C193.784 7.09571 193.694 7.07007 193.605 7.0818H193.305V7.6498ZM196.216 7.9568C196.216 8.84953 195.935 9.70564 195.436 10.337C194.936 10.9683 194.259 11.3233 193.553 11.3238C192.846 11.3235 192.169 10.9688 191.67 10.3376C191.171 9.70635 190.89 8.85035 190.89 7.9578C190.89 7.5157 190.959 7.07788 191.092 6.66938C191.226 6.26088 191.422 5.88971 191.67 5.5771C191.917 5.26448 192.211 5.01655 192.534 4.84749C192.857 4.67843 193.204 4.59154 193.553 4.5918C193.903 4.5914 194.25 4.67813 194.573 4.84699C194.896 5.01586 195.19 5.26357 195.437 5.57597C195.685 5.88838 195.881 6.25935 196.015 6.66769C196.149 7.07603 196.218 7.51374 196.218 7.9558L196.216 7.9568Z" fill="white"/>
</g>
<defs>
<linearGradient id="paint0_linear_774_142" x1="35.8473" y1="19.9995" x2="58.4442" y2="19.9995" gradientUnits="userSpaceOnUse">
<stop stop-color="#6ABDBD"/>
<stop offset="1" stop-color="#117F7C"/>
</linearGradient>
<linearGradient id="paint1_linear_774_142" x1="40.6768" y1="28.3407" x2="50.1484" y2="28.3407" gradientUnits="userSpaceOnUse">
<stop stop-color="#579D9E"/>
<stop offset="1" stop-color="#00615E"/>
</linearGradient>
<linearGradient id="paint2_linear_774_142" x1="42.7499" y1="20.3001" x2="63.4331" y2="16.2924" gradientUnits="userSpaceOnUse">
<stop stop-color="#6ABDBD"/>
<stop offset="1" stop-color="#117F7C"/>
</linearGradient>
<linearGradient id="paint3_linear_774_142" x1="36.7851" y1="-4.96" x2="30.2275" y2="36.6645" gradientUnits="userSpaceOnUse">
<stop stop-color="#FF0077"/>
<stop offset="1" stop-color="#C60264"/>
</linearGradient>
<linearGradient id="paint4_linear_774_142" x1="167.042" y1="-53.5257" x2="188.409" y2="-53.5257" gradientUnits="userSpaceOnUse">
<stop stop-color="#FF0077"/>
<stop offset="1" stop-color="#C60264"/>
</linearGradient>
<linearGradient id="paint5_linear_774_142" x1="28.1394" y1="12.269" x2="37.9092" y2="12.269" gradientUnits="userSpaceOnUse">
<stop stop-color="#FF0077"/>
<stop offset="1" stop-color="#79003B"/>
</linearGradient>
<linearGradient id="paint6_linear_774_142" x1="0.225969" y1="-8.56" x2="17.3445" y2="5.21836" gradientUnits="userSpaceOnUse">
<stop stop-color="#A7C62A"/>
<stop offset="1" stop-color="#6F8200"/>
</linearGradient>
<linearGradient id="paint7_linear_774_142" x1="13.0728" y1="22.5097" x2="11.5718" y2="43.175" gradientUnits="userSpaceOnUse">
<stop stop-color="#718B32"/>
<stop offset="1" stop-color="#3C4E1F"/>
</linearGradient>
<linearGradient id="paint8_linear_774_142" x1="6.18327" y1="-9.96052" x2="23.1719" y2="28.9195" gradientUnits="userSpaceOnUse">
<stop stop-color="#A7C62A"/>
<stop offset="1" stop-color="#6F8200"/>
</linearGradient>
<linearGradient id="paint9_linear_774_142" x1="20.8526" y1="-9.67976" x2="29.1464" y2="31.6538" gradientUnits="userSpaceOnUse">
<stop stop-color="#FDA037"/>
<stop offset="1" stop-color="#C96400"/>
</linearGradient>
<linearGradient id="paint10_linear_774_142" x1="4.84575" y1="-0.28" x2="71.7315" y2="29.1076" gradientUnits="userSpaceOnUse">
<stop stop-color="#FDA037"/>
<stop offset="1" stop-color="#C96400"/>
</linearGradient>
<clipPath id="clip0_774_142">
<rect width="196.221" height="40" fill="white"/>
</clipPath>
</defs>
</svg>
