<svg xmlns="http://www.w3.org/2000/svg" width="32" height="32" viewBox="0 0 32 32">
  <g id="primeweb" transform="translate(0 -1)">
    <rect id="back" width="32" height="32" rx="4" transform="translate(0 1)" fill="#13123f"/>
    <path id="frame" d="M-479.285,452.222h-24a4,4,0,0,0-4,4v24a4,4,0,0,0,4,4h24a4,4,0,0,0,4-4v-24A4,4,0,0,0-479.285,452.222Zm2.4,27.4a3,3,0,0,1-3,3h-22.8a3,3,0,0,1-3-3v-22.8a3,3,0,0,1,3-3h22.8a3,3,0,0,1,3,3Z" transform="translate(507.285 -451.222)" fill="#13123f"/>
    <path id="Path_243" data-name="Path 243" d="M5890.417-2446.51a11.125,11.125,0,0,1-1.244-1.073l-.14-.14v-7.2c-.007-.125-.01-.252-.01-.391a7.894,7.894,0,0,1,7.885-7.885,7.894,7.894,0,0,1,7.885,7.885,7.894,7.894,0,0,1-7.885,7.885c-.24,0-.482-.011-.717-.032l-.432-.04v-2.162l.527.058a5.906,5.906,0,0,0,.622.033,5.747,5.747,0,0,0,5.741-5.741,5.748,5.748,0,0,0-5.741-5.741,5.752,5.752,0,0,0-5.74,5.71v.031c0,.108,0,.216.01.326v9.036Z" transform="translate(-5880.908 2472.311)" fill="#6a05fe"/>
    <path id="Path_244" data-name="Path 244" d="M5900.921-2451.456a4.73,4.73,0,0,1-3.337,1.479c-.04,0-.079,0-.118,0-.113,0-.225,0-.336-.012h-.025c-.13-.009-.259-.024-.386-.045l-.4-.062v-2.212l.07.015.508.112c.063.015.128.026.192.035a2.593,2.593,0,0,0,.379.027,2.641,2.641,0,0,0,1.93-.844,2.606,2.606,0,0,0,.7-1.719,2.7,2.7,0,0,0-.008-.273,2.591,2.591,0,0,0-.391-1.187h0a2.641,2.641,0,0,0-2.033-1.237c-.068-.005-.136-.008-.2-.008s-.12,0-.179.006a2.669,2.669,0,0,0-2.479,2.429h0v10.831l-.6-.186c-.3-.092-.591-.2-.879-.318q-.186-.075-.366-.158l-.28-.127v-9.843c0-.014,0-.028,0-.042v-.007a4.793,4.793,0,0,1,4.778-4.73c.1,0,.208,0,.31.01a4.748,4.748,0,0,1,.5.06,4.772,4.772,0,0,1,2.593,1.363,4.77,4.77,0,0,1,1.324,2.659c.022.151.036.3.044.458A4.74,4.74,0,0,1,5900.921-2451.456Z" transform="translate(-5881.466 2471.752)" fill="#f37b46"/>
    <path id="Path_245" data-name="Path 245" d="M5907.3-2455.859a10.952,10.952,0,0,1-10.939,10.939c-.235,0-.473-.008-.7-.022l-.446-.029v-2.153l.51.037c.212.015.427.023.639.023a8.805,8.805,0,0,0,8.8-8.795,8.724,8.724,0,0,0-.876-3.824,8.8,8.8,0,0,0-7.919-4.971,8.748,8.748,0,0,0-3.43.7,8.815,8.815,0,0,0-5.365,8.066v6.7l-.892-1.591-.03-.054-.007-.017a10.936,10.936,0,0,1-1.213-4.876q0-.081,0-.163v-.034c0-.036,0-.071,0-.107a10.9,10.9,0,0,1,2.9-7.238,10.911,10.911,0,0,1,8.035-3.527A10.951,10.951,0,0,1,5907.3-2455.859Z" transform="translate(-5880.359 2472.859)" fill="#e035c3"/>
  </g>
</svg>
