<svg width="52" height="44" viewBox="0 0 52 44" fill="none" xmlns="http://www.w3.org/2000/svg">
<path d="M11.5818 43.7602C8.03636 43.7602 5.2 42.4414 3.07273 39.8038C1.02424 37.0863 0 33.8892 0 30.2125C0 27.1753 0.551515 24.3379 1.65455 21.7003C2.75758 19.0627 4.13636 16.6649 5.79091 14.5068C7.52424 12.3488 9.33636 10.4705 11.2273 8.87193C13.197 7.19346 15.0091 5.79473 16.6636 4.67575C18.3182 3.47684 19.6576 2.59764 20.6818 2.03815C21.7848 1.47866 22.297 1.19891 22.2182 1.19891L24.9364 4.91553C24.2273 5.23524 23.2818 5.87466 22.1 6.83379C20.9182 7.71299 19.7364 8.79201 18.5545 10.0708C17.4515 11.3497 16.4667 12.7484 15.6 14.267C14.7333 15.7057 14.3 17.1045 14.3 18.4632C14.3 19.2625 14.7727 20.0618 15.7182 20.861C16.6636 21.5804 17.6879 22.4596 18.7909 23.4986C19.8939 24.4578 20.9182 25.6567 21.8636 27.0954C22.8091 28.4541 23.2818 30.1326 23.2818 32.1308C23.2818 33.8892 22.9273 35.4877 22.2182 36.9264C21.5879 38.3651 20.7212 39.604 19.6182 40.6431C18.5939 41.6022 17.3727 42.3615 15.9545 42.921C14.5364 43.4805 13.0788 43.7602 11.5818 43.7602ZM40.6545 44C38.8424 44 37.1879 43.6004 35.6909 42.8011C34.1939 42.0018 32.8939 40.9228 31.7909 39.564C30.6879 38.2053 29.8212 36.6467 29.1909 34.8883C28.6394 33.05 28.3636 31.0917 28.3636 29.0136C28.3636 24.8574 29.2303 21.0209 30.9636 17.5041C32.7758 13.9074 34.7455 10.8302 36.8727 8.27248C39.3939 5.23524 42.2697 2.47775 45.5 0L48.9273 3.23706C48.2182 3.71662 47.3515 4.47593 46.3273 5.51499C45.3818 6.55404 44.4758 7.79292 43.6091 9.23161C42.8212 10.5904 42.1121 12.0291 41.4818 13.5477C40.9303 15.0663 40.6545 16.545 40.6545 17.9837C40.6545 18.9428 41.2455 19.7421 42.4273 20.3815C43.6091 21.0209 44.9091 21.8202 46.3273 22.7793C47.7455 23.7384 49.0455 24.9773 50.2273 26.4959C51.4091 27.9346 52 29.9728 52 32.6104C52 34.2089 51.6848 35.6876 51.0545 37.0463C50.4242 38.4051 49.5576 39.604 48.4545 40.6431C47.4303 41.6821 46.2091 42.5213 44.7909 43.1608C43.4515 43.7203 42.0727 44 40.6545 44Z" fill="white"/>
</svg>
