<svg xmlns="http://www.w3.org/2000/svg" width="32" height="32" viewBox="0 0 32 32">
  <g id="quiz_android" data-name="quiz android" transform="translate(0 -1)">
    <rect id="back" width="32" height="32" rx="4" transform="translate(0 1)" fill="#fff"/>
    <path id="Intersection_7" data-name="Intersection 7" d="M3440.482-3946.159a3.465,3.465,0,0,1-.708-.232,1.836,1.836,0,0,1-.433-.264,1.979,1.979,0,0,1-.581-.908,2.261,2.261,0,0,1-.074-.527,1.726,1.726,0,0,0-.465-1.193,3.07,3.07,0,0,0-1.583-.581,2.8,2.8,0,0,1-1.352-.423,1.867,1.867,0,0,1-.465-.485,2.005,2.005,0,0,1-.179-1.31c.01-.084.032-.169.053-.264a3.06,3.06,0,0,1,.253-.718,4.877,4.877,0,0,0,.307-.665,1.782,1.782,0,0,0,.084-.528,1.442,1.442,0,0,0-.159-.665,2.155,2.155,0,0,0-1-.886c-.127-.074-.264-.127-.391-.191H3444a4,4,0,0,1,4,4v2.009a8.447,8.447,0,0,1-2.059,1.056,3.969,3.969,0,0,1-1.108.158,1.711,1.711,0,0,0-1.542.856c-.148.274-.318.538-.475.8a2.1,2.1,0,0,1-.888.8,2.3,2.3,0,0,1-.7.211c-.077.006-.155.01-.231.01A2.037,2.037,0,0,1,3440.482-3946.159Z" transform="translate(-3416 3957)" fill="#3fa0e5"/>
    <path id="Intersection_6" data-name="Intersection 6" d="M3420-3924a4,4,0,0,1-4-4v-2.761a2.507,2.507,0,0,1,1.44-.359c.28-.01.55.01.83.02l.41.03a1.552,1.552,0,0,0,.669-.08,1.558,1.558,0,0,0,.571-.451l.02-.03.03-.03c.079-.08.17-.16.26-.25a2.537,2.537,0,0,1,1.29-.58,3.807,3.807,0,0,1,1.5.06,1.412,1.412,0,0,1,1.14,1.47l-.03.15a4.475,4.475,0,0,0,.03.73,1.468,1.468,0,0,0,1.2,1.09c.22.061.44.081.66.13l.089.01.071.021a4.688,4.688,0,0,1,2.009.85,2.207,2.207,0,0,1,.96,2.5,4.73,4.73,0,0,1-.68,1.479Z" transform="translate(-3416 3957)" fill="#3fa0e5"/>
    <g id="Group_12" data-name="Group 12" transform="translate(20.133 3.414)">
      <path id="Path_192" data-name="Path 192" d="M-69.3,1238.372h-.491l-.142-.445h-.712l-.141.445h-.488l.729-2h.535Zm-.737-.791-.215-.673a.872.872,0,0,1-.034-.18H-70.3a.76.76,0,0,1-.035.174l-.218.678Z" transform="translate(71.278 -1236.256)" fill="#fff"/>
      <path id="Path_193" data-name="Path 193" d="M3.368,1255.882h-.44v-.794q0-.332-.237-.332a.235.235,0,0,0-.188.088.335.335,0,0,0-.074.223v.815H1.988v-1.429h.441v.226h.006a.505.505,0,0,1,.459-.261q.475,0,.475.589Z" transform="translate(0.193 -1253.766)" fill="#fff"/>
      <path id="Path_194" data-name="Path 194" d="M58.691,1234.643H58.25v-.2h-.006a.494.494,0,0,1-.442.232.542.542,0,0,1-.431-.189.782.782,0,0,1-.163-.528.852.852,0,0,1,.18-.568.587.587,0,0,1,.472-.214.4.4,0,0,1,.385.2h.006v-.85h.441Zm-.433-.7v-.108a.339.339,0,0,0-.081-.232.286.286,0,0,0-.44.023.533.533,0,0,0-.082.316.462.462,0,0,0,.08.29.282.282,0,0,0,.439-.005A.448.448,0,0,0,58.258,1233.948Z" transform="translate(-53.381 -1232.527)" fill="#fff"/>
      <path id="Path_195" data-name="Path 195" d="M120.435,1255.169a.384.384,0,0,0-.186-.043.267.267,0,0,0-.225.105.459.459,0,0,0-.081.287v.682H119.5v-1.429h.441v.265h.006a.381.381,0,0,1,.377-.29.285.285,0,0,1,.109.017Z" transform="translate(-113.823 -1254.085)" fill="#fff"/>
      <path id="Path_196" data-name="Path 196" d="M155.238,1255.917a.769.769,0,0,1-.562-.2.828.828,0,0,1,.008-1.1.8.8,0,0,1,.574-.2.759.759,0,0,1,.558.2.712.712,0,0,1,.2.53.756.756,0,0,1-.209.563A.777.777,0,0,1,155.238,1255.917Zm.011-1.161a.294.294,0,0,0-.243.107.474.474,0,0,0-.087.3q0,.412.332.412.317,0,.317-.423Q155.569,1254.756,155.249,1254.756Z" transform="translate(-147.75 -1253.766)" fill="#fff"/>
      <path id="Path_197" data-name="Path 197" d="M215.242,1233.215a.258.258,0,0,1-.183-.066.214.214,0,0,1-.071-.163.206.206,0,0,1,.071-.162.3.3,0,0,1,.366,0,.207.207,0,0,1,.07.162.213.213,0,0,1-.07.165A.262.262,0,0,1,215.242,1233.215Zm.218,1.655h-.441v-1.429h.441Z" transform="translate(-206.465 -1232.755)" fill="#fff"/>
      <path id="Path_198" data-name="Path 198" d="M241.925,1234.643h-.441v-.2h-.006a.494.494,0,0,1-.442.232.542.542,0,0,1-.431-.189.782.782,0,0,1-.163-.528.852.852,0,0,1,.18-.568.587.587,0,0,1,.472-.214.4.4,0,0,1,.385.2h.006v-.85h.441Zm-.433-.7v-.108a.339.339,0,0,0-.081-.232.286.286,0,0,0-.44.023.534.534,0,0,0-.082.316.462.462,0,0,0,.08.29.282.282,0,0,0,.439-.005A.448.448,0,0,0,241.492,1233.948Z" transform="translate(-231.16 -1232.527)" fill="#fff"/>
    </g>
    <path id="Path_183" data-name="Path 183" d="M-133.641,1665.238q0,1.47-1.37,1.47-1.329,0-1.329-1.436v-1.884h.737v1.894q0,.792.619.792t.608-.765v-1.921h.735Z" transform="translate(153.28 -1645.709)" fill="#3fa0e5"/>
    <path id="Path_184" data-name="Path 184" d="M-47.832,1666.651h-.735v-3.263h.735Z" transform="translate(68.916 -1645.709)" fill="#3fa0e5"/>
    <path id="Path_185" data-name="Path 185" d="M-15.118,1666.651h-2.628v-.423l1.673-2.242h-1.552v-.6h2.5v.412l-1.636,2.255h1.641Z" transform="translate(39.292 -1645.709)" fill="#3fa0e5"/>
    <path id="Path_186" data-name="Path 186" d="M-133.746,1587.955h-.717v-1.295q0-.542-.387-.542a.384.384,0,0,0-.307.143.547.547,0,0,0-.121.364v1.329H-136v-2.33h.719v.369h.009a.825.825,0,0,1,.749-.426q.774,0,.774.96Z" transform="translate(152.951 -1570.912)" fill="#3e3e40"/>
    <path id="Path_187" data-name="Path 187" d="M-62.68,1561.655H-63.4v-3.45h.719Z" transform="translate(83.172 -1544.611)" fill="#3e3e40"/>
    <path id="Path_188" data-name="Path 188" d="M-30.173,1559.238a.419.419,0,0,1-.3-.108.348.348,0,0,1-.116-.265.336.336,0,0,1,.116-.264.433.433,0,0,1,.3-.1.432.432,0,0,1,.3.1.338.338,0,0,1,.115.264.347.347,0,0,1-.115.269A.428.428,0,0,1-30.173,1559.238Zm.355,2.7h-.719v-2.33h.719Z" transform="translate(51.635 -1544.893)" fill="#3e3e40"/>
    <path id="Path_189" data-name="Path 189" d="M7.055,1587.955H6.338v-1.295q0-.542-.387-.542a.384.384,0,0,0-.307.143.547.547,0,0,0-.121.364v1.329H4.8v-2.33h.719v.369h.009a.824.824,0,0,1,.749-.426q.774,0,.774.96Z" transform="translate(17.618 -1570.912)" fill="#3e3e40"/>
    <path id="Path_190" data-name="Path 190" d="M76.059,1586.995h-1.52q.036.507.639.507a1.249,1.249,0,0,0,.676-.182v.519a1.776,1.776,0,0,1-.84.173,1.085,1.085,0,0,1-1.188-1.186,1.247,1.247,0,0,1,.337-.919,1.122,1.122,0,0,1,.828-.339,1.018,1.018,0,0,1,.789.3,1.166,1.166,0,0,1,.279.822Zm-.667-.442q0-.5-.405-.5a.387.387,0,0,0-.3.144.65.65,0,0,0-.154.357Z" transform="translate(-48.724 -1570.912)" fill="#3e3e40"/>
    <path id="Path_191" data-name="Path 191" d="M-446.648,1488.964a5.754,5.754,0,0,0-5.754,5.754,5.754,5.754,0,0,0,5.754,5.754,5.727,5.727,0,0,0,3.09-.9,5.788,5.788,0,0,0,1.316-1.154,5.731,5.731,0,0,0,1.348-3.7A5.754,5.754,0,0,0-446.648,1488.964Zm1.439,9.605h0a4.118,4.118,0,0,1-1.46.265,4.139,4.139,0,0,1-4.138-4.138,4.139,4.139,0,0,1,4.138-4.139,4.139,4.139,0,0,1,4.139,4.139,4.124,4.124,0,0,1-1.141,2.853A4.138,4.138,0,0,1-445.209,1498.569Z" transform="translate(457.067 -1478.06)" fill="#3e3e40" fill-rule="evenodd"/>
    <path id="Path_199" data-name="Path 199" d="M-282.339,1694.649a.832.832,0,0,1-.433-.122l-4.444-2.7a.835.835,0,0,1-.28-1.147.835.835,0,0,1,1.147-.28l4.444,2.7a.835.835,0,0,1,.28,1.147A.834.834,0,0,1-282.339,1694.649Z" transform="translate(298.683 -1671.554)" fill="#3fa0e5"/>
  </g>
</svg>
