<svg xmlns="http://www.w3.org/2000/svg" width="32" height="32" viewBox="0 0 32 32">
  <g id="Smartkit_pro" data-name="Smartkit pro" transform="translate(0 -1)">
    <rect id="back" width="32" height="32" rx="4" transform="translate(0 1)" fill="#1306a3"/>
    <path id="Intersection_2" data-name="Intersection 2" d="M2879.086-3924v-2.449a3.044,3.044,0,0,1,3.043-3.044H2893V-3928a4,4,0,0,1-4,4Z" transform="translate(-2861 3957)" fill="#fff"/>
    <path id="Path_213" data-name="Path 213" d="M-153.347,130.458v.005l-6.881,4.909a.736.736,0,0,1-.742-.737v-3.361l4.294-3.064a.3.3,0,0,0,.069-.414c-.005-.005-.011-.016-.016-.021l3.112,2.232A.428.428,0,0,1-153.347,130.458Z" transform="translate(168.159 -107.446)" fill="#efefef"/>
    <path id="Path_214" data-name="Path 214" d="M-150.123,121.275a.284.284,0,0,1-.08.08l-3.144,2.242a.428.428,0,0,0-.164-.451l-3.112-2.232a.483.483,0,0,0-.053-.048l-4.294-3.064v-4.628l10.767,7.687A.3.3,0,0,1-150.123,121.275Z" transform="translate(168.159 -100.586)" fill="#fff"/>
    <path id="Path_217" data-name="Path 217" d="M-134.505,101.622v3.361l-4.294,3.064a.3.3,0,0,0-.069.414c.011.011.021.026.032.037l-3.133-2.232a.42.42,0,0,1-.164-.461l6.886-4.92A.74.74,0,0,1-134.505,101.622Z" transform="translate(159.316 -94.811)" fill="#efefef"/>
    <path id="Path_218" data-name="Path 218" d="M-137.387,115.954v4.628l-10.767-7.687a.3.3,0,0,1-.08-.408.3.3,0,0,1,.08-.085l3.138-2.237a.42.42,0,0,0,.164.461l3.133,2.232Z" transform="translate(162.198 -99.172)" fill="#fff"/>
    <path id="Path_210" data-name="Path 210" d="M-136.524,144.248V145.4h-.8V142.11h1.29a1.254,1.254,0,0,1,.895.291,1.031,1.031,0,0,1,.307.785,1.083,1.083,0,0,1-.137.547.955.955,0,0,1-.408.377,1.439,1.439,0,0,1-.657.138Zm.885-1.062q0-.433-.48-.433h-.405v.857h.405Q-135.638,143.61-135.638,143.186Z" transform="translate(158.721 -113.547)" fill="#1306a3"/>
    <path id="Path_211" data-name="Path 211" d="M-128.844,143.809a.982.982,0,0,1,.511-.14v.852h-.229a.786.786,0,0,0-.491.135.542.542,0,0,0-.175.456V146.3h-.8v-2.6h.8v.489A1.13,1.13,0,0,1-128.844,143.809Z" transform="translate(154.543 -114.44)" fill="#1306a3"/>
    <path id="Path_212" data-name="Path 212" d="M-123.011,143.819a1.178,1.178,0,0,1,.48.463,1.4,1.4,0,0,1,.174.708,1.4,1.4,0,0,1-.174.708,1.179,1.179,0,0,1-.48.464,1.464,1.464,0,0,1-.692.161,1.473,1.473,0,0,1-.694-.161,1.175,1.175,0,0,1-.482-.464,1.4,1.4,0,0,1-.175-.708,1.4,1.4,0,0,1,.175-.708,1.173,1.173,0,0,1,.482-.463,1.473,1.473,0,0,1,.694-.161A1.464,1.464,0,0,1-123.011,143.819Zm-1.076.694a.67.67,0,0,0-.156.478.66.66,0,0,0,.156.475.511.511,0,0,0,.384.163.5.5,0,0,0,.382-.163.667.667,0,0,0,.154-.475.677.677,0,0,0-.154-.478.5.5,0,0,0-.382-.165A.507.507,0,0,0-124.087,144.513Z" transform="translate(151.696 -114.434)" fill="#1306a3"/>
  </g>
</svg>
