<svg width="53" height="60" viewBox="0 0 53 60" fill="none" xmlns="http://www.w3.org/2000/svg">
<g clip-path="url(#clip0_31_2680)">
<path d="M52.9412 39.3531C52.9412 41.2943 51.7059 43.7649 49.9412 44.8237L29.2941 58.5884C27.7059 59.6472 25.0588 59.6472 23.4706 58.5884L3 45.0001C1.41176 43.9413 0 41.4707 0 39.5296V20.1178C0 18.1766 1.23529 15.706 3 14.6472L23.6471 0.882497C25.2353 -0.176327 27.8824 -0.176327 29.4706 0.882497L50.1176 14.6472C51.7059 15.706 53.1176 18.1766 53.1176 20.1178V39.3531H52.9412Z" fill="#8360A8"/>
<path d="M26.4707 48.1765C25.2354 48.1765 24.1766 48 23.2943 47.6471C22.5884 47.2941 21.8825 46.7647 21.1766 45.8824L20.6472 45.7059L16.4119 47.6471H16.2354C15.8825 47.6471 15.5296 47.4706 15.3531 47.1177C15.1766 46.7647 15.0001 46.2353 15.1766 45.8824L19.5884 33.5294V28.9412C19.5884 19.7647 24.0001 11.1177 26.8237 11.1177C29.6472 11.1177 34.059 19.7647 34.059 28.9412V33.5294L38.4707 45.8824C38.6472 46.2353 38.4707 46.7647 38.2943 47.1177C38.1178 47.4706 37.7648 47.6471 37.4119 47.6471H37.059L32.8237 45.8824L31.7648 46.0588C31.2354 46.9412 30.5296 47.6471 29.6472 47.8236C28.7648 48 27.706 48.1765 26.4707 48.1765Z" fill="white"/>
<path d="M26.4705 12.0001C28.2352 12.0001 32.8235 19.5883 32.8235 28.9412C32.8235 30.1765 32.8235 31.9412 32.647 33.7059L37.0587 46.2354C37.0587 46.4118 37.0587 46.7648 36.8823 46.7648L32.4705 44.8236L31.4117 45.1765C30.8823 46.0589 30.3529 46.5883 29.647 46.7648C28.9411 47.1177 27.8823 47.1177 26.8235 47.1177C25.7646 47.1177 24.7058 46.9412 23.9999 46.7648C23.294 46.5883 22.7646 45.8824 22.2352 45.1765L21.1764 44.6471L16.7646 46.5883C15.8823 46.7648 15.8823 46.4118 15.8823 46.2354L20.294 33.7059V28.9412C20.1176 19.5883 24.7058 12.0001 26.4705 12.0001ZM26.4705 10.2354C22.4117 10.2354 18.3529 21.0001 18.3529 28.9412V33.353L14.1176 45.5295C13.9411 46.4118 14.1176 47.1177 14.4705 47.6471C14.8235 48.1765 15.5293 48.5295 16.0587 48.5295H16.4117L16.7646 48.353L20.647 46.7648C21.3529 47.6471 22.0587 48.353 22.9411 48.7059C23.8235 49.0589 25.0587 49.2353 26.294 49.2353C27.5293 49.2353 28.7646 49.0589 29.647 48.7059C30.5293 48.353 31.2352 47.8236 31.9411 46.9412L35.8235 48.5295L36.1764 48.7059H36.5293C37.2352 48.7059 37.7646 48.353 38.1176 47.8236C38.4705 47.2942 38.647 46.4118 38.4705 45.8824L34.2352 33.7059V29.2942C34.5882 21.0001 30.5293 10.2354 26.4705 10.2354Z" fill="#8360A8"/>
<path d="M26.4708 30.5295C27.9327 30.5295 29.1178 29.3443 29.1178 27.8824C29.1178 26.4205 27.9327 25.2354 26.4708 25.2354C25.0089 25.2354 23.8237 26.4205 23.8237 27.8824C23.8237 29.3443 25.0089 30.5295 26.4708 30.5295Z" fill="#8360A8"/>
<path d="M29.1178 60.0001V51.7059C29.1178 50.2942 27.8826 49.0589 26.4708 49.0589C25.059 49.0589 23.8237 50.2942 23.8237 51.7059V60.0001H29.1178ZM46.412 57.8824C45.0002 57.8824 44.1178 57.1765 43.5884 55.5883L42.3531 51.353L41.1178 55.5883C40.5884 57.0001 39.7061 57.8824 38.2943 57.8824C36.8826 57.8824 36.0002 57.1765 35.4708 55.5883L32.6473 46.5883C32.4708 46.2354 32.4708 45.8824 32.4708 45.7059C32.4708 44.2942 33.5296 43.2354 34.9414 43.2354C35.6473 43.2354 36.8826 43.5883 37.412 45.353L38.4708 49.4118L39.5296 45.8824C40.059 44.1177 40.9414 43.2354 42.3531 43.2354C43.7649 43.2354 44.6473 44.1177 45.1767 45.8824L46.2355 49.4118L47.2943 45.1765C47.6473 43.9412 48.5296 43.2354 49.5884 43.2354C51.0002 43.2354 51.8826 44.2942 51.8826 45.5295C51.8826 45.8824 51.8826 46.0589 51.7061 46.4118L48.8826 55.4118C48.7061 57.1765 47.6473 57.8824 46.412 57.8824Z" fill="white"/>
<path d="M49.7644 44.2935C50.4702 44.2935 51.1761 44.8229 51.1761 45.7053C51.1761 45.8817 51.1761 46.0582 50.9997 46.4112L48.1761 55.4112C47.6467 56.8229 46.7644 56.9994 46.235 56.9994C45.7055 56.9994 44.8232 56.8229 44.2938 55.4112L42.3526 48.5288L40.2349 55.4112C39.882 56.8229 38.9997 56.9994 38.2938 56.9994C37.5879 56.9994 36.882 56.8229 36.3526 55.4112L33.5291 46.4112C33.5291 46.0582 33.3526 45.8817 33.3526 45.7053C33.3526 44.8229 34.0585 44.117 34.9408 44.117C35.4702 44.117 36.1761 44.2935 36.5291 45.5288L38.4702 52.5876L40.4114 46.0582C40.9408 44.2935 41.8232 44.117 42.3526 44.117C42.882 44.117 43.7644 44.2935 44.2938 46.0582L46.235 52.5876L48.1761 45.5288C48.5291 44.47 49.235 44.2935 49.7644 44.2935ZM49.7644 42.5288C48.1761 42.5288 46.9408 43.5876 46.5879 45.1759L46.235 46.2347L46.0585 45.7053C45.3526 43.0582 43.5879 42.5288 42.3526 42.5288C41.1173 42.5288 39.3526 43.0582 38.6467 45.7053L38.4702 46.2347L38.2938 45.3523C37.7644 43.5876 36.7055 42.5288 34.9408 42.5288C33.1761 42.5288 31.5879 43.9406 31.5879 45.8817C31.5879 46.2347 31.5879 46.5876 31.7644 47.117L34.5879 56.117C35.1173 58.0582 36.5291 58.9406 38.2938 58.9406C40.0585 58.9406 41.2938 57.8817 41.8232 55.9406L42.3526 54.5288L42.882 55.9406C43.4114 57.8817 44.6467 58.7641 46.4114 58.7641C48.1761 58.7641 49.4114 57.7053 49.9408 55.9406L52.7644 46.9406C52.9408 46.4112 52.9408 46.0582 52.9408 45.7053C52.9408 43.9406 51.5291 42.5288 49.7644 42.5288Z" fill="#8360A8"/>
</g>
<defs>
<clipPath id="clip0_31_2680">
<rect width="52.9412" height="60" fill="white"/>
</clipPath>
</defs>
</svg>
