<?xml version="1.0" standalone="no"?>
<svg xmlns="http://www.w3.org/2000/svg" width="2000" height="2000" viewBox="0 0 2000 2000"><defs><clipPath id="clip-path-dot-color"><rect x="112" y="544" width="48.6" height="48.6" transform="rotate(-4.5,133.3,565.3)"/><rect x="112" y="598" width="48.6" height="48.6" transform="rotate(5.625,133.3,619.3)"/><rect x="112" y="652" width="48.6" height="48.6" transform="rotate(10.125,133.3,673.3)"/><rect x="112" y="760" width="48.6" height="48.6" transform="rotate(10.125,133.3,781.3)"/><rect x="112" y="814" width="48.6" height="48.6" transform="rotate(9,133.3,835.3)"/><rect x="112" y="976" width="48.6" height="48.6" transform="rotate(-3.375,133.3,997.3)"/><rect x="112" y="1192" width="48.6" height="48.6" transform="rotate(-10.125,133.3,1213.3)"/><rect x="112" y="1354" width="48.6" height="48.6" transform="rotate(3.375,133.3,1375.3)"/><rect x="112" y="1408" width="48.6" height="48.6" transform="rotate(-10.125,133.3,1429.3)"/><rect x="166" y="544" width="48.6" height="48.6" transform="rotate(9,187.3,565.3)"/><rect x="166" y="760" width="48.6" height="48.6" transform="rotate(11.25,187.3,781.3)"/><rect x="166" y="922" width="48.6" height="48.6" transform="rotate(9,187.3,943.3)"/><rect x="166" y="976" width="48.6" height="48.6" transform="rotate(-10.125,187.3,997.3)"/><rect x="166" y="1030" width="48.6" height="48.6" transform="rotate(-4.5,187.3,1051.3)"/><rect x="166" y="1138" width="48.6" height="48.6" transform="rotate(-4.5,187.3,1159.3)"/><rect x="166" y="1300" width="48.6" height="48.6" transform="rotate(2.25,187.3,1321.3)"/><rect x="166" y="1408" width="48.6" height="48.6" transform="rotate(-3.375,187.3,1429.3)"/><rect x="220" y="544" width="48.6" height="48.6" transform="rotate(6.75,241.3,565.3)"/><rect x="220" y="598" width="48.6" height="48.6" transform="rotate(-3.375,241.3,619.3)"/><rect x="220" y="706" width="48.6" height="48.6" transform="rotate(-4.5,241.3,727.3)"/><rect x="220" y="760" width="48.6" height="48.6" transform="rotate(9,241.3,781.3)"/><rect x="220" y="814" width="48.6" height="48.6" transform="rotate(-11.25,241.3,835.3)"/><rect x="220" y="868" width="48.6" height="48.6" transform="rotate(-6.75,241.3,889.3)"/><rect x="220" y="922" width="48.6" height="48.6" transform="rotate(-6.75,241.3,943.3)"/><rect x="220" y="1192" width="48.6" height="48.6" transform="rotate(-5.625,241.3,1213.3)"/><rect x="220" y="1246" width="48.6" height="48.6" transform="rotate(-9,241.3,1267.3)"/><rect x="220" y="1300" width="48.6" height="48.6" transform="rotate(3.375,241.3,1321.3)"/><rect x="220" y="1354" width="48.6" height="48.6" transform="rotate(-2.25,241.3,1375.3)"/><rect x="220" y="1408" width="48.6" height="48.6" transform="rotate(-4.5,241.3,1429.3)"/><rect x="274" y="922" width="48.6" height="48.6" transform="rotate(-4.5,295.3,943.3)"/><rect x="274" y="976" width="48.6" height="48.6" transform="rotate(5.625,295.3,997.3)"/><rect x="274" y="1354" width="48.6" height="48.6" transform="rotate(-10.125,295.3,1375.3)"/><rect x="328" y="652" width="48.6" height="48.6" transform="rotate(4.5,349.3,673.3)"/><rect x="328" y="814" width="48.6" height="48.6" transform="rotate(10.125,349.3,835.3)"/><rect x="328" y="868" width="48.6" height="48.6" transform="rotate(-4.5,349.3,889.3)"/><rect x="328" y="922" width="48.6" height="48.6" transform="rotate(10.125,349.3,943.3)"/><rect x="328" y="976" width="48.6" height="48.6" transform="rotate(7.875,349.3,997.3)"/><rect x="328" y="1030" width="48.6" height="48.6" transform="rotate(-5.625,349.3,1051.3)"/><rect x="328" y="1138" width="48.6" height="48.6" transform="rotate(-10.125,349.3,1159.3)"/><rect x="328" y="1246" width="48.6" height="48.6" transform="rotate(-5.625,349.3,1267.3)"/><rect x="328" y="1408" width="48.6" height="48.6" transform="rotate(7.875,349.3,1429.3)"/><rect x="382" y="544" width="48.6" height="48.6" transform="rotate(-2.25,403.3,565.3)"/><rect x="382" y="598" width="48.6" height="48.6" transform="rotate(-3.375,403.3,619.3)"/><rect x="382" y="814" width="48.6" height="48.6" transform="rotate(-10.125,403.3,835.3)"/><rect x="382" y="868" width="48.6" height="48.6" transform="rotate(-5.625,403.3,889.3)"/><rect x="382" y="976" width="48.6" height="48.6" transform="rotate(3.375,403.3,997.3)"/><rect x="382" y="1030" width="48.6" height="48.6" transform="rotate(-6.75,403.3,1051.3)"/><rect x="382" y="1138" width="48.6" height="48.6" transform="rotate(5.625,403.3,1159.3)"/><rect x="436" y="544" width="48.6" height="48.6" transform="rotate(-5.625,457.3,565.3)"/><rect x="436" y="652" width="48.6" height="48.6" transform="rotate(-9,457.3,673.3)"/><rect x="436" y="760" width="48.6" height="48.6" transform="rotate(5.625,457.3,781.3)"/><rect x="436" y="868" width="48.6" height="48.6" transform="rotate(3.375,457.3,889.3)"/><rect x="436" y="976" width="48.6" height="48.6" transform="rotate(3.375,457.3,997.3)"/><rect x="436" y="1084" width="48.6" height="48.6" transform="rotate(5.625,457.3,1105.3)"/><rect x="436" y="1192" width="48.6" height="48.6" transform="rotate(9,457.3,1213.3)"/><rect x="436" y="1300" width="48.6" height="48.6" transform="rotate(7.875,457.3,1321.3)"/><rect x="436" y="1408" width="48.6" height="48.6" transform="rotate(9,457.3,1429.3)"/><rect x="490" y="544" width="48.6" height="48.6" transform="rotate(-2.25,511.3,565.3)"/><rect x="490" y="598" width="48.6" height="48.6" transform="rotate(10.125,511.3,619.3)"/><rect x="490" y="652" width="48.6" height="48.6" transform="rotate(-9,511.3,673.3)"/><rect x="490" y="706" width="48.6" height="48.6" transform="rotate(-10.125,511.3,727.3)"/><rect x="490" y="868" width="48.6" height="48.6" transform="rotate(5.625,511.3,889.3)"/><rect x="490" y="922" width="48.6" height="48.6" transform="rotate(-5.625,511.3,943.3)"/><rect x="490" y="1030" width="48.6" height="48.6" transform="rotate(5.625,511.3,1051.3)"/><rect x="490" y="1084" width="48.6" height="48.6" transform="rotate(-10.125,511.3,1105.3)"/><rect x="490" y="1138" width="48.6" height="48.6" transform="rotate(-2.25,511.3,1159.3)"/><rect x="490" y="1192" width="48.6" height="48.6" transform="rotate(2.25,511.3,1213.3)"/><rect x="490" y="1246" width="48.6" height="48.6" transform="rotate(-2.25,511.3,1267.3)"/><rect x="490" y="1300" width="48.6" height="48.6" transform="rotate(7.875,511.3,1321.3)"/><rect x="490" y="1408" width="48.6" height="48.6" transform="rotate(11.25,511.3,1429.3)"/><rect x="544" y="220" width="48.6" height="48.6" transform="rotate(6.75,565.3,241.3)"/><rect x="544" y="274" width="48.6" height="48.6" transform="rotate(-4.5,565.3,295.3)"/><rect x="544" y="328" width="48.6" height="48.6" transform="rotate(-6.75,565.3,349.3)"/><rect x="544" y="436" width="48.6" height="48.6" transform="rotate(-5.625,565.3,457.3)"/><rect x="544" y="544" width="48.6" height="48.6" transform="rotate(-3.375,565.3,565.3)"/><rect x="544" y="652" width="48.6" height="48.6" transform="rotate(6.75,565.3,673.3)"/><rect x="544" y="706" width="48.6" height="48.6" transform="rotate(-6.75,565.3,727.3)"/><rect x="544" y="814" width="48.6" height="48.6" transform="rotate(4.5,565.3,835.3)"/><rect x="544" y="868" width="48.6" height="48.6" transform="rotate(-3.375,565.3,889.3)"/><rect x="544" y="1192" width="48.6" height="48.6" transform="rotate(-11.25,565.3,1213.3)"/><rect x="544" y="1300" width="48.6" height="48.6" transform="rotate(6.75,565.3,1321.3)"/><rect x="544" y="1408" width="48.6" height="48.6" transform="rotate(-10.125,565.3,1429.3)"/><rect x="544" y="1462" width="48.6" height="48.6" transform="rotate(3.375,565.3,1483.3)"/><rect x="544" y="1516" width="48.6" height="48.6" transform="rotate(3.375,565.3,1537.3)"/><rect x="544" y="1570" width="48.6" height="48.6" transform="rotate(-5.625,565.3,1591.3)"/><rect x="544" y="1732" width="48.6" height="48.6" transform="rotate(11.25,565.3,1753.3)"/><rect x="544" y="1786" width="48.6" height="48.6" transform="rotate(5.625,565.3,1807.3)"/><rect x="544" y="1840" width="48.6" height="48.6" transform="rotate(2.25,565.3,1861.3)"/><rect x="598" y="112" width="48.6" height="48.6" transform="rotate(5.625,619.3,133.3)"/><rect x="598" y="220" width="48.6" height="48.6" transform="rotate(-3.375,619.3,241.3)"/><rect x="598" y="274" width="48.6" height="48.6" transform="rotate(-4.5,619.3,295.3)"/><rect x="598" y="328" width="48.6" height="48.6" transform="rotate(-3.375,619.3,349.3)"/><rect x="598" y="382" width="48.6" height="48.6" transform="rotate(-3.375,619.3,403.3)"/><rect x="598" y="598" width="48.6" height="48.6" transform="rotate(-10.125,619.3,619.3)"/><rect x="598" y="652" width="48.6" height="48.6" transform="rotate(-5.625,619.3,673.3)"/><rect x="598" y="814" width="48.6" height="48.6" transform="rotate(-9,619.3,835.3)"/><rect x="598" y="922" width="48.6" height="48.6" transform="rotate(-2.25,619.3,943.3)"/><rect x="598" y="976" width="48.6" height="48.6" transform="rotate(-11.25,619.3,997.3)"/><rect x="598" y="1138" width="48.6" height="48.6" transform="rotate(11.25,619.3,1159.3)"/><rect x="598" y="1300" width="48.6" height="48.6" transform="rotate(-7.875,619.3,1321.3)"/><rect x="598" y="1462" width="48.6" height="48.6" transform="rotate(-9,619.3,1483.3)"/><rect x="598" y="1516" width="48.6" height="48.6" transform="rotate(-5.625,619.3,1537.3)"/><rect x="598" y="1786" width="48.6" height="48.6" transform="rotate(-9,619.3,1807.3)"/><rect x="598" y="1840" width="48.6" height="48.6" transform="rotate(-5.625,619.3,1861.3)"/><rect x="652" y="274" width="48.6" height="48.6" transform="rotate(-3.375,673.3,295.3)"/><rect x="652" y="382" width="48.6" height="48.6" transform="rotate(-9,673.3,403.3)"/><rect x="652" y="436" width="48.6" height="48.6" transform="rotate(-9,673.3,457.3)"/><rect x="652" y="490" width="48.6" height="48.6" transform="rotate(-9,673.3,511.3)"/><rect x="652" y="544" width="48.6" height="48.6" transform="rotate(6.75,673.3,565.3)"/><rect x="652" y="598" width="48.6" height="48.6" transform="rotate(-5.625,673.3,619.3)"/><rect x="652" y="652" width="48.6" height="48.6" transform="rotate(6.75,673.3,673.3)"/><rect x="652" y="1300" width="48.6" height="48.6" transform="rotate(-11.25,673.3,1321.3)"/><rect x="652" y="1516" width="48.6" height="48.6" transform="rotate(2.25,673.3,1537.3)"/><rect x="652" y="1570" width="48.6" height="48.6" transform="rotate(4.5,673.3,1591.3)"/><rect x="652" y="1678" width="48.6" height="48.6" transform="rotate(-5.625,673.3,1699.3)"/><rect x="652" y="1732" width="48.6" height="48.6" transform="rotate(-11.25,673.3,1753.3)"/><rect x="652" y="1786" width="48.6" height="48.6" transform="rotate(10.125,673.3,1807.3)"/><rect x="706" y="166" width="48.6" height="48.6" transform="rotate(3.375,727.3,187.3)"/><rect x="706" y="274" width="48.6" height="48.6" transform="rotate(-6.75,727.3,295.3)"/><rect x="706" y="382" width="48.6" height="48.6" transform="rotate(-2.25,727.3,403.3)"/><rect x="706" y="490" width="48.6" height="48.6" transform="rotate(-10.125,727.3,511.3)"/><rect x="706" y="652" width="48.6" height="48.6" transform="rotate(-6.75,727.3,673.3)"/><rect x="706" y="706" width="48.6" height="48.6" transform="rotate(5.625,727.3,727.3)"/><rect x="706" y="1408" width="48.6" height="48.6" transform="rotate(4.5,727.3,1429.3)"/><rect x="706" y="1462" width="48.6" height="48.6" transform="rotate(-9,727.3,1483.3)"/><rect x="706" y="1732" width="48.6" height="48.6" transform="rotate(-7.875,727.3,1753.3)"/><rect x="706" y="1786" width="48.6" height="48.6" transform="rotate(3.375,727.3,1807.3)"/><rect x="760" y="274" width="48.6" height="48.6" transform="rotate(5.625,781.3,295.3)"/><rect x="760" y="382" width="48.6" height="48.6" transform="rotate(-5.625,781.3,403.3)"/><rect x="760" y="436" width="48.6" height="48.6" transform="rotate(5.625,781.3,457.3)"/><rect x="760" y="490" width="48.6" height="48.6" transform="rotate(-5.625,781.3,511.3)"/><rect x="760" y="544" width="48.6" height="48.6" transform="rotate(-5.625,781.3,565.3)"/><rect x="760" y="1246" width="48.6" height="48.6" transform="rotate(-9,781.3,1267.3)"/><rect x="760" y="1300" width="48.6" height="48.6" transform="rotate(5.625,781.3,1321.3)"/><rect x="760" y="1408" width="48.6" height="48.6" transform="rotate(5.625,781.3,1429.3)"/><rect x="760" y="1570" width="48.6" height="48.6" transform="rotate(-9,781.3,1591.3)"/><rect x="760" y="1678" width="48.6" height="48.6" transform="rotate(-5.625,781.3,1699.3)"/><rect x="814" y="274" width="48.6" height="48.6" transform="rotate(-10.125,835.3,295.3)"/><rect x="814" y="382" width="48.6" height="48.6" transform="rotate(-10.125,835.3,403.3)"/><rect x="814" y="490" width="48.6" height="48.6" transform="rotate(11.25,835.3,511.3)"/><rect x="814" y="598" width="48.6" height="48.6" transform="rotate(-9,835.3,619.3)"/><rect x="814" y="1354" width="48.6" height="48.6" transform="rotate(-10.125,835.3,1375.3)"/><rect x="814" y="1516" width="48.6" height="48.6" transform="rotate(10.125,835.3,1537.3)"/><rect x="814" y="1624" width="48.6" height="48.6" transform="rotate(3.375,835.3,1645.3)"/><rect x="814" y="1678" width="48.6" height="48.6" transform="rotate(-9,835.3,1699.3)"/><rect x="814" y="1840" width="48.6" height="48.6" transform="rotate(-10.125,835.3,1861.3)"/><rect x="868" y="112" width="48.6" height="48.6" transform="rotate(-11.25,889.3,133.3)"/><rect x="868" y="220" width="48.6" height="48.6" transform="rotate(-6.75,889.3,241.3)"/><rect x="868" y="274" width="48.6" height="48.6" transform="rotate(-3.375,889.3,295.3)"/><rect x="868" y="328" width="48.6" height="48.6" transform="rotate(-4.5,889.3,349.3)"/><rect x="868" y="382" width="48.6" height="48.6" transform="rotate(-5.625,889.3,403.3)"/><rect x="868" y="436" width="48.6" height="48.6" transform="rotate(3.375,889.3,457.3)"/><rect x="868" y="490" width="48.6" height="48.6" transform="rotate(5.625,889.3,511.3)"/><rect x="868" y="598" width="48.6" height="48.6" transform="rotate(11.25,889.3,619.3)"/><rect x="868" y="706" width="48.6" height="48.6" transform="rotate(11.25,889.3,727.3)"/><rect x="868" y="1300" width="48.6" height="48.6" transform="rotate(-7.875,889.3,1321.3)"/><rect x="868" y="1570" width="48.6" height="48.6" transform="rotate(-9,889.3,1591.3)"/><rect x="868" y="1624" width="48.6" height="48.6" transform="rotate(-6.75,889.3,1645.3)"/><rect x="868" y="1786" width="48.6" height="48.6" transform="rotate(3.375,889.3,1807.3)"/><rect x="922" y="112" width="48.6" height="48.6" transform="rotate(2.25,943.3,133.3)"/><rect x="922" y="274" width="48.6" height="48.6" transform="rotate(-4.5,943.3,295.3)"/><rect x="922" y="382" width="48.6" height="48.6" transform="rotate(-10.125,943.3,403.3)"/><rect x="922" y="598" width="48.6" height="48.6" transform="rotate(-2.25,943.3,619.3)"/><rect x="922" y="652" width="48.6" height="48.6" transform="rotate(-2.25,943.3,673.3)"/><rect x="922" y="706" width="48.6" height="48.6" transform="rotate(-5.625,943.3,727.3)"/><rect x="922" y="1246" width="48.6" height="48.6" transform="rotate(10.125,943.3,1267.3)"/><rect x="922" y="1300" width="48.6" height="48.6" transform="rotate(-7.875,943.3,1321.3)"/><rect x="922" y="1408" width="48.6" height="48.6" transform="rotate(-11.25,943.3,1429.3)"/><rect x="922" y="1462" width="48.6" height="48.6" transform="rotate(-2.25,943.3,1483.3)"/><rect x="922" y="1624" width="48.6" height="48.6" transform="rotate(5.625,943.3,1645.3)"/><rect x="922" y="1678" width="48.6" height="48.6" transform="rotate(3.375,943.3,1699.3)"/><rect x="922" y="1840" width="48.6" height="48.6" transform="rotate(5.625,943.3,1861.3)"/><rect x="976" y="112" width="48.6" height="48.6" transform="rotate(-3.375,997.3,133.3)"/><rect x="976" y="166" width="48.6" height="48.6" transform="rotate(-10.125,997.3,187.3)"/><rect x="976" y="328" width="48.6" height="48.6" transform="rotate(7.875,997.3,349.3)"/><rect x="976" y="382" width="48.6" height="48.6" transform="rotate(3.375,997.3,403.3)"/><rect x="976" y="436" width="48.6" height="48.6" transform="rotate(3.375,997.3,457.3)"/><rect x="976" y="598" width="48.6" height="48.6" transform="rotate(-11.25,997.3,619.3)"/><rect x="976" y="706" width="48.6" height="48.6" transform="rotate(-6.75,997.3,727.3)"/><rect x="976" y="1354" width="48.6" height="48.6" transform="rotate(2.25,997.3,1375.3)"/><rect x="976" y="1462" width="48.6" height="48.6" transform="rotate(4.5,997.3,1483.3)"/><rect x="976" y="1732" width="48.6" height="48.6" transform="rotate(-2.25,997.3,1753.3)"/><rect x="976" y="1840" width="48.6" height="48.6" transform="rotate(-4.5,997.3,1861.3)"/><rect x="1030" y="112" width="48.6" height="48.6" transform="rotate(9,1051.3,133.3)"/><rect x="1030" y="166" width="48.6" height="48.6" transform="rotate(-4.5,1051.3,187.3)"/><rect x="1030" y="490" width="48.6" height="48.6" transform="rotate(5.625,1051.3,511.3)"/><rect x="1030" y="544" width="48.6" height="48.6" transform="rotate(-7.875,1051.3,565.3)"/><rect x="1030" y="598" width="48.6" height="48.6" transform="rotate(11.25,1051.3,619.3)"/><rect x="1030" y="652" width="48.6" height="48.6" transform="rotate(6.75,1051.3,673.3)"/><rect x="1030" y="1354" width="48.6" height="48.6" transform="rotate(-9,1051.3,1375.3)"/><rect x="1030" y="1408" width="48.6" height="48.6" transform="rotate(6.75,1051.3,1429.3)"/><rect x="1030" y="1462" width="48.6" height="48.6" transform="rotate(5.625,1051.3,1483.3)"/><rect x="1084" y="220" width="48.6" height="48.6" transform="rotate(-3.375,1105.3,241.3)"/><rect x="1084" y="328" width="48.6" height="48.6" transform="rotate(6.75,1105.3,349.3)"/><rect x="1084" y="436" width="48.6" height="48.6" transform="rotate(5.625,1105.3,457.3)"/><rect x="1084" y="598" width="48.6" height="48.6" transform="rotate(3.375,1105.3,619.3)"/><rect x="1084" y="706" width="48.6" height="48.6" transform="rotate(-10.125,1105.3,727.3)"/><rect x="1084" y="1300" width="48.6" height="48.6" transform="rotate(-4.5,1105.3,1321.3)"/><rect x="1084" y="1570" width="48.6" height="48.6" transform="rotate(-10.125,1105.3,1591.3)"/><rect x="1084" y="1732" width="48.6" height="48.6" transform="rotate(11.25,1105.3,1753.3)"/><rect x="1138" y="112" width="48.6" height="48.6" transform="rotate(10.125,1159.3,133.3)"/><rect x="1138" y="220" width="48.6" height="48.6" transform="rotate(-3.375,1159.3,241.3)"/><rect x="1138" y="382" width="48.6" height="48.6" transform="rotate(5.625,1159.3,403.3)"/><rect x="1138" y="490" width="48.6" height="48.6" transform="rotate(-2.25,1159.3,511.3)"/><rect x="1138" y="544" width="48.6" height="48.6" transform="rotate(11.25,1159.3,565.3)"/><rect x="1138" y="598" width="48.6" height="48.6" transform="rotate(11.25,1159.3,619.3)"/><rect x="1138" y="1246" width="48.6" height="48.6" transform="rotate(10.125,1159.3,1267.3)"/><rect x="1138" y="1300" width="48.6" height="48.6" transform="rotate(6.75,1159.3,1321.3)"/><rect x="1138" y="1354" width="48.6" height="48.6" transform="rotate(3.375,1159.3,1375.3)"/><rect x="1138" y="1408" width="48.6" height="48.6" transform="rotate(-11.25,1159.3,1429.3)"/><rect x="1138" y="1462" width="48.6" height="48.6" transform="rotate(9,1159.3,1483.3)"/><rect x="1138" y="1678" width="48.6" height="48.6" transform="rotate(-4.5,1159.3,1699.3)"/><rect x="1138" y="1732" width="48.6" height="48.6" transform="rotate(2.25,1159.3,1753.3)"/><rect x="1138" y="1786" width="48.6" height="48.6" transform="rotate(-3.375,1159.3,1807.3)"/><rect x="1192" y="112" width="48.6" height="48.6" transform="rotate(-10.125,1213.3,133.3)"/><rect x="1192" y="166" width="48.6" height="48.6" transform="rotate(-11.25,1213.3,187.3)"/><rect x="1192" y="274" width="48.6" height="48.6" transform="rotate(-10.125,1213.3,295.3)"/><rect x="1192" y="382" width="48.6" height="48.6" transform="rotate(4.5,1213.3,403.3)"/><rect x="1192" y="436" width="48.6" height="48.6" transform="rotate(9,1213.3,457.3)"/><rect x="1192" y="598" width="48.6" height="48.6" transform="rotate(-10.125,1213.3,619.3)"/><rect x="1192" y="652" width="48.6" height="48.6" transform="rotate(-7.875,1213.3,673.3)"/><rect x="1192" y="706" width="48.6" height="48.6" transform="rotate(-5.625,1213.3,727.3)"/><rect x="1192" y="1246" width="48.6" height="48.6" transform="rotate(-10.125,1213.3,1267.3)"/><rect x="1192" y="1300" width="48.6" height="48.6" transform="rotate(4.5,1213.3,1321.3)"/><rect x="1192" y="1408" width="48.6" height="48.6" transform="rotate(-3.375,1213.3,1429.3)"/><rect x="1192" y="1624" width="48.6" height="48.6" transform="rotate(-7.875,1213.3,1645.3)"/><rect x="1192" y="1678" width="48.6" height="48.6" transform="rotate(-3.375,1213.3,1699.3)"/><rect x="1192" y="1786" width="48.6" height="48.6" transform="rotate(-11.25,1213.3,1807.3)"/><rect x="1246" y="112" width="48.6" height="48.6" transform="rotate(3.375,1267.3,133.3)"/><rect x="1246" y="382" width="48.6" height="48.6" transform="rotate(-6.75,1267.3,403.3)"/><rect x="1246" y="652" width="48.6" height="48.6" transform="rotate(-6.75,1267.3,673.3)"/><rect x="1246" y="1300" width="48.6" height="48.6" transform="rotate(-10.125,1267.3,1321.3)"/><rect x="1246" y="1462" width="48.6" height="48.6" transform="rotate(10.125,1267.3,1483.3)"/><rect x="1246" y="1732" width="48.6" height="48.6" transform="rotate(-11.25,1267.3,1753.3)"/><rect x="1246" y="1840" width="48.6" height="48.6" transform="rotate(5.625,1267.3,1861.3)"/><rect x="1300" y="112" width="48.6" height="48.6" transform="rotate(9,1321.3,133.3)"/><rect x="1300" y="220" width="48.6" height="48.6" transform="rotate(3.375,1321.3,241.3)"/><rect x="1300" y="274" width="48.6" height="48.6" transform="rotate(-3.375,1321.3,295.3)"/><rect x="1300" y="328" width="48.6" height="48.6" transform="rotate(-5.625,1321.3,349.3)"/><rect x="1300" y="436" width="48.6" height="48.6" transform="rotate(7.875,1321.3,457.3)"/><rect x="1300" y="652" width="48.6" height="48.6" transform="rotate(-11.25,1321.3,673.3)"/><rect x="1300" y="1246" width="48.6" height="48.6" transform="rotate(-10.125,1321.3,1267.3)"/><rect x="1300" y="1354" width="48.6" height="48.6" transform="rotate(2.25,1321.3,1375.3)"/><rect x="1300" y="1408" width="48.6" height="48.6" transform="rotate(-5.625,1321.3,1429.3)"/><rect x="1300" y="1570" width="48.6" height="48.6" transform="rotate(5.625,1321.3,1591.3)"/><rect x="1300" y="1624" width="48.6" height="48.6" transform="rotate(6.75,1321.3,1645.3)"/><rect x="1300" y="1786" width="48.6" height="48.6" transform="rotate(2.25,1321.3,1807.3)"/><rect x="1354" y="112" width="48.6" height="48.6" transform="rotate(3.375,1375.3,133.3)"/><rect x="1354" y="274" width="48.6" height="48.6" transform="rotate(-10.125,1375.3,295.3)"/><rect x="1354" y="328" width="48.6" height="48.6" transform="rotate(5.625,1375.3,349.3)"/><rect x="1354" y="490" width="48.6" height="48.6" transform="rotate(-5.625,1375.3,511.3)"/><rect x="1354" y="598" width="48.6" height="48.6" transform="rotate(-3.375,1375.3,619.3)"/><rect x="1354" y="652" width="48.6" height="48.6" transform="rotate(3.375,1375.3,673.3)"/><rect x="1354" y="760" width="48.6" height="48.6" transform="rotate(-9,1375.3,781.3)"/><rect x="1354" y="868" width="48.6" height="48.6" transform="rotate(-4.5,1375.3,889.3)"/><rect x="1354" y="976" width="48.6" height="48.6" transform="rotate(2.25,1375.3,997.3)"/><rect x="1354" y="1030" width="48.6" height="48.6" transform="rotate(-9,1375.3,1051.3)"/><rect x="1354" y="1084" width="48.6" height="48.6" transform="rotate(-5.625,1375.3,1105.3)"/><rect x="1354" y="1246" width="48.6" height="48.6" transform="rotate(5.625,1375.3,1267.3)"/><rect x="1354" y="1354" width="48.6" height="48.6" transform="rotate(-3.375,1375.3,1375.3)"/><rect x="1354" y="1678" width="48.6" height="48.6" transform="rotate(5.625,1375.3,1699.3)"/><rect x="1354" y="1732" width="48.6" height="48.6" transform="rotate(-9,1375.3,1753.3)"/><rect x="1354" y="1786" width="48.6" height="48.6" transform="rotate(9,1375.3,1807.3)"/><rect x="1408" y="112" width="48.6" height="48.6" transform="rotate(-10.125,1429.3,133.3)"/><rect x="1408" y="220" width="48.6" height="48.6" transform="rotate(-4.5,1429.3,241.3)"/><rect x="1408" y="328" width="48.6" height="48.6" transform="rotate(7.875,1429.3,349.3)"/><rect x="1408" y="382" width="48.6" height="48.6" transform="rotate(11.25,1429.3,403.3)"/><rect x="1408" y="436" width="48.6" height="48.6" transform="rotate(9,1429.3,457.3)"/><rect x="1408" y="544" width="48.6" height="48.6" transform="rotate(-10.125,1429.3,565.3)"/><rect x="1408" y="652" width="48.6" height="48.6" transform="rotate(-6.75,1429.3,673.3)"/><rect x="1408" y="922" width="48.6" height="48.6" transform="rotate(-11.25,1429.3,943.3)"/><rect x="1408" y="1300" width="48.6" height="48.6" transform="rotate(-5.625,1429.3,1321.3)"/><rect x="1408" y="1354" width="48.6" height="48.6" transform="rotate(-4.5,1429.3,1375.3)"/><rect x="1408" y="1408" width="48.6" height="48.6" transform="rotate(7.875,1429.3,1429.3)"/><rect x="1408" y="1462" width="48.6" height="48.6" transform="rotate(-6.75,1429.3,1483.3)"/><rect x="1408" y="1516" width="48.6" height="48.6" transform="rotate(6.75,1429.3,1537.3)"/><rect x="1408" y="1570" width="48.6" height="48.6" transform="rotate(11.25,1429.3,1591.3)"/><rect x="1408" y="1624" width="48.6" height="48.6" transform="rotate(3.375,1429.3,1645.3)"/><rect x="1462" y="544" width="48.6" height="48.6" transform="rotate(3.375,1483.3,565.3)"/><rect x="1462" y="598" width="48.6" height="48.6" transform="rotate(-9,1483.3,619.3)"/><rect x="1462" y="814" width="48.6" height="48.6" transform="rotate(-9,1483.3,835.3)"/><rect x="1462" y="868" width="48.6" height="48.6" transform="rotate(-5.625,1483.3,889.3)"/><rect x="1462" y="922" width="48.6" height="48.6" transform="rotate(-2.25,1483.3,943.3)"/><rect x="1462" y="1084" width="48.6" height="48.6" transform="rotate(6.75,1483.3,1105.3)"/><rect x="1462" y="1138" width="48.6" height="48.6" transform="rotate(9,1483.3,1159.3)"/><rect x="1462" y="1246" width="48.6" height="48.6" transform="rotate(10.125,1483.3,1267.3)"/><rect x="1462" y="1354" width="48.6" height="48.6" transform="rotate(5.625,1483.3,1375.3)"/><rect x="1462" y="1408" width="48.6" height="48.6" transform="rotate(-6.75,1483.3,1429.3)"/><rect x="1462" y="1624" width="48.6" height="48.6" transform="rotate(2.25,1483.3,1645.3)"/><rect x="1462" y="1786" width="48.6" height="48.6" transform="rotate(-10.125,1483.3,1807.3)"/><rect x="1462" y="1840" width="48.6" height="48.6" transform="rotate(-9,1483.3,1861.3)"/><rect x="1516" y="652" width="48.6" height="48.6" transform="rotate(2.25,1537.3,673.3)"/><rect x="1516" y="868" width="48.6" height="48.6" transform="rotate(5.625,1537.3,889.3)"/><rect x="1516" y="1246" width="48.6" height="48.6" transform="rotate(3.375,1537.3,1267.3)"/><rect x="1516" y="1354" width="48.6" height="48.6" transform="rotate(5.625,1537.3,1375.3)"/><rect x="1516" y="1408" width="48.6" height="48.6" transform="rotate(6.75,1537.3,1429.3)"/><rect x="1516" y="1516" width="48.6" height="48.6" transform="rotate(-3.375,1537.3,1537.3)"/><rect x="1516" y="1624" width="48.6" height="48.6" transform="rotate(-5.625,1537.3,1645.3)"/><rect x="1516" y="1732" width="48.6" height="48.6" transform="rotate(10.125,1537.3,1753.3)"/><rect x="1516" y="1786" width="48.6" height="48.6" transform="rotate(-9,1537.3,1807.3)"/><rect x="1570" y="598" width="48.6" height="48.6" transform="rotate(-3.375,1591.3,619.3)"/><rect x="1570" y="652" width="48.6" height="48.6" transform="rotate(4.5,1591.3,673.3)"/><rect x="1570" y="814" width="48.6" height="48.6" transform="rotate(-4.5,1591.3,835.3)"/><rect x="1570" y="868" width="48.6" height="48.6" transform="rotate(-9,1591.3,889.3)"/><rect x="1570" y="1084" width="48.6" height="48.6" transform="rotate(-10.125,1591.3,1105.3)"/><rect x="1570" y="1246" width="48.6" height="48.6" transform="rotate(4.5,1591.3,1267.3)"/><rect x="1570" y="1300" width="48.6" height="48.6" transform="rotate(5.625,1591.3,1321.3)"/><rect x="1570" y="1354" width="48.6" height="48.6" transform="rotate(-11.25,1591.3,1375.3)"/><rect x="1570" y="1408" width="48.6" height="48.6" transform="rotate(11.25,1591.3,1429.3)"/><rect x="1570" y="1624" width="48.6" height="48.6" transform="rotate(6.75,1591.3,1645.3)"/><rect x="1570" y="1678" width="48.6" height="48.6" transform="rotate(-5.625,1591.3,1699.3)"/><rect x="1570" y="1732" width="48.6" height="48.6" transform="rotate(4.5,1591.3,1753.3)"/><rect x="1570" y="1786" width="48.6" height="48.6" transform="rotate(6.75,1591.3,1807.3)"/><rect x="1570" y="1840" width="48.6" height="48.6" transform="rotate(-11.25,1591.3,1861.3)"/><rect x="1624" y="544" width="48.6" height="48.6" transform="rotate(6.75,1645.3,565.3)"/><rect x="1624" y="598" width="48.6" height="48.6" transform="rotate(-9,1645.3,619.3)"/><rect x="1624" y="652" width="48.6" height="48.6" transform="rotate(10.125,1645.3,673.3)"/><rect x="1624" y="868" width="48.6" height="48.6" transform="rotate(-6.75,1645.3,889.3)"/><rect x="1624" y="922" width="48.6" height="48.6" transform="rotate(5.625,1645.3,943.3)"/><rect x="1624" y="1084" width="48.6" height="48.6" transform="rotate(10.125,1645.3,1105.3)"/><rect x="1624" y="1138" width="48.6" height="48.6" transform="rotate(-5.625,1645.3,1159.3)"/><rect x="1624" y="1246" width="48.6" height="48.6" transform="rotate(4.5,1645.3,1267.3)"/><rect x="1624" y="1408" width="48.6" height="48.6" transform="rotate(3.375,1645.3,1429.3)"/><rect x="1624" y="1462" width="48.6" height="48.6" transform="rotate(2.25,1645.3,1483.3)"/><rect x="1624" y="1516" width="48.6" height="48.6" transform="rotate(-5.625,1645.3,1537.3)"/><rect x="1624" y="1570" width="48.6" height="48.6" transform="rotate(6.75,1645.3,1591.3)"/><rect x="1624" y="1624" width="48.6" height="48.6" transform="rotate(-3.375,1645.3,1645.3)"/><rect x="1624" y="1678" width="48.6" height="48.6" transform="rotate(5.625,1645.3,1699.3)"/><rect x="1624" y="1732" width="48.6" height="48.6" transform="rotate(-11.25,1645.3,1753.3)"/><rect x="1624" y="1786" width="48.6" height="48.6" transform="rotate(-2.25,1645.3,1807.3)"/><rect x="1624" y="1840" width="48.6" height="48.6" transform="rotate(-3.375,1645.3,1861.3)"/><rect x="1678" y="544" width="48.6" height="48.6" transform="rotate(-5.625,1699.3,565.3)"/><rect x="1678" y="598" width="48.6" height="48.6" transform="rotate(4.5,1699.3,619.3)"/><rect x="1678" y="652" width="48.6" height="48.6" transform="rotate(-5.625,1699.3,673.3)"/><rect x="1678" y="706" width="48.6" height="48.6" transform="rotate(-4.5,1699.3,727.3)"/><rect x="1678" y="976" width="48.6" height="48.6" transform="rotate(-4.5,1699.3,997.3)"/><rect x="1678" y="1030" width="48.6" height="48.6" transform="rotate(6.75,1699.3,1051.3)"/><rect x="1678" y="1192" width="48.6" height="48.6" transform="rotate(-3.375,1699.3,1213.3)"/><rect x="1678" y="1300" width="48.6" height="48.6" transform="rotate(7.875,1699.3,1321.3)"/><rect x="1678" y="1462" width="48.6" height="48.6" transform="rotate(-5.625,1699.3,1483.3)"/><rect x="1678" y="1624" width="48.6" height="48.6" transform="rotate(5.625,1699.3,1645.3)"/><rect x="1678" y="1732" width="48.6" height="48.6" transform="rotate(11.25,1699.3,1753.3)"/><rect x="1678" y="1786" width="48.6" height="48.6" transform="rotate(-2.25,1699.3,1807.3)"/><rect x="1732" y="544" width="48.6" height="48.6" transform="rotate(11.25,1753.3,565.3)"/><rect x="1732" y="706" width="48.6" height="48.6" transform="rotate(-7.875,1753.3,727.3)"/><rect x="1732" y="760" width="48.6" height="48.6" transform="rotate(10.125,1753.3,781.3)"/><rect x="1732" y="1084" width="48.6" height="48.6" transform="rotate(11.25,1753.3,1105.3)"/><rect x="1732" y="1192" width="48.6" height="48.6" transform="rotate(11.25,1753.3,1213.3)"/><rect x="1732" y="1300" width="48.6" height="48.6" transform="rotate(-6.75,1753.3,1321.3)"/><rect x="1732" y="1354" width="48.6" height="48.6" transform="rotate(-9,1753.3,1375.3)"/><rect x="1732" y="1408" width="48.6" height="48.6" transform="rotate(7.875,1753.3,1429.3)"/><rect x="1732" y="1462" width="48.6" height="48.6" transform="rotate(2.25,1753.3,1483.3)"/><rect x="1732" y="1516" width="48.6" height="48.6" transform="rotate(10.125,1753.3,1537.3)"/><rect x="1732" y="1678" width="48.6" height="48.6" transform="rotate(11.25,1753.3,1699.3)"/><rect x="1732" y="1732" width="48.6" height="48.6" transform="rotate(-6.75,1753.3,1753.3)"/><rect x="1786" y="598" width="48.6" height="48.6" transform="rotate(-9,1807.3,619.3)"/><rect x="1786" y="652" width="48.6" height="48.6" transform="rotate(10.125,1807.3,673.3)"/><rect x="1786" y="814" width="48.6" height="48.6" transform="rotate(9,1807.3,835.3)"/><rect x="1786" y="868" width="48.6" height="48.6" transform="rotate(3.375,1807.3,889.3)"/><rect x="1786" y="922" width="48.6" height="48.6" transform="rotate(2.25,1807.3,943.3)"/><rect x="1786" y="1030" width="48.6" height="48.6" transform="rotate(-3.375,1807.3,1051.3)"/><rect x="1786" y="1462" width="48.6" height="48.6" transform="rotate(-10.125,1807.3,1483.3)"/><rect x="1786" y="1516" width="48.6" height="48.6" transform="rotate(-9,1807.3,1537.3)"/><rect x="1786" y="1570" width="48.6" height="48.6" transform="rotate(6.75,1807.3,1591.3)"/><rect x="1786" y="1732" width="48.6" height="48.6" transform="rotate(-10.125,1807.3,1753.3)"/><rect x="1840" y="598" width="48.6" height="48.6" transform="rotate(-5.625,1861.3,619.3)"/><rect x="1840" y="652" width="48.6" height="48.6" transform="rotate(11.25,1861.3,673.3)"/><rect x="1840" y="706" width="48.6" height="48.6" transform="rotate(-2.25,1861.3,727.3)"/><rect x="1840" y="760" width="48.6" height="48.6" transform="rotate(-7.875,1861.3,781.3)"/><rect x="1840" y="814" width="48.6" height="48.6" transform="rotate(-10.125,1861.3,835.3)"/><rect x="1840" y="1246" width="48.6" height="48.6" transform="rotate(5.625,1861.3,1267.3)"/><rect x="1840" y="1300" width="48.6" height="48.6" transform="rotate(2.25,1861.3,1321.3)"/><rect x="1840" y="1354" width="48.6" height="48.6" transform="rotate(-9,1861.3,1375.3)"/><rect x="1840" y="1408" width="48.6" height="48.6" transform="rotate(-10.125,1861.3,1429.3)"/><rect x="1840" y="1516" width="48.6" height="48.6" transform="rotate(-9,1861.3,1537.3)"/><rect x="1840" y="1678" width="48.6" height="48.6" transform="rotate(11.25,1861.3,1699.3)"/><rect x="1840" y="1732" width="48.6" height="48.6" transform="rotate(-6.75,1861.3,1753.3)"/><rect x="1840" y="1786" width="48.6" height="48.6" transform="rotate(-4.5,1861.3,1807.3)"/></clipPath><clipPath id="clip-path-corners-square-color-0-0"><rect x="112" y="112" width="48.6" height="48.6" transform="rotate(-3.375,133.3,133.3)"/><rect x="112" y="166" width="48.6" height="48.6" transform="rotate(-11.25,133.3,187.3)"/><rect x="112" y="220" width="48.6" height="48.6" transform="rotate(11.25,133.3,241.3)"/><rect x="112" y="274" width="48.6" height="48.6" transform="rotate(9,133.3,295.3)"/><rect x="112" y="328" width="48.6" height="48.6" transform="rotate(11.25,133.3,349.3)"/><rect x="112" y="382" width="48.6" height="48.6" transform="rotate(-3.375,133.3,403.3)"/><rect x="112" y="436" width="48.6" height="48.6" transform="rotate(11.25,133.3,457.3)"/><rect x="166" y="112" width="48.6" height="48.6" transform="rotate(-11.25,187.3,133.3)"/><rect x="166" y="436" width="48.6" height="48.6" transform="rotate(-11.25,187.3,457.3)"/><rect x="220" y="112" width="48.6" height="48.6" transform="rotate(11.25,241.3,133.3)"/><rect x="220" y="436" width="48.6" height="48.6" transform="rotate(3.375,241.3,457.3)"/><rect x="274" y="112" width="48.6" height="48.6" transform="rotate(9,295.3,133.3)"/><rect x="274" y="436" width="48.6" height="48.6" transform="rotate(-5.625,295.3,457.3)"/><rect x="328" y="112" width="48.6" height="48.6" transform="rotate(11.25,349.3,133.3)"/><rect x="328" y="436" width="48.6" height="48.6" transform="rotate(-4.5,349.3,457.3)"/><rect x="382" y="112" width="48.6" height="48.6" transform="rotate(-3.375,403.3,133.3)"/><rect x="382" y="436" width="48.6" height="48.6" transform="rotate(2.25,403.3,457.3)"/><rect x="436" y="112" width="48.6" height="48.6" transform="rotate(11.25,457.3,133.3)"/><rect x="436" y="166" width="48.6" height="48.6" transform="rotate(-11.25,457.3,187.3)"/><rect x="436" y="220" width="48.6" height="48.6" transform="rotate(3.375,457.3,241.3)"/><rect x="436" y="274" width="48.6" height="48.6" transform="rotate(-5.625,457.3,295.3)"/><rect x="436" y="328" width="48.6" height="48.6" transform="rotate(-4.5,457.3,349.3)"/><rect x="436" y="382" width="48.6" height="48.6" transform="rotate(2.25,457.3,403.3)"/><rect x="436" y="436" width="48.6" height="48.6" transform="rotate(-3.375,457.3,457.3)"/></clipPath><clipPath id="clip-path-corners-dot-color-0-0"><rect x="217" y="217" width="162" height="162" transform="rotate(0,298,298)"/></clipPath><clipPath id="clip-path-corners-square-color-1-0"><rect x="1516" y="112" width="48.6" height="48.6" transform="rotate(-11.25,1537.3,133.3)"/><rect x="1516" y="166" width="48.6" height="48.6" transform="rotate(11.25,1537.3,187.3)"/><rect x="1516" y="220" width="48.6" height="48.6" transform="rotate(9,1537.3,241.3)"/><rect x="1516" y="274" width="48.6" height="48.6" transform="rotate(11.25,1537.3,295.3)"/><rect x="1516" y="328" width="48.6" height="48.6" transform="rotate(-3.375,1537.3,349.3)"/><rect x="1516" y="382" width="48.6" height="48.6" transform="rotate(11.25,1537.3,403.3)"/><rect x="1516" y="436" width="48.6" height="48.6" transform="rotate(-4.5,1537.3,457.3)"/><rect x="1570" y="112" width="48.6" height="48.6" transform="rotate(11.25,1591.3,133.3)"/><rect x="1570" y="436" width="48.6" height="48.6" transform="rotate(2.25,1591.3,457.3)"/><rect x="1624" y="112" width="48.6" height="48.6" transform="rotate(9,1645.3,133.3)"/><rect x="1624" y="436" width="48.6" height="48.6" transform="rotate(9,1645.3,457.3)"/><rect x="1678" y="112" width="48.6" height="48.6" transform="rotate(11.25,1699.3,133.3)"/><rect x="1678" y="436" width="48.6" height="48.6" transform="rotate(-3.375,1699.3,457.3)"/><rect x="1732" y="112" width="48.6" height="48.6" transform="rotate(-3.375,1753.3,133.3)"/><rect x="1732" y="436" width="48.6" height="48.6" transform="rotate(-11.25,1753.3,457.3)"/><rect x="1786" y="112" width="48.6" height="48.6" transform="rotate(11.25,1807.3,133.3)"/><rect x="1786" y="436" width="48.6" height="48.6" transform="rotate(-3.375,1807.3,457.3)"/><rect x="1840" y="112" width="48.6" height="48.6" transform="rotate(-4.5,1861.3,133.3)"/><rect x="1840" y="166" width="48.6" height="48.6" transform="rotate(2.25,1861.3,187.3)"/><rect x="1840" y="220" width="48.6" height="48.6" transform="rotate(9,1861.3,241.3)"/><rect x="1840" y="274" width="48.6" height="48.6" transform="rotate(-3.375,1861.3,295.3)"/><rect x="1840" y="328" width="48.6" height="48.6" transform="rotate(-11.25,1861.3,349.3)"/><rect x="1840" y="382" width="48.6" height="48.6" transform="rotate(-3.375,1861.3,403.3)"/><rect x="1840" y="436" width="48.6" height="48.6" transform="rotate(11.25,1861.3,457.3)"/></clipPath><clipPath id="clip-path-corners-dot-color-1-0"><rect x="1621" y="217" width="162" height="162" transform="rotate(90,1702,298)"/></clipPath><clipPath id="clip-path-corners-square-color-0-1"><rect x="112" y="1516" width="48.6" height="48.6" transform="rotate(11.25,133.3,1537.3)"/><rect x="112" y="1570" width="48.6" height="48.6" transform="rotate(9,133.3,1591.3)"/><rect x="112" y="1624" width="48.6" height="48.6" transform="rotate(11.25,133.3,1645.3)"/><rect x="112" y="1678" width="48.6" height="48.6" transform="rotate(-3.375,133.3,1699.3)"/><rect x="112" y="1732" width="48.6" height="48.6" transform="rotate(11.25,133.3,1753.3)"/><rect x="112" y="1786" width="48.6" height="48.6" transform="rotate(-4.5,133.3,1807.3)"/><rect x="112" y="1840" width="48.6" height="48.6" transform="rotate(5.625,133.3,1861.3)"/><rect x="166" y="1516" width="48.6" height="48.6" transform="rotate(9,187.3,1537.3)"/><rect x="166" y="1840" width="48.6" height="48.6" transform="rotate(-3.375,187.3,1861.3)"/><rect x="220" y="1516" width="48.6" height="48.6" transform="rotate(11.25,241.3,1537.3)"/><rect x="220" y="1840" width="48.6" height="48.6" transform="rotate(3.375,241.3,1861.3)"/><rect x="274" y="1516" width="48.6" height="48.6" transform="rotate(-3.375,295.3,1537.3)"/><rect x="274" y="1840" width="48.6" height="48.6" transform="rotate(-6.75,295.3,1861.3)"/><rect x="328" y="1516" width="48.6" height="48.6" transform="rotate(11.25,349.3,1537.3)"/><rect x="328" y="1840" width="48.6" height="48.6" transform="rotate(9,349.3,1861.3)"/><rect x="382" y="1516" width="48.6" height="48.6" transform="rotate(-4.5,403.3,1537.3)"/><rect x="382" y="1840" width="48.6" height="48.6" transform="rotate(-6.75,403.3,1861.3)"/><rect x="436" y="1516" width="48.6" height="48.6" transform="rotate(5.625,457.3,1537.3)"/><rect x="436" y="1570" width="48.6" height="48.6" transform="rotate(-3.375,457.3,1591.3)"/><rect x="436" y="1624" width="48.6" height="48.6" transform="rotate(3.375,457.3,1645.3)"/><rect x="436" y="1678" width="48.6" height="48.6" transform="rotate(-6.75,457.3,1699.3)"/><rect x="436" y="1732" width="48.6" height="48.6" transform="rotate(9,457.3,1753.3)"/><rect x="436" y="1786" width="48.6" height="48.6" transform="rotate(-6.75,457.3,1807.3)"/><rect x="436" y="1840" width="48.6" height="48.6" transform="rotate(5.625,457.3,1861.3)"/></clipPath><clipPath id="clip-path-corners-dot-color-0-1"><rect x="217" y="1621" width="162" height="162" transform="rotate(-90,298,1702)"/></clipPath></defs><rect x="0" y="0" height="2000" width="2000" clip-path="url('#clip-path-background-color')" fill="#ffffff"/><rect x="109" y="109" height="1782" width="1782" clip-path="url('#clip-path-dot-color')" fill="#000000"/><rect x="109" y="109" height="378" width="378" clip-path="url('#clip-path-corners-square-color-0-0')" fill="#000000"/><rect x="217" y="217" height="162" width="162" clip-path="url('#clip-path-corners-dot-color-0-0')" fill="#000000"/><rect x="1513" y="109" height="378" width="378" clip-path="url('#clip-path-corners-square-color-1-0')" fill="#000000"/><rect x="1621" y="217" height="162" width="162" clip-path="url('#clip-path-corners-dot-color-1-0')" fill="#000000"/><rect x="109" y="1513" height="378" width="378" clip-path="url('#clip-path-corners-square-color-0-1')" fill="#000000"/><rect x="217" y="1621" height="162" width="162" clip-path="url('#clip-path-corners-dot-color-0-1')" fill="#000000"/><image href="https://img.qrfy.com/img/large/ae3bb39a-ab08-4854-8615-c583e073c276.webp" x="676" y="757" width="648px" height="486px"/></svg>