<svg width="82" height="82" viewBox="0 0 82 82" fill="none" xmlns="http://www.w3.org/2000/svg">
<rect x="0.179688" y="0.914062" width="80.8383" height="80.8383" rx="10" fill="#0090C2"/>
<mask id="mask0_1226_851" style="mask-type:luminance" maskUnits="userSpaceOnUse" x="0" y="0" width="82" height="82">
<path d="M81.0102 0.921875H0.171875V81.7602H81.0102V0.921875Z" fill="white"/>
</mask>
<g mask="url(#mask0_1226_851)">
<path d="M80.99 39.198C80.8785 33.5088 80.5124 27.8706 79.6427 22.243C79.1891 19.3041 78.5364 16.2788 77.5768 13.4428C76.7699 11.0618 75.5925 8.51828 73.5684 6.91581C72.8532 6.34959 71.9842 5.83054 70.9611 5.35863C69.572 4.7174 68.1337 4.18844 66.6601 3.77681C61.4913 2.33108 56.0789 1.68393 50.7395 1.28692L49.2545 1.19538C43.403 0.827538 37.534 0.830738 31.6828 1.20496C31.1545 1.25296 30.6247 1.28006 30.0934 1.28625C29.9928 1.28737 29.9001 1.33423 29.7894 1.34156C25.7964 1.63812 21.666 2.15316 17.7301 2.98333C16.1235 3.3217 14.5366 3.74777 12.9765 4.2596C11.1453 4.8605 9.31514 5.66185 7.75571 6.80878C7.30465 7.13493 6.89598 7.51607 6.5392 7.94336L6.05896 8.51596C5.94747 8.62981 5.85741 8.76274 5.7931 8.90855L5.34841 9.56424C4.30709 11.3232 3.59459 13.2604 3.03688 15.2364C2.56283 16.9176 2.17071 18.618 1.86054 20.3377C0.954547 25.3606 0.460084 30.5197 0.296835 35.5662C0.252225 36.9413 0.194291 38.2859 0.180443 39.6464C0.123931 45.1368 0.343168 50.66 0.951104 56.1191C0.9782 56.3648 1.04841 56.658 1.0669 56.9397C1.0878 57.2565 1.11889 57.5722 1.16016 57.8868C1.66301 61.7541 2.36368 65.6383 3.63329 69.3356C4.19325 70.9654 4.9023 72.5609 5.88718 73.9568C7.07034 75.6347 8.81057 76.749 10.7333 77.5723C13.8008 78.8859 17.1283 79.6689 20.4105 80.2213C23.8761 80.8051 27.3699 81.2056 30.8776 81.4226C30.9901 81.4324 31.1032 81.4346 31.216 81.4309L31.581 81.4795C32.8992 81.5521 34.2202 81.6397 35.539 81.6831C40.192 81.835 44.8196 81.758 49.4669 81.4922C49.5909 81.481 49.7142 81.463 49.8358 81.4368L50.2699 81.4256C53.8208 81.2048 57.3574 80.7954 60.8647 80.1988C64.2629 79.6195 67.7484 78.8171 70.8922 77.368C72.5538 76.6015 74.1456 75.5572 75.1883 74.1065C75.9556 73.0256 76.5851 71.8535 77.0626 70.6169C78.2797 67.521 79.0424 64.2397 79.5678 60.9651C80.1592 57.2621 80.5559 53.5307 80.7565 49.7862C80.9548 46.1267 81.0559 42.5598 80.99 39.198ZM2.56203 58.1956C2.56348 58.1951 2.56508 58.1951 2.56652 58.1956C2.56737 58.1958 2.56815 58.1961 2.56877 58.1967C2.56655 58.1961 2.56426 58.1957 2.56196 58.1956M3.27618 25.6526C3.27678 25.6526 3.2773 25.6532 3.2779 25.6537C3.2785 25.6542 3.28015 25.6565 3.28127 25.6577L3.27618 25.6526ZM31.1823 81.1359C31.1835 81.1359 31.1846 81.1367 31.1856 81.1367C31.1883 81.1374 31.191 81.1382 31.1931 81.1397C31.1897 81.1382 31.1861 81.1367 31.1824 81.1359M77.8104 56.8934C77.8119 56.8927 77.8141 56.8923 77.8156 56.8922H77.8208C77.8171 56.8924 77.8141 56.8928 77.8104 56.8934ZM77.8246 25.4496C77.8223 25.45 77.8201 25.4502 77.8186 25.4502C77.8223 25.4502 77.8261 25.4496 77.8298 25.4484C77.8276 25.4491 77.8261 25.4495 77.8246 25.4496ZM77.8785 57.771C77.8755 57.7736 77.8725 57.7758 77.8695 57.7778C77.8732 57.7755 77.8762 57.7728 77.8785 57.7699C77.8785 57.7705 77.8785 57.7705 77.8785 57.771Z" fill="#0090C2"/>
<path fill-rule="evenodd" clip-rule="evenodd" d="M53.7869 35.5781V50.3553C51.2641 50.6938 48.7946 51.364 46.4401 52.3494C44.3591 53.2168 42.4196 54.4031 40.6884 55.8672C38.9566 54.4026 37.0161 53.2162 34.934 52.3494C32.5804 51.364 30.112 50.6938 27.5901 50.3553V35.762C27.594 34.8611 27.3044 33.9845 26.7667 33.2702C26.229 32.5559 25.4738 32.0448 24.6202 31.8171H24.5938V53.1071L25.9582 53.237C28.6489 53.4786 31.2887 54.1318 33.7895 55.1745C35.9628 56.0616 37.9494 57.3661 39.6418 59.017L40.7016 60.0721L41.7614 59.017C43.4539 57.3661 45.4405 56.0617 47.6137 55.1745C50.1145 54.1317 52.7546 53.4784 55.4453 53.237L56.8098 53.1071V31.7656H56.7619C55.9158 31.9617 55.1604 32.4458 54.6196 33.1387C54.0789 33.8316 53.7853 34.692 53.7869 35.5781Z" fill="white"/>
<path fill-rule="evenodd" clip-rule="evenodd" d="M19.9184 35.9296H19.9317C20.1289 35.9249 20.3251 35.9603 20.5086 36.0343C20.6922 36.1083 20.8592 36.219 21.0002 36.36C21.1412 36.501 21.2532 36.6693 21.3294 36.8551C21.4057 37.041 21.4446 37.2406 21.4443 37.4421V55.8587C25.2267 55.8814 28.9651 56.6904 32.4313 58.2369C35.626 59.5529 38.5076 61.5523 40.8825 64.1006C43.2109 61.6215 45.9815 59.6196 49.0453 58.2019C52.3787 56.5588 55.9874 55.5781 59.6795 55.312V36.798C59.6786 36.4112 59.8219 36.0384 60.0802 35.7556C60.3385 35.4726 60.6926 35.3007 61.0705 35.2746H61.0837L62.6732 35.1719V58.3426L61.1581 58.3238C57.3985 58.3697 53.696 59.27 50.3195 60.9594C47.1006 62.3386 44.2898 64.5517 42.1648 67.3803L40.9462 69.3883L39.6532 67.4345C37.4928 64.552 34.5909 62.339 31.2709 61.043C27.7548 59.4449 23.9135 58.7351 20.072 58.9732L18.4453 59.1219V35.9672L19.9184 35.9296Z" fill="white"/>
<path fill-rule="evenodd" clip-rule="evenodd" d="M53.9488 23.8874C53.8082 23.7433 53.6183 23.6607 53.4191 23.6574H53.1303C52.9689 22.5299 52.4548 21.4859 51.6649 20.6809C51.1831 20.187 50.6107 19.7952 49.98 19.5281C49.3494 19.2612 48.6731 19.1241 47.9904 19.125C47.3078 19.1243 46.6318 19.2613 46.0012 19.5283C45.3706 19.7954 44.7978 20.1871 44.3159 20.6809C43.5104 21.5008 42.9918 22.5686 42.8402 23.7197C42.4685 23.6305 42.0881 23.5859 41.7063 23.5871C41.3245 23.5881 40.9442 23.6336 40.5724 23.7225C40.4212 22.5706 39.9026 21.5016 39.0968 20.6809C38.6149 20.1871 38.0421 19.7954 37.4115 19.5283C36.7809 19.2613 36.1046 19.1243 35.4219 19.125C34.7393 19.1243 34.0633 19.2613 33.4326 19.5283C32.802 19.7954 32.2292 20.1871 31.7474 20.6809C30.9579 21.4861 30.4441 22.5299 30.2824 23.6574H30.0599C29.8606 23.6605 29.6703 23.743 29.5298 23.8874C29.3881 24.0308 29.3074 24.2251 29.3047 24.4287C29.3054 24.6351 29.3859 24.833 29.5288 24.979C29.6718 25.125 29.8655 25.2072 30.0676 25.2079H30.2901C30.4521 26.3353 30.9661 27.3793 31.7554 28.1845C32.2375 28.6779 32.8101 29.0691 33.4407 29.3356C34.0714 29.6022 34.7475 29.7388 35.43 29.7377C36.1125 29.7388 36.7883 29.6022 37.4189 29.3356C38.0495 29.0691 38.6224 28.6779 39.1045 28.1845C39.9856 27.2864 40.5206 26.0943 40.6119 24.8264C40.9699 24.7188 41.3409 24.6633 41.7141 24.6614C42.0872 24.6611 42.4584 24.7158 42.8162 24.8237C42.9067 26.0927 43.4418 27.2859 44.3236 28.1845C44.8057 28.6779 45.3786 29.0691 46.0093 29.3356C46.6399 29.6022 47.316 29.7388 47.9985 29.7377C48.681 29.7388 49.3569 29.6022 49.9875 29.3356C50.6181 29.0691 51.1909 28.6779 51.673 28.1845C52.4623 27.3793 52.9761 26.3353 53.1381 25.2079H53.4268C53.6307 25.2079 53.8261 25.1253 53.9702 24.9781C54.1143 24.831 54.1953 24.6314 54.1953 24.4232C54.1853 24.2185 54.0968 24.026 53.9488 23.8874ZM38.3364 27.4296C37.5639 28.22 36.5154 28.6647 35.4219 28.6661C34.3284 28.6647 33.2802 28.22 32.5077 27.4296C31.7328 26.6409 31.2963 25.5702 31.2943 24.4529C31.2963 23.3357 31.7328 22.2651 32.5077 21.4765C33.2802 20.6861 34.3284 20.2412 35.4219 20.2398C36.5153 20.2415 37.5637 20.6863 38.3364 21.4765C39.1104 22.2656 39.5456 23.3361 39.547 24.4529C39.5456 25.5698 39.1104 26.6405 38.3364 27.4296ZM50.9046 27.4296C50.1321 28.22 49.084 28.6647 47.9904 28.6661C46.8969 28.6647 45.8488 28.22 45.0762 27.4296C44.3025 26.6403 43.867 25.5698 43.8654 24.4529C43.867 23.3362 44.3025 22.2657 45.0762 21.4765C45.8489 20.6863 46.897 20.2415 47.9904 20.2398C49.084 20.2412 50.1321 20.6861 50.9046 21.4765C51.6785 22.2656 52.1141 23.3361 52.1155 24.4529C52.1148 25.5694 51.6804 26.64 50.9075 27.4296H50.9046Z" fill="white"/>
<path fill-rule="evenodd" clip-rule="evenodd" d="M32.693 24.0496C32.6772 24.1245 32.6326 24.1899 32.5695 24.2316C32.5064 24.2732 32.4298 24.2875 32.3564 24.2714C32.283 24.2551 32.2189 24.2099 32.1782 24.1455C32.1375 24.0811 32.1234 24.0027 32.1391 23.9277C32.2706 23.3247 32.5505 22.7659 32.9525 22.3042C33.3648 21.8263 33.8826 21.4553 34.4627 21.2218C34.4974 21.2083 34.5341 21.2021 34.5711 21.2033C34.6081 21.2044 34.6447 21.2129 34.6785 21.2285C34.7122 21.2441 34.7424 21.2664 34.7677 21.2941C34.793 21.3218 34.8127 21.3541 34.8256 21.3896C34.8388 21.4249 34.8452 21.4626 34.844 21.5004C34.8429 21.5382 34.8344 21.5754 34.8192 21.6099C34.8039 21.6444 34.7818 21.6754 34.7548 21.7012C34.7277 21.727 34.696 21.7471 34.6613 21.7603C34.1663 21.9599 33.7249 22.2771 33.3738 22.6857C33.0368 23.0736 32.8025 23.5431 32.693 24.0496Z" fill="white"/>
<path fill-rule="evenodd" clip-rule="evenodd" d="M45.261 24.0489C45.2452 24.1238 45.2009 24.1893 45.1378 24.2308C45.0747 24.2724 44.9981 24.2867 44.9247 24.2706C44.8884 24.2626 44.8539 24.2474 44.8235 24.2257C44.793 24.2041 44.7671 24.1766 44.7472 24.1447C44.7272 24.1127 44.7137 24.0769 44.7074 24.0396C44.701 24.0022 44.7017 23.9639 44.71 23.9269C44.8413 23.3239 45.1213 22.7651 45.5233 22.3035C45.9354 21.8254 46.4529 21.4543 47.0333 21.221C47.1032 21.1946 47.1807 21.1976 47.2487 21.229C47.3166 21.2604 47.3698 21.3177 47.3965 21.3888C47.4223 21.4603 47.4195 21.5393 47.3887 21.6087C47.358 21.6781 47.3018 21.7323 47.2322 21.7596C46.7361 21.9588 46.2937 22.276 45.9418 22.685C45.6054 23.0733 45.3712 23.5427 45.261 24.0489Z" fill="white"/>
<path d="M23.5137 29.7441H18.4375V13.4219H23.4234C26.7695 13.4219 28.2506 15.2349 28.2506 17.4808C28.2818 18.3677 28.0073 19.2377 27.4748 19.9389C26.9421 20.6402 26.1853 21.1282 25.3364 21.3178C26.263 21.4928 27.0997 21.9955 27.6995 22.7377C28.2993 23.48 28.624 24.4144 28.6164 25.3767C28.6084 27.8148 26.9022 29.7441 23.5137 29.7441ZM23.3546 14.3501H19.4627V20.8443H23.4687C25.9034 20.8443 27.2015 19.5887 27.2015 17.5647C27.1962 15.6759 26.0146 14.3527 23.3494 14.3527L23.3546 14.3501ZM23.3785 21.7453H19.4627V28.8376H23.4367C26.0304 28.8376 27.5805 27.4845 27.5805 25.3036C27.5805 23.1226 25.9909 21.7453 23.3733 21.7453H23.3785Z" fill="white"/>
<path d="M55.2578 13.375H56.23V23.1461L61.2638 17.7207H62.6253L56.9454 23.6738L62.689 29.6944H61.3511L56.2326 24.2015V29.6944H55.2604L55.2578 13.375Z" fill="white"/>
</g>
</svg>
