<svg width="82" height="82" viewBox="0 0 82 82" fill="none" xmlns="http://www.w3.org/2000/svg">
<rect x="0.835938" y="0.421875" width="80.8383" height="80.8383" rx="10" fill="#087C7C"/>
<mask id="mask0_1226_959" style="mask-type:luminance" maskUnits="userSpaceOnUse" x="0" y="0" width="82" height="82">
<path d="M81.6665 0.421875H0.828125V81.2602H81.6665V0.421875Z" fill="white"/>
</mask>
<g mask="url(#mask0_1226_959)">
<path d="M81.6462 38.698C81.5347 33.0088 81.1687 27.3706 80.2989 21.743C79.8453 18.8041 79.1927 15.7788 78.2331 12.9428C77.4262 10.5618 76.2488 8.01828 74.2246 6.41581C73.5095 5.84959 72.6404 5.33054 71.6174 4.85863C70.2283 4.2174 68.79 3.68844 67.3164 3.27681C62.1475 1.83108 56.7352 1.18393 51.3957 0.78692L49.9108 0.695378C44.0593 0.327538 38.1903 0.330738 32.3391 0.704959C31.8108 0.752963 31.281 0.780058 30.7496 0.786246C30.649 0.787369 30.5563 0.834225 30.4456 0.841561C26.4526 1.13812 22.3223 1.65316 18.3864 2.48333C16.7798 2.8217 15.1929 3.24777 13.6328 3.7596C11.8016 4.3605 9.97139 5.16185 8.41196 6.30878C7.9609 6.63493 7.55223 7.01607 7.19545 7.44336L6.71521 8.01596C6.60372 8.12981 6.51366 8.26274 6.44935 8.40855L6.00466 9.06424C4.96334 10.8232 4.25084 12.7604 3.69313 14.7364C3.21908 16.4176 2.82696 18.118 2.51679 19.8377C1.6108 24.8606 1.11633 30.0197 0.953085 35.0662C0.908475 36.4413 0.850541 37.7859 0.836693 39.1464C0.780181 44.6368 0.999418 50.16 1.60735 55.6191C1.63445 55.8648 1.70466 56.158 1.72315 56.4397C1.74405 56.7565 1.77514 57.0722 1.81641 57.3868C2.31926 61.2541 3.01993 65.1383 4.28954 68.8356C4.8495 70.4654 5.55855 72.0609 6.54343 73.4568C7.72659 75.1347 9.46682 76.249 11.3896 77.0723C14.4571 78.3859 17.7846 79.1689 21.0667 79.7213C24.5323 80.3051 28.0262 80.7056 31.5338 80.9226C31.6464 80.9324 31.7594 80.9346 31.8723 80.9309L32.2373 80.9795C33.5554 81.0521 34.8765 81.1397 36.1953 81.1831C40.8483 81.335 45.4758 81.258 50.1231 80.9922C50.2471 80.981 50.3704 80.963 50.4921 80.9368L50.9262 80.9256C54.4771 80.7048 58.0137 80.2954 61.5209 79.6988C64.9192 79.1195 68.4046 78.3171 71.5484 76.868C73.2101 76.1015 74.8019 75.0572 75.8446 73.6065C76.6118 72.5256 77.2413 71.3535 77.7189 70.1169C78.9359 67.021 79.6986 63.7397 80.2241 60.4651C80.8154 56.7621 81.2121 53.0307 81.4127 49.2862C81.6111 45.6267 81.7121 42.0598 81.6462 38.698ZM3.21828 57.6956C3.21973 57.6951 3.22133 57.6951 3.22277 57.6956C3.22362 57.6958 3.2244 57.6961 3.22502 57.6967C3.2228 57.6961 3.22051 57.6957 3.21821 57.6956M3.93243 25.1526C3.93303 25.1526 3.93355 25.1532 3.93415 25.1537C3.93475 25.1542 3.9364 25.1565 3.93752 25.1577L3.93243 25.1526ZM31.8385 80.6359C31.8397 80.6359 31.8409 80.6367 31.8419 80.6367C31.8446 80.6374 31.8472 80.6382 31.8494 80.6397C31.8459 80.6382 31.8423 80.6367 31.8387 80.6359M78.4666 56.3934C78.4681 56.3927 78.4703 56.3923 78.4718 56.3922H78.4771C78.4733 56.3924 78.4703 56.3928 78.4666 56.3934ZM78.4808 24.9496C78.4786 24.95 78.4763 24.9502 78.4748 24.9502C78.4786 24.9502 78.4823 24.9496 78.4861 24.9484C78.4838 24.9491 78.4823 24.9495 78.4808 24.9496ZM78.5347 57.271C78.5317 57.2736 78.5287 57.2758 78.5257 57.2778C78.5295 57.2755 78.5325 57.2728 78.5347 57.2699C78.5347 57.2705 78.5347 57.2705 78.5347 57.271Z" fill="#087C7C"/>
<path d="M68.8509 38.2898L42.6607 14.7884C42.2675 14.451 41.7665 14.2656 41.2485 14.2656C40.7304 14.2656 40.2294 14.451 39.8363 14.7884L31.9672 21.8516V19.4729C31.9665 19.0959 31.8165 18.7346 31.55 18.4681C31.2834 18.2016 30.9221 18.0515 30.5452 18.0508H27.9388C27.5619 18.0516 27.2006 18.2016 26.9342 18.4681C26.6676 18.7346 26.5176 19.0959 26.5169 19.4729V26.7419L13.6452 38.2899C12.8685 38.9881 13.0866 39.5587 14.1285 39.5587H16.6012C17.1039 39.56 17.5857 39.7603 17.9412 40.1158C18.2967 40.4712 18.497 40.953 18.4983 41.4557V65.4812C18.4994 65.9836 18.6994 66.465 19.0543 66.8205C19.4092 67.176 19.8904 67.3766 20.3928 67.3783H62.1042C62.6065 67.3765 63.0878 67.176 63.4427 66.8205C63.7976 66.465 63.9975 65.9835 63.9986 65.4812V41.4552C64 40.9525 64.2003 40.4706 64.5557 40.1152C64.9113 39.7596 65.3931 39.5593 65.8958 39.5581H68.3684C69.4108 39.5581 69.6285 38.9884 68.8517 38.2894L68.8509 38.2898ZM52.0472 55.3766C50.8568 57.1716 49.2321 58.6367 47.3241 59.6359C47.0933 59.7611 46.8571 59.8732 46.6187 59.9789C44.9715 60.719 43.1858 61.1007 41.38 61.0988C34.2079 61.0988 28.5873 55.6507 28.5873 48.6898C28.5873 48.5539 28.5894 48.4155 28.5961 48.2812C28.6191 47.5147 28.7123 46.752 28.8745 46.0026C29.4291 43.415 30.7724 41.0631 32.7194 39.2709C34.6665 37.4786 37.1214 36.3343 39.7458 35.9955C42.3704 35.6566 45.0354 36.14 47.3737 37.3791C49.7121 38.6181 51.6086 40.5517 52.8022 42.9136C52.9264 43.1624 52.9997 43.4336 53.0175 43.7112C53.0352 43.9888 52.9972 44.2671 52.9057 44.5298C52.8137 44.7917 52.6694 45.0324 52.4818 45.2371C52.2941 45.4418 52.0669 45.6064 51.8139 45.7209L51.3025 45.9543L51.1925 46.0019L49.1038 46.947L46.1653 48.2807L39.4271 51.3341L37.9643 51.9987C37.6986 52.1201 37.4101 52.1834 37.1178 52.1844H37.1092C36.7766 52.1829 36.4493 52.1011 36.1552 51.9459C35.861 51.7906 35.6089 51.5665 35.42 51.2928C35.2312 51.019 35.1113 50.7036 35.0707 50.3736C35.03 50.0435 35.0698 49.7084 35.1866 49.3971C35.2624 49.1942 35.3702 49.0048 35.5058 48.8361C35.6904 48.6007 35.9267 48.4108 36.1964 48.2814C36.2181 48.2674 36.2413 48.2558 36.2656 48.2471L37.6291 47.6277L41.2173 46.0031L47.5004 43.1548L47.909 42.9691C46.7687 41.6685 45.2656 40.7384 43.5928 40.298C41.9201 39.8577 40.1539 39.9272 38.521 40.4977C36.8881 41.0682 35.4628 42.1137 34.4282 43.4999C33.3936 44.8861 32.7967 46.5499 32.7144 48.2777C32.7056 48.4137 32.7036 48.552 32.7036 48.6863C32.7036 48.8206 32.7056 48.9606 32.7144 49.0949C32.7831 50.4877 33.208 51.8395 33.9484 53.0212C34.6888 54.2028 35.7199 55.1748 36.9432 55.8441C38.301 56.5943 39.8285 56.9836 41.3797 56.9748C42.7552 56.9763 44.1113 56.65 45.3357 56.023C46.56 55.396 47.6173 54.4864 48.4201 53.3694C48.4869 53.2789 48.5497 53.1837 48.6122 53.091C48.915 52.6352 49.3863 52.3184 49.9227 52.21C50.459 52.1016 51.0164 52.2105 51.4725 52.5128C51.5264 52.5477 51.5783 52.586 51.6277 52.6272C51.8782 52.8278 52.0772 53.0852 52.2083 53.3782C52.3523 53.6969 52.4132 54.047 52.3853 54.3956C52.3574 54.7443 52.2416 55.0802 52.0486 55.372L52.0472 55.3766Z" fill="white"/>
</g>
</svg>
