<svg width="82" height="82" viewBox="0 0 82 82" fill="none" xmlns="http://www.w3.org/2000/svg">
<rect x="0.507812" y="0.914062" width="80.8383" height="80.8383" rx="10" fill="#222E3E"/>
<path d="M81.3181 39.198C81.2066 33.5088 80.8406 27.8706 79.9708 22.243C79.5172 19.3041 78.8645 16.2788 77.9049 13.4428C77.0981 11.0618 75.9207 8.51828 73.8965 6.91581C73.1814 6.34959 72.3123 5.83054 71.2892 5.35863C69.9002 4.7174 68.4618 4.18844 66.9883 3.77681C61.8194 2.33108 56.407 1.68393 51.0676 1.28692L49.5826 1.19538C43.7311 0.827538 37.8621 0.830738 32.0109 1.20496C31.4826 1.25296 30.9528 1.28006 30.4215 1.28625C30.3209 1.28737 30.2282 1.33423 30.1175 1.34156C26.1245 1.63812 21.9942 2.15316 18.0582 2.98333C16.4516 3.3217 14.8647 3.74777 13.3046 4.2596C11.4734 4.8605 9.64326 5.66185 8.08383 6.80878C7.63277 7.13493 7.2241 7.51607 6.86733 7.94336L6.38709 8.51596C6.27559 8.62981 6.18553 8.76274 6.12122 8.90855L5.67653 9.56424C4.63522 11.3232 3.92272 13.2604 3.36501 15.2364C2.89095 16.9176 2.49884 18.618 2.18866 20.3377C1.28267 25.3606 0.788209 30.5197 0.62496 35.5662C0.58035 36.9413 0.522416 38.2859 0.508568 39.6464C0.452056 45.1368 0.671293 50.66 1.27923 56.1191C1.30632 56.3648 1.37653 56.658 1.39502 56.9397C1.41593 57.2565 1.44701 57.5722 1.48829 57.8868C1.99113 61.7541 2.6918 65.6383 3.96141 69.3356C4.52137 70.9654 5.23043 72.5609 6.21531 73.9568C7.39847 75.6347 9.1387 76.749 11.0615 77.5723C14.129 78.8859 17.4564 79.6689 20.7386 80.2213C24.2042 80.8051 27.6981 81.2056 31.2057 81.4226C31.3183 81.4324 31.4313 81.4346 31.5442 81.4309L31.9091 81.4795C33.2273 81.5521 34.5484 81.6397 35.8671 81.6831C40.5201 81.835 45.1477 81.758 49.795 81.4922C49.919 81.481 50.0423 81.463 50.1639 81.4368L50.5981 81.4256C54.149 81.2048 57.6856 80.7954 61.1928 80.1988C64.591 79.6195 68.0765 78.8171 71.2203 77.368C72.882 76.6015 74.4737 75.5572 75.5165 74.1065C76.2837 73.0256 76.9132 71.8535 77.3907 70.6169C78.6078 67.521 79.3705 64.2397 79.896 60.9651C80.4873 57.2621 80.884 53.5307 81.0846 49.7862C81.2829 46.1267 81.384 42.5598 81.3181 39.198ZM2.89016 58.1956C2.8916 58.1951 2.8932 58.1951 2.89465 58.1956C2.89549 58.1958 2.89627 58.1961 2.89689 58.1967C2.89468 58.1961 2.89239 58.1957 2.89008 58.1956M3.6043 25.6526C3.6049 25.6526 3.60543 25.6532 3.60603 25.6537C3.60662 25.6542 3.60827 25.6565 3.60939 25.6577L3.6043 25.6526ZM31.5104 81.1359C31.5116 81.1359 31.5127 81.1367 31.5138 81.1367C31.5165 81.1374 31.5191 81.1382 31.5213 81.1397C31.5178 81.1382 31.5142 81.1367 31.5106 81.1359M78.1385 56.8934C78.14 56.8927 78.1422 56.8923 78.1437 56.8922H78.149C78.1452 56.8924 78.1422 56.8928 78.1385 56.8934ZM78.1527 25.4496C78.1505 25.45 78.1482 25.4502 78.1467 25.4502C78.1505 25.4502 78.1542 25.4496 78.1579 25.4484C78.1557 25.4491 78.1542 25.4495 78.1527 25.4496ZM78.2066 57.771C78.2036 57.7736 78.2006 57.7758 78.1976 57.7778C78.2014 57.7755 78.2044 57.7728 78.2066 57.7699C78.2066 57.7705 78.2066 57.7705 78.2066 57.771Z" fill="#222E3E"/>
<mask id="mask0_1226_1144" style="mask-type:luminance" maskUnits="userSpaceOnUse" x="12" y="13" width="57" height="57">
<path d="M68.9971 13.2734H12.8594V69.4112H68.9971V13.2734Z" fill="white"/>
</mask>
<g mask="url(#mask0_1226_1144)">
<path d="M43.8304 38.8796L50.0363 49.6248C50.0993 49.7335 50.1898 49.8237 50.2987 49.8865C50.4077 49.9493 50.5312 49.9823 50.6568 49.9823C50.7826 49.9823 50.906 49.9493 51.015 49.8865C51.1239 49.8237 51.2144 49.7335 51.2774 49.6248L53.0089 46.6281C53.0719 46.5191 53.105 46.3954 53.105 46.2695C53.105 46.1435 53.0719 46.0198 53.0089 45.9107L46.8006 35.17C46.7375 35.0613 46.647 34.971 46.5381 34.9082C46.4292 34.8455 46.3057 34.8125 46.18 34.8125C46.0543 34.8125 45.9308 34.8455 45.8219 34.9082C45.713 34.971 45.6224 35.0613 45.5594 35.17L43.8279 38.1665C43.7662 38.2753 43.7339 38.3983 43.7344 38.5233C43.7348 38.6484 43.7678 38.7711 43.8303 38.8794" fill="#FF9900"/>
<path d="M35.1244 26.3456H36.1742C36.2998 26.3459 36.4232 26.3792 36.5318 26.4422C36.6406 26.5051 36.7309 26.5955 36.7937 26.7043L40.2876 32.755C40.3507 32.8637 40.4412 32.9539 40.5501 33.0166C40.659 33.0794 40.7825 33.1124 40.9082 33.1124C41.0339 33.1124 41.1574 33.0794 41.2663 33.0166C41.3752 32.9539 41.4657 32.8637 41.5288 32.755L45.0228 26.7043C45.0856 26.5955 45.1758 26.5052 45.2845 26.4422C45.3931 26.3793 45.5164 26.346 45.6419 26.3456H46.6919C46.8175 26.3459 46.9407 26.3792 47.0494 26.4422C47.1582 26.5051 47.2484 26.5955 47.3112 26.7043L55.28 40.5038C55.3431 40.6124 55.4336 40.7027 55.5425 40.7654C55.6514 40.8282 55.7749 40.8612 55.9006 40.8612C56.0263 40.8612 56.1498 40.8282 56.2587 40.7654C56.3676 40.7027 56.4582 40.6124 56.5212 40.5038L59.0322 36.1559C59.0952 36.0468 59.1284 35.9231 59.1284 35.7972C59.1284 35.6712 59.0952 35.5475 59.0322 35.4384L50.2818 20.2806C50.219 20.1717 50.1286 20.0814 50.0199 20.0184C49.9113 19.9555 49.7879 19.9222 49.6622 19.9219H32.1614C32.0358 19.9222 31.9125 19.9555 31.8038 20.0184C31.6951 20.0814 31.6048 20.1718 31.5419 20.2806L22.7914 35.4384C22.7285 35.5475 22.6953 35.6712 22.6953 35.7972C22.6953 35.9231 22.7285 36.0468 22.7914 36.1559L25.3002 40.5014C25.3632 40.6101 25.4538 40.7004 25.5627 40.7631C25.6716 40.8258 25.7951 40.8589 25.9208 40.8589C26.0465 40.8589 26.17 40.8258 26.2789 40.7631C26.3878 40.7004 26.4783 40.6101 26.5414 40.5014L34.505 26.7067C34.5675 26.5975 34.6577 26.5067 34.7663 26.4433C34.875 26.3799 34.9986 26.3462 35.1244 26.3456Z" fill="white"/>
<path d="M40.2983 44.2695L36.6416 50.6025C36.5794 50.7113 36.5467 50.8346 36.5469 50.96C36.547 51.0855 36.5802 51.2087 36.6428 51.3173C36.7055 51.426 36.7956 51.5163 36.9041 51.5793C37.0125 51.6422 37.1357 51.6757 37.2611 51.6762H44.5743C44.6998 51.6757 44.8229 51.6422 44.9313 51.5792C45.0398 51.5162 45.1298 51.4259 45.1925 51.3173C45.2552 51.2086 45.2883 51.0855 45.2885 50.96C45.2887 50.8346 45.2561 50.7113 45.1937 50.6025L41.5371 44.2695C41.4739 44.1613 41.3835 44.0715 41.2748 44.0092C41.1661 43.9468 41.043 43.9141 40.9177 43.9141C40.7924 43.9141 40.6693 43.9468 40.5606 44.0092C40.452 44.0715 40.3615 44.1613 40.2983 44.2695Z" fill="white"/>
<path d="M35.0394 35.1544L28.8383 45.8973C28.7753 46.0064 28.7422 46.1301 28.7422 46.256C28.7422 46.382 28.7753 46.5056 28.8383 46.6148L30.5673 49.6117C30.6304 49.7204 30.7209 49.8106 30.8298 49.8734C30.9387 49.9362 31.0622 49.9692 31.1879 49.9692C31.3137 49.9692 31.4372 49.9362 31.5461 49.8734C31.655 49.8106 31.7455 49.7204 31.8085 49.6117L38.0097 38.8687C38.0727 38.7597 38.1058 38.6359 38.1058 38.51C38.1058 38.3841 38.0727 38.2603 38.0097 38.1513L36.2807 35.1544C36.2176 35.0456 36.1271 34.9554 36.0182 34.8926C35.9093 34.8299 35.7858 34.7969 35.6601 34.7969C35.5344 34.7969 35.4109 34.8299 35.302 34.8926C35.193 34.9554 35.1025 35.0456 35.0394 35.1544Z" fill="#FF9900"/>
<path d="M47.1477 21.1031C47.1331 20.8209 47.1262 20.773 47.088 20.4502C47.0898 20.4139 47.0858 20.3776 47.076 20.3425C47.07 20.2461 47.0572 20.1502 47.0377 20.0556C46.9542 19.5162 46.8433 18.9814 46.7055 18.4532V18.4269C46.3844 17.1228 45.7405 15.9204 44.8329 14.9304C44.3064 14.3941 43.6749 13.9725 42.9778 13.6918C42.2806 13.4111 41.533 13.2775 40.7818 13.2993C40.0621 13.2768 39.3457 13.4083 38.6808 13.6851C38.016 13.9619 37.418 14.3775 36.9267 14.9041C35.9728 16.0269 35.3413 17.3874 35.0993 18.8407V18.8909C35.0611 19.0797 35.0276 19.2687 34.999 19.4505C34.9032 20.1226 34.8484 20.9213 34.8388 21.0505V21.0696C34.8168 21.5479 34.8168 21.9282 34.8241 22.1864C34.6436 22.3321 34.5127 22.53 34.4492 22.7532C34.3857 22.9762 34.3927 23.2135 34.4695 23.4324C34.5462 23.6512 34.6887 23.841 34.8775 23.9757C35.0664 24.1104 35.2922 24.1833 35.5242 24.1845C35.7561 24.1857 35.9827 24.1151 36.1729 23.9824C36.3632 23.8496 36.5076 23.6613 36.5866 23.4432C36.6655 23.2252 36.6751 22.988 36.6139 22.7642C36.5526 22.5406 36.4237 22.3413 36.2448 22.1937C36.2448 21.9545 36.2448 21.5695 36.2594 21.0888C36.2856 20.3264 36.3874 19.5686 36.5631 18.8264V18.788C36.7743 17.7115 37.2576 16.7071 37.9669 15.8702C38.325 15.486 38.762 15.1839 39.2479 14.9845C39.7338 14.7852 40.257 14.6934 40.7817 14.7153C41.343 14.6923 41.9028 14.7868 42.4255 14.9928C42.9481 15.1986 43.4219 15.5114 43.8166 15.911C44.4916 16.646 44.9832 17.5301 45.2515 18.4913V18.5271C45.2897 18.6531 45.3249 18.7773 45.3567 18.8999C45.4847 19.3709 45.579 19.8505 45.639 20.3349C45.6772 20.6099 45.694 20.7032 45.7203 21.0069C45.5529 21.1403 45.4298 21.3211 45.3671 21.5258C45.3043 21.7303 45.3049 21.9491 45.3688 22.1534C45.4326 22.3577 45.5567 22.5378 45.7249 22.6702C45.8929 22.8027 46.0971 22.8812 46.3106 22.8955C46.5242 22.9099 46.737 22.8593 46.9213 22.7505C47.1055 22.6416 47.2525 22.4796 47.3431 22.2857C47.4336 22.0918 47.4634 21.8751 47.4285 21.6639C47.3937 21.4528 47.2958 21.2571 47.1478 21.1026" fill="#FF9900"/>
<path d="M20.6177 66.205C20.6966 67.1879 21.6651 67.6566 22.77 67.6566C23.4853 67.6651 24.1974 67.5593 24.8793 67.3434L25.1901 68.953C24.3067 69.284 23.3689 69.4462 22.4256 69.4312C21.8923 69.4913 21.3523 69.4334 20.8439 69.2618C20.3353 69.0902 19.8708 68.809 19.4829 68.4381C19.0951 68.0671 18.7936 67.6155 18.5995 67.1152C18.4055 66.6148 18.3236 66.078 18.36 65.5425C18.3285 65.041 18.3962 64.5382 18.5591 64.0628C18.7219 63.5875 18.9768 63.1489 19.3092 62.772C19.6416 62.3951 20.045 62.0874 20.4963 61.8664C20.9476 61.6455 21.4379 61.5156 21.9395 61.4842C22.0321 61.4783 22.1246 61.4759 22.2172 61.4768C22.7013 61.4706 23.1811 61.5682 23.6243 61.7631C24.0675 61.9581 24.4637 62.2458 24.7862 62.6069C25.1088 62.9679 25.3501 63.394 25.494 63.8563C25.6379 64.3185 25.681 64.8063 25.6204 65.2866C25.6202 65.6007 25.5939 65.9143 25.5415 66.2241L20.6177 66.205ZM23.4133 64.5811C23.4367 64.3895 23.4196 64.1951 23.3631 64.0105C23.3065 63.8259 23.2118 63.6552 23.0851 63.5096C22.9584 63.3639 22.8025 63.2465 22.6275 63.1649C22.4525 63.0834 22.2623 63.0395 22.0692 63.0362C21.6741 63.0593 21.3025 63.2317 21.0299 63.5186C20.7572 63.8055 20.6038 64.1854 20.6009 64.5811H23.4133Z" fill="white"/>
<path d="M36.9493 68.9593C36.0888 69.2932 35.1692 69.4478 34.2468 69.4136C33.5261 69.4882 32.7978 69.4053 32.1122 69.1708C31.4266 68.9363 30.8001 68.5557 30.276 68.0554C29.7518 67.5552 29.3426 66.9471 29.0764 66.2731C28.8103 65.5992 28.6936 64.8755 28.7346 64.1521C28.7008 63.3961 28.8274 62.6415 29.106 61.9379C29.3846 61.2343 29.8087 60.5976 30.3508 60.0694C30.8928 59.5414 31.5404 59.134 32.251 58.8739C32.9617 58.6138 33.7193 58.5069 34.4742 58.5602C35.3626 58.5326 36.2465 58.6957 37.0665 59.0386L36.5882 60.9279C35.9545 60.666 35.2747 60.5334 34.5889 60.5381C34.1301 60.5093 33.6706 60.5808 33.2423 60.7476C32.814 60.9143 32.4271 61.1723 32.1084 61.5036C31.7899 61.835 31.5473 62.2318 31.3975 62.6664C31.2477 63.1009 31.1944 63.5629 31.2411 64.0202C31.1968 64.4771 31.253 64.9382 31.406 65.3711C31.559 65.8039 31.805 66.198 32.1267 66.5257C32.4483 66.8533 32.8379 67.1064 33.2679 67.2673C33.6978 67.4282 34.1578 67.4929 34.6155 67.4569C35.2912 67.4555 35.9617 67.3391 36.5982 67.1125L36.9493 68.9593Z" fill="white"/>
<path d="M44.7331 69.2651L44.592 68.4998H44.5442C44.2732 68.8095 43.9362 69.0545 43.5579 69.2167C43.1796 69.3789 42.7698 69.4543 42.3587 69.4373C41.7386 69.4709 41.1306 69.2568 40.6684 68.8421C40.2062 68.4275 39.9277 67.8461 39.8941 67.2261C39.8917 67.1822 39.8904 67.1377 39.8907 67.0935C39.8907 65.1109 41.6723 64.1567 44.3724 64.1733V64.0635C44.3724 63.6569 44.1548 63.0805 42.9829 63.0805C42.2417 63.0886 41.5152 63.2879 40.8737 63.6593L40.436 62.1287C41.3555 61.6656 42.3744 61.4348 43.4037 61.4565C43.8531 61.3957 44.3105 61.4386 44.7407 61.5819C45.171 61.7252 45.5627 61.9651 45.8859 62.2832C46.2091 62.6014 46.4551 62.9893 46.6052 63.4173C46.7552 63.8452 46.8052 64.3019 46.7515 64.7522V67.4068C46.7393 68.0281 46.7761 68.6495 46.8615 69.265L44.7331 69.2651ZM44.4505 65.6586C43.2022 65.6418 42.2336 65.9385 42.2336 66.8544C42.2249 66.9783 42.2434 67.1028 42.288 67.2188C42.3325 67.3349 42.4018 67.4398 42.4912 67.5262C42.5805 67.6126 42.6877 67.6784 42.8052 67.7188C42.9228 67.7594 43.0477 67.7737 43.1713 67.7608C43.4427 67.7625 43.7079 67.679 43.9293 67.5219C44.1507 67.3648 44.3172 67.1423 44.4053 66.8855C44.4377 66.7525 44.4537 66.6159 44.4532 66.4789L44.4505 65.6586Z" fill="white"/>
<path d="M50.7419 64.1408C50.7419 63.0168 50.7108 62.2825 50.6797 61.6272H52.7244L52.8034 63.0336H52.8655C53.0031 62.5892 53.2753 62.1986 53.6447 61.9159C54.014 61.633 54.462 61.472 54.9268 61.4551C55.0941 61.4484 55.2615 61.4588 55.4266 61.4861V63.7199C55.2154 63.6792 55.0008 63.6584 54.7857 63.6578C54.4159 63.6254 54.0471 63.729 53.7481 63.9491C53.4492 64.1692 53.2408 64.4908 53.1619 64.8535C53.1291 65.0286 53.1131 65.2064 53.1141 65.3844V69.2565H50.7395L50.7419 64.1408Z" fill="white"/>
<path d="M61.7661 59.4453V61.6309H63.4693V63.3794H61.7661V66.144C61.7661 67.0651 61.9837 67.4882 62.7036 67.4882C62.9394 67.4888 63.1747 67.468 63.4068 67.426L63.4235 69.2221C62.9236 69.3762 62.4013 69.4449 61.8786 69.4253C61.5535 69.4388 61.2289 69.3878 60.9235 69.2754C60.6182 69.1629 60.3381 68.9912 60.0993 68.7701C59.5973 68.1277 59.3625 67.3164 59.4441 66.5053V63.3816H58.4297V61.6336H59.4437V59.9787L61.7661 59.4453Z" fill="white"/>
</g>
</svg>
