<svg width="81" height="81" viewBox="0 0 81 81" fill="none" xmlns="http://www.w3.org/2000/svg">
<rect width="81" height="81" rx="10" fill="#047AD4"/>
<path d="M13 0H69V8.5C69 12.6421 65.6421 16 61.5 16H20.5C16.3579 16 13 12.6421 13 8.5V0Z" fill="#FCD535"/>
<path d="M29.1023 13.6147C28.4297 13.6127 27.8461 13.1501 27.6907 12.4957L26.0426 5.55628C25.8813 4.87724 26.3963 4.22565 27.0942 4.22565V4.22565C27.6161 4.22565 28.0635 4.59863 28.1574 5.11206L28.703 8.09499C28.9104 9.20459 29.1048 10.3994 29.2598 11.3563C29.261 11.3637 29.2675 11.3691 29.275 11.3691V11.3691C29.2827 11.3691 29.2891 11.3636 29.2903 11.356C29.4424 10.3408 29.6664 9.22108 29.9033 8.06161L30.4683 5.31485C30.5996 4.67671 31.1614 4.21875 31.8129 4.21875V4.21875C32.4722 4.21875 33.0383 4.68748 33.1614 5.3352L33.7033 8.18739C33.9108 9.28416 34.0625 10.2824 34.201 11.3228C34.202 11.3303 34.2084 11.3359 34.216 11.3359V11.3359C34.2235 11.3359 34.2299 11.3303 34.2309 11.3228C34.3698 10.2816 34.5773 9.18818 34.7716 8.07504L35.3748 5.05364C35.4702 4.57603 35.8895 4.23217 36.3765 4.23217V4.23217C37.0443 4.23217 37.5325 4.86248 37.3655 5.50907L35.5499 12.5389C35.3858 13.1742 34.8127 13.6181 34.1564 13.6181V13.6181C33.4686 13.6181 32.8769 13.1314 32.7443 12.4565L32.1789 9.58014C31.9978 8.63497 31.8494 7.76493 31.7371 6.69638C31.7363 6.68879 31.7299 6.68295 31.7223 6.68295V6.68295C31.7149 6.68295 31.7087 6.68833 31.7075 6.69558C31.5396 7.74837 31.3779 8.63464 31.1671 9.58014L30.5276 12.4735C30.38 13.1417 29.7867 13.6167 29.1023 13.6147V13.6147Z" fill="#047AD4"/>
<path d="M45.4263 8.77102C45.4263 9.24867 45.0391 9.63588 44.5614 9.63588H43.0881C42.4726 9.63588 41.9736 10.1348 41.9736 10.7503V10.7503C41.9736 11.3658 42.4726 11.8648 43.0881 11.8648H44.9595C45.44 11.8648 45.8295 12.2543 45.8295 12.7348V12.7348C45.8295 13.2153 45.44 13.6048 44.9595 13.6048H42.8366C41.1837 13.6048 39.8438 12.2648 39.8438 10.6119V7.11412C39.8438 5.51505 41.1401 4.21875 42.7391 4.21875H44.7647C45.2451 4.21875 45.6345 4.60816 45.6345 5.08852V5.08852C45.6345 5.56889 45.2451 5.9583 44.7647 5.9583H42.9475C42.4096 5.9583 41.9736 6.39434 41.9736 6.93223V6.93223C41.9736 7.47011 42.4096 7.90615 42.9475 7.90615H44.5614C45.0391 7.90615 45.4263 8.29337 45.4263 8.77102V8.77102Z" fill="#047AD4"/>
<path d="M48.3125 7.10244C48.3125 5.51748 49.4726 4.13536 51.0575 4.15246V4.15246C52.0114 4.06906 52.9698 4.25224 53.8257 4.68159C54.1659 4.8522 54.4517 5.1144 54.6509 5.43868C54.8501 5.76296 54.9548 6.13641 54.9532 6.51699C54.9453 6.9731 54.7903 7.41446 54.5115 7.77549C54.2353 8.13316 53.852 8.39309 53.4178 8.51757C53.4106 8.51966 53.4055 8.52629 53.4055 8.53385V8.53385C53.4055 8.54182 53.4111 8.5487 53.4189 8.55039C53.9439 8.66383 54.4141 8.95384 54.7512 9.37223C55.0912 9.79418 55.2747 10.3207 55.2708 10.8626C55.2721 11.2458 55.1851 11.6242 55.0164 11.9683C54.8478 12.3125 54.6021 12.6131 54.2984 12.8469C53.1955 13.5262 51.9002 13.8248 50.6112 13.6968V13.6968C49.2925 13.7102 48.3126 12.5721 48.3126 11.2534L48.3125 7.10244ZM50.4172 7.24449C50.4167 7.62787 50.7273 7.93899 51.1107 7.93899V7.93899C52.2253 7.93899 52.8271 7.48269 52.8271 6.78489C52.8271 6.08709 52.2847 5.70009 51.3224 5.70009V5.70009C50.8029 5.6919 50.419 6.14229 50.4181 6.66185L50.4172 7.24449ZM50.4162 11.2817C50.4162 11.7471 50.7711 12.1431 51.2363 12.1292V12.1292C52.1986 12.1292 53.0453 11.7687 53.0453 10.7799C53.0453 9.79111 52.1986 9.45713 51.1371 9.45713V9.45713C50.7389 9.45713 50.4162 9.77989 50.4162 10.178V11.2817Z" fill="#047AD4"/>
<mask id="mask0_1226_911" style="mask-type:luminance" maskUnits="userSpaceOnUse" x="11" y="19" width="59" height="60">
<path d="M53.75 19.5078H27.25C18.4134 19.5078 11.25 26.6713 11.25 35.5078V62.0078C11.25 70.8444 18.4134 78.0078 27.25 78.0078H53.75C62.5866 78.0078 69.75 70.8444 69.75 62.0078V35.5078C69.75 26.6713 62.5866 19.5078 53.75 19.5078Z" fill="white"/>
</mask>
<g mask="url(#mask0_1226_911)">
<path d="M42.1299 61.7757C41.1729 61.7723 40.2338 61.5163 39.4075 61.0336C38.5811 60.5509 37.8968 59.8587 37.4238 59.0268L22.0214 31.6921C21.777 31.2593 21.4329 30.891 21.0178 30.6176C20.6026 30.3442 20.1283 30.1737 19.6341 30.1201L12.2192 29.3306C11.9353 29.3001 11.6748 29.159 11.4943 28.9377C11.3137 28.7165 11.2277 28.433 11.2549 28.1487L11.2668 28.0399C11.296 27.7555 11.4369 27.4943 11.6584 27.3135C11.8799 27.1328 12.1641 27.0473 12.4486 27.0756L19.8655 27.8674C20.7212 27.9588 21.5427 28.2534 22.2614 28.7266C22.9801 29.1999 23.5753 29.838 23.9974 30.588L39.3901 57.9249C39.6818 58.4397 40.1136 58.8615 40.6353 59.1409C41.157 59.4204 41.7472 59.5461 42.3376 59.5037L61.907 58.0855C62.1933 58.0641 62.4764 58.1573 62.694 58.3446C62.9116 58.5318 63.046 58.7979 63.0675 59.0842V59.1963C63.0883 59.4828 62.9945 59.7656 62.8067 59.9829C62.619 60.2001 62.3526 60.3338 62.0662 60.3546H62.0653L42.496 61.7728C42.3895 61.7685 42.2596 61.7757 42.1295 61.7757" fill="white"/>
<path d="M69.5796 39.5131L64.6164 53.7906C64.4205 54.3532 64.0575 54.8426 63.576 55.1931C63.0943 55.5437 62.5171 55.7387 61.9215 55.752L43.3424 56.2246C42.8879 56.2351 42.4394 56.1192 42.047 55.8896C41.6545 55.6601 41.3337 55.326 41.1201 54.9246L31.7122 36.9131C31.6191 36.7468 31.5702 36.5594 31.5703 36.3688C31.5832 36.0594 31.7121 35.7661 31.9312 35.5473C32.1504 35.3284 32.4439 35.1999 32.7534 35.1875H66.5073C66.8685 35.2045 67.2258 35.2681 67.5706 35.3768C68.3805 35.6657 69.0447 36.2609 69.4203 37.0343C69.796 37.8078 69.8532 38.6977 69.5796 39.5129" fill="#FCD535"/>
<path d="M43.4427 64.3125C44.9556 64.3125 46.1822 65.6989 46.1822 67.4091C46.1822 69.1192 44.9554 70.5055 43.4427 70.5055C41.9299 70.5055 40.7031 69.1192 40.7031 67.4091C40.7031 65.6989 41.9299 64.3125 43.4427 64.3125Z" fill="#FCD535"/>
<path d="M56.8701 65.3672C57.0393 63.6656 58.3264 62.4005 59.7448 62.5421C61.1632 62.6835 62.1759 64.177 62.0066 65.8786C61.8373 67.5803 60.5502 68.8453 59.1318 68.7038C57.7134 68.5623 56.7007 67.0688 56.8701 65.3672Z" fill="#FCD535"/>
<path d="M55.2677 51.1049C55.0365 49.3237 53.0078 49.1339 53.4735 50.8686C53.5811 51.2695 53.7619 51.6651 54.038 52.0411C54.069 52.0833 54.0988 52.1244 54.1304 52.1663C54.5061 52.6647 57.2467 55.9147 61.8533 51.4483V51.4483C62.1133 51.1791 61.5948 50.5801 61.2772 50.7781C60.0612 51.5361 58.8488 52.1516 58.1009 52.1652C58.0834 52.1655 58.068 52.1662 58.0506 52.1678C57.7801 52.1915 55.4201 52.3616 55.2677 51.1049V51.1049Z" fill="#047AD4"/>
<path d="M53.3472 49.5934C53.9428 49.8145 53.5165 50.6057 52.9015 50.4459C51.6662 50.1248 50.253 49.8026 49.4732 49.7769C49.4082 49.7747 49.3446 49.7732 49.2818 49.7565C49.2088 49.7372 49.1488 49.704 49.3329 49.6626C49.4339 49.6399 49.5366 49.6308 49.6398 49.6227C50.2896 49.5719 52.803 49.3916 53.3472 49.5934V49.5934Z" fill="#047AD4"/>
<path d="M60.5564 48.3201C58.1572 50.8002 55.2315 51.862 54.0219 50.6917C53.0965 49.7962 53.4435 47.8533 54.7326 45.879C55.1556 45.2358 55.6389 44.6341 56.1756 44.0821C58.5747 41.6019 61.5003 40.5401 62.7101 41.7104C63.9198 42.8807 62.9555 45.84 60.5564 48.3201Z" fill="#047AD4"/>
<path d="M58.7688 47.9697C57.6544 48.9147 55.6154 49.4195 56.5057 48.2608V48.2608C57.4834 46.9883 60.0767 46.8309 58.8669 47.8853C58.8346 47.9135 58.8019 47.9416 58.7688 47.9697Z" fill="#F8D43C"/>
</g>
</svg>
