<svg width="81" height="81" viewBox="0 0 81 81" fill="none" xmlns="http://www.w3.org/2000/svg">
<rect width="81" height="81" rx="10" fill="#222E3E"/>
<path d="M80.9798 38.3449C80.868 32.6443 80.5013 26.9948 79.6298 21.3559C79.1753 18.4112 78.5213 15.3799 77.5598 12.5381C76.7513 10.1524 75.5715 7.60379 73.5433 5.99811C72.8267 5.43076 71.9559 4.91067 70.9308 4.43781C69.539 3.7953 68.0978 3.26529 66.6212 2.85284C61.442 1.40421 56.0189 0.755762 50.6687 0.357962L49.1808 0.266237C43.3176 -0.102338 37.4369 -0.0991318 31.574 0.275837C31.0446 0.323937 30.5138 0.351087 29.9813 0.357287C29.8805 0.358412 29.7877 0.405362 29.6768 0.412712C25.6757 0.709862 21.5372 1.22594 17.5934 2.05776C15.9836 2.39682 14.3935 2.82373 12.8303 3.33659C10.9954 3.93869 9.16155 4.74164 7.599 5.89086C7.14704 6.21767 6.73755 6.59957 6.38006 7.02771L5.89886 7.60146C5.78714 7.71554 5.6969 7.84874 5.63246 7.99484L5.18689 8.65184C4.14349 10.4143 3.42956 12.3554 2.87074 14.3353C2.39573 16.0199 2.00284 17.7237 1.69204 19.4468C0.784237 24.4798 0.288785 29.6492 0.12521 34.7058C0.0805102 36.0837 0.0224605 37.431 0.00858547 38.7942C-0.0480395 44.2955 0.171635 49.8298 0.780787 55.2998C0.807937 55.546 0.878288 55.8398 0.896813 56.122C0.91776 56.4395 0.948908 56.7558 0.990263 57.071C1.49411 60.946 2.19619 64.8381 3.46834 68.5428C4.02941 70.1758 4.73989 71.7745 5.72674 73.1732C6.91226 74.8544 8.65598 75.9709 10.5826 76.7959C13.6562 78.1122 16.9904 78.8967 20.2791 79.4502C23.7516 80.0352 27.2525 80.4364 30.7671 80.6539C30.8799 80.6637 30.9932 80.6659 31.1063 80.6622L31.472 80.7109C32.7928 80.7837 34.1165 80.8714 35.4379 80.9149C40.1002 81.0672 44.737 80.9899 49.3936 80.7237C49.5179 80.7124 49.6414 80.6944 49.7633 80.6682L50.1983 80.6569C53.7563 80.4357 57.2999 80.0254 60.8142 79.4277C64.2192 78.8472 67.7117 78.0432 70.8617 76.5912C72.5267 75.8232 74.1217 74.7768 75.1665 73.3231C75.9353 72.2401 76.566 71.0656 77.0445 69.8266C78.264 66.7246 79.0283 63.4366 79.5548 60.1555C80.1473 56.4451 80.5448 52.7062 80.7458 48.9542C80.9445 45.2874 81.0458 41.7134 80.9798 38.3449ZM2.39494 57.3805C2.39639 57.3799 2.39799 57.3799 2.39944 57.3805C2.40029 57.3806 2.40107 57.381 2.40169 57.3816C2.39947 57.3809 2.39717 57.3805 2.39486 57.3805M3.11051 24.7723C3.11111 24.7723 3.11164 24.7729 3.11224 24.7735C3.11284 24.774 3.11449 24.7763 3.11561 24.7774L3.11051 24.7723ZM31.0724 80.3667C31.0736 80.3667 31.0748 80.3674 31.0758 80.3674C31.0785 80.3682 31.0811 80.3689 31.0833 80.3704C31.0799 80.3689 31.0763 80.3674 31.0726 80.3667M77.7938 56.0756C77.7953 56.0749 77.7975 56.0746 77.799 56.0745H77.8043C77.8005 56.0746 77.7975 56.075 77.7938 56.0756ZM77.808 24.5689C77.8057 24.5694 77.8035 24.5696 77.802 24.5695C77.8058 24.5695 77.8095 24.5689 77.8133 24.5678C77.811 24.5685 77.8095 24.5689 77.808 24.5689ZM77.862 56.955C77.859 56.9576 77.856 56.9599 77.853 56.9618C77.8568 56.9595 77.8598 56.9568 77.862 56.9539C77.862 56.9545 77.862 56.9545 77.862 56.955Z" fill="#222E3E"/>
<path d="M12 0H68V8.5C68 12.6421 64.6421 16 60.5 16H19.5C15.3579 16 12 12.6421 12 8.5V0Z" fill="#FF9900"/>
<path d="M27.9556 13.5957L25.7266 4.21002H27.9953L28.703 8.07936C28.9113 9.19394 29.1065 10.3945 29.2619 11.3535H29.2883C29.4405 10.3348 29.6654 9.21044 29.9033 8.04599L30.6938 4.20312H32.9493L33.7033 8.17176C33.9117 9.27314 34.0638 10.2751 34.2028 11.3203H34.2292C34.3681 10.2751 34.5765 9.17721 34.7716 8.05941L35.5388 4.21655H37.6953L35.2711 13.6025H32.9726L32.1789 9.56451C31.9971 8.61539 31.8481 7.74201 31.7357 6.66732H31.7095C31.5409 7.72566 31.3788 8.61524 31.1671 9.56451L30.2746 13.6025L27.9556 13.5957Z" fill="#222E3E"/>
<path d="M45.4263 9.62807H41.9736V11.857H45.8295V13.597H39.8438V4.21094H45.6345V5.95049H41.9736V7.89834H45.4263V9.62807Z" fill="#222E3E"/>
<path d="M48.3125 4.33184C49.2207 4.19214 50.1387 4.12692 51.0575 4.13684C52.0114 4.05344 52.9698 4.23662 53.8257 4.66596C54.1659 4.83657 54.4517 5.09878 54.6509 5.42306C54.8501 5.74733 54.9548 6.12079 54.9532 6.50136C54.9453 6.95747 54.7903 7.39883 54.5115 7.75986C54.2327 8.12091 53.8448 8.38236 53.4055 8.50544V8.53191C53.9358 8.64329 54.4113 8.93466 54.7512 9.35661C55.0912 9.77856 55.2747 10.3051 55.2708 10.8469C55.2721 11.2302 55.1851 11.6086 55.0164 11.9527C54.8478 12.2968 54.6021 12.5975 54.2984 12.8313C53.1955 13.5106 51.9002 13.8091 50.6112 13.6812C49.8427 13.689 49.0747 13.6426 48.3127 13.5424L48.3125 4.33184ZM50.4162 7.92336H51.1107C52.2253 7.92336 52.8271 7.46706 52.8271 6.76926C52.8271 6.07146 52.2847 5.68446 51.3224 5.68446C51.0205 5.67971 50.7186 5.69852 50.4195 5.74071L50.4162 7.92336ZM50.4162 12.0871C50.6888 12.1129 50.9627 12.1217 51.2363 12.1135C52.1986 12.1135 53.0453 11.7531 53.0453 10.7643C53.0453 9.77549 52.1986 9.44151 51.1371 9.44151H50.4162V12.0871Z" fill="#222E3E"/>
<mask id="mask0_1226_1029" style="mask-type:luminance" maskUnits="userSpaceOnUse" x="14" y="23" width="53" height="54">
<path d="M66.7578 23.7656H14.2578V76.2656H66.7578V23.7656Z" fill="white"/>
</mask>
<g mask="url(#mask0_1226_1029)">
<path d="M43.2227 47.7177L49.0264 57.7665C49.0853 57.8682 49.17 57.9526 49.2719 58.0113C49.3737 58.0699 49.4892 58.1008 49.6068 58.1008C49.7243 58.1008 49.8398 58.0699 49.9417 58.0113C50.0435 57.9526 50.1282 57.8682 50.1872 57.7665L51.8064 54.9641C51.8653 54.8621 51.8963 54.7464 51.8963 54.6286C51.8963 54.5109 51.8653 54.3952 51.8064 54.2932L46.0004 44.2484C45.9414 44.1467 45.8568 44.0623 45.7549 44.0037C45.653 43.945 45.5375 43.9141 45.42 43.9141C45.3024 43.9141 45.187 43.945 45.0851 44.0037C44.9832 44.0623 44.8985 44.1467 44.8396 44.2484L43.2203 47.0509C43.1626 47.1525 43.1324 47.2675 43.1328 47.3845C43.1333 47.5014 43.1642 47.6162 43.2227 47.7175" fill="#FF9900"/>
<path d="M35.0846 35.9997H36.0663C36.1838 36 36.2991 36.0311 36.4008 36.09C36.5025 36.1489 36.5869 36.2334 36.6456 36.3352L39.9132 41.9937C39.9722 42.0954 40.0569 42.1798 40.1587 42.2385C40.2606 42.2971 40.3761 42.328 40.4936 42.328C40.6111 42.328 40.7266 42.2971 40.8285 42.2385C40.9303 42.1798 41.015 42.0954 41.0739 41.9937L44.3415 36.3352C44.4003 36.2334 44.4846 36.1489 44.5863 36.0901C44.6879 36.0312 44.8032 36 44.9206 35.9997H45.9024C46.0199 36 46.1352 36.0311 46.2369 36.09C46.3386 36.1489 46.4229 36.2334 46.4817 36.3352L53.934 49.2403C53.9931 49.342 54.0777 49.4265 54.1796 49.4851C54.2814 49.5438 54.3969 49.5747 54.5145 49.5747C54.632 49.5747 54.7475 49.5438 54.8493 49.4851C54.9513 49.4265 55.0359 49.342 55.0949 49.2403L57.4431 45.1743C57.5021 45.0723 57.5331 44.9566 57.5331 44.8387C57.5331 44.721 57.5021 44.6053 57.4431 44.5033L49.2597 30.3277C49.2009 30.2259 49.1166 30.1414 49.0149 30.0825C48.9132 30.0236 48.7978 29.9925 48.6804 29.9922H32.3136C32.1961 29.9925 32.0808 30.0237 31.9791 30.0826C31.8774 30.1414 31.7931 30.2259 31.7343 30.3277L23.5508 44.5033C23.4919 44.6053 23.4609 44.721 23.4609 44.8387C23.4609 44.9566 23.4919 45.0723 23.5508 45.1743L25.8969 49.2382C25.9559 49.3399 26.0406 49.4242 26.1424 49.483C26.2443 49.5416 26.3598 49.5725 26.4774 49.5725C26.5949 49.5725 26.7104 49.5416 26.8122 49.483C26.9141 49.4242 26.9988 49.3399 27.0577 49.2382L34.5053 36.3374C34.5638 36.2353 34.648 36.1503 34.7497 36.091C34.8513 36.0318 34.9669 36.0003 35.0846 35.9997Z" fill="white"/>
<path d="M39.9224 52.7621L36.5027 58.6847C36.4444 58.7865 36.4138 58.9017 36.4141 59.019C36.4143 59.1364 36.4452 59.2516 36.5038 59.3532C36.5624 59.4548 36.6466 59.5393 36.7481 59.5982C36.8496 59.6571 36.9647 59.6883 37.082 59.6889H43.9213C44.0386 59.6883 44.1538 59.6571 44.2552 59.5981C44.3566 59.5392 44.4409 59.4548 44.4995 59.3532C44.5581 59.2515 44.5891 59.1363 44.5893 59.019C44.5894 58.9017 44.5589 58.7865 44.5006 58.6847L41.0809 52.7621C41.0218 52.6609 40.9372 52.577 40.8356 52.5186C40.734 52.4604 40.6189 52.4297 40.5017 52.4297C40.3845 52.4297 40.2694 52.4604 40.1677 52.5186C40.0661 52.577 39.9815 52.6609 39.9224 52.7621Z" fill="white"/>
<path d="M35.0064 44.2406L29.2071 54.2874C29.1482 54.3894 29.1172 54.5051 29.1172 54.6228C29.1172 54.7406 29.1482 54.8563 29.2071 54.9583L30.8241 57.7611C30.8831 57.8628 30.9677 57.9471 31.0696 58.0059C31.1714 58.0645 31.2869 58.0954 31.4045 58.0954C31.5221 58.0954 31.6376 58.0645 31.7394 58.0059C31.8413 57.9471 31.9259 57.8628 31.9849 57.7611L37.7842 47.7143C37.8431 47.6123 37.874 47.4966 37.874 47.3788C37.874 47.2611 37.8431 47.1454 37.7842 47.0434L36.1673 44.2406C36.1082 44.1389 36.0236 44.0545 35.9217 43.9958C35.8199 43.9371 35.7044 43.9062 35.5868 43.9062C35.4692 43.9062 35.3538 43.9371 35.2519 43.9958C35.15 44.0545 35.0654 44.1389 35.0064 44.2406Z" fill="#FF9900"/>
<path d="M46.322 31.0972C46.3084 30.8334 46.3019 30.7886 46.2661 30.4866C46.2679 30.4527 46.2641 30.4188 46.255 30.3861C46.2493 30.2958 46.2374 30.2061 46.2192 30.1176C46.141 29.6132 46.0373 29.113 45.9085 28.6191V28.5945C45.6082 27.3749 45.006 26.2504 44.1573 25.3245C43.6649 24.8231 43.0742 24.4287 42.4223 24.1662C41.7703 23.9037 41.0712 23.7788 40.3687 23.7992C39.6955 23.7781 39.0256 23.9011 38.4038 24.1599C37.7821 24.4188 37.2228 24.8075 36.7634 25.2999C35.8713 26.35 35.2807 27.6223 35.0544 28.9815V29.0284C35.0187 29.205 34.9873 29.3817 34.9606 29.5518C34.871 30.1803 34.8196 30.9273 34.8107 31.048V31.0659C34.7902 31.5133 34.7902 31.8689 34.7971 32.1104C34.6282 32.2467 34.5058 32.4318 34.4464 32.6404C34.387 32.849 34.3936 33.0709 34.4653 33.2756C34.537 33.4803 34.6704 33.6578 34.847 33.7837C35.0236 33.9096 35.2348 33.9779 35.4517 33.979C35.6686 33.9801 35.8806 33.9141 36.0584 33.7899C36.2363 33.6659 36.3715 33.4897 36.4453 33.2858C36.5191 33.0819 36.528 32.86 36.4708 32.6508C36.4135 32.4416 36.2929 32.2552 36.1256 32.1172C36.1256 31.8935 36.1256 31.5335 36.1393 31.0839C36.1639 30.371 36.259 29.6622 36.4233 28.968V28.9322C36.6208 27.9255 37.0728 26.9861 37.7362 26.2035C38.071 25.8442 38.4797 25.5616 38.9341 25.3752C39.3885 25.1888 39.8779 25.1028 40.3686 25.1234C40.8934 25.1019 41.417 25.1903 41.9058 25.3829C42.3945 25.5754 42.8377 25.8679 43.2068 26.2416C43.838 26.9289 44.2978 27.7558 44.5487 28.6547V28.6882C44.5845 28.806 44.6173 28.9222 44.6471 29.0368C44.7668 29.4774 44.855 29.9258 44.9111 30.3789C44.9468 30.636 44.9626 30.7233 44.9871 31.0074C44.8306 31.1321 44.7154 31.3012 44.6568 31.4925C44.5981 31.6839 44.5987 31.8885 44.6584 32.0795C44.7181 32.2705 44.8342 32.439 44.9914 32.5629C45.1486 32.6868 45.3395 32.7602 45.5392 32.7736C45.7389 32.787 45.9379 32.7396 46.1103 32.6379C46.2826 32.5361 46.4201 32.3846 46.5048 32.2032C46.5894 32.022 46.6173 31.8192 46.5847 31.6218C46.5521 31.4243 46.4605 31.2414 46.3221 31.0968" fill="#FF9900"/>
<path d="M21.5177 73.2736C21.5915 74.1928 22.4972 74.6312 23.5305 74.6312C24.1994 74.6391 24.8654 74.5401 25.5032 74.3382L25.7939 75.8437C24.9676 76.1527 24.0906 76.305 23.2084 76.2907C22.7097 76.347 22.2047 76.293 21.7292 76.1325C21.2537 75.972 20.8192 75.7087 20.4565 75.3622C20.0938 75.015 19.8118 74.5927 19.6303 74.1248C19.4488 73.6569 19.3724 73.1548 19.4063 72.654C19.3769 72.1851 19.4401 71.7148 19.5924 71.2703C19.7447 70.8257 19.9832 70.4155 20.294 70.0631C20.6048 69.7107 20.9821 69.4229 21.4041 69.2163C21.8262 69.0096 22.2848 68.8881 22.7538 68.8587C22.8404 68.8533 22.927 68.851 23.0136 68.8518C23.4663 68.846 23.915 68.9373 24.3295 69.1196C24.7439 69.3019 25.1144 69.571 25.4161 69.9087C25.7177 70.2463 25.9434 70.6448 26.078 71.0771C26.2126 71.5094 26.2529 71.9655 26.1962 72.4147C26.1961 72.7085 26.1714 73.0017 26.1224 73.2915L21.5177 73.2736ZM24.1322 71.755C24.1541 71.5758 24.138 71.394 24.0851 71.2213C24.0323 71.0487 23.9437 70.8891 23.8252 70.7529C23.7067 70.6166 23.5609 70.5068 23.3972 70.4306C23.2336 70.3543 23.0557 70.3133 22.8752 70.3101C22.5056 70.3317 22.1582 70.493 21.9032 70.7613C21.6482 71.0296 21.5048 71.3849 21.502 71.755H24.1322Z" fill="white"/>
<path d="M36.7914 75.8545C35.9868 76.1673 35.1267 76.312 34.2641 76.2797C33.5901 76.3495 32.909 76.2723 32.2678 76.0525C31.6266 75.8335 31.0407 75.4772 30.5505 75.01C30.0604 74.5418 29.6776 73.973 29.4288 73.3428C29.1798 72.7125 29.0708 72.0357 29.109 71.3592C29.0775 70.6522 29.1959 69.9465 29.4564 69.2885C29.7169 68.6305 30.1136 68.035 30.6205 67.5411C31.1274 67.0472 31.7331 66.6662 32.3976 66.4229C33.0622 66.1797 33.7707 66.0797 34.4767 66.1297C35.3075 66.1038 36.1342 66.2564 36.9011 66.5771L36.4538 68.3439C35.8611 68.099 35.2254 67.975 34.584 67.9793C34.155 67.9525 33.7253 68.0193 33.3247 68.1752C32.9241 68.3312 32.5623 68.5725 32.2643 68.8824C31.9664 69.1923 31.7395 69.5634 31.5994 69.9697C31.4593 70.3761 31.4094 70.8082 31.4532 71.2358C31.4117 71.6631 31.4643 72.0944 31.6074 72.4992C31.7505 72.904 31.9806 73.2726 32.2813 73.5789C32.5821 73.8853 32.9464 74.1221 33.3486 74.2725C33.7507 74.423 34.1809 74.4835 34.6089 74.4499C35.2408 74.4485 35.8678 74.3396 36.4631 74.1278L36.7914 75.8545Z" fill="white"/>
<path d="M44.0677 76.1399L43.9358 75.4244H43.8911C43.6376 75.7139 43.3224 75.9434 42.9687 76.0949C42.615 76.2464 42.2317 76.3169 41.8471 76.3012C41.2672 76.3327 40.6987 76.1324 40.2664 75.7447C39.8341 75.3569 39.5737 74.8132 39.5422 74.2333C39.54 74.1922 39.5389 74.1506 39.5391 74.1093C39.5391 72.2551 41.2052 71.3628 43.7304 71.3784V71.2756C43.7304 70.8954 43.5268 70.3564 42.4309 70.3564C41.7378 70.3639 41.0584 70.5503 40.4584 70.8976L40.0491 69.4662C40.909 69.0331 41.8619 68.8173 42.8245 68.8376C43.2448 68.7807 43.6725 68.8208 44.0749 68.9548C44.4772 69.0889 44.8436 69.3133 45.1458 69.6108C45.448 69.9083 45.6781 70.2711 45.8185 70.6713C45.9588 71.0715 46.0056 71.4985 45.9553 71.9197V74.4022C45.9439 74.9833 45.9784 75.5647 46.0582 76.1399H44.0677ZM43.8034 72.7674C42.636 72.7517 41.7302 73.0291 41.7302 73.8857C41.722 74.0017 41.7394 74.118 41.781 74.2265C41.8226 74.335 41.8875 74.4331 41.9711 74.5139C42.0547 74.5947 42.1549 74.6563 42.2648 74.6941C42.3747 74.7321 42.4915 74.7454 42.6072 74.7334C42.861 74.7349 43.1089 74.6568 43.316 74.5099C43.523 74.3631 43.6788 74.1549 43.7612 73.9148C43.7914 73.7903 43.8064 73.6627 43.8059 73.5346L43.8034 72.7674Z" fill="white"/>
<path d="M49.691 71.3494C49.691 70.2982 49.662 69.6116 49.6328 68.9988H51.5452L51.619 70.314H51.6771C51.8057 69.8984 52.0603 69.5332 52.4056 69.2686C52.751 69.0042 53.1701 68.8536 53.6048 68.8378C53.7612 68.8315 53.9178 68.8413 54.0721 68.8668V70.9558C53.8747 70.9177 53.674 70.8983 53.4728 70.8977C53.127 70.8675 52.782 70.9643 52.5025 71.1702C52.2229 71.3761 52.028 71.6768 51.9543 72.016C51.9235 72.1797 51.9085 72.346 51.9095 72.5125V76.1339H49.6888L49.691 71.3494Z" fill="white"/>
<path d="M60.003 66.9531V68.997H61.5958V70.6322H60.003V73.2178C60.003 74.0791 60.2066 74.4748 60.8798 74.4748C61.1003 74.4754 61.3204 74.4559 61.5374 74.4167L61.5531 76.0965C61.0856 76.2405 60.5971 76.305 60.1083 76.2863C59.8042 76.299 59.5007 76.251 59.2151 76.146C58.9295 76.041 58.6675 75.8805 58.4442 75.6735C57.9747 75.0728 57.7552 74.3142 57.8314 73.5556V70.6344H56.8828V68.9996H57.8311V67.452L60.003 66.9531Z" fill="white"/>
</g>
</svg>
