<svg width="81" height="82" viewBox="0 0 81 82" fill="none" xmlns="http://www.w3.org/2000/svg">
<rect y="0.257812" width="80.8383" height="80.8383" rx="10" fill="#047AD4"/>
<mask id="mask0_1226_1164" style="mask-type:luminance" maskUnits="userSpaceOnUse" x="0" y="0" width="81" height="82">
<path d="M80.8383 0.265625H0V81.104H80.8383V0.265625Z" fill="white"/>
</mask>
<g mask="url(#mask0_1226_1164)">
<path d="M80.8181 38.5417C80.7066 32.8526 80.3406 27.2144 79.4708 21.5867C79.0172 18.6479 78.3645 15.6226 77.4049 12.7865C76.5981 10.4056 75.4207 7.86203 73.3965 6.25956C72.6814 5.69334 71.8123 5.17429 70.7892 4.70238C69.4002 4.06115 67.9618 3.53219 66.4883 3.12056C61.3194 1.67483 55.907 1.02768 50.5676 0.63067L49.0826 0.539128C43.2311 0.171288 37.3621 0.174488 31.5109 0.548709C30.9826 0.596713 30.4528 0.623808 29.9215 0.629996C29.8209 0.631119 29.7282 0.677975 29.6175 0.685311C25.6245 0.981867 21.4942 1.49691 17.5582 2.32708C15.9516 2.66545 14.3647 3.09152 12.8046 3.60335C10.9734 4.20425 9.14326 5.0056 7.58383 6.15253C7.13277 6.47868 6.7241 6.85982 6.36733 7.28711L5.88709 7.85971C5.77559 7.97356 5.68553 8.10649 5.62122 8.2523L5.17653 8.90799C4.13522 10.667 3.42272 12.6042 2.86501 14.5801C2.39095 16.2614 1.99884 17.9617 1.68866 19.6814C0.782672 24.7044 0.288209 29.8635 0.12496 34.9099C0.0803496 36.2851 0.0224156 37.6297 0.00856834 38.9902C-0.0479436 44.4805 0.171293 50.0038 0.779229 55.4629C0.806325 55.7085 0.876535 56.0018 0.895023 56.2834C0.915928 56.6003 0.947014 56.9159 0.988286 57.2305C1.49113 61.0978 2.1918 64.9821 3.46141 68.6794C4.02137 70.3092 4.73043 71.9046 5.71531 73.3006C6.89847 74.9784 8.6387 76.0927 10.5615 76.9161C13.629 78.2297 16.9564 79.0126 20.2386 79.565C23.7042 80.1489 27.1981 80.5493 30.7057 80.7664C30.8183 80.7761 30.9313 80.7783 31.0442 80.7746L31.4091 80.8233C32.7273 80.8959 34.0484 80.9834 35.3671 81.0268C40.0201 81.1788 44.6477 81.1017 49.295 80.836C49.419 80.8248 49.5423 80.8068 49.6639 80.7806L50.0981 80.7694C53.649 80.5486 57.1856 80.1391 60.6928 79.5426C64.091 78.9632 67.5765 78.1608 70.7203 76.7117C72.382 75.9453 73.9737 74.901 75.0165 73.4502C75.7837 72.3694 76.4132 71.1972 76.8907 69.9607C78.1078 66.8648 78.8705 63.5834 79.396 60.3088C79.9873 56.6059 80.384 52.8745 80.5846 49.1299C80.7829 45.4704 80.884 41.9036 80.8181 38.5417ZM2.39016 57.5394C2.3916 57.5388 2.3932 57.5388 2.39465 57.5394C2.39549 57.5395 2.39627 57.5399 2.39689 57.5405C2.39468 57.5398 2.39239 57.5394 2.39008 57.5394M3.1043 24.9963C3.1049 24.9963 3.10543 24.9969 3.10603 24.9974C3.10662 24.998 3.10827 25.0003 3.10939 25.0014L3.1043 24.9963ZM31.0104 80.4797C31.0116 80.4797 31.0127 80.4804 31.0138 80.4804C31.0165 80.4812 31.0191 80.4819 31.0213 80.4834C31.0178 80.4819 31.0142 80.4804 31.0106 80.4797M77.6385 56.2371C77.64 56.2364 77.6422 56.2361 77.6437 56.236H77.649C77.6452 56.2361 77.6422 56.2365 77.6385 56.2371ZM77.6527 24.7933C77.6505 24.7938 77.6482 24.794 77.6467 24.7939C77.6505 24.7939 77.6542 24.7933 77.6579 24.7922C77.6557 24.7929 77.6542 24.7932 77.6527 24.7933ZM77.7066 57.1147C77.7036 57.1173 77.7006 57.1196 77.6976 57.1215C77.7014 57.1192 77.7044 57.1165 77.7066 57.1136C77.7066 57.1142 77.7066 57.1142 77.7066 57.1147Z" fill="#047AD4"/>
<mask id="mask1_1226_1164" style="mask-type:luminance" maskUnits="userSpaceOnUse" x="11" y="11" width="59" height="59">
<path d="M69.6098 11.4844H11.2266V69.8676H69.6098V11.4844Z" fill="white"/>
</mask>
<g mask="url(#mask1_1226_1164)">
<path d="M42.0448 53.6752C41.0897 53.6718 40.1525 53.4163 39.3278 52.9346C38.5031 52.4528 37.8202 51.762 37.3481 50.9317L21.9765 23.6516C21.7325 23.2197 21.3891 22.8521 20.9748 22.5793C20.5605 22.3064 20.0871 22.1363 19.5939 22.0828L12.1938 21.2948C11.9105 21.2644 11.6505 21.1236 11.4703 20.9028C11.2902 20.682 11.2043 20.399 11.2315 20.1153L11.2433 20.0067C11.2725 19.7229 11.4131 19.4622 11.6341 19.2818C11.8552 19.1014 12.1388 19.0161 12.4227 19.0444L19.8248 19.8346C20.6789 19.9257 21.4987 20.2198 22.216 20.6921C22.9333 21.1644 23.5273 21.8013 23.9485 22.5498L39.3105 49.832C39.6016 50.3459 40.0325 50.7668 40.5532 51.0457C41.0739 51.3245 41.6629 51.4501 42.2521 51.4077L61.7825 49.9924C62.0682 49.971 62.3507 50.064 62.5679 50.2509C62.7851 50.4378 62.9191 50.7033 62.9406 50.9891V51.101C62.9614 51.3868 62.8678 51.6691 62.6804 51.8859C62.493 52.1027 62.2272 52.2362 61.9414 52.257H61.9405L42.4102 53.6723C42.3039 53.668 42.1743 53.6751 42.0444 53.6751" fill="white"/>
<path d="M69.4413 31.4576L64.4879 45.7066C64.2925 46.2681 63.9302 46.7565 63.4496 47.1063C62.9689 47.4562 62.3928 47.6508 61.7985 47.6641L43.2564 48.1357C42.8028 48.1462 42.3552 48.0305 41.9636 47.8014C41.5719 47.5724 41.2517 47.2389 41.0385 46.8384L31.6494 28.8628C31.5565 28.6968 31.5077 28.5098 31.5078 28.3196C31.5207 28.0108 31.6493 27.7181 31.868 27.4997C32.0868 27.2813 32.3797 27.1531 32.6886 27.1406H66.3751C66.7355 27.1576 67.0922 27.2211 67.4363 27.3295C68.2445 27.6179 68.9074 28.2119 69.2823 28.9837C69.6572 29.7557 69.7143 30.6438 69.4412 31.4574" fill="#FCD535"/>
<path d="M43.3512 56.2031C44.8612 56.2031 46.0854 57.5867 46.0854 59.2935C46.0854 61.0003 44.861 62.3838 43.3512 62.3838C41.8415 62.3838 40.6172 61.0002 40.6172 59.2935C40.6172 57.5868 41.8415 56.2031 43.3512 56.2031Z" fill="#FCD535"/>
<path d="M56.7606 57.26C56.9296 55.5617 58.2141 54.2992 59.6297 54.4405C61.0452 54.5816 62.0559 56.0721 61.8869 57.7703C61.718 59.4686 60.4334 60.7311 59.0178 60.5899C57.6023 60.4487 56.5916 58.9582 56.7606 57.26Z" fill="#FCD535"/>
<path d="M54.5092 38.0547C54.5092 38.0547 52.0395 41.5024 53.975 44.0226C53.975 44.0226 56.7674 48.1759 61.727 43.3673L65.1243 39.8489C65.1243 39.8489 59.9025 44.0831 57.957 44.0831C57.957 44.0831 55.3158 44.3553 55.1545 43.0246L54.5092 38.0547Z" fill="#047AD4"/>
<path d="M55.1603 43.0272C55.1603 43.0272 50.7852 41.6966 49.2834 41.6966C49.2834 41.6966 48.8452 41.6384 49.3919 41.5567C49.3919 41.5567 52.6202 41.2833 53.2452 41.5151C53.8701 41.747 55.1603 43.0272 55.1603 43.0272Z" fill="#047AD4"/>
<path d="M60.4329 40.2434C58.0385 42.7186 55.1187 43.7783 53.9115 42.6103C52.9879 41.7166 53.3342 39.7776 54.6207 37.8073C55.043 37.1653 55.5252 36.5648 56.0608 36.0139C58.4552 33.5387 61.375 32.479 62.5823 33.6469C63.7897 34.8149 62.8272 37.7683 60.4329 40.2434Z" fill="#047AD4"/>
<path d="M55.5 41.6253C55.5 41.6253 56.6894 38.641 61.4317 36.1172C61.4317 36.1172 59.8641 40.2902 55.5 41.6253Z" fill="#F8D43C"/>
</g>
</g>
</svg>
