<svg width="82" height="82" viewBox="0 0 82 82" fill="none" xmlns="http://www.w3.org/2000/svg">
<rect x="0.34375" y="0.421875" width="80.8383" height="80.8383" rx="10" fill="white"/>
<mask id="mask0_1226_985" style="mask-type:luminance" maskUnits="userSpaceOnUse" x="0" y="0" width="82" height="82">
<path d="M81.1821 0.421875H0.34375V81.2602H81.1821V0.421875Z" fill="white"/>
</mask>
<g mask="url(#mask0_1226_985)">
<path d="M81.1619 38.698C81.0503 33.0088 80.6843 27.3706 79.8146 21.743C79.361 18.8041 78.7083 15.7788 77.7487 12.9428C76.9418 10.5618 75.7644 8.01828 73.7402 6.41581C73.0251 5.84959 72.156 5.33054 71.133 4.85863C69.7439 4.2174 68.3056 3.68844 66.832 3.27681C61.6631 1.83108 56.2508 1.18393 50.9113 0.78692L49.4264 0.695378C43.5749 0.327538 37.7059 0.330738 31.8547 0.704959C31.3264 0.752963 30.7966 0.780058 30.2652 0.786246C30.1646 0.787369 30.072 0.834225 29.9613 0.841561C25.9682 1.13812 21.8379 1.65316 17.902 2.48333C16.2954 2.8217 14.7085 3.24777 13.1484 3.7596C11.3172 4.3605 9.48701 5.16185 7.92758 6.30878C7.47652 6.63493 7.06785 7.01607 6.71108 7.44336L6.23084 8.01596C6.11934 8.12981 6.02928 8.26274 5.96497 8.40855L5.52028 9.06424C4.47897 10.8232 3.76647 12.7604 3.20876 14.7364C2.7347 16.4176 2.34259 18.118 2.03241 19.8377C1.12642 24.8606 0.631959 30.0197 0.46871 35.0662C0.4241 36.4413 0.366166 37.7859 0.352318 39.1464C0.295806 44.6368 0.515043 50.16 1.12298 55.6191C1.15007 55.8648 1.22028 56.158 1.23877 56.4397C1.25968 56.7565 1.29076 57.0722 1.33204 57.3868C1.83488 61.2541 2.53555 65.1383 3.80516 68.8356C4.36512 70.4654 5.07418 72.0609 6.05906 73.4568C7.24222 75.1347 8.98245 76.249 10.9052 77.0723C13.9727 78.3859 17.3002 79.1689 20.5824 79.7213C24.0479 80.3051 27.5418 80.7056 31.0494 80.9226C31.162 80.9324 31.275 80.9346 31.3879 80.9309L31.7529 80.9795C33.0711 81.0521 34.3921 81.1397 35.7109 81.1831C40.3639 81.335 44.9914 81.258 49.6387 80.9922C49.7628 80.981 49.886 80.963 50.0077 80.9368L50.4418 80.9256C53.9927 80.7048 57.5293 80.2954 61.0366 79.6988C64.4348 79.1195 67.9203 78.3171 71.064 76.868C72.7257 76.1015 74.3175 75.0572 75.3602 73.6065C76.1274 72.5256 76.7569 71.3535 77.2345 70.1169C78.4515 67.021 79.2143 63.7397 79.7397 60.4651C80.331 56.7621 80.7277 53.0307 80.9283 49.2862C81.1267 45.6267 81.2277 42.0598 81.1619 38.698ZM2.73391 57.6956C2.73535 57.6951 2.73695 57.6951 2.7384 57.6956C2.73924 57.6958 2.74002 57.6961 2.74064 57.6967C2.73843 57.6961 2.73614 57.6957 2.73383 57.6956M3.44805 25.1526C3.44865 25.1526 3.44918 25.1532 3.44978 25.1537C3.45037 25.1542 3.45202 25.1565 3.45314 25.1577L3.44805 25.1526ZM31.3542 80.6359C31.3554 80.6359 31.3565 80.6367 31.3575 80.6367C31.3602 80.6374 31.3628 80.6382 31.365 80.6397C31.3616 80.6382 31.358 80.6367 31.3543 80.6359M77.9822 56.3934C77.9837 56.3927 77.986 56.3923 77.9875 56.3922H77.9927C77.989 56.3924 77.986 56.3928 77.9822 56.3934ZM77.9964 24.9496C77.9942 24.95 77.992 24.9502 77.9905 24.9502C77.9942 24.9502 77.9979 24.9496 78.0017 24.9484C77.9994 24.9491 77.9979 24.9495 77.9964 24.9496ZM78.0503 57.271C78.0474 57.2736 78.0444 57.2758 78.0414 57.2778C78.0451 57.2755 78.0481 57.2728 78.0503 57.2699C78.0503 57.2705 78.0503 57.2705 78.0503 57.271Z" fill="white"/>
<mask id="mask1_1226_985" style="mask-type:luminance" maskUnits="userSpaceOnUse" x="12" y="12" width="57" height="57">
<path d="M68.833 12.7656H12.6953V68.9033H68.833V12.7656Z" fill="white"/>
</mask>
<g mask="url(#mask1_1226_985)">
<path d="M22.5129 67.3606C21.9509 67.3605 21.4004 67.2014 20.9248 66.9019C20.4492 66.6023 20.0679 66.1744 19.8248 65.6675C19.5816 65.1606 19.4867 64.5953 19.5507 64.0368C19.6147 63.4781 19.8352 62.9491 20.1867 62.5104L25.4885 55.9034C25.9859 55.2932 26.7041 54.9043 27.4867 54.8213C28.2694 54.7383 29.0531 54.9681 29.6672 55.4605C30.2813 55.9528 30.6761 56.668 30.7656 57.4503C30.8552 58.2325 30.632 59.0184 30.145 59.6369L24.8421 66.2435C24.5625 66.5927 24.2078 66.8746 23.8045 67.068C23.4012 67.2613 22.9595 67.3614 22.5122 67.3606H22.5129Z" fill="#00B2CA"/>
<path d="M44.0778 46.159C42.3173 46.1581 40.5854 45.714 39.0417 44.8675C37.4979 44.0211 36.1919 42.7996 35.2441 41.3155C34.2962 39.8315 33.7369 38.1327 33.6178 36.3756C33.4986 34.6185 33.8235 32.8598 34.5623 31.2613C35.3012 29.6628 36.4303 28.276 37.8457 27.2288C39.261 26.1816 40.9171 25.5075 42.6612 25.2688C44.4054 25.03 46.1816 25.2343 47.8261 25.8627C49.4707 26.4911 50.9307 27.5234 52.0715 28.8646C52.4445 29.3021 52.6347 29.8663 52.6028 30.4403C52.5708 31.0143 52.3191 31.554 51.8998 31.9473L47.751 35.841C47.5376 36.0456 47.2857 36.2059 47.01 36.3125C46.7343 36.4192 46.4401 36.4701 46.1446 36.4624C45.8491 36.4547 45.558 36.3884 45.2882 36.2676C45.0185 36.1466 44.7753 35.9735 44.5728 35.758C44.3703 35.5425 44.2125 35.289 44.1085 35.0122C44.0045 34.7353 43.9564 34.4406 43.9669 34.145C43.9775 33.8495 44.0464 33.559 44.1698 33.2902C44.2933 33.0215 44.4687 32.7799 44.686 32.5794L47.0013 30.405C46.0049 29.8512 44.8717 29.592 43.7337 29.6577C42.5958 29.7233 41.4998 30.1111 40.5736 30.7756C39.6474 31.4403 38.929 32.3545 38.5022 33.4119C38.0752 34.4692 37.9574 35.6261 38.1624 36.7478C38.3674 37.8695 38.8867 38.9099 39.66 39.7478C40.4332 40.5856 41.4284 41.1864 42.5298 41.4803C43.6311 41.7741 44.7933 41.7489 45.8809 41.4075C46.9685 41.0661 47.9367 40.4227 48.6728 39.5521C49.0562 39.0986 49.6039 38.8161 50.1954 38.7667C50.7869 38.7173 51.3739 38.9049 51.8271 39.2884C52.2803 39.6718 52.5627 40.2197 52.6121 40.8115C52.6616 41.4033 52.474 41.9905 52.0906 42.4438C51.1053 43.609 49.8777 44.545 48.4935 45.1866C47.1093 45.8281 45.6018 46.1599 44.0763 46.1587L44.0778 46.159Z" fill="#FA6E53"/>
<path d="M43.8376 57.4934C40.1574 57.4911 36.5369 56.5622 33.3098 54.7925C30.0827 53.0227 27.3527 50.4689 25.3714 47.3663C23.39 44.2639 22.221 40.7124 21.9721 37.0392C21.7232 33.366 22.4023 29.6891 23.947 26.3475C25.4916 23.0058 27.8521 20.1067 30.811 17.9175C33.7698 15.7282 37.2318 14.319 40.878 13.8198C44.5243 13.3206 48.2375 13.7475 51.6754 15.0609C55.1134 16.3745 58.1658 18.5325 60.5511 21.3361C61.0604 21.9397 61.31 22.7206 61.245 23.5079C61.1801 24.2951 60.8059 25.0245 60.2045 25.5363C59.6031 26.0482 58.8234 26.3008 58.0363 26.2388C57.2491 26.1767 56.5185 25.8052 56.0046 25.2055C53.8864 22.7144 51.0549 20.9338 47.8926 20.1044C44.7303 19.275 41.3899 19.4367 38.3224 20.5677C35.255 21.6987 32.6085 23.7444 30.7406 26.4284C28.8728 29.1124 27.8735 32.3053 27.8779 35.5758C27.8824 38.8462 28.8903 42.0364 30.7654 44.7154C32.6406 47.3942 35.2926 49.4328 38.3631 50.5554C41.4336 51.678 44.7746 51.8306 47.9345 50.9927C51.0946 50.1547 53.9213 48.3664 56.0327 45.8696C56.5481 45.2804 57.2743 44.9175 58.0547 44.8588C58.8351 44.8002 59.6074 45.0508 60.2049 45.5564C60.8025 46.062 61.1776 46.7822 61.2493 47.5618C61.3211 48.3415 61.0837 49.1181 60.5885 49.7243C58.5287 52.1597 55.9626 54.1163 53.0692 55.4574C50.1758 56.7986 47.0247 57.4922 43.8357 57.4897L43.8376 57.4934Z" fill="#00B2CA"/>
</g>
</g>
</svg>
