<svg width="81" height="82" viewBox="0 0 81 82" fill="none" xmlns="http://www.w3.org/2000/svg">
<rect y="0.421875" width="80.8383" height="80.8383" rx="10" fill="url(#paint0_linear_1226_933)"/>
<mask id="mask0_1226_933" style="mask-type:luminance" maskUnits="userSpaceOnUse" x="0" y="0" width="81" height="82">
<path d="M80.8383 0.421875H0V81.2602H80.8383V0.421875Z" fill="white"/>
</mask>
<g mask="url(#mask0_1226_933)">
<path d="M80.8181 38.698C80.7066 33.0088 80.3406 27.3706 79.4708 21.743C79.0172 18.8041 78.3645 15.7788 77.4049 12.9428C76.5981 10.5618 75.4207 8.01828 73.3965 6.41581C72.6814 5.84959 71.8123 5.33054 70.7892 4.85863C69.4002 4.2174 67.9618 3.68844 66.4883 3.27681C61.3194 1.83108 55.907 1.18393 50.5676 0.78692L49.0826 0.695378C43.2311 0.327538 37.3621 0.330738 31.5109 0.704959C30.9826 0.752963 30.4528 0.780058 29.9215 0.786246C29.8209 0.787369 29.7282 0.834225 29.6175 0.841561C25.6245 1.13812 21.4942 1.65316 17.5582 2.48333C15.9516 2.8217 14.3647 3.24777 12.8046 3.7596C10.9734 4.3605 9.14326 5.16185 7.58383 6.30878C7.13277 6.63493 6.7241 7.01607 6.36733 7.44336L5.88709 8.01596C5.77559 8.12981 5.68553 8.26274 5.62122 8.40855L5.17653 9.06424C4.13522 10.8232 3.42272 12.7604 2.86501 14.7364C2.39095 16.4176 1.99884 18.118 1.68866 19.8377C0.782672 24.8606 0.288209 30.0197 0.12496 35.0662C0.0803496 36.4413 0.0224156 37.7859 0.00856834 39.1464C-0.0479436 44.6368 0.171293 50.16 0.779229 55.6191C0.806325 55.8648 0.876535 56.158 0.895023 56.4397C0.915928 56.7565 0.947014 57.0722 0.988286 57.3868C1.49113 61.2541 2.1918 65.1383 3.46141 68.8356C4.02137 70.4654 4.73043 72.0609 5.71531 73.4568C6.89847 75.1347 8.6387 76.249 10.5615 77.0723C13.629 78.3859 16.9564 79.1689 20.2386 79.7213C23.7042 80.3051 27.1981 80.7056 30.7057 80.9226C30.8183 80.9324 30.9313 80.9346 31.0442 80.9309L31.4091 80.9795C32.7273 81.0521 34.0484 81.1397 35.3671 81.1831C40.0201 81.335 44.6477 81.258 49.295 80.9922C49.419 80.981 49.5423 80.963 49.6639 80.9368L50.0981 80.9256C53.649 80.7048 57.1856 80.2954 60.6928 79.6988C64.091 79.1195 67.5765 78.3171 70.7203 76.868C72.382 76.1015 73.9737 75.0572 75.0165 73.6065C75.7837 72.5256 76.4132 71.3535 76.8907 70.1169C78.1078 67.021 78.8705 63.7397 79.396 60.4651C79.9873 56.7621 80.384 53.0307 80.5846 49.2862C80.7829 45.6267 80.884 42.0598 80.8181 38.698ZM2.39016 57.6956C2.3916 57.6951 2.3932 57.6951 2.39465 57.6956C2.39549 57.6958 2.39627 57.6961 2.39689 57.6967C2.39468 57.6961 2.39239 57.6957 2.39008 57.6956M3.1043 25.1526C3.1049 25.1526 3.10543 25.1532 3.10603 25.1537C3.10662 25.1542 3.10827 25.1565 3.10939 25.1577L3.1043 25.1526ZM31.0104 80.6359C31.0116 80.6359 31.0127 80.6367 31.0138 80.6367C31.0165 80.6374 31.0191 80.6382 31.0213 80.6397C31.0178 80.6382 31.0142 80.6367 31.0106 80.6359M77.6385 56.3934C77.64 56.3927 77.6422 56.3923 77.6437 56.3922H77.649C77.6452 56.3924 77.6422 56.3928 77.6385 56.3934ZM77.6527 24.9496C77.6505 24.95 77.6482 24.9502 77.6467 24.9502C77.6505 24.9502 77.6542 24.9496 77.6579 24.9484C77.6557 24.9491 77.6542 24.9495 77.6527 24.9496ZM77.7066 57.271C77.7036 57.2736 77.7006 57.2758 77.6976 57.2778C77.7014 57.2755 77.7044 57.2728 77.7066 57.2699C77.7066 57.2705 77.7066 57.2705 77.7066 57.271Z" fill="url(#paint1_linear_1226_933)"/>
<path d="M53.374 44.5402C54.0514 42.1709 54.0514 39.6589 53.374 37.2897H59.0532C59.2382 37.2904 59.4214 37.2546 59.5925 37.1841C59.7635 37.1136 59.9189 37.0098 60.0496 36.8789C60.1804 36.748 60.284 36.5924 60.3544 36.4212C60.4249 36.25 60.4607 36.0665 60.46 35.8814C60.4684 35.7573 60.4506 35.6329 60.4079 35.5163C57.4381 24.4579 46.0799 17.8854 35.0342 20.8586C23.9365 23.8319 17.424 35.2032 20.3936 46.2616C21.5761 50.6668 24.1782 54.5579 27.796 57.3309C31.4136 60.1039 35.8446 61.6036 40.4008 61.5972H51.4984C51.8066 61.5959 52.1121 61.6557 52.3971 61.7732C52.6821 61.8907 52.9411 62.0636 53.1591 62.2818C53.377 62.5 53.5497 62.7593 53.6671 63.0446C53.7845 63.33 53.8443 63.6358 53.843 63.9444V66.5526C53.8443 66.8612 53.7845 67.1669 53.6672 67.4523C53.5498 67.7377 53.3771 67.9969 53.1591 68.2152C52.9412 68.4334 52.6822 68.6063 52.3972 68.7237C52.1121 68.8412 51.8067 68.9011 51.4984 68.8999H40.1922C24.8221 68.8999 12.4219 56.4332 12.4219 41.045V40.7323C12.474 25.2402 25.0306 12.7734 40.4527 12.7734C55.927 12.826 68.3793 25.3966 68.3273 40.8367C68.3359 41.3241 68.3186 41.8117 68.2752 42.2972C68.2485 42.8877 67.9952 43.4451 67.5681 43.8532C67.141 44.2614 66.5731 44.4888 65.9827 44.4881L53.374 44.5402Z" fill="white"/>
<path d="M54.2094 40.8867C54.2094 48.3459 48.1653 54.3967 40.7149 54.3967C38.619 54.3981 36.5518 53.9082 34.6791 52.9662C32.8063 52.0242 31.1798 50.6562 29.9298 48.9718C29.5652 48.4503 29.6693 47.7199 30.1382 47.3549C30.3363 47.2156 30.5732 47.1426 30.8152 47.1463H39.6208L41.7049 45.0599V36.7141L39.6208 34.6276H30.7634C30.4603 34.6248 30.1703 34.5031 29.956 34.2885C29.7416 34.0739 29.6199 33.7836 29.6172 33.4801C29.6172 33.2191 29.7215 33.0106 29.8256 32.8022C34.2546 26.8035 42.6948 25.6038 48.6865 30.0376C52.2295 32.5935 54.2093 36.6099 54.2093 40.8873" fill="white"/>
<path d="M63.8768 61.8125C65.0787 61.8133 66.2312 62.2918 67.081 63.1426C67.9309 63.9935 68.4088 65.1472 68.4097 66.3506V67.2373C68.4125 67.4573 68.3714 67.6756 68.2887 67.8794C68.2059 68.0832 68.0831 68.2684 67.9277 68.424C67.7723 68.5796 67.5875 68.7024 67.3839 68.7853C67.1803 68.8682 66.9622 68.9094 66.7425 68.9065H61.0111C60.7914 68.9094 60.5732 68.8682 60.3697 68.7853C60.1661 68.7024 59.9812 68.5796 59.8258 68.424C59.6704 68.2684 59.5477 68.0832 59.4649 67.8794C59.3821 67.6756 59.341 67.4573 59.3439 67.2373V66.3506C59.3448 65.1472 59.8226 63.9935 60.6725 63.1426C61.5224 62.2918 62.6749 61.8133 63.8768 61.8125Z" fill="white"/>
<path d="M63.8691 54.7734C64.4549 54.7734 65.0277 54.9472 65.5149 55.2729C66.0021 55.5987 66.3819 56.0618 66.6061 56.6037C66.8305 57.1455 66.8892 57.7418 66.775 58.3171C66.6608 58.8925 66.3787 59.4209 65.9645 59.8357C65.5503 60.2505 65.0225 60.533 64.4479 60.6475C63.8733 60.762 63.2777 60.7033 62.7364 60.4788C62.1951 60.2544 61.7324 59.8743 61.4069 59.3866C61.0814 58.899 60.9077 58.3255 60.9077 57.739C60.8557 56.1263 62.2065 54.7734 63.8691 54.7734Z" fill="white"/>
</g>
<defs>
<linearGradient id="paint0_linear_1226_933" x1="-2.26402e-09" y1="37.6883" x2="80.8385" y2="38.1734" gradientUnits="userSpaceOnUse">
<stop stop-color="#1F4AC8"/>
<stop offset="1" stop-color="#163890"/>
</linearGradient>
<linearGradient id="paint1_linear_1226_933" x1="-2.26401e-09" y1="37.6883" x2="80.8383" y2="38.1734" gradientUnits="userSpaceOnUse">
<stop stop-color="#1F4AC8"/>
<stop offset="1" stop-color="#163890"/>
</linearGradient>
</defs>
</svg>
