<svg width="81" height="81" viewBox="0 0 81 81" fill="none" xmlns="http://www.w3.org/2000/svg">
<rect width="80.8383" height="80.8383" rx="10" fill="url(#paint0_radial_1226_822)"/>
<mask id="mask0_1226_822" style="mask-type:luminance" maskUnits="userSpaceOnUse" x="-1" y="0" width="82" height="81">
<path d="M80.8305 0.0078125H-0.0078125V80.8461H80.8305V0.0078125Z" fill="white"/>
</mask>
<g mask="url(#mask0_1226_822)">
<path d="M80.8103 38.2839C80.6988 32.5948 80.3328 26.9565 79.463 21.3289C79.0094 18.3901 78.3567 15.3648 77.3971 12.5287C76.5902 10.1478 75.4129 7.60422 73.3887 6.00175C72.6736 5.43553 71.8045 4.91647 70.7814 4.44456C69.3923 3.80334 67.954 3.27438 66.4804 2.86275C61.3116 1.41702 55.8992 0.769863 50.5598 0.372857L49.0748 0.281315C43.2233 -0.0865244 37.3543 -0.0833245 31.5031 0.290896C30.9748 0.3389 30.445 0.365996 29.9137 0.372184C29.8131 0.373306 29.7204 0.420163 29.6097 0.427498C25.6167 0.724055 21.4864 1.2391 17.5504 2.06926C15.9438 2.40764 14.3569 2.8337 12.7968 3.34554C10.9656 3.94644 9.13545 4.74778 7.57602 5.89471C7.12496 6.22087 6.71629 6.602 6.35952 7.02929L5.87928 7.6019C5.76778 7.71575 5.67772 7.84868 5.61341 7.99449L5.16872 8.65018C4.1274 10.4092 3.4149 12.3464 2.8572 14.3223C2.38314 16.0035 1.99103 17.7039 1.68085 19.4236C0.77486 24.4466 0.280396 29.6056 0.117148 34.6521C0.0725371 36.0273 0.0146031 37.3719 0.000755836 38.7324C-0.0557561 44.2227 0.16348 49.746 0.771417 55.205C0.798512 55.4507 0.868722 55.744 0.88721 56.0256C0.908116 56.3425 0.939201 56.6581 0.980473 56.9727C1.48332 60.84 2.18399 64.7243 3.4536 68.4216C4.01356 70.0514 4.72261 71.6468 5.70749 73.0428C6.89065 74.7206 8.63089 75.8349 10.5536 76.6583C13.6212 77.9719 16.9486 78.7548 20.2308 79.3072C23.6964 79.891 27.1902 80.2915 30.6979 80.5086C30.8105 80.5183 30.9235 80.5205 31.0364 80.5168L31.4013 80.5654C32.7195 80.6381 34.0405 80.7256 35.3593 80.769C40.0123 80.921 44.6399 80.8439 49.2872 80.5782C49.4112 80.5669 49.5345 80.549 49.6561 80.5228L50.0902 80.5116C53.6411 80.2907 57.1777 79.8813 60.685 79.2848C64.0832 78.7054 67.5687 77.903 70.7125 76.4539C72.3742 75.6875 73.9659 74.6431 75.0087 73.1924C75.7759 72.1116 76.4054 70.9394 76.8829 69.7029C78.1 66.607 78.8627 63.3256 79.3882 60.051C79.9795 56.3481 80.3762 52.6166 80.5768 48.8721C80.7751 45.2126 80.8762 41.6458 80.8103 38.2839ZM2.38234 57.2815C2.38379 57.281 2.38539 57.281 2.38684 57.2815C2.38768 57.2817 2.38846 57.2821 2.38908 57.2827C2.38687 57.282 2.38458 57.2816 2.38227 57.2815M3.09649 24.7385C3.09709 24.7385 3.09761 24.7391 3.09821 24.7396C3.09881 24.7401 3.10046 24.7425 3.10158 24.7436L3.09649 24.7385ZM31.0026 80.2219C31.0038 80.2219 31.0049 80.2226 31.006 80.2226C31.0087 80.2234 31.0113 80.2241 31.0134 80.2256C31.01 80.2241 31.0064 80.2226 31.0027 80.2219M77.6307 55.9793C77.6322 55.9786 77.6344 55.9782 77.6359 55.9782H77.6411C77.6374 55.9783 77.6344 55.9787 77.6307 55.9793ZM77.6449 24.5355C77.6426 24.536 77.6404 24.5362 77.6389 24.5361C77.6426 24.5361 77.6464 24.5355 77.6501 24.5344C77.6479 24.5351 77.6464 24.5354 77.6449 24.5355ZM77.6988 56.8569C77.6958 56.8595 77.6928 56.8618 77.6898 56.8637C77.6935 56.8614 77.6965 56.8587 77.6988 56.8558C77.6988 56.8564 77.6988 56.8564 77.6988 56.8569Z" fill="url(#paint1_radial_1226_822)"/>
<path d="M62.1739 30.1391C60.8008 29.8518 59.4278 30.0044 58.0478 29.9845C57.4582 29.9759 57.2249 29.8026 57.1897 29.1834C57.1334 28.3652 57.0186 27.5521 56.8462 26.7502C54.718 16.0294 42.1329 10.1613 32.5721 15.4702C27.1784 18.4661 24.1696 23.0821 23.6402 29.2529C23.5886 29.8464 23.352 29.9981 22.819 29.987C21.8801 29.9655 20.9396 29.9621 20.0008 29.987C15.5546 30.1174 11.8842 34.199 12.3906 38.5053C12.636 40.598 13.011 42.6761 13.326 44.7662C14.0597 49.6317 14.8287 54.4912 15.5091 59.3644C15.8576 61.8593 16.6024 64.0936 18.6843 65.7008C20.3251 66.9668 22.2148 67.3656 24.2228 67.369C29.6247 67.377 35.0275 67.377 40.4311 67.369C45.8642 67.369 51.2955 67.3895 56.7278 67.363C61.4683 67.3407 64.4349 64.8827 65.18 60.2261C66.2955 53.2276 67.2953 46.2101 68.3826 39.2057C69.0417 34.9868 66.3402 31.0116 62.1738 30.1385M40.3764 29.9722C36.034 29.9722 31.6908 29.9593 27.3493 29.985C26.6628 29.9902 26.4577 29.8297 26.5023 29.0999C26.8645 23.0157 31.9799 17.4255 38.06 16.5249C45.8695 15.368 52.6609 20.1418 54.2023 27.877C54.6201 29.9725 54.6201 29.9725 52.5246 29.9725L40.3764 29.9722Z" fill="white"/>
<path d="M40.585 46.8743H48.0107L47.7902 46.2456C47.3816 45.0943 46.7066 44.0558 45.8201 43.2146C44.3958 41.859 42.5034 41.104 40.5364 41.1065C40.3956 41.1065 40.2528 41.1065 40.1074 41.1195C36.2455 41.3209 33.0592 44.5063 32.8575 48.3709C32.8027 49.3778 32.9468 50.3855 33.2817 51.3367C33.6166 52.2879 34.1357 53.1638 34.8093 53.9144C35.483 54.6651 36.2981 55.2759 37.208 55.7118C38.1179 56.1477 39.1048 56.4003 40.1123 56.4551C40.2518 56.4627 40.3914 56.4665 40.5313 56.4664H49.9125C50.1818 56.4665 50.4485 56.5195 50.6974 56.6225C50.9462 56.7255 51.1723 56.8766 51.3628 57.0669C51.5533 57.2573 51.7043 57.4832 51.8074 57.7319C51.9104 57.9805 51.9635 58.2471 51.9634 58.5162C51.9635 58.9847 51.7774 59.434 51.4461 59.7655C51.1148 60.0969 50.6653 60.2834 50.1965 60.2839H40.537C39.0262 60.284 37.5301 59.9868 36.1342 59.4092C34.7384 58.8316 33.4701 57.9849 32.4017 56.9175C31.3333 55.8501 30.4857 54.5829 29.9074 53.1881C29.3292 51.7934 29.0314 50.2985 29.0312 48.7888C29.0312 48.5827 29.0368 48.3768 29.0478 48.1711C29.3506 42.3802 34.1264 37.6116 39.9182 37.3062C40.1267 37.2951 40.3353 37.2891 40.5404 37.2891C43.3599 37.2906 46.0808 38.3264 48.1865 40.2001C50.2923 42.0738 51.6362 44.6548 51.9634 47.4532V49.3126C51.8564 49.6772 51.6435 50.002 51.3515 50.2456C50.9886 50.5419 50.5329 50.701 50.0643 50.6951H40.5387C40.2683 50.6951 40.001 50.6378 39.7544 50.5271C39.5078 50.4163 39.2875 50.2546 39.108 50.0525C38.9285 49.8504 38.7939 49.6126 38.7131 49.3548C38.6324 49.0969 38.6071 48.8249 38.6393 48.5566C38.7024 48.0873 38.9351 47.6573 39.2934 47.3474C39.6518 47.0376 40.1111 46.8693 40.585 46.8743Z" fill="#27B277"/>
</g>
<defs>
<radialGradient id="paint0_radial_1226_822" cx="0" cy="0" r="1" gradientUnits="userSpaceOnUse" gradientTransform="translate(73.9897 6.8488) rotate(136.652) scale(92.7403 92.7403)">
<stop stop-color="#78C797"/>
<stop offset="0.78" stop-color="#27B277"/>
</radialGradient>
<radialGradient id="paint1_radial_1226_822" cx="0" cy="0" r="1" gradientUnits="userSpaceOnUse" gradientTransform="translate(73.9817 6.85662) rotate(136.652) scale(92.7403 92.7403)">
<stop stop-color="#78C797"/>
<stop offset="0.78" stop-color="#27B277"/>
</radialGradient>
</defs>
</svg>
