<svg width="81" height="80" viewBox="0 0 81 80" fill="none" xmlns="http://www.w3.org/2000/svg">
<rect width="81" height="80" rx="10" fill="url(#paint0_linear_1226_943)"/>
<path d="M80.9798 38.0873C80.868 32.4854 80.5013 26.9337 79.6298 21.3924C79.1753 18.4986 78.5213 15.5198 77.5598 12.7272C76.7513 10.3828 75.5715 7.87829 73.5433 6.30041C72.8267 5.74287 71.9559 5.23178 70.9308 4.76711C69.539 4.13572 68.0978 3.61488 66.6212 3.20957C61.442 1.78602 56.0189 1.1488 50.6687 0.757881L49.1808 0.667744C43.3176 0.305548 37.4369 0.308699 31.574 0.677178C31.0446 0.724445 30.5138 0.751125 29.9813 0.757218C29.8805 0.758323 29.7877 0.804461 29.6768 0.811684C25.6757 1.10369 21.5372 1.61083 17.5934 2.42826C15.9836 2.76144 14.3935 3.18097 12.8303 3.68495C10.9954 4.27663 9.16155 5.06568 7.599 6.19501C7.14704 6.51616 6.73755 6.89145 6.38006 7.31218L5.89886 7.876C5.78714 7.9881 5.6969 8.119 5.63246 8.26257L5.18689 8.9082C4.14349 10.6402 3.42956 12.5477 2.87074 14.4933C2.39573 16.1487 2.00284 17.823 1.69204 19.5163C0.784237 24.4622 0.288785 29.5421 0.12521 34.5112C0.0805102 35.8652 0.0224605 37.1892 0.00858547 38.5288C-0.0480395 43.9349 0.171635 49.3734 0.780787 54.7487C0.807937 54.9906 0.878288 55.2794 0.896813 55.5567C0.91776 55.8687 0.948908 56.1795 0.990263 56.4893C1.49411 60.2972 2.19619 64.1219 3.46834 67.7625C4.02941 69.3673 4.73989 70.9382 5.72674 72.3128C6.91226 73.9649 8.65598 75.0621 10.5826 75.8728C13.6562 77.1663 16.9904 77.9372 20.2791 78.4811C23.7516 79.056 27.2525 79.4503 30.7671 79.664C30.8799 79.6736 30.9932 79.6758 31.1063 79.6721L31.472 79.72C32.7928 79.7915 34.1165 79.8777 35.4379 79.9205C40.1002 80.0701 44.737 79.9942 49.3936 79.7325C49.5179 79.7215 49.6414 79.7038 49.7633 79.678L50.1983 79.667C53.7563 79.4495 57.2999 79.0464 60.8142 78.459C64.2192 77.8885 67.7117 77.0984 70.8617 75.6716C72.5267 74.9169 74.1217 73.8886 75.1665 72.4601C75.9353 71.3958 76.566 70.2417 77.0445 69.0241C78.264 65.9757 79.0283 62.7447 79.5548 59.5203C80.1473 55.8742 80.5448 52.2001 80.7458 48.513C80.9445 44.9096 81.0458 41.3975 80.9798 38.0873ZM2.39494 56.7934C2.39639 56.7929 2.39799 56.7929 2.39944 56.7934C2.40029 56.7935 2.40107 56.7939 2.40169 56.7945C2.39947 56.7938 2.39717 56.7934 2.39486 56.7934M3.11051 24.7497C3.11111 24.7497 3.11164 24.7503 3.11224 24.7508C3.11284 24.7513 3.11449 24.7536 3.11561 24.7547L3.11051 24.7497ZM31.0724 79.3817C31.0736 79.3817 31.0748 79.3825 31.0758 79.3825C31.0785 79.3832 31.0811 79.3839 31.0833 79.3854C31.0799 79.3839 31.0763 79.3825 31.0726 79.3817M77.7938 55.5111C77.7953 55.5104 77.7975 55.5101 77.799 55.51H77.8043C77.8005 55.5101 77.7975 55.5105 77.7938 55.5111ZM77.808 24.5498C77.8057 24.5502 77.8035 24.5504 77.802 24.5504C77.8058 24.5504 77.8095 24.5498 77.8133 24.5487C77.811 24.5493 77.8095 24.5497 77.808 24.5498ZM77.862 56.3753C77.859 56.3778 77.856 56.38 77.853 56.382C77.8568 56.3797 77.8598 56.377 77.862 56.3742C77.862 56.3747 77.862 56.3747 77.862 56.3753Z" fill="url(#paint1_linear_1226_943)"/>
<path d="M12.3516 0H68.5758V8.36575C68.5758 12.5079 65.2179 15.8657 61.0758 15.8657H19.8516C15.7094 15.8657 12.3516 12.5079 12.3516 8.36574V0Z" fill="white"/>
<path d="M27.9556 12.7691L25.7266 3.54584H27.9953L28.703 7.34821C28.9113 8.44349 29.1065 9.62324 29.2619 10.5657H29.2883C29.4405 9.56457 29.6654 8.45971 29.9033 7.31541L30.6938 3.53906H32.9493L33.7033 7.43901C33.9117 8.52132 34.0638 9.50598 34.2028 10.533H34.2292C34.3681 9.50598 34.5765 8.42706 34.7716 7.3286L35.5388 3.55225H37.6953L35.2711 12.7758H32.9726L32.1789 8.80765C31.9971 7.87495 31.8481 7.0167 31.7357 5.96061H31.7095C31.5409 7.00063 31.3788 7.87481 31.1671 8.80765L30.2746 12.7758L27.9556 12.7691Z" fill="#EB5387"/>
<path d="M45.4263 8.87024H41.9736V11.0606H45.8295V12.7705H39.8438V3.54688H45.6345V5.25631H41.9736V7.17045H45.4263V8.87024Z" fill="#EB5387"/>
<path d="M48.3125 3.66406C49.2207 3.52678 50.1387 3.46269 51.0575 3.47243C52.0114 3.39048 52.9698 3.57049 53.8257 3.9924C54.1659 4.16006 54.4517 4.41772 54.6509 4.73639C54.8501 5.05505 54.9548 5.42204 54.9532 5.79603C54.9453 6.24425 54.7903 6.67797 54.5115 7.03275C54.2327 7.38755 53.8448 7.64447 53.4055 7.76542V7.79143C53.9358 7.90088 54.4113 8.18721 54.7512 8.60186C55.0912 9.0165 55.2747 9.53389 55.2708 10.0664C55.2721 10.443 55.1851 10.8148 55.0164 11.153C54.8478 11.4912 54.6021 11.7867 54.2984 12.0164C53.1955 12.6839 51.9002 12.9773 50.6112 12.8516C49.8427 12.8592 49.0747 12.8136 48.3127 12.7152L48.3125 3.66406ZM50.4162 7.19342H51.1107C52.2253 7.19342 52.8271 6.74501 52.8271 6.05929C52.8271 5.37357 52.2847 4.99327 51.3224 4.99327C51.0205 4.9886 50.7186 5.00708 50.4195 5.04855L50.4162 7.19342ZM50.4162 11.2851C50.6888 11.3104 50.9627 11.3191 51.2363 11.3111C52.1986 11.3111 53.0453 10.9569 53.0453 9.98517C53.0453 9.01348 52.1986 8.68529 51.1371 8.68529H50.4162V11.2851Z" fill="#EB5387"/>
<mask id="mask0_1226_943" style="mask-type:luminance" maskUnits="userSpaceOnUse" x="14" y="23" width="53" height="52">
<path d="M66.7578 23.1719H14.2578V74.7631H66.7578V23.1719Z" fill="white"/>
</mask>
<g mask="url(#mask0_1226_943)">
<path d="M66.7602 67.5496C66.7603 68.8822 66.3575 70.1849 65.6029 71.2929C64.8482 72.4009 63.7756 73.2646 62.5205 73.7746C61.2655 74.2844 59.8845 74.4178 58.5521 74.1583C57.2198 73.8983 55.9959 73.2566 55.0353 72.3143C54.0746 71.3721 53.4205 70.1716 53.1554 68.8646C52.8904 67.5576 53.0264 66.2029 53.5462 64.9718C54.066 63.7406 54.9464 62.6884 56.0759 61.948C57.2054 61.2076 58.5334 60.8125 59.8918 60.8125C61.7133 60.8125 63.4602 61.5223 64.7483 62.7857C66.0363 64.0492 66.7601 65.7628 66.7602 67.5496Z" fill="white"/>
<path d="M40.3589 55.6335L44.0421 52.0201C45.2147 50.7017 45.9692 49.0759 46.2125 47.3426C46.4558 45.6093 46.1774 43.844 45.4117 42.2637C44.6459 40.6836 43.4261 39.3573 41.9021 38.4481C40.3782 37.5388 38.6167 37.0862 36.834 37.146C35.0514 37.2057 33.3254 37.7751 31.8683 38.7842C30.4112 39.7933 29.2865 41.1981 28.6324 42.8259C27.9782 44.4537 27.8234 46.2335 28.1867 47.9465C28.55 49.6595 29.4156 51.2311 30.6773 52.4678L24.201 58.8201C22.4978 57.1534 21.1472 55.1729 20.2267 52.9925C19.3061 50.8121 18.8339 48.4748 18.8372 46.1149C18.8372 36.192 27.0369 28.1483 37.1529 28.1483C47.269 28.1483 55.4679 36.192 55.4679 46.1149C55.4717 49.3197 54.5974 52.4667 52.9366 55.2265L56.2592 58.4855C58.7354 54.8176 60.0531 50.5144 60.0471 46.115C60.0471 33.7115 49.7969 23.6562 37.1528 23.6562C24.5087 23.6562 14.2578 33.7115 14.2578 46.115C14.2578 58.5185 24.5081 68.5739 37.1528 68.5739C41.637 68.5797 46.0232 67.2873 49.762 64.8585L40.3589 55.6335Z" fill="white"/>
</g>
<defs>
<linearGradient id="paint0_linear_1226_943" x1="-2.26855e-09" y1="36.88" x2="81.0001" y2="37.3721" gradientUnits="userSpaceOnUse">
<stop stop-color="#EE5488"/>
<stop offset="1" stop-color="#6D245A"/>
</linearGradient>
<linearGradient id="paint1_linear_1226_943" x1="-2.26854e-09" y1="37.0931" x2="80.9999" y2="37.5877" gradientUnits="userSpaceOnUse">
<stop stop-color="#EE5488"/>
<stop offset="1" stop-color="#6D245A"/>
</linearGradient>
</defs>
</svg>
