<svg width="82" height="82" viewBox="0 0 82 82" fill="none" xmlns="http://www.w3.org/2000/svg">
<rect x="0.671875" y="0.75" width="80.8383" height="80.8383" rx="10" fill="url(#paint0_linear_1226_839)"/>
<mask id="mask0_1226_839" style="mask-type:luminance" maskUnits="userSpaceOnUse" x="13" y="13" width="57" height="57">
<path d="M69.1612 13.0938H13.0234V69.2315H69.1612V13.0938Z" fill="white"/>
</mask>
<g mask="url(#mask0_1226_839)">
<path d="M69.1184 61.411C69.1185 62.8631 68.6879 64.2824 67.8809 65.4898C67.074 66.6971 65.927 67.6381 64.585 68.1939C63.2429 68.7496 61.7662 68.8951 60.3415 68.6119C58.9168 68.3286 57.6081 67.6295 56.581 66.6028C55.5538 65.5762 54.8542 64.2681 54.5709 62.844C54.2874 61.4199 54.4328 59.9437 54.9887 58.6023C55.5446 57.2608 56.4859 56.1143 57.6937 55.3076C58.9015 54.5009 60.3215 54.0703 61.7741 54.0703C63.7218 54.0703 65.5898 54.8437 66.9671 56.2203C68.3444 57.597 69.1182 59.4641 69.1184 61.411Z" fill="white"/>
<path d="M40.8941 48.4286L44.8325 44.4915C46.0864 43.055 46.8931 41.2835 47.1532 39.3949C47.4134 37.5062 47.1158 35.5828 46.297 33.8609C45.4782 32.1392 44.1738 30.694 42.5443 29.7033C40.9148 28.7127 39.0312 28.2195 37.125 28.2846C35.2189 28.3496 33.3733 28.9701 31.8151 30.0696C30.2571 31.1691 29.0544 32.6998 28.355 34.4734C27.6556 36.2471 27.4899 38.1864 27.8784 40.0529C28.2669 41.9194 29.1926 43.6317 30.5416 44.9794L23.6166 51.9007C21.7953 50.0847 20.3511 47.9267 19.3667 45.551C18.3824 43.1752 17.8774 40.6285 17.8809 38.057C17.8809 27.2455 26.6487 18.4807 37.4657 18.4807C48.2827 18.4807 57.0497 27.2451 57.0497 38.057C57.0538 41.549 56.1191 44.9779 54.3433 47.985L57.8959 51.536C60.5437 47.5395 61.9527 42.8506 61.9463 38.057C61.9463 24.5421 50.9859 13.5859 37.4657 13.5859C23.9454 13.5859 12.9844 24.5421 12.9844 38.057C12.9844 51.5719 23.9449 62.5284 37.4657 62.5284C42.2607 62.5347 46.9509 61.1264 50.9487 58.48L40.8941 48.4286Z" fill="white"/>
</g>
<defs>
<linearGradient id="paint0_linear_1226_839" x1="1" y1="39.5" x2="82" y2="39.5" gradientUnits="userSpaceOnUse">
<stop stop-color="#EC5388"/>
<stop offset="1" stop-color="#72265C"/>
</linearGradient>
</defs>
</svg>
