<svg width="82" height="82" viewBox="0 0 82 82" fill="none" xmlns="http://www.w3.org/2000/svg">
<rect x="0.671875" y="0.421875" width="80.8383" height="80.8383" rx="10" fill="#002F35"/>
<mask id="mask0_1226_998" style="mask-type:luminance" maskUnits="userSpaceOnUse" x="0" y="0" width="82" height="82">
<path d="M81.5102 0.421875H0.671875V81.2602H81.5102V0.421875Z" fill="white"/>
</mask>
<g mask="url(#mask0_1226_998)">
<path d="M81.49 38.698C81.3785 33.0088 81.0124 27.3706 80.1427 21.743C79.6891 18.8041 79.0364 15.7788 78.0768 12.9428C77.2699 10.5618 76.0925 8.01828 74.0684 6.41581C73.3532 5.84959 72.4842 5.33054 71.4611 4.85863C70.072 4.2174 68.6337 3.68844 67.1601 3.27681C61.9913 1.83108 56.5789 1.18393 51.2395 0.78692L49.7545 0.695378C43.903 0.327538 38.034 0.330738 32.1828 0.704959C31.6545 0.752963 31.1247 0.780058 30.5934 0.786246C30.4928 0.787369 30.4001 0.834225 30.2894 0.841561C26.2964 1.13812 22.166 1.65316 18.2301 2.48333C16.6235 2.8217 15.0366 3.24777 13.4765 3.7596C11.6453 4.3605 9.81514 5.16185 8.25571 6.30878C7.80465 6.63493 7.39598 7.01607 7.0392 7.44336L6.55896 8.01596C6.44747 8.12981 6.35741 8.26274 6.2931 8.40855L5.84841 9.06424C4.80709 10.8232 4.09459 12.7604 3.53688 14.7364C3.06283 16.4176 2.67071 18.118 2.36054 19.8377C1.45455 24.8606 0.960084 30.0197 0.796835 35.0662C0.752225 36.4413 0.694291 37.7859 0.680443 39.1464C0.623931 44.6368 0.843168 50.16 1.4511 55.6191C1.4782 55.8648 1.54841 56.158 1.5669 56.4397C1.5878 56.7565 1.61889 57.0722 1.66016 57.3868C2.16301 61.2541 2.86368 65.1383 4.13329 68.8356C4.69325 70.4654 5.4023 72.0609 6.38718 73.4568C7.57034 75.1347 9.31057 76.249 11.2333 77.0723C14.3008 78.3859 17.6283 79.1689 20.9105 79.7213C24.3761 80.3051 27.8699 80.7056 31.3776 80.9226C31.4901 80.9324 31.6032 80.9346 31.716 80.9309L32.081 80.9795C33.3992 81.0521 34.7202 81.1397 36.039 81.1831C40.692 81.335 45.3196 81.258 49.9669 80.9922C50.0909 80.981 50.2142 80.963 50.3358 80.9368L50.7699 80.9256C54.3208 80.7048 57.8574 80.2954 61.3647 79.6988C64.7629 79.1195 68.2484 78.3171 71.3922 76.868C73.0538 76.1015 74.6456 75.0572 75.6883 73.6065C76.4556 72.5256 77.0851 71.3535 77.5626 70.1169C78.7797 67.021 79.5424 63.7397 80.0678 60.4651C80.6592 56.7621 81.0559 53.0307 81.2565 49.2862C81.4548 45.6267 81.5559 42.0598 81.49 38.698ZM3.06203 57.6956C3.06348 57.6951 3.06508 57.6951 3.06652 57.6956C3.06737 57.6958 3.06815 57.6961 3.06877 57.6967C3.06655 57.6961 3.06426 57.6957 3.06196 57.6956M3.77618 25.1526C3.77678 25.1526 3.7773 25.1532 3.7779 25.1537C3.7785 25.1542 3.78015 25.1565 3.78127 25.1577L3.77618 25.1526ZM31.6823 80.6359C31.6835 80.6359 31.6846 80.6367 31.6856 80.6367C31.6883 80.6374 31.691 80.6382 31.6931 80.6397C31.6897 80.6382 31.6861 80.6367 31.6824 80.6359M78.3104 56.3934C78.3119 56.3927 78.3141 56.3923 78.3156 56.3922H78.3208C78.3171 56.3924 78.3141 56.3928 78.3104 56.3934ZM78.3246 24.9496C78.3223 24.95 78.3201 24.9502 78.3186 24.9502C78.3223 24.9502 78.3261 24.9496 78.3298 24.9484C78.3276 24.9491 78.3261 24.9495 78.3246 24.9496ZM78.3785 57.271C78.3755 57.2736 78.3725 57.2758 78.3695 57.2778C78.3732 57.2755 78.3762 57.2728 78.3785 57.2699C78.3785 57.2705 78.3785 57.2705 78.3785 57.271Z" fill="#002F35"/>
<mask id="mask1_1226_998" style="mask-type:luminance" maskUnits="userSpaceOnUse" x="13" y="12" width="57" height="57">
<path d="M69.1612 12.7656H13.0234V68.9033H69.1612V12.7656Z" fill="white"/>
</mask>
<g mask="url(#mask1_1226_998)">
<path d="M38.37 44.9028C38.2977 44.9498 38.2128 44.9737 38.1266 44.9714C37.3075 44.9757 36.488 44.9762 35.668 44.9727C35.6656 44.9727 35.6631 44.9722 35.6608 44.9713C35.6585 44.9704 35.6564 44.9691 35.6546 44.9673C35.6529 44.9656 35.6514 44.9636 35.6505 44.9613C35.6495 44.959 35.649 44.9566 35.6489 44.9541V44.9535C35.649 44.9505 35.6496 44.9476 35.6507 44.9448C36.0603 44.0691 35.6859 43.3057 34.989 42.7402C34.624 42.4438 33.8472 41.9557 34.4862 41.426C34.5016 41.4137 34.5203 41.4061 34.54 41.4044C35.4673 41.3358 36.3984 41.334 37.326 41.3989C37.3328 41.3994 37.3391 41.4027 37.3434 41.4078C37.3478 41.4131 37.35 41.4197 37.3495 41.4265C37.3496 41.428 37.3493 41.4295 37.3488 41.4309C37.1047 42.4257 37.7362 43.1501 38.4978 43.6596C39.1019 44.0638 38.8552 44.5773 38.3698 44.9027" fill="#F0BB62"/>
<path d="M34.0895 44.9518C34.0731 44.9633 34.0534 44.9695 34.0333 44.9694L31.4661 44.9682C31.4606 44.9682 31.4555 44.966 31.4517 44.9621C31.4479 44.9583 31.4457 44.9531 31.4457 44.9478C31.4457 44.945 31.4463 44.9423 31.4475 44.9398C31.6366 44.5131 31.6674 44.0839 31.4944 43.6411C31.2404 42.9908 30.6277 42.6462 30.2089 42.251C30.2055 42.2478 30.2034 42.2434 30.2031 42.2388C30.2029 42.2341 30.2046 42.2296 30.2077 42.2262L30.2082 42.2257C30.2106 42.2235 30.2133 42.2219 30.2162 42.2208C31.1537 41.9331 32.1113 41.7157 33.0812 41.5705C33.0866 41.5698 33.0921 41.5712 33.0965 41.5745C33.1009 41.5778 33.1038 41.5826 33.1046 41.5881C33.1052 41.59 33.1052 41.5921 33.1046 41.5939C32.9632 42.5302 33.5686 43.1564 34.2678 43.6443C34.9541 44.1223 34.5953 44.596 34.0893 44.9517" fill="#F0BB62"/>
<path d="M29.9085 43.5307C30.2464 43.7358 30.6121 44.1322 30.3334 44.5182C30.2044 44.6819 30.0529 44.8266 29.8833 44.9479C29.8672 44.9599 29.8477 44.9664 29.8277 44.9664L24.4794 44.9682C24.4473 44.9682 24.4446 44.9592 24.4714 44.9411C25.8898 43.9979 27.411 43.2191 29.0055 42.6197C29.0137 42.6166 29.0229 42.6164 29.0312 42.619C29.0397 42.6217 29.047 42.6272 29.0518 42.6345C29.315 43.045 29.6006 43.3438 29.9086 43.5308" fill="#F0BB62"/>
<path d="M39.9939 44.9496C40.0104 44.9611 40.03 44.9672 40.0501 44.9671L42.6174 44.966C42.6228 44.9659 42.6279 44.9638 42.6317 44.9599C42.6356 44.9561 42.6377 44.951 42.6377 44.9456C42.6377 44.9428 42.6371 44.94 42.6359 44.9376C42.4469 44.5108 42.416 44.0816 42.589 43.6388C42.843 42.9885 43.4557 42.644 43.8745 42.2487C43.8779 42.2456 43.8799 42.2412 43.8802 42.2366C43.8804 42.2319 43.8787 42.2274 43.8757 42.2239L43.8751 42.2233C43.8728 42.2212 43.8701 42.2196 43.8671 42.2185C42.9237 41.9295 40.1216 41.4263 39.1489 41.3829C39.1435 41.3824 39.1381 41.3839 39.1338 41.3872C39.1294 41.3904 39.1264 41.3952 39.1254 41.4005C39.1249 41.4025 39.1249 41.4047 39.1254 41.4067C39.2669 42.3429 40.5147 43.1543 39.8155 43.6423C39.1291 44.1202 39.4879 44.5939 39.9939 44.9496Z" fill="#F0BB62"/>
<path d="M45.021 42.6345C45.0258 42.6272 45.0331 42.6217 45.0416 42.6191C45.0499 42.6164 45.0591 42.6166 45.0673 42.6197C46.6618 43.2191 48.183 43.9979 49.6014 44.9411C49.6281 44.9592 49.6254 44.9682 49.5934 44.9682L44.245 44.9664C44.225 44.9664 44.2055 44.9599 44.1894 44.9479C44.0198 44.8266 43.8683 44.6819 43.7392 44.5182C43.4607 44.1321 43.8264 43.7356 44.1643 43.5307C44.4723 43.3437 44.7579 43.0449 45.021 42.6343" fill="#F0BB62"/>
<path d="M46.0232 49.1536C46.0119 49.1026 46.0133 49.0497 46.0273 48.9994C46.0413 48.9491 46.0675 48.9031 46.1035 48.8653L62.1114 31.6861L62.1513 31.6429C62.2747 31.5213 62.441 31.4531 62.6142 31.4531C62.7406 31.4545 62.864 31.4914 62.9702 31.5598C63.0765 31.6282 63.1613 31.7252 63.2148 31.8396C63.2684 31.954 63.2885 32.0813 63.2729 32.2066C63.2574 32.3319 63.2067 32.4504 63.1268 32.5482C63.126 32.5486 63.1256 32.5493 63.1253 32.5501L63.0364 32.6389L63.036 32.6392L46.4407 49.2454C46.3889 49.2993 46.3193 49.3325 46.2449 49.3391C46.1042 49.3495 46.0461 49.2519 46.0233 49.1538" fill="#F0BB62"/>
<path d="M47.586 47.7714C47.5856 47.7164 47.5987 47.6621 47.6243 47.6134C47.6499 47.5646 47.6871 47.523 47.7326 47.492L68.0421 33.3242L68.093 33.2884C68.2471 33.1902 68.4337 33.1568 68.6124 33.1953C68.7424 33.2246 68.8614 33.29 68.9558 33.3841C69.0502 33.4781 69.1161 33.5968 69.146 33.7267C69.1758 33.8565 69.1683 33.9921 69.1246 34.1179C69.0807 34.2437 69.0022 34.3545 68.8981 34.4377C68.8974 34.4381 68.8967 34.4386 68.8963 34.4393L68.785 34.5112H68.7844L47.9961 47.9585C47.9308 48.0025 47.8517 48.0215 47.7734 48.0117C47.6262 47.9911 47.5879 47.8776 47.5859 47.7715" fill="#F0BB62"/>
<path d="M38.864 26.8086C39.1536 26.5176 39.3366 26.1375 39.3836 25.7298C39.4305 25.322 39.3387 24.9103 39.1228 24.5612C38.907 24.212 38.5797 23.9458 38.1939 23.8054C37.8081 23.665 37.3862 23.6587 36.9964 23.7875C36.6065 23.9164 36.2715 24.1727 36.0454 24.5153C35.8192 24.8579 35.715 25.2667 35.7499 25.6756C35.7847 26.0846 35.9563 26.4699 36.2371 26.7694C36.5178 27.0689 36.8913 27.2651 37.2973 27.3262C30.431 29.836 25.2417 34.9821 22.5 41.2311L59.0351 29.1536C53.1089 25.7708 45.8737 24.7317 38.864 26.8086ZM29.9953 33.463C29.9953 33.463 27.2086 35.1502 24.1573 39.5136C24.2195 39.3741 26.2338 34.8944 29.6115 32.8053C29.6115 32.8053 30.0772 33.3205 29.9953 33.4631M49.6312 26.5092C53.6016 26.6101 57.6013 28.9199 57.7253 28.9924C52.889 26.7644 49.6312 26.7135 49.6312 26.7135C49.4886 26.6324 49.6312 26.5095 49.6312 26.5095" fill="#F0BB62"/>
<path d="M60.5351 45.7891C59.6098 55.54 51.3212 63.1707 41.2323 63.1707C31.1434 63.1707 22.8555 55.5403 21.9297 45.7894L60.5351 45.7891Z" fill="#F0BB62"/>
<path d="M56.4992 55.8047C57.9075 53.5704 58.8385 51.7746 59.4494 50.3518C56.2147 60.2441 48.0166 65.8392 37.4805 65.8392C23.9729 65.8392 13.0234 54.6632 13.0234 40.8766C13.0234 27.09 23.9731 15.9141 37.4806 15.9141C46.6758 15.9141 54.9344 21.2406 58.9119 28.9626C55.2149 23.309 48.5978 20.1543 40.7652 20.1543C27.9214 20.1543 17.5094 30.5633 17.5094 43.4041C17.5094 56.2449 27.9213 64.5263 40.7652 64.5263C47.1526 64.5263 53.3817 59.9748 56.4991 55.8049" fill="#F0BB62"/>
</g>
</g>
</svg>
