<svg width="82" height="82" viewBox="0 0 82 82" fill="none" xmlns="http://www.w3.org/2000/svg">
<rect x="0.507812" y="0.585938" width="80.8383" height="80.8383" rx="10" fill="#2C272E"/>
<mask id="mask0_1226_1018" style="mask-type:luminance" maskUnits="userSpaceOnUse" x="0" y="0" width="82" height="82">
<path d="M81.3383 0.59375H0.5V81.4321H81.3383V0.59375Z" fill="white"/>
</mask>
<g mask="url(#mask0_1226_1018)">
<path d="M81.3181 38.8699C81.2066 33.1807 80.8406 27.5425 79.9708 21.9149C79.5172 18.976 78.8645 15.9507 77.9049 13.1146C77.0981 10.7337 75.9207 8.19016 73.8965 6.58769C73.1814 6.02147 72.3123 5.50241 71.2892 5.0305C69.9002 4.38927 68.4618 3.86031 66.9883 3.44869C61.8194 2.00296 56.407 1.3558 51.0676 0.958795L49.5826 0.867253C43.7311 0.499413 37.8621 0.502613 32.0109 0.876834C31.4826 0.924838 30.9528 0.951933 30.4215 0.958121C30.3209 0.959244 30.2282 1.0061 30.1175 1.01344C26.1245 1.30999 21.9942 1.82504 18.0582 2.6552C16.4516 2.99358 14.8647 3.41964 13.3046 3.93147C11.4734 4.53237 9.64326 5.33372 8.08383 6.48065C7.63277 6.8068 7.2241 7.18794 6.86733 7.61523L6.38709 8.18784C6.27559 8.30168 6.18553 8.43462 6.12122 8.58043L5.67653 9.23612C4.63522 10.9951 3.92272 12.9323 3.36501 14.9083C2.89095 16.5895 2.49884 18.2899 2.18866 20.0095C1.28267 25.0325 0.788209 30.1916 0.62496 35.2381C0.58035 36.6132 0.522416 37.9578 0.508568 39.3183C0.452056 44.8086 0.671293 50.3319 1.27923 55.791C1.30632 56.0366 1.37653 56.3299 1.39502 56.6116C1.41593 56.9284 1.44701 57.2441 1.48829 57.5586C1.99113 61.4259 2.6918 65.3102 3.96141 69.0075C4.52137 70.6373 5.23043 72.2327 6.21531 73.6287C7.39847 75.3065 9.1387 76.4208 11.0615 77.2442C14.129 78.5578 17.4564 79.3408 20.7386 79.8931C24.2042 80.477 27.6981 80.8774 31.2057 81.0945C31.3183 81.1042 31.4313 81.1065 31.5442 81.1027L31.9091 81.1514C33.2273 81.224 34.5484 81.3116 35.8671 81.355C40.5201 81.5069 45.1477 81.4298 49.795 81.1641C49.919 81.1529 50.0423 81.1349 50.1639 81.1087L50.5981 81.0975C54.149 80.8767 57.6856 80.4673 61.1928 79.8707C64.591 79.2914 68.0765 78.489 71.2203 77.0399C72.882 76.2734 74.4737 75.2291 75.5165 73.7783C76.2837 72.6975 76.9132 71.5253 77.3907 70.2888C78.6078 67.1929 79.3705 63.9116 79.896 60.6369C80.4873 56.934 80.884 53.2026 81.0846 49.458C81.2829 45.7985 81.384 42.2317 81.3181 38.8699ZM2.89016 57.8675C2.8916 57.867 2.8932 57.867 2.89465 57.8675C2.89549 57.8676 2.89627 57.868 2.89689 57.8686C2.89468 57.8679 2.89239 57.8676 2.89008 57.8675M3.6043 25.3244C3.6049 25.3244 3.60543 25.325 3.60603 25.3256C3.60662 25.3261 3.60827 25.3284 3.60939 25.3295L3.6043 25.3244ZM31.5104 80.8078C31.5116 80.8078 31.5127 80.8086 31.5138 80.8086C31.5165 80.8093 31.5191 80.8101 31.5213 80.8116C31.5178 80.8101 31.5142 80.8086 31.5106 80.8078M78.1385 56.5652C78.14 56.5646 78.1422 56.5642 78.1437 56.5641H78.149C78.1452 56.5643 78.1422 56.5646 78.1385 56.5652ZM78.1527 25.1214C78.1505 25.1219 78.1482 25.1221 78.1467 25.122C78.1505 25.122 78.1542 25.1214 78.1579 25.1203C78.1557 25.121 78.1542 25.1214 78.1527 25.1214ZM78.2066 57.4429C78.2036 57.4455 78.2006 57.4477 78.1976 57.4497C78.2014 57.4473 78.2044 57.4446 78.2066 57.4417C78.2066 57.4423 78.2066 57.4423 78.2066 57.4429Z" fill="#2C272E"/>
<path d="M46.391 18.4062C58.8692 18.4062 68.985 28.5101 68.985 40.9736C68.985 53.4372 58.8692 63.541 46.391 63.541C33.9127 63.541 23.7969 53.4372 23.7969 40.9736C23.7969 28.5101 33.9127 18.4062 46.391 18.4062Z" fill="#DD4A48"/>
<path d="M63.4318 32.6594C58.9893 23.4194 47.9751 19.4109 38.6225 23.6305C38.6006 23.5846 38.576 23.5401 38.549 23.497C38.4154 23.271 38.2384 23.0735 38.0282 22.9161C37.818 22.7585 37.5787 22.644 37.324 22.5791C37.0693 22.5141 36.8043 22.5001 36.5442 22.5377C36.2841 22.5753 36.0341 22.6639 35.8083 22.7982C35.5826 22.9327 35.3855 23.1103 35.2287 23.3209C35.0719 23.5315 34.9582 23.771 34.8943 24.0256C34.8304 24.2802 34.8174 24.5449 34.8562 24.8045C34.895 25.0641 34.9847 25.3135 35.1203 25.5384C35.1346 25.5629 35.1502 25.5866 35.1671 25.6095C31.7709 28.0451 29.3086 31.5652 28.1872 35.5879C27.1448 39.0337 27.1355 42.709 28.1608 46.16C28.1798 46.2254 28.2135 46.2855 28.2594 46.3359C28.3054 46.3862 28.3622 46.4253 28.4257 46.4502C28.4891 46.4751 28.5574 46.4851 28.6253 46.4796C28.6933 46.474 28.759 46.4529 28.8174 46.4179C29.9105 45.7507 30.9368 45.1214 31.9946 44.5454C32.2283 44.4548 32.4168 44.2758 32.5193 44.0473C32.6219 43.8188 32.6301 43.5592 32.5423 43.3247C32.0435 40.4765 32.4372 37.544 33.6698 34.9277C34.9022 32.3113 36.9135 30.1387 39.4286 28.7067C41.9438 27.2747 44.8403 26.653 47.7224 26.9265C50.6047 27.2 53.3321 28.3554 55.5321 30.235C55.9371 30.5819 56.3095 30.9665 56.7389 31.4003C56.8217 31.4845 56.8677 31.5979 56.8667 31.7159C56.8658 31.8338 56.818 31.9466 56.734 32.0294C56.7085 32.0542 56.6803 32.076 56.6498 32.0943C55.8795 32.539 55.1782 32.9548 54.4901 33.3864C50.3912 35.9572 46.2945 38.5324 42.2002 41.112C39.7972 42.6259 37.3948 44.1403 34.9932 45.6554L33.8288 46.3891C33.4771 46.6115 33.1853 46.8115 32.9804 46.9229H32.9624C31.2501 47.8503 31.0898 47.8482 29.9343 47.7034C28.5478 47.2497 27.0464 47.2931 25.6885 47.8259C22.2114 49.8521 18.9198 52.1805 15.8522 54.7842C11.9582 57.7396 12.7599 57.3016 13.3388 56.9545C13.9177 56.6074 24.1278 50.3696 24.7448 50.1408C25.362 49.9119 25.8157 50.9101 25.426 51.2372C25.0363 51.5644 24.7067 51.8111 22.5853 53.3254C20.464 54.8396 13.9134 58.967 14.029 59.0871C14.1446 59.2071 25.6064 52.5712 26.145 52.2644C26.2043 52.2201 26.2734 52.1908 26.3466 52.1791C26.4196 52.1673 26.4945 52.1733 26.5647 52.1967C26.635 52.2202 26.6985 52.2601 26.7498 52.3134C26.8012 52.3667 26.8389 52.4316 26.8597 52.5025V52.5179C26.9123 52.5676 26.952 52.6294 26.9753 52.6979C26.9986 52.7664 27.0048 52.8395 26.9934 52.9109C26.982 52.9823 26.9533 53.0499 26.9099 53.1077C26.8664 53.1655 26.8094 53.2119 26.7439 53.2428C26.2183 53.583 15.0129 60.6214 15.0688 60.7727C15.1248 60.9239 21.828 57.0476 24.1659 55.8804C26.5037 54.7131 26.8714 54.5461 27.3474 54.3436C27.8233 54.1412 28.5138 55.0109 28.0305 55.4422C27.5474 55.8735 17.2482 61.9758 16.6756 62.336C16.103 62.6961 15.3395 63.19 19.7924 61.1239C23.5383 59.627 27.1444 57.8022 30.5685 55.6709C31.0966 55.2978 31.5414 54.8193 31.8748 54.2658C32.2082 53.7123 32.4231 53.0957 32.5058 52.455C32.871 51.0651 32.615 50.8272 34.612 49.6353L34.7077 49.5774L34.8278 49.5085L34.8811 49.4773C35.4867 49.1258 36.0938 48.7774 36.7024 48.4321L37.9112 47.745C41.7705 45.5494 45.626 43.3582 49.4777 41.1713L55.5291 37.7242C56.7114 37.0569 57.9001 36.3899 59.0715 35.7072C60.4586 34.8977 61.8344 34.0682 63.2548 33.2209C63.3478 33.1649 63.4171 33.0768 63.4497 32.9732C63.4823 32.8697 63.4757 32.7578 63.4314 32.6587M35.8754 25.1276L35.8556 25.0988C35.7015 24.8402 35.6565 24.5311 35.7306 24.2394C35.8047 23.9477 35.9918 23.6974 36.2507 23.5434C36.5096 23.3896 36.8192 23.3446 37.1112 23.4186C37.4033 23.4926 37.654 23.6795 37.8081 23.9381L37.8439 24.0027C37.1671 24.3405 36.5099 24.716 35.8754 25.1276Z" fill="white"/>
<path d="M64.626 39.3735C64.6906 39.3357 64.7637 39.3148 64.8386 39.3127C64.9135 39.3106 64.9877 39.3274 65.0543 39.3616C65.1209 39.3958 65.1778 39.4462 65.2197 39.5082C65.2616 39.5702 65.2872 39.6417 65.294 39.7163C65.5574 43.5582 64.6393 47.3888 62.6626 50.6952C60.6859 54.0017 57.7451 56.6262 54.2336 58.2175C50.7222 59.8086 46.8079 60.2906 43.0147 59.5988C39.2214 58.907 35.7303 57.0744 33.0087 54.3464C32.968 54.3045 32.9359 54.255 32.9142 54.2008C32.8927 54.1464 32.882 54.0884 32.8829 54.03C32.8837 53.9717 32.8961 53.9139 32.9192 53.8604C32.9424 53.8067 32.976 53.7582 33.018 53.7175C33.0376 53.6983 33.0591 53.681 33.082 53.6659C34.1953 52.9987 35.3085 52.3538 36.4059 51.6643C36.5458 51.5472 36.725 51.4874 36.9073 51.4974C37.0896 51.5073 37.2612 51.5861 37.3876 51.7177C39.4011 53.4662 41.885 54.5846 44.5302 54.9339C47.1754 55.283 49.865 54.8476 52.2642 53.6815C54.4942 52.7214 56.4233 51.1778 57.8478 49.2136C59.2722 47.2495 60.1393 44.9377 60.3574 42.5223C60.3678 42.3067 60.435 42.0977 60.5524 41.9165C60.6697 41.7353 60.8329 41.5883 61.0255 41.4904C62.2305 40.8124 63.4106 40.0986 64.626 39.3735Z" fill="white"/>
<path d="M33.4194 43.677C32.8401 41.4616 32.9105 39.1266 33.6222 36.95C34.2891 34.6302 35.6331 32.5615 37.4824 31.0078C35.9987 32.8082 34.8599 34.8663 34.123 37.0788C33.5109 39.2216 33.273 41.4536 33.4197 43.677" fill="white"/>
<path d="M56.0152 31.5873C55.2814 30.6883 54.3858 29.9341 53.3746 29.3635C52.4233 28.7479 51.3668 28.3122 50.2578 28.0781C51.2855 28.5385 52.2888 29.0515 53.2637 29.6149C54.2151 30.2235 55.1336 30.8819 56.0154 31.5873" fill="white"/>
</g>
</svg>
