<svg width="82" height="82" viewBox="0 0 82 82" fill="none" xmlns="http://www.w3.org/2000/svg">
<rect x="0.34375" y="0.585938" width="80.8383" height="80.8383" rx="10" fill="white"/>
<mask id="mask0_1226_1072" style="mask-type:luminance" maskUnits="userSpaceOnUse" x="0" y="0" width="82" height="82">
<path d="M81.1821 0.59375H0.34375V81.4321H81.1821V0.59375Z" fill="white"/>
</mask>
<g mask="url(#mask0_1226_1072)">
<path d="M81.1619 38.8699C81.0503 33.1807 80.6843 27.5425 79.8146 21.9149C79.361 18.976 78.7083 15.9507 77.7487 13.1146C76.9418 10.7337 75.7644 8.19016 73.7402 6.58769C73.0251 6.02147 72.156 5.50241 71.133 5.0305C69.7439 4.38927 68.3056 3.86031 66.832 3.44869C61.6631 2.00296 56.2508 1.3558 50.9113 0.958795L49.4264 0.867253C43.5749 0.499413 37.7059 0.502613 31.8547 0.876834C31.3264 0.924838 30.7966 0.951933 30.2652 0.958121C30.1646 0.959244 30.072 1.0061 29.9613 1.01344C25.9682 1.30999 21.8379 1.82504 17.902 2.6552C16.2954 2.99358 14.7085 3.41964 13.1484 3.93147C11.3172 4.53237 9.48701 5.33372 7.92758 6.48065C7.47652 6.8068 7.06785 7.18794 6.71108 7.61523L6.23084 8.18784C6.11934 8.30168 6.02928 8.43462 5.96497 8.58043L5.52028 9.23612C4.47897 10.9951 3.76647 12.9323 3.20876 14.9083C2.7347 16.5895 2.34259 18.2899 2.03241 20.0095C1.12642 25.0325 0.631959 30.1916 0.46871 35.2381C0.4241 36.6132 0.366166 37.9578 0.352318 39.3183C0.295806 44.8086 0.515043 50.3319 1.12298 55.791C1.15007 56.0366 1.22028 56.3299 1.23877 56.6116C1.25968 56.9284 1.29076 57.2441 1.33204 57.5586C1.83488 61.4259 2.53555 65.3102 3.80516 69.0075C4.36512 70.6373 5.07418 72.2327 6.05906 73.6287C7.24222 75.3065 8.98245 76.4208 10.9052 77.2442C13.9727 78.5578 17.3002 79.3408 20.5824 79.8931C24.0479 80.477 27.5418 80.8774 31.0494 81.0945C31.162 81.1042 31.275 81.1065 31.3879 81.1027L31.7529 81.1514C33.0711 81.224 34.3921 81.3116 35.7109 81.355C40.3639 81.5069 44.9914 81.4298 49.6387 81.1641C49.7628 81.1529 49.886 81.1349 50.0077 81.1087L50.4418 81.0975C53.9927 80.8767 57.5293 80.4673 61.0366 79.8707C64.4348 79.2914 67.9203 78.489 71.064 77.0399C72.7257 76.2734 74.3175 75.2291 75.3602 73.7783C76.1274 72.6975 76.7569 71.5253 77.2345 70.2888C78.4515 67.1929 79.2143 63.9116 79.7397 60.6369C80.331 56.934 80.7277 53.2026 80.9283 49.458C81.1267 45.7985 81.2277 42.2317 81.1619 38.8699ZM2.73391 57.8675C2.73535 57.867 2.73695 57.867 2.7384 57.8675C2.73924 57.8676 2.74002 57.868 2.74064 57.8686C2.73843 57.8679 2.73614 57.8676 2.73383 57.8675M3.44805 25.3244C3.44865 25.3244 3.44918 25.325 3.44978 25.3256C3.45037 25.3261 3.45202 25.3284 3.45314 25.3295L3.44805 25.3244ZM31.3542 80.8078C31.3554 80.8078 31.3565 80.8086 31.3575 80.8086C31.3602 80.8093 31.3628 80.8101 31.365 80.8116C31.3616 80.8101 31.358 80.8086 31.3543 80.8078M77.9822 56.5652C77.9837 56.5646 77.986 56.5642 77.9875 56.5641H77.9927C77.989 56.5643 77.986 56.5646 77.9822 56.5652ZM77.9964 25.1214C77.9942 25.1219 77.992 25.1221 77.9905 25.122C77.9942 25.122 77.9979 25.1214 78.0017 25.1203C77.9994 25.121 77.9979 25.1214 77.9964 25.1214ZM78.0503 57.4429C78.0474 57.4455 78.0444 57.4477 78.0414 57.4497C78.0451 57.4473 78.0481 57.4446 78.0503 57.4417C78.0503 57.4423 78.0503 57.4423 78.0503 57.4429Z" fill="white"/>
<path d="M31.8915 60.5135C31.9919 60.3714 32.0922 60.2246 32.1877 60.0776L32.2783 59.943L19.5811 53.2837L19.2579 53.1392V28.2403L19.1772 28.1791L16.4375 26.125V54.5249L31.1618 61.4952C31.4115 61.1802 31.6549 60.8529 31.8915 60.5135Z" fill="#80ED99"/>
<path d="M54.885 63.9162C53.73 63.924 52.5838 63.7147 51.5062 63.2992C50.2545 62.8084 49.1416 62.0193 48.2645 61.0003V60.9709C47.8764 60.5234 47.5276 60.0435 47.2216 59.5362C47.1318 59.3926 47.0502 59.2457 46.9767 59.0956C46.7792 58.7381 46.594 58.3611 46.421 57.9644C46.3548 57.8102 46.2864 57.6535 46.2252 57.4944C45.7095 56.1692 45.3288 54.7952 45.089 53.3936C44.5887 50.4081 44.449 47.3733 44.6728 44.3546C45.0888 38.7382 47.0701 33.3507 50.3922 28.8031C51.3345 27.4715 52.36 26.2008 53.4625 24.9985L41.5096 34.4072L26.3102 23.7891C28.9302 26.404 31.1488 29.3923 32.8939 32.6567C33.842 34.4399 34.6255 36.3058 35.2345 38.2314C35.687 39.6611 36.0314 41.1227 36.2651 42.604C36.3019 42.8341 36.3313 43.0668 36.3656 43.2993C36.5571 44.7043 36.6391 46.122 36.6105 47.5397C36.6115 47.5576 36.6115 47.5757 36.6105 47.5936C36.6105 47.7062 36.6105 47.8189 36.6105 47.929C36.6105 48.0391 36.6105 48.1028 36.5982 48.1885C36.586 48.2742 36.5982 48.4113 36.5811 48.5239C36.4725 50.348 36.1621 52.1544 35.6556 53.9101C35.6067 54.079 35.5553 54.2456 35.5014 54.4169C35.2876 55.0943 35.0426 55.761 34.7668 56.4171C34.4036 57.2865 33.9875 58.1328 33.5206 58.9511C33.4349 59.1004 33.3517 59.2449 33.2636 59.3918C32.7807 60.1953 32.2517 60.9702 31.6794 61.7127C31.5644 61.8621 31.4347 62.0114 31.3245 62.1608C30.7121 62.9131 30.058 63.6308 29.3657 64.3104L29.0818 64.587C28.8076 64.8514 28.5236 65.111 28.2323 65.368C26.612 66.7897 24.8448 68.0346 22.9609 69.082C29.428 68.4732 35.6159 66.1517 40.8877 62.3567L41.0224 62.5452C42.7946 64.8957 45.2624 66.6281 48.0753 67.496C50.8883 68.3641 53.9032 68.3236 56.6918 67.3805C58.508 66.7653 60.1814 65.7899 61.6118 64.5127C63.0422 63.2355 64.2002 61.6828 65.0163 59.9475C62.1208 62.2691 58.5868 63.6534 54.885 63.9162Z" fill="#22577A"/>
<path d="M64.9199 26.125V54.5249L49.7401 61.7082C49.441 61.4718 49.1589 61.2149 48.8954 60.9394L48.7755 60.8121L48.6482 60.6701L48.5453 60.5501C48.5086 60.511 48.4597 60.4498 48.4181 60.3984C48.2981 60.2515 48.1732 60.0997 48.0703 59.943L61.8276 52.7793L62.1704 52.6202V28.1718L62.7972 27.7017L63.304 27.3222L64.9199 26.125Z" fill="#80ED99"/>
<path d="M61.6716 23.9062V52.3062L61.6005 52.3405L52.2404 57.2125L47.782 59.5335C47.7379 59.4674 47.6939 59.3988 47.6522 59.3278C47.6106 59.2568 47.5764 59.2079 47.5421 59.1467C47.5079 59.0854 47.4442 58.9753 47.3952 58.8872C47.2802 58.679 47.165 58.4636 47.0597 58.2408C46.9863 58.089 46.9153 57.9323 46.8443 57.7707L46.8125 57.6924L47.5641 57.2174L58.5817 49.7184V26.2149L61.6716 23.9062Z" fill="#57CC99"/>
<path d="M58.0726 36.8118V49.4595L47.3587 56.7603L46.6241 57.2255C46.3302 56.4648 46.0848 55.6864 45.8896 54.8947C45.848 54.7233 45.8063 54.5495 45.7671 54.3732C45.75 54.2949 45.7304 54.2141 45.7158 54.1284C45.701 54.0427 45.6863 53.9937 45.6717 53.9203L54.7991 48.3897V41.7548L45.0547 46.9721C45.0547 46.1666 45.0865 45.3024 45.1453 44.3867C45.3715 41.0152 46.2008 37.7116 47.5936 34.6328V42.5236L57.5804 37.0836L58.0726 36.8118Z" fill="#38A3A5"/>
<path d="M26.5685 40.7684V48.079L35.096 53.8398C35.0691 53.9352 35.0397 54.0307 35.0104 54.1262C34.79 54.8345 34.5361 55.5347 34.2488 56.2268C34.0799 56.6308 33.8988 57.0274 33.7127 57.4118L23.4297 50.4587V21.8359C26.8334 24.7044 29.7129 28.1423 31.9401 31.9963L26.5758 28.1892V36.3321L35.8061 42.9253L35.8427 43.1701C35.8599 43.3048 35.8796 43.4395 35.8943 43.5741C35.8943 43.5937 35.8943 43.6157 35.8943 43.6353L35.9285 43.9341C35.9285 44.0295 35.9481 44.1397 35.9603 44.2425C35.9726 44.3454 35.9775 44.4286 35.9849 44.5216C35.9922 44.6147 35.9994 44.7052 36.0068 44.7983C36.0141 44.8913 36.0069 44.9207 36.0216 44.9794V45.0284C36.0216 45.0455 36.0216 45.0603 36.0216 45.0749V45.1092C36.0192 45.1295 36.0192 45.1501 36.0216 45.1704C36.0239 45.1834 36.0239 45.1966 36.0216 45.2096C36.0387 45.4789 36.0509 45.7482 36.0608 46.0151C36.0608 46.157 36.0608 46.2966 36.0608 46.4386C36.0608 46.7177 36.0608 46.996 36.0608 47.2735L26.5685 40.7684Z" fill="#38A3A5"/>
<path d="M33.4774 57.8688C33.3232 58.1674 33.164 58.4612 33 58.7477L32.9829 58.7795C32.9045 58.9191 32.8261 59.0538 32.738 59.1884L32.7208 59.2202C32.6637 59.3166 32.605 59.412 32.5446 59.5067L27.1582 56.6862L19.7887 52.8229L19.7422 52.7984V24.3984L22.8882 26.7586V27.1626V50.737L33.4774 57.8688Z" fill="#57CC99"/>
<path d="M58.0711 21.3375V28.6431L57.5643 28.8879L47.9766 33.7698C50.2297 29.2765 53.3608 25.2805 57.1848 22.0181C57.3121 21.9054 57.4296 21.7977 57.5668 21.6925L57.5937 21.6704L57.9022 21.455L58.0711 21.3203V21.3375Z" fill="#38A3A5"/>
<path d="M46.075 22.3638L46.0261 22.2855H45.933C44.4632 22.277 43.0227 22.6973 41.788 23.4949C42.3142 22.9125 42.9925 22.4886 43.7466 22.2708L43.9597 22.1998L44.0747 22.1655L44.202 22.1288L44.4175 22.07H44.4493L44.7089 22.0039L44.7749 21.9892L44.9856 21.9427L45.059 21.928L45.321 21.8766H45.343L45.6907 21.8154L45.8376 21.7909V19.8176L50.7343 18.2727L42.0646 12.9453L32.3594 16.0203L34.1369 17.1122C34.0169 17.3913 33.8921 17.668 33.7672 17.9398C33.2881 18.8625 32.9537 19.8534 32.7756 20.8777C32.7343 21.3672 32.8055 21.8596 32.9837 22.3173L32.5356 22.4863L33.3362 24.582L34.8493 24.0041L34.0487 21.9084L33.6839 22.0455C33.6905 21.5844 33.738 21.1248 33.8259 20.672C34.0157 19.8494 34.288 19.048 34.6388 18.2801C34.7318 18.0548 34.8273 17.8223 34.9203 17.5946L37.0773 18.9166L37.1606 18.8824C37.4175 18.7712 37.6798 18.6732 37.9466 18.5886C39.5133 18.1472 41.1591 18.0636 42.7624 18.3437H42.4515H42.2262L41.8345 18.3609L41.5431 18.378L41.2542 18.4H41.2297L40.9507 18.427H40.9188L40.6495 18.4539H40.6079L40.363 18.4857H40.3141L40.0692 18.5225C40.052 18.5225 40.0325 18.5225 40.0154 18.5225L39.7706 18.5641H39.7093L39.4841 18.6106L39.418 18.6253L39.2001 18.6743L39.1267 18.6914L38.9259 18.7452L38.8427 18.7673L38.6541 18.8236L38.5635 18.8506L38.3921 18.9068L38.2893 18.9436L38.1374 18.9999L38.0249 19.0464L37.922 19.0881L37.8216 19.1321L37.7188 19.1786V21.054C37.4615 21.2708 37.2239 21.5101 37.0088 21.7689C36.535 22.3392 36.1785 22.9976 35.9598 23.706C35.7411 24.4145 35.6645 25.1592 35.7343 25.8973C35.8041 26.6355 36.0191 27.3526 36.3668 28.0074C36.7145 28.6624 37.1881 29.2422 37.7604 29.7135C38.7692 30.5473 40.0362 31.005 41.3449 31.0086C41.5211 31.0086 41.6974 31.0086 41.8737 30.9842C43.3625 30.844 44.735 30.1185 45.6893 28.9672C46.6437 27.8159 47.1021 26.3329 46.9638 24.8439C46.8703 23.958 46.5655 23.1074 46.075 22.3638ZM33.6693 22.3883L33.8309 22.3271L34.3817 23.7716L33.5199 24.0997L32.969 22.6576L33.0817 22.6136L33.1575 22.8143C33.2777 23.1151 33.3807 23.4224 33.466 23.7348L33.8064 23.6589C33.7272 23.2397 33.6813 22.8148 33.6693 22.3883Z" fill="#22577A"/>
</g>
</svg>
