<svg width="82" height="82" viewBox="0 0 82 82" fill="none" xmlns="http://www.w3.org/2000/svg">
<rect x="0.507812" y="0.421875" width="80.8383" height="80.8383" rx="10" fill="white"/>
<mask id="mask0_1226_1124" style="mask-type:luminance" maskUnits="userSpaceOnUse" x="0" y="0" width="82" height="82">
<path d="M81.3383 0.421875H0.5V81.2602H81.3383V0.421875Z" fill="white"/>
</mask>
<g mask="url(#mask0_1226_1124)">
<path d="M81.3181 38.698C81.2066 33.0088 80.8406 27.3706 79.9708 21.743C79.5172 18.8041 78.8645 15.7788 77.9049 12.9428C77.0981 10.5618 75.9207 8.01828 73.8965 6.41581C73.1814 5.84959 72.3123 5.33054 71.2892 4.85863C69.9002 4.2174 68.4618 3.68844 66.9883 3.27681C61.8194 1.83108 56.407 1.18393 51.0676 0.78692L49.5826 0.695378C43.7311 0.327538 37.8621 0.330738 32.0109 0.704959C31.4826 0.752963 30.9528 0.780058 30.4215 0.786246C30.3209 0.787369 30.2282 0.834225 30.1175 0.841561C26.1245 1.13812 21.9942 1.65316 18.0582 2.48333C16.4516 2.8217 14.8647 3.24777 13.3046 3.7596C11.4734 4.3605 9.64326 5.16185 8.08383 6.30878C7.63277 6.63493 7.2241 7.01607 6.86733 7.44336L6.38709 8.01596C6.27559 8.12981 6.18553 8.26274 6.12122 8.40855L5.67653 9.06424C4.63522 10.8232 3.92272 12.7604 3.36501 14.7364C2.89095 16.4176 2.49884 18.118 2.18866 19.8377C1.28267 24.8606 0.788209 30.0197 0.62496 35.0662C0.58035 36.4413 0.522416 37.7859 0.508568 39.1464C0.452056 44.6368 0.671293 50.16 1.27923 55.6191C1.30632 55.8648 1.37653 56.158 1.39502 56.4397C1.41593 56.7565 1.44701 57.0722 1.48829 57.3868C1.99113 61.2541 2.6918 65.1383 3.96141 68.8356C4.52137 70.4654 5.23043 72.0609 6.21531 73.4568C7.39847 75.1347 9.1387 76.249 11.0615 77.0723C14.129 78.3859 17.4564 79.1689 20.7386 79.7213C24.2042 80.3051 27.6981 80.7056 31.2057 80.9226C31.3183 80.9324 31.4313 80.9346 31.5442 80.9309L31.9091 80.9795C33.2273 81.0521 34.5484 81.1397 35.8671 81.1831C40.5201 81.335 45.1477 81.258 49.795 80.9922C49.919 80.981 50.0423 80.963 50.1639 80.9368L50.5981 80.9256C54.149 80.7048 57.6856 80.2954 61.1928 79.6988C64.591 79.1195 68.0765 78.3171 71.2203 76.868C72.882 76.1015 74.4737 75.0572 75.5165 73.6065C76.2837 72.5256 76.9132 71.3535 77.3907 70.1169C78.6078 67.021 79.3705 63.7397 79.896 60.4651C80.4873 56.7621 80.884 53.0307 81.0846 49.2862C81.2829 45.6267 81.384 42.0598 81.3181 38.698ZM2.89016 57.6956C2.8916 57.6951 2.8932 57.6951 2.89465 57.6956C2.89549 57.6958 2.89627 57.6961 2.89689 57.6967C2.89468 57.6961 2.89239 57.6957 2.89008 57.6956M3.6043 25.1526C3.6049 25.1526 3.60543 25.1532 3.60603 25.1537C3.60662 25.1542 3.60827 25.1565 3.60939 25.1577L3.6043 25.1526ZM31.5104 80.6359C31.5116 80.6359 31.5127 80.6367 31.5138 80.6367C31.5165 80.6374 31.5191 80.6382 31.5213 80.6397C31.5178 80.6382 31.5142 80.6367 31.5106 80.6359M78.1385 56.3934C78.14 56.3927 78.1422 56.3923 78.1437 56.3922H78.149C78.1452 56.3924 78.1422 56.3928 78.1385 56.3934ZM78.1527 24.9496C78.1505 24.95 78.1482 24.9502 78.1467 24.9502C78.1505 24.9502 78.1542 24.9496 78.1579 24.9484C78.1557 24.9491 78.1542 24.9495 78.1527 24.9496ZM78.2066 57.271C78.2036 57.2736 78.2006 57.2758 78.1976 57.2778C78.2014 57.2755 78.2044 57.2728 78.2066 57.2699C78.2066 57.2705 78.2066 57.2705 78.2066 57.271Z" fill="white"/>
<path fill-rule="evenodd" clip-rule="evenodd" d="M69.1398 77.7187V73.2952L69.1403 73.2949C69.1401 72.3505 68.765 71.4448 68.0972 70.777C67.4295 70.1094 66.524 69.7343 65.5798 69.7344H15.9726C15.5432 69.7344 15.1181 69.819 14.7215 69.9833C14.3248 70.1476 13.9644 70.3886 13.6608 70.6922C13.3572 70.9959 13.1163 71.3565 12.952 71.7532C12.7877 72.1499 12.7031 72.5752 12.7031 73.0047V77.7142C15.3018 78.6535 18.0413 79.2666 20.75 79.7224C24.2139 80.3062 27.7062 80.7074 31.2123 80.9237C31.3248 80.9335 31.4378 80.9365 31.5507 80.932L31.9155 80.9806C32.2546 80.9993 32.594 81.0188 32.9334 81.039C33.9127 81.0952 34.8928 81.152 35.8717 81.1842C37.4265 81.2351 38.9784 81.2606 40.5292 81.2613H40.7435C43.76 81.2591 46.7725 81.1663 49.7933 80.9934C49.9173 80.9829 50.0404 80.9642 50.162 80.938L50.596 80.9267C54.1453 80.7067 57.6803 80.2973 61.186 79.6999C63.8527 79.2456 66.5731 78.6535 69.1398 77.7187ZM31.5203 80.6378C31.5192 80.6378 31.5181 80.6378 31.5169 80.6378H31.517C31.5207 80.6386 31.5243 80.6393 31.5278 80.6408C31.5255 80.6393 31.523 80.6386 31.5203 80.6378Z" fill="#56CC9A"/>
<path d="M31.7898 78.7138C30.4676 78.7138 29.4343 78.0499 29.3906 76.7939H30.9842C31.0279 77.2715 31.326 77.5013 31.746 77.5013C32.1838 77.5013 32.464 77.2805 32.464 76.9174C32.464 75.767 29.3906 76.3867 29.4081 74.1832C29.4081 73.0064 30.3624 72.3516 31.6498 72.3516C32.9894 72.3516 33.8914 73.024 33.9526 74.2097H32.3327C32.3065 73.8115 32.0263 73.5727 31.6234 73.5638C31.2644 73.555 30.993 73.7409 30.993 74.1302C30.993 75.2097 34.0313 74.7232 34.0313 76.8022C34.0313 77.8463 33.2258 78.7138 31.7897 78.7138" fill="white"/>
<path d="M38.805 77.545H36.4994L36.1301 78.6423H34.5547L36.7898 72.4297H38.5321L40.7673 78.6423H39.1745L38.805 77.545ZM37.6522 74.1023L36.8954 76.3765H38.4178L37.6522 74.1023Z" fill="white"/>
<path d="M45.3204 77.545H43.015L42.6456 78.6423H41.0703L43.3053 72.4297H45.0473L47.2829 78.6423H45.6899L45.3204 77.545ZM44.1677 74.1023L43.411 76.3765H44.9332L44.1677 74.1023Z" fill="white"/>
<path d="M50.2039 78.7138C48.8817 78.7138 47.8485 78.0499 47.8047 76.7939H49.3983C49.4421 77.2715 49.7401 77.5013 50.1602 77.5013C50.598 77.5013 50.8782 77.2805 50.8782 76.9174C50.8782 75.767 47.8048 76.3867 47.8223 74.1832C47.8223 73.0064 48.7766 72.3516 50.0638 72.3516C51.4036 72.3516 52.3055 73.024 52.3668 74.2097H50.7468C50.7206 73.8115 50.4403 73.5727 50.0375 73.5638C49.6784 73.555 49.407 73.7409 49.407 74.1302C49.407 75.2097 52.4454 74.7232 52.4454 76.8022C52.4454 77.8463 51.6398 78.7138 50.2038 78.7138" fill="white"/>
<path fill-rule="evenodd" clip-rule="evenodd" d="M28.6112 60.6789C32.1345 58.8517 36.1323 58.9879 39.5379 60.9783C39.5868 61.0084 39.643 61.0244 39.7004 61.0244C39.7578 61.0244 39.8141 61.0084 39.8629 60.9783C39.9129 60.9507 39.9546 60.91 39.9833 60.8605C40.012 60.8111 40.0268 60.7548 40.026 60.6976V52.4715C40.027 52.4306 40.0198 52.3899 40.0049 52.3518C39.99 52.3136 39.9675 52.2789 39.9389 52.2495C37.8753 50.0721 35.1858 48.5902 32.2426 48.0089C29.2996 47.4275 26.2486 47.7755 23.512 49.0047C23.4343 49.0402 23.3735 49.1047 23.3426 49.1843C23.3116 49.2641 23.313 49.3527 23.3465 49.4313L28.1626 60.5183C28.1805 60.5597 28.2067 60.597 28.2397 60.6278C28.2726 60.6586 28.3115 60.6823 28.354 60.6974C28.3959 60.7123 28.4403 60.7183 28.4846 60.7152C28.529 60.712 28.5721 60.6997 28.6114 60.6789M52.4172 60.6789C48.8939 58.8517 44.8935 58.9879 41.4904 60.9783C41.4416 61.0084 41.3854 61.0244 41.328 61.0244C41.2706 61.0244 41.2144 61.0084 41.1656 60.9783C41.1156 60.9507 41.0739 60.91 41.0452 60.8605C41.0165 60.8111 41.0017 60.7548 41.0025 60.6976V52.4715C41.0013 52.4304 41.0087 52.3893 41.0242 52.3512C41.0397 52.313 41.0629 52.2783 41.0923 52.2495C43.1554 50.0721 45.8444 48.5899 48.7872 48.0086C51.7299 47.4272 54.7806 47.7754 57.5167 49.0047C57.5944 49.0402 57.6552 49.1047 57.6861 49.1844C57.717 49.264 57.7156 49.3527 57.6822 49.4313L52.8661 60.5183C52.8483 60.5594 52.8224 60.5965 52.79 60.6272C52.7575 60.658 52.7191 60.6819 52.6771 60.6974C52.6349 60.7124 52.59 60.7185 52.5453 60.7153C52.5005 60.7121 52.4569 60.6998 52.4172 60.6789Z" fill="#56CC99"/>
<path fill-rule="evenodd" clip-rule="evenodd" d="M42.3903 63.6415C45.1523 61.2452 48.9328 61.7478 52.0086 63.2196C52.0576 63.244 52.1121 63.255 52.1667 63.2518C52.2214 63.2486 52.2742 63.2312 52.3201 63.2012C52.3678 63.1735 52.4071 63.1336 52.4341 63.0854C52.461 63.0374 52.4746 62.9829 52.4734 62.9278V62.0059C52.4743 61.9474 52.4591 61.8898 52.4295 61.8395C52.3998 61.7891 52.3569 61.7478 52.3054 61.7202C48.7294 59.7102 44.5884 59.9653 41.218 62.3149C40.9139 62.5295 40.1327 62.5295 39.8258 62.3149C36.4557 59.9664 32.3168 59.7114 28.7384 61.7202C28.6872 61.7482 28.6445 61.7895 28.6149 61.8398C28.5854 61.8901 28.57 61.9476 28.5704 62.0059V62.9281C28.5691 62.9832 28.5827 63.0377 28.6096 63.0857C28.6366 63.1339 28.6759 63.1738 28.7236 63.2015C28.7697 63.2318 28.823 63.2494 28.8781 63.2526C28.9332 63.2559 28.9881 63.2446 29.0375 63.2199C32.1107 61.7484 35.8916 61.2455 38.6533 63.6418C38.6558 63.6443 38.6608 63.6467 38.6631 63.6493C39.1908 64.0708 39.8462 64.3005 40.5217 64.3005C41.1971 64.3005 41.8524 64.0708 42.3802 63.6493C42.3827 63.6468 42.3877 63.6444 42.39 63.6418" fill="#205479"/>
<path fill-rule="evenodd" clip-rule="evenodd" d="M53.4715 61.5739L57.3294 52.6881C57.3591 52.6194 57.4116 52.5631 57.4781 52.5287C57.5445 52.4942 57.6207 52.4838 57.6939 52.499C57.7672 52.5143 57.8329 52.5543 57.88 52.6125C57.9272 52.6706 57.9528 52.7432 57.9525 52.818V55.7331C57.9531 55.7874 57.9399 55.8409 57.9144 55.8888L54.0536 62.9756C54.0195 63.0393 53.9649 63.0897 53.8987 63.1189C53.8325 63.148 53.7584 63.154 53.6884 63.1361C53.6183 63.1182 53.5563 63.0772 53.5123 63.0199C53.4683 62.9626 53.4447 62.8921 53.4453 62.8198V61.7039C53.4447 61.6591 53.4536 61.6148 53.4715 61.5739Z" fill="#205479"/>
<path fill-rule="evenodd" clip-rule="evenodd" d="M27.567 61.5734L23.709 52.6876C23.6792 52.6191 23.6267 52.5629 23.5603 52.5285C23.494 52.4942 23.4178 52.4838 23.3446 52.499C23.2715 52.5143 23.2057 52.5543 23.1587 52.6123C23.1116 52.6704 23.0859 52.7428 23.086 52.8175V55.7326C23.0851 55.7872 23.0991 55.841 23.1265 55.8883L26.9846 62.9753C27.0185 63.0393 27.073 63.09 27.1393 63.1192C27.2057 63.1483 27.2798 63.1542 27.35 63.1359C27.4201 63.1179 27.4823 63.077 27.5267 63.0197C27.5711 62.9624 27.5952 62.892 27.5953 62.8196V61.7034C27.5951 61.6586 27.5855 61.6142 27.567 61.5734Z" fill="#205479"/>
<path fill-rule="evenodd" clip-rule="evenodd" d="M41.1389 31.9369L42.4756 36.0782C42.5166 36.2102 42.5991 36.3254 42.711 36.4065C42.8229 36.4876 42.958 36.5303 43.0961 36.5283L47.4524 36.5208C47.5901 36.5208 47.7242 36.5642 47.8355 36.6451C47.9469 36.726 48.0297 36.8401 48.0723 36.9709C48.1148 37.1018 48.1147 37.2428 48.0721 37.3737C48.0294 37.5045 47.9465 37.6185 47.8351 37.6993L44.3096 40.2513C44.1967 40.3315 44.1127 40.4458 44.0699 40.5774C44.027 40.7091 44.0277 40.851 44.0717 40.9822L45.4256 45.121C45.4684 45.2521 45.4684 45.3934 45.4258 45.5245C45.3832 45.6556 45.3001 45.7699 45.1885 45.8508C45.0769 45.9317 44.9425 45.9752 44.8047 45.9749C44.6668 45.9748 44.5326 45.9309 44.4212 45.8496L40.9053 43.2841C40.794 43.2017 40.6593 43.1571 40.5208 43.1571C40.3824 43.1571 40.2476 43.2017 40.1363 43.2841L36.6204 45.8496C36.5092 45.9321 36.3744 45.9765 36.236 45.9765C36.0975 45.9765 35.9627 45.9321 35.8515 45.8496C35.7392 45.7696 35.6558 45.6554 35.6137 45.5241C35.5717 45.3928 35.5734 45.2514 35.6184 45.121L36.9699 40.9822C37.014 40.851 37.0146 40.7091 36.9718 40.5774C36.9289 40.4458 36.8449 40.3315 36.7319 40.2513L33.2065 37.6993C33.0951 37.6185 33.0121 37.5045 32.9695 37.3737C32.9269 37.2428 32.9268 37.1018 32.9693 36.9709C33.0119 36.8401 33.0947 36.726 33.206 36.6451C33.3174 36.5642 33.4515 36.5208 33.5891 36.5208L37.9454 36.5283C38.0836 36.5303 38.2187 36.4876 38.3306 36.4065C38.4424 36.3254 38.525 36.2102 38.5659 36.0782L39.9026 31.9369C39.9449 31.8055 40.0276 31.6909 40.1392 31.6095C40.2507 31.5282 40.3852 31.4844 40.5232 31.4844C40.6613 31.4844 40.7957 31.5282 40.9072 31.6095C41.0187 31.6909 41.1016 31.8055 41.1437 31.9369H41.1389Z" fill="#56CC99"/>
<path fill-rule="evenodd" clip-rule="evenodd" d="M11.1948 20.801C23.7869 27.8343 32.3888 23.0381 37.0008 6.41253C37.0543 6.22026 37.1754 6.05369 37.3417 5.9433C37.508 5.83292 37.7084 5.78609 37.9064 5.81139C38.1044 5.83669 38.2867 5.93241 38.4199 6.08106C38.5531 6.22971 38.6284 6.42134 38.6319 6.62092C38.9388 26.9155 28.0705 45.3634 11.1176 55.2046C10.9427 55.3065 10.7368 55.3412 10.5382 55.3021C10.3397 55.263 10.1623 55.1529 10.0391 54.9924C9.91593 54.8319 9.85545 54.632 9.86907 54.4301C9.8827 54.2282 9.96952 54.0382 10.1132 53.8958C15.688 48.3469 17.9939 42.3975 17.0309 36.0477C17.0176 35.9599 17.0328 35.8701 17.0744 35.7915C17.1159 35.7129 17.1814 35.6498 17.2615 35.6111C17.3409 35.5719 17.4309 35.5595 17.518 35.5757C17.6052 35.5919 17.6846 35.6358 17.7447 35.701C18.8668 36.8893 19.9738 38.0936 21.0657 39.3138C21.1309 39.3864 21.2196 39.4338 21.3162 39.4477C21.4128 39.4615 21.5112 39.4411 21.5943 39.3899C21.6773 39.3386 21.7397 39.2599 21.7706 39.1673C21.8016 39.0747 21.799 38.9742 21.7635 38.8833C19.2875 32.5933 15.6577 28.0486 10.1389 22.0507C9.52334 21.3811 10.3989 20.3596 11.1936 20.8034L11.1948 20.801Z" fill="#205479"/>
<path fill-rule="evenodd" clip-rule="evenodd" d="M26.7376 17.7566C26.2151 18.4901 25.4869 19.0521 24.645 19.3718C23.8031 19.6913 22.8853 19.754 22.0077 19.5519C21.1302 19.3499 20.3323 18.8921 19.7149 18.2365C19.0976 17.581 18.6884 16.757 18.5394 15.8689C18.3903 14.9808 18.508 14.0685 18.8774 13.2473C19.247 12.426 19.8517 11.7328 20.6151 11.2553C21.3786 10.7778 22.2666 10.5374 23.1667 10.5646C24.0668 10.5917 24.9386 10.8852 25.672 11.4079C26.6551 12.1085 27.3197 13.1709 27.5196 14.3616C27.7194 15.5522 27.4381 16.7734 26.7376 17.7566Z" fill="#205479"/>
<path fill-rule="evenodd" clip-rule="evenodd" d="M69.8418 20.8015C57.2498 27.8346 48.6486 23.0385 44.0383 6.41295C43.9846 6.22052 43.8633 6.05386 43.6968 5.94341C43.5304 5.83296 43.3297 5.7861 43.1315 5.81138C42.9333 5.83666 42.7508 5.93241 42.6174 6.08111C42.484 6.22982 42.4085 6.42158 42.4048 6.62134C42.0979 26.9159 52.9661 45.3638 69.9191 55.205C70.0938 55.3068 70.2998 55.3415 70.4983 55.3024C70.6968 55.2633 70.8742 55.1532 70.9974 54.9927C71.1206 54.8322 71.181 54.6323 71.1673 54.4305C71.1537 54.2287 71.067 54.0387 70.9234 53.8962C65.3485 48.3473 63.0426 42.3979 64.0057 36.0481C64.0189 35.9602 64.0037 35.8705 63.9622 35.7919C63.9207 35.7133 63.8551 35.6501 63.7751 35.6116C63.696 35.5724 63.6064 35.5599 63.5197 35.5761C63.433 35.5924 63.3539 35.6363 63.2944 35.7014C62.1723 36.8897 61.0645 38.094 59.971 39.3142C59.9056 39.3865 59.817 39.4338 59.7205 39.4477C59.6239 39.4615 59.5257 39.4412 59.4425 39.3903C59.3592 39.3393 59.2966 39.2604 59.2658 39.1677C59.2352 39.075 59.2382 38.9744 59.2745 38.8838C61.748 32.5938 65.3807 28.049 70.8965 22.0511C71.5121 21.3815 70.6365 20.36 69.8418 20.8039V20.8015Z" fill="#205479"/>
<path fill-rule="evenodd" clip-rule="evenodd" d="M54.298 17.7566C54.8204 18.4901 55.5487 19.0521 56.3906 19.3717C57.2324 19.6913 58.1502 19.754 59.0278 19.5519C59.9053 19.3499 60.7032 18.8921 61.3206 18.2365C61.938 17.581 62.3471 16.757 62.4961 15.8689C62.6452 14.9808 62.5275 14.0685 62.1581 13.2472C61.7886 12.426 61.1838 11.7328 60.4204 11.2553C59.6569 10.7777 58.7689 10.5374 57.8689 10.5646C56.9687 10.5917 56.0969 10.8852 55.3636 11.4079C54.3804 12.1085 53.7158 13.1709 53.5159 14.3616C53.3161 15.5521 53.5974 16.7734 54.298 17.7566Z" fill="#205479"/>
</g>
</svg>
