<svg width="81" height="81" viewBox="0 0 81 81" fill="none" xmlns="http://www.w3.org/2000/svg">
<path d="M0 10C0 4.47715 4.47715 0 10 0H71C76.5228 0 81 4.47715 81 10V71C81 76.5228 76.5228 81 71 81H10C4.47715 81 0 76.5228 0 71V10Z" fill="#6133BD"/>
<path d="M80.9798 38.3605C80.868 32.66 80.5013 27.0104 79.6298 21.3716C79.1753 18.4268 78.5213 15.3955 77.5598 12.5537C76.7513 10.1681 75.5715 7.61941 73.5433 6.01374C72.8267 5.44639 71.9559 4.92629 70.9308 4.45344C69.539 3.81093 68.0978 3.28091 66.6212 2.86846C61.442 1.41984 56.0189 0.771387 50.6687 0.373587L49.1808 0.281862C43.3176 -0.0867131 37.4369 -0.0835068 31.574 0.291462C31.0446 0.339562 30.5138 0.366712 29.9813 0.372912C29.8805 0.374037 29.7877 0.420987 29.6768 0.428337C25.6757 0.725487 21.5372 1.24156 17.5934 2.07339C15.9836 2.41244 14.3935 2.83936 12.8303 3.35221C10.9954 3.95431 9.16155 4.75726 7.599 5.90649C7.14704 6.23329 6.73755 6.61519 6.38006 7.04334L5.89886 7.61709C5.78714 7.73116 5.6969 7.86436 5.63246 8.01046L5.18689 8.66746C4.14349 10.43 3.42956 12.371 2.87074 14.351C2.39573 16.0355 2.00284 17.7393 1.69204 19.4624C0.784237 24.4955 0.288785 29.6648 0.12521 34.7214C0.0805102 36.0993 0.0224605 37.4466 0.00858547 38.8098C-0.0480395 44.3111 0.171635 49.8455 0.780787 55.3154C0.807937 55.5616 0.878288 55.8554 0.896813 56.1377C0.91776 56.4551 0.948908 56.7714 0.990263 57.0866C1.49411 60.9617 2.19619 64.8537 3.46834 68.5584C4.02941 70.1915 4.73989 71.7901 5.72674 73.1888C6.91226 74.87 8.65598 75.9866 10.5826 76.8116C13.6562 78.1278 16.9904 78.9123 20.2791 79.4658C23.7516 80.0508 27.2525 80.4521 30.7671 80.6696C30.8799 80.6793 30.9932 80.6816 31.1063 80.6778L31.472 80.7266C32.7928 80.7993 34.1165 80.8871 35.4379 80.9306C40.1002 81.0828 44.737 81.0056 49.3936 80.7393C49.5179 80.7281 49.6414 80.7101 49.7633 80.6838L50.1983 80.6726C53.7563 80.4513 57.2999 80.0411 60.8142 79.4433C64.2192 78.8628 67.7117 78.0588 70.8617 76.6068C72.5267 75.8388 74.1217 74.7924 75.1665 73.3388C75.9353 72.2558 76.566 71.0813 77.0445 69.8423C78.264 66.7402 79.0283 63.4523 79.5548 60.1711C80.1473 56.4608 80.5448 52.7219 80.7458 48.9698C80.9445 45.303 81.0458 41.729 80.9798 38.3605ZM2.39494 57.3961C2.39639 57.3956 2.39799 57.3956 2.39944 57.3961C2.40029 57.3962 2.40107 57.3966 2.40169 57.3972C2.39947 57.3965 2.39717 57.3962 2.39486 57.3961M3.11051 24.788C3.11111 24.788 3.11164 24.7886 3.11224 24.7891C3.11284 24.7896 3.11449 24.7919 3.11561 24.7931L3.11051 24.788ZM31.0724 80.3823C31.0736 80.3823 31.0748 80.3831 31.0758 80.3831C31.0785 80.3838 31.0811 80.3846 31.0833 80.3861C31.0799 80.3846 31.0763 80.3831 31.0726 80.3823M77.7938 56.0912C77.7953 56.0906 77.7975 56.0902 77.799 56.0901H77.8043C77.8005 56.0903 77.7975 56.0906 77.7938 56.0912ZM77.808 24.5846C77.8057 24.585 77.8035 24.5852 77.802 24.5852C77.8058 24.5852 77.8095 24.5846 77.8133 24.5834C77.811 24.5841 77.8095 24.5845 77.808 24.5846ZM77.862 56.9706C77.859 56.9732 77.856 56.9755 77.853 56.9774C77.8568 56.9751 77.8598 56.9724 77.862 56.9695C77.862 56.9701 77.862 56.9701 77.862 56.9706Z" fill="#6133BD"/>
<path d="M12 0H68V8.5C68 12.6421 64.6421 16 60.5 16H19.5C15.3579 16 12 12.6421 12 8.5V0Z" fill="white"/>
<path d="M27.9556 13.6113L25.7266 4.22565H27.9953L28.703 8.09499C28.9113 9.20956 29.1065 10.4101 29.2619 11.3691H29.2883C29.4405 10.3504 29.6654 9.22606 29.9033 8.06161L30.6938 4.21875H32.9493L33.7033 8.18739C33.9117 9.28876 34.0638 10.2908 34.2028 11.3359H34.2292C34.3681 10.2908 34.5765 9.19284 34.7716 8.07504L35.5388 4.23217H37.6953L35.2711 13.6181H32.9726L32.1789 9.58014C31.9971 8.63101 31.8481 7.75764 31.7357 6.68295H31.7095C31.5409 7.74129 31.3788 8.63086 31.1671 9.58014L30.2746 13.6181L27.9556 13.6113Z" fill="#6133BD"/>
<path d="M45.4263 9.64369H41.9736V11.8726H45.8295V13.6126H39.8438V4.22656H45.6345V5.96611H41.9736V7.91397H45.4263V9.64369Z" fill="#6133BD"/>
<path d="M48.3125 4.34746C49.2207 4.20777 50.1387 4.14255 51.0575 4.15246C52.0114 4.06906 52.9698 4.25224 53.8257 4.68159C54.1659 4.8522 54.4517 5.1144 54.6509 5.43868C54.8501 5.76296 54.9548 6.13641 54.9532 6.51699C54.9453 6.9731 54.7903 7.41446 54.5115 7.77549C54.2327 8.13654 53.8448 8.39799 53.4055 8.52106V8.54754C53.9358 8.65891 54.4113 8.95029 54.7512 9.37223C55.0912 9.79418 55.2747 10.3207 55.2708 10.8626C55.2721 11.2458 55.1851 11.6242 55.0164 11.9683C54.8478 12.3125 54.6021 12.6131 54.2984 12.8469C53.1955 13.5262 51.9002 13.8248 50.6112 13.6968C49.8427 13.7046 49.0747 13.6582 48.3127 13.558L48.3125 4.34746ZM50.4162 7.93899H51.1107C52.2253 7.93899 52.8271 7.48269 52.8271 6.78489C52.8271 6.08709 52.2847 5.70009 51.3224 5.70009C51.0205 5.69533 50.7186 5.71414 50.4195 5.75634L50.4162 7.93899ZM50.4162 12.1028C50.6888 12.1285 50.9627 12.1373 51.2363 12.1292C52.1986 12.1292 53.0453 11.7687 53.0453 10.7799C53.0453 9.79111 52.1986 9.45713 51.1371 9.45713H50.4162V12.1028Z" fill="#6133BD"/>
<path d="M49.3671 43.2879C48.8065 43.2858 48.2565 43.1359 47.7725 42.8532C47.2885 42.5704 46.8878 42.165 46.6108 41.6778L37.5898 25.6679C37.4466 25.4143 37.2451 25.1986 37.0018 25.0385C36.7587 24.8784 36.4809 24.7785 36.1915 24.7471L31.849 24.2847C31.6826 24.2669 31.5301 24.1842 31.4243 24.0547C31.3186 23.9251 31.2682 23.759 31.2841 23.5925L31.2916 23.5289C31.3087 23.3623 31.3912 23.2093 31.521 23.1034C31.6507 22.9975 31.8172 22.9474 31.9838 22.9641L36.3281 23.4278C36.8293 23.4813 37.3104 23.6538 37.7313 23.931C38.1523 24.2082 38.5009 24.582 38.7481 25.0213L47.763 41.0322C47.9338 41.3338 48.1867 41.5807 48.4923 41.7445C48.7978 41.9081 49.1436 41.9818 49.4893 41.9569L60.9502 41.1265C61.0333 41.1203 61.1167 41.1305 61.1958 41.1565C61.2749 41.1825 61.3481 41.2239 61.4113 41.2783C61.4743 41.3326 61.5262 41.3988 61.5637 41.4731C61.6012 41.5474 61.6237 41.6284 61.63 41.7115V41.7769C61.6421 41.9446 61.5871 42.1103 61.4772 42.2375C61.3672 42.3648 61.2112 42.4431 61.0435 42.4553H61.0431L49.5817 43.2861C49.5193 43.2836 49.4437 43.2879 49.3671 43.2879Z" fill="white"/>
<path d="M65.441 30.2441L62.5337 38.6066C62.4191 38.9362 62.2066 39.2228 61.9245 39.4282C61.6425 39.6335 61.3044 39.7478 60.9557 39.7558L50.0741 40.0325C49.808 40.0387 49.5453 39.9707 49.3155 39.8363C49.0857 39.7019 48.8978 39.5063 48.7728 39.2712L43.2629 28.7217C43.2083 28.6244 43.1796 28.5146 43.1797 28.403C43.1873 28.2218 43.2626 28.0501 43.3909 27.9218C43.5192 27.7937 43.691 27.7184 43.8722 27.7109H63.6416C63.8529 27.7209 64.0622 27.7582 64.2641 27.8218C64.7384 27.991 65.1275 28.3395 65.3475 28.7925C65.5676 29.2456 65.601 29.7668 65.4408 30.2443" fill="white"/>
<path d="M50.1358 44.7658C51.022 44.7658 51.7403 45.5777 51.7403 46.5793C51.7403 47.581 51.022 48.3928 50.1358 48.3928C49.2496 48.3928 48.5312 47.5809 48.5312 46.5792C48.5312 45.5775 49.2496 44.7656 50.1358 44.7656" fill="white"/>
<path d="M58.003 45.3877C58.1021 44.3911 58.856 43.6502 59.6867 43.7329C60.5174 43.8155 61.1104 44.6904 61.0114 45.6869C60.9124 46.6834 60.1583 47.4244 59.3276 47.3418C58.4969 47.2591 57.9039 46.3843 58.003 45.3877Z" fill="white"/>
<path d="M56.6779 34.1172C56.6779 34.1172 55.2284 36.1405 56.3644 37.6197C56.3644 37.6197 58.0031 40.0572 60.9138 37.2352L62.9075 35.1704C62.9075 35.1704 59.843 37.6552 58.7012 37.6552C58.7012 37.6552 57.1511 37.815 57.0565 37.034L56.6779 34.1172Z" fill="#6133BD"/>
<path d="M57.0623 37.0365C57.0623 37.0365 54.4947 36.2553 53.6132 36.2553C53.6132 36.2553 53.356 36.2213 53.6768 36.1728C53.6768 36.1728 55.5715 36.0124 55.9383 36.1485C56.3051 36.2847 57.0623 37.0365 57.0623 37.0365Z" fill="#6133BD"/>
<path d="M60.1563 35.4075C58.7512 36.8603 57.0376 37.482 56.3292 36.7965C55.7871 36.2721 55.9904 35.1341 56.7453 33.9781C56.9932 33.6014 57.2762 33.249 57.5906 32.9257C58.9958 31.4729 60.7092 30.8512 61.4177 31.5366C62.1261 32.2221 61.5615 33.9555 60.1563 35.4078" fill="#6133BD"/>
<path d="M57.2578 36.2169C57.2578 36.2169 57.9558 34.4655 60.739 32.9844C60.739 32.9844 59.8191 35.4333 57.2578 36.2169Z" fill="white"/>
<path d="M11.2751 58.7204C11.3906 59.297 11.7277 59.8053 12.2138 60.1362C12.7534 60.4353 13.3653 60.5787 13.9816 60.5507C14.5145 60.5436 15.0454 60.4858 15.5673 60.3782C16.1597 60.2628 16.7399 60.0914 17.2998 59.8663C17.5519 60.3483 17.7527 60.8555 17.899 61.3795C18.0713 61.9748 18.1654 62.5899 18.1788 63.2095C16.7583 63.7419 15.2538 64.0149 13.7368 64.0158C12.71 64.0367 11.6882 63.8674 10.7229 63.5164C9.94388 63.2306 9.2421 62.7674 8.67308 62.1635C8.1354 61.5708 7.7355 60.8664 7.50203 60.101C6.99509 58.3961 6.99945 56.5799 7.51455 54.8775C7.7562 54.0975 8.15468 53.3752 8.6856 52.755C9.2226 52.14 9.8895 51.6522 10.6381 51.3266C11.5012 50.9607 12.4321 50.7819 13.3694 50.8021C14.1605 50.7882 14.946 50.9381 15.6766 51.2421C16.3289 51.519 16.9151 51.9309 17.3968 52.4506C17.8832 52.9873 18.253 53.619 18.483 54.3059C18.7403 55.0639 18.8678 55.8599 18.86 56.6604C18.8623 57.0557 18.8414 57.4509 18.7976 57.8439C18.7576 58.1936 18.7202 58.4831 18.6879 58.7103L11.2751 58.7204ZM13.2275 53.9142C12.734 53.9076 12.2558 54.0856 11.8868 54.4136C11.4782 54.8127 11.2416 55.3557 11.2276 55.9268H15.1302C15.1159 55.4062 14.9318 54.9047 14.606 54.4985C14.4368 54.3013 14.2244 54.1458 13.9853 54.0441C13.7463 53.9423 13.487 53.8969 13.2276 53.9116L13.2275 53.9142ZM27.7943 53.0103C28.4786 53.2865 29.0928 53.5671 29.6371 53.8521C30.1562 54.1177 30.6299 54.4641 31.0403 54.8783C31.44 55.2893 31.7481 55.7803 31.9443 56.319C32.4095 57.7459 32.3618 59.2905 31.8093 60.686C31.51 61.3746 31.0544 61.9842 30.4786 62.4663C29.8425 62.989 29.108 63.3786 28.3186 63.6122C27.3651 63.8946 26.3741 64.0302 25.3798 64.0143C24.4831 64.0233 23.5877 63.9396 22.7082 63.7646C21.8576 63.5805 21.0227 63.3301 20.2113 63.0156C20.2848 62.4027 20.399 61.7954 20.5533 61.1978C20.7197 60.5553 20.9145 59.9003 21.1376 59.2328C22.3604 59.8177 23.6886 60.1497 25.0427 60.2091C25.7105 60.243 26.3763 60.1136 26.9827 59.832C27.2123 59.7045 27.4001 59.5135 27.5237 59.2818C27.6473 59.0502 27.7014 58.7877 27.6794 58.5261C27.6856 58.2936 27.635 58.0632 27.5323 57.8547C27.4375 57.67 27.3048 57.5076 27.1428 57.3778C26.9749 57.2442 26.7902 57.1333 26.5935 57.0478C26.3905 56.9578 26.1833 56.8746 25.9718 56.7982L24.6062 56.2863C24.0496 56.0911 23.5142 55.8402 23.0081 55.5373C22.5448 55.2591 22.1285 54.9094 21.7745 54.5011C21.4276 54.0942 21.1585 53.627 20.9805 53.1228C20.7831 52.5333 20.6885 51.9144 20.7007 51.2928C20.6857 50.5056 20.8355 49.7238 21.1403 48.9978C21.4204 48.3488 21.8408 47.7699 22.3713 47.3028C22.9294 46.8231 23.5818 46.4657 24.2866 46.2538C25.1009 46.0083 25.948 45.8887 26.7984 45.8991C27.6064 45.8983 28.4123 45.9819 29.2028 46.1487C30.0431 46.3308 30.8705 46.5677 31.6799 46.8579C31.6022 47.439 31.4837 48.0138 31.3253 48.5782C31.1615 49.1858 30.9452 49.778 30.6788 50.3482C30.2558 50.1685 29.7565 49.9812 29.1808 49.7864C28.4938 49.5746 27.7769 49.476 27.0583 49.4943C26.8067 49.4929 26.5558 49.5173 26.3092 49.567C26.0869 49.6109 25.8729 49.6893 25.6749 49.7995C25.4888 49.9044 25.333 50.0559 25.223 50.2391C25.1033 50.4503 25.0446 50.6906 25.0532 50.9332C25.0384 51.1327 25.073 51.3328 25.154 51.5157C25.2351 51.6987 25.3601 51.8588 25.5178 51.9819C25.8562 52.2249 26.2256 52.4214 26.6162 52.5663L27.7943 53.0103ZM42.3611 59.0628H38.748V63.6996C38.325 63.7646 37.943 63.8137 37.602 63.847C37.261 63.8802 36.9522 63.8969 36.6757 63.897C36.3993 63.897 36.0905 63.8803 35.7494 63.847C35.4074 63.8145 35.0353 63.7671 34.6259 63.6996V51.1076C34.9763 51.0268 35.3317 50.9692 35.6897 50.9351C36.0389 50.9016 36.3761 50.8851 36.701 50.8852C37.0259 50.8854 37.3588 50.9019 37.6998 50.9351C38.0531 50.9674 38.4035 51.025 38.7485 51.1076V55.402H42.3616V51.1076C42.7112 51.027 43.0657 50.9694 43.4228 50.9351C43.7721 50.9016 44.1101 50.8851 44.4365 50.8852C44.763 50.8854 45.0959 50.9019 45.4353 50.9351C45.7886 50.9674 46.1392 51.025 46.4842 51.1076V63.6996C46.0615 63.7646 45.6794 63.8137 45.3381 63.847C45.0304 63.8787 44.7212 63.8945 44.4119 63.8943C44.1355 63.8943 43.8267 63.8777 43.4855 63.8444C43.1444 63.8111 42.7699 63.762 42.3621 63.697L42.3611 59.0628ZM48.6033 57.4773C48.5927 56.5545 48.7283 55.6359 49.0053 54.7557C49.2506 53.9759 49.6583 53.2568 50.2014 52.6458C50.7438 52.0502 51.4151 51.5864 52.1641 51.2899C53.0279 50.9582 53.9479 50.797 54.8731 50.8155C55.8065 50.7957 56.7349 50.9568 57.6071 51.2899C58.3569 51.5862 59.0291 52.0499 59.5721 52.6458C60.1153 53.2567 60.5229 53.9758 60.7682 54.7557C61.0451 55.6359 61.1808 56.5545 61.1702 57.4773C61.1807 58.3836 61.0449 59.2857 60.7682 60.1489C60.521 60.9174 60.1133 61.6246 59.5721 62.2238C59.0278 62.8122 58.3555 63.2675 57.6071 63.5547C56.7331 63.8801 55.8056 64.0375 54.8732 64.0185C53.9489 64.036 53.0298 63.8784 52.1641 63.5541C51.4165 63.267 50.7449 62.8116 50.2016 62.2233C49.6604 61.6242 49.2526 60.9169 49.0055 60.1484C48.7285 59.2853 48.5927 58.3831 48.6035 57.4767M56.9981 57.4767C57.0482 56.6462 56.8667 55.8181 56.4738 55.0847C56.3068 54.8151 56.0702 54.5957 55.789 54.4494C55.5077 54.303 55.1923 54.2352 54.8757 54.2532C54.5608 54.2343 54.2467 54.3018 53.9673 54.4483C53.6879 54.5949 53.4538 54.8148 53.2902 55.0847C52.9061 55.821 52.7293 56.6478 52.7785 57.4767C52.7309 58.2975 52.9077 59.1159 53.2902 59.8438C53.4541 60.1131 53.6883 60.3327 53.9677 60.4787C54.2471 60.6247 54.561 60.6918 54.8757 60.6726C55.1921 60.6911 55.5075 60.6238 55.7888 60.4779C56.07 60.3321 56.3067 60.113 56.4738 59.8438C56.8648 59.1187 57.0464 58.2991 56.9981 57.4767ZM67.3203 57.624C67.4209 57.6431 67.5226 57.6556 67.6248 57.6615H67.9291C68.4318 57.6826 68.9267 57.5321 69.3326 57.2346C69.5306 57.0521 69.6833 56.826 69.7786 56.5741C69.8739 56.3223 69.9092 56.0517 69.8817 55.7838C69.8966 55.5316 69.8551 55.2792 69.7601 55.0451C69.6651 54.811 69.519 54.601 69.3326 54.4305C68.9558 54.1103 68.4735 53.9412 67.9793 53.9561H67.7047C67.5786 53.9567 67.4527 53.9651 67.3277 53.9811L67.3203 57.624ZM63.2952 51.157C64.0444 51.0438 64.8134 50.9606 65.6022 50.9074C66.3911 50.8542 67.151 50.8259 67.8818 50.8225C68.6192 50.8218 69.3549 50.8914 70.079 51.0304C70.7636 51.1541 71.418 51.4083 72.0065 51.7794C72.5873 52.1582 73.0617 52.6791 73.3847 53.2926C73.7222 54.0533 73.9006 54.875 73.9087 55.7072C73.9169 56.5394 73.7546 57.3644 73.432 58.1316C73.1423 58.7352 72.7145 59.262 72.1833 59.6694C71.6551 60.0633 71.0544 60.3493 70.4156 60.5109C69.758 60.6792 69.0818 60.7631 68.403 60.7605C68.1672 60.7662 67.9313 60.7578 67.6965 60.7355C67.573 60.7296 67.4502 60.7128 67.3296 60.6855V63.6817C66.9552 63.7571 66.5767 63.8105 66.1961 63.8415C65.8632 63.8665 65.567 63.879 65.3073 63.879C65.0477 63.879 64.7505 63.8665 64.4158 63.8415C64.0427 63.8091 63.6718 63.7557 63.3047 63.6817L63.2952 51.157Z" fill="white"/>
</svg>
