<svg width="82" height="82" viewBox="0 0 82 82" fill="none" xmlns="http://www.w3.org/2000/svg">
<rect x="0.835938" y="0.914062" width="80.8383" height="80.8383" rx="10" fill="#6133BD"/>
<path d="M81.6462 39.198C81.5347 33.5088 81.1687 27.8706 80.2989 22.243C79.8453 19.3041 79.1927 16.2788 78.2331 13.4428C77.4262 11.0618 76.2488 8.51828 74.2246 6.91581C73.5095 6.34959 72.6404 5.83054 71.6174 5.35863C70.2283 4.7174 68.79 4.18844 67.3164 3.77681C62.1475 2.33108 56.7352 1.68393 51.3957 1.28692L49.9108 1.19538C44.0593 0.827538 38.1903 0.830738 32.3391 1.20496C31.8108 1.25296 31.281 1.28006 30.7496 1.28625C30.649 1.28737 30.5563 1.33423 30.4456 1.34156C26.4526 1.63812 22.3223 2.15316 18.3864 2.98333C16.7798 3.3217 15.1929 3.74777 13.6328 4.2596C11.8016 4.8605 9.97139 5.66185 8.41196 6.80878C7.9609 7.13493 7.55223 7.51607 7.19545 7.94336L6.71521 8.51596C6.60372 8.62981 6.51366 8.76274 6.44935 8.90855L6.00466 9.56424C4.96334 11.3232 4.25084 13.2604 3.69313 15.2364C3.21908 16.9176 2.82696 18.618 2.51679 20.3377C1.6108 25.3606 1.11633 30.5197 0.953085 35.5662C0.908475 36.9413 0.850541 38.2859 0.836693 39.6464C0.780181 45.1368 0.999418 50.66 1.60735 56.1191C1.63445 56.3648 1.70466 56.658 1.72315 56.9397C1.74405 57.2565 1.77514 57.5722 1.81641 57.8868C2.31926 61.7541 3.01993 65.6383 4.28954 69.3356C4.8495 70.9654 5.55855 72.5609 6.54343 73.9568C7.72659 75.6347 9.46682 76.749 11.3896 77.5723C14.4571 78.8859 17.7846 79.6689 21.0667 80.2213C24.5323 80.8051 28.0262 81.2056 31.5338 81.4226C31.6464 81.4324 31.7594 81.4346 31.8723 81.4309L32.2373 81.4795C33.5554 81.5521 34.8765 81.6397 36.1953 81.6831C40.8483 81.835 45.4758 81.758 50.1231 81.4922C50.2471 81.481 50.3704 81.463 50.4921 81.4368L50.9262 81.4256C54.4771 81.2048 58.0137 80.7954 61.5209 80.1988C64.9192 79.6195 68.4046 78.8171 71.5484 77.368C73.2101 76.6015 74.8019 75.5572 75.8446 74.1065C76.6118 73.0256 77.2413 71.8535 77.7189 70.6169C78.9359 67.521 79.6986 64.2397 80.2241 60.9651C80.8154 57.2621 81.2121 53.5307 81.4127 49.7862C81.6111 46.1267 81.7121 42.5598 81.6462 39.198ZM3.21828 58.1956C3.21973 58.1951 3.22133 58.1951 3.22277 58.1956C3.22362 58.1958 3.2244 58.1961 3.22502 58.1967C3.2228 58.1961 3.22051 58.1957 3.21821 58.1956M3.93243 25.6526C3.93303 25.6526 3.93355 25.6532 3.93415 25.6537C3.93475 25.6542 3.9364 25.6565 3.93752 25.6577L3.93243 25.6526ZM31.8385 81.1359C31.8397 81.1359 31.8409 81.1367 31.8419 81.1367C31.8446 81.1374 31.8472 81.1382 31.8494 81.1397C31.8459 81.1382 31.8423 81.1367 31.8387 81.1359M78.4666 56.8934C78.4681 56.8927 78.4703 56.8923 78.4718 56.8922H78.4771C78.4733 56.8924 78.4703 56.8928 78.4666 56.8934ZM78.4808 25.4496C78.4786 25.45 78.4763 25.4502 78.4748 25.4502C78.4786 25.4502 78.4823 25.4496 78.4861 25.4484C78.4838 25.4491 78.4823 25.4495 78.4808 25.4496ZM78.5347 57.771C78.5317 57.7736 78.5287 57.7758 78.5257 57.7778C78.5295 57.7755 78.5325 57.7728 78.5347 57.7699C78.5347 57.7705 78.5347 57.7705 78.5347 57.771Z" fill="#6133BD"/>
<path d="M50.0966 41.1223C49.5372 41.1203 48.9882 40.9707 48.5052 40.6885C48.0222 40.4063 47.6223 40.0016 47.3458 39.5154L38.3428 23.5375C38.1999 23.2844 37.9988 23.0692 37.756 22.9094C37.5134 22.7495 37.2361 22.6498 36.9473 22.6186L32.6134 22.1571C32.4474 22.1393 32.2952 22.0567 32.1896 21.9275C32.0841 21.7981 32.0339 21.6324 32.0498 21.4662L32.0572 21.4028C32.0743 21.2365 32.1566 21.0838 32.2861 20.9781C32.4156 20.8725 32.5817 20.8225 32.748 20.8391L37.0837 21.3019C37.5838 21.3552 38.064 21.5274 38.484 21.804C38.9042 22.0807 39.2521 22.4537 39.4988 22.8921L48.4957 38.8711C48.6662 39.1721 48.9186 39.4186 49.2236 39.582C49.5285 39.7453 49.8736 39.8188 50.2186 39.794L61.6566 38.9653C61.7395 38.9591 61.8228 38.9692 61.9017 38.9952C61.9807 39.0212 62.0537 39.0624 62.1167 39.1167C62.1797 39.1709 62.2314 39.237 62.2688 39.3111C62.3063 39.3853 62.3288 39.4662 62.335 39.5491V39.6144C62.3471 39.7817 62.2923 39.9471 62.1825 40.074C62.0728 40.201 61.9171 40.2792 61.7498 40.2914H61.7493L50.3108 41.1206C50.2485 41.118 50.173 41.1223 50.0966 41.1223Z" fill="white"/>
<path d="M66.1387 28.1063L63.2373 36.4521C63.1229 36.781 62.9108 37.067 62.6293 37.272C62.3479 37.4769 62.0104 37.591 61.6624 37.5989L50.8026 37.8751C50.5369 37.8813 50.2748 37.8135 50.0455 37.6793C49.8161 37.5451 49.6286 37.3499 49.5038 37.1153L44.0049 26.5869C43.9504 26.4897 43.9218 26.3801 43.9219 26.2688C43.9294 26.0879 44.0047 25.9166 44.1327 25.7886C44.2607 25.6607 44.4321 25.5855 44.613 25.5781H64.3429C64.5538 25.5881 64.7627 25.6253 64.9642 25.6888C65.4375 25.8576 65.8258 26.2054 66.0455 26.6575C66.2651 27.1097 66.2984 27.6299 66.1386 28.1064" fill="white"/>
<path d="M50.8592 42.6017C51.7436 42.6017 52.4605 43.412 52.4605 44.4117C52.4605 45.4113 51.7436 46.2215 50.8592 46.2215C49.9747 46.2215 49.2578 45.4112 49.2578 44.4115C49.2578 43.4118 49.9747 42.6016 50.8592 42.6016" fill="white"/>
<path d="M58.7139 43.2204C58.8128 42.2257 59.5652 41.4863 60.3942 41.5688C61.2233 41.6513 61.8151 42.5244 61.7163 43.5189C61.6175 44.5135 60.865 45.253 60.0359 45.1705C59.2069 45.088 58.615 44.2149 58.7139 43.2204Z" fill="white"/>
<path d="M57.3951 31.9688C57.3951 31.9688 55.9486 33.9881 57.0823 35.4643C57.0823 35.4643 58.7177 37.8969 61.6226 35.0805L63.6124 33.0199C63.6124 33.0199 60.5539 35.4997 59.4144 35.4997C59.4144 35.4997 57.8674 35.6592 57.773 34.8798L57.3951 31.9688Z" fill="#6133BD"/>
<path d="M57.774 34.8784C57.774 34.8784 55.2115 34.0988 54.3317 34.0988C54.3317 34.0988 54.0751 34.0648 54.3953 34.0164C54.3953 34.0164 56.2861 33.8563 56.6522 33.9922C57.0183 34.128 57.774 34.8784 57.774 34.8784Z" fill="#6133BD"/>
<path d="M60.859 33.2507C59.4567 34.7007 57.7465 35.3211 57.0395 34.6371C56.4985 34.1136 56.7014 32.9779 57.4548 31.8243C57.7022 31.4483 57.9846 31.0966 58.2984 30.774C59.7008 29.324 61.4108 28.7036 62.1179 29.3876C62.8249 30.0717 62.2614 31.8017 60.859 33.2511" fill="#6133BD"/>
<path d="M57.9688 34.062C57.9688 34.062 58.6654 32.3141 61.443 30.8359C61.443 30.8359 60.5249 33.28 57.9688 34.062Z" fill="white"/>
<path d="M12.0793 56.5229C12.1946 57.0984 12.531 57.6057 13.0162 57.9359C13.5546 58.2344 14.1653 58.3776 14.7804 58.3496C15.3122 58.3425 15.8421 58.2848 16.3629 58.1774C16.9542 58.0622 17.5332 57.8912 18.092 57.6666C18.3436 58.1476 18.544 58.6538 18.69 59.1767C18.8619 59.7708 18.9558 60.3847 18.9692 61.0031C17.5516 61.5344 16.0501 61.8069 14.5361 61.8078C13.5113 61.8286 12.4915 61.6597 11.5282 61.3094C10.7507 61.0241 10.0504 60.5618 9.48249 59.9591C8.94588 59.3676 8.54678 58.6647 8.31377 57.9008C7.80785 56.1993 7.8122 54.3867 8.32627 52.6877C8.56744 51.9093 8.96512 51.1884 9.49499 50.5694C10.0309 49.9557 10.6965 49.4688 11.4436 49.1439C12.3049 48.7787 13.234 48.6002 14.1694 48.6204C14.959 48.6066 15.7429 48.7561 16.472 49.0596C17.123 49.3359 17.7081 49.7469 18.1888 50.2657C18.6742 50.8013 19.0433 51.4317 19.2728 52.1172C19.5296 52.8737 19.6568 53.6681 19.6491 54.467C19.6513 54.8615 19.6305 55.2559 19.5868 55.6481C19.5469 55.9972 19.5095 56.2861 19.4773 56.5128L12.0793 56.5229ZM14.0278 51.7264C13.5353 51.7197 13.058 51.8974 12.6898 52.2247C12.282 52.623 12.0459 53.1649 12.0319 53.7349H15.9267C15.9124 53.2154 15.7287 52.7148 15.4035 52.3094C15.2347 52.1127 15.0227 51.9575 14.7841 51.8559C14.5456 51.7544 14.2868 51.7091 14.0279 51.7237L14.0278 51.7264ZM28.5656 50.8243C29.2484 51.0999 29.8615 51.38 30.4046 51.6644C30.9228 51.9294 31.3954 52.2751 31.8051 52.6885C32.204 53.0987 32.5115 53.5887 32.7073 54.1264C33.1716 55.5504 33.1239 57.0919 32.5725 58.4846C32.2738 59.1719 31.8191 59.7803 31.2445 60.2614C30.6097 60.783 29.8766 61.1719 29.0888 61.4049C28.1372 61.6868 27.1482 61.8221 26.1558 61.8062C25.2609 61.8152 24.3674 61.7317 23.4896 61.557C22.6407 61.3734 21.8075 61.1234 20.9977 60.8095C21.071 60.1978 21.185 59.5918 21.339 58.9954C21.5051 58.3542 21.6995 57.7005 21.9222 57.0343C23.1424 57.618 24.468 57.9494 25.8195 58.0086C26.4859 58.0425 27.1504 57.9133 27.7555 57.6323C27.9847 57.5051 28.1721 57.3145 28.2954 57.0832C28.4188 56.852 28.4728 56.5901 28.4509 56.3291C28.457 56.097 28.4066 55.8671 28.304 55.6589C28.2094 55.4746 28.077 55.3125 27.9153 55.183C27.7478 55.0497 27.5635 54.939 27.3671 54.8537C27.1646 54.7639 26.9578 54.6808 26.7466 54.6046L25.3838 54.0937C24.8283 53.8989 24.2939 53.6484 23.7888 53.3462C23.3265 53.0686 22.911 52.7195 22.5577 52.3121C22.2115 51.9059 21.943 51.4397 21.7653 50.9365C21.5683 50.3482 21.4739 49.7305 21.4861 49.1102C21.4711 48.3245 21.6206 47.5443 21.9248 46.8198C22.2043 46.172 22.6239 45.5943 23.1534 45.1282C23.7103 44.6493 24.3615 44.2927 25.0648 44.0812C25.8775 43.8362 26.7229 43.7169 27.5716 43.7272C28.378 43.7264 29.1823 43.8099 29.9713 43.9763C30.8099 44.158 31.6356 44.3945 32.4433 44.6841C32.3659 45.264 32.2476 45.8377 32.0895 46.401C31.926 47.0073 31.7101 47.5984 31.4443 48.1675C31.0222 47.9881 30.5238 47.8012 29.9493 47.6067C29.2636 47.3954 28.5482 47.2969 27.831 47.3153C27.5799 47.3139 27.3295 47.3382 27.0834 47.3878C26.8615 47.4316 26.648 47.5099 26.4504 47.6198C26.2646 47.7246 26.1091 47.8757 25.9993 48.0585C25.8799 48.2693 25.8213 48.5091 25.8299 48.7513C25.8151 48.9504 25.8497 49.1501 25.9305 49.3326C26.0115 49.5152 26.1362 49.675 26.2936 49.7978C26.6313 50.0404 27 50.2365 27.3898 50.3811L28.5656 50.8243ZM43.1033 56.8647H39.4974V61.4922C39.0752 61.557 38.694 61.6061 38.3537 61.6393C38.0133 61.6725 37.7052 61.6891 37.4292 61.6892C37.1534 61.6892 36.8452 61.6725 36.5047 61.6393C36.1635 61.6069 35.7921 61.5596 35.3835 61.4922V48.9253C35.7332 48.8447 36.0879 48.7872 36.4451 48.7532C36.7937 48.7198 37.1302 48.7032 37.4544 48.7034C37.7787 48.7035 38.1109 48.7201 38.4513 48.7532C38.8038 48.7854 39.1536 48.8429 39.4979 48.9253V53.2112H43.1037V48.9253C43.4527 48.8449 43.8064 48.7874 44.1629 48.7532C44.5115 48.7198 44.8487 48.7032 45.1746 48.7034C45.5004 48.7035 45.8326 48.7201 46.1713 48.7532C46.524 48.7854 46.8738 48.8429 47.2181 48.9253V61.4922C46.7963 61.557 46.415 61.6061 46.0743 61.6393C45.7672 61.6709 45.4587 61.6867 45.1499 61.6865C44.8741 61.6865 44.5659 61.6699 44.2254 61.6367C43.885 61.6035 43.5112 61.5544 43.1043 61.4896L43.1033 56.8647ZM49.333 55.2823C49.3224 54.3614 49.4578 53.4446 49.7342 52.5662C49.979 51.7879 50.3859 51.0702 50.9279 50.4605C51.4692 49.866 52.1392 49.4032 52.8867 49.1073C53.7488 48.7762 54.6669 48.6154 55.5903 48.6338C56.5219 48.6141 57.4484 48.7749 58.3189 49.1073C59.0671 49.4029 59.7379 49.8657 60.2799 50.4604C60.822 51.0701 61.2288 51.7878 61.4736 52.5661C61.7499 53.4446 61.8854 54.3613 61.8749 55.2823C61.8853 56.1868 61.7498 57.0871 61.4736 57.9486C61.2269 58.7156 60.82 59.4213 60.2799 60.0193C59.7367 60.6065 59.0657 61.0609 58.3189 61.3475C57.4466 61.6723 56.5209 61.8294 55.5903 61.8105C54.668 61.8279 53.7507 61.6707 52.8867 61.347C52.1406 61.0605 51.4704 60.606 50.9281 60.0188C50.3879 59.4209 49.981 58.7151 49.7344 57.9481C49.4579 57.0867 49.3225 56.1863 49.3332 55.2817M57.7111 55.2817C57.761 54.4529 57.5799 53.6264 57.1878 52.8945C57.0211 52.6255 56.785 52.4064 56.5043 52.2604C56.2237 52.1144 55.9088 52.0467 55.5929 52.0646C55.2786 52.0458 54.9651 52.1131 54.6863 52.2594C54.4074 52.4056 54.1738 52.6252 54.0106 52.8945C53.6272 53.6293 53.4507 54.4544 53.4999 55.2817C53.4523 56.1009 53.6288 56.9177 54.0106 57.6441C54.1741 57.9129 54.4079 58.132 54.6867 58.2777C54.9656 58.4234 55.2788 58.4904 55.5929 58.4713C55.9086 58.4897 56.2234 58.4225 56.5041 58.277C56.7848 58.1314 57.021 57.9127 57.1878 57.6441C57.578 56.9204 57.7592 56.1025 57.7111 55.2817ZM68.0126 55.4288C68.113 55.4478 68.2145 55.4603 68.3165 55.4662H68.6202C69.1219 55.4872 69.6159 55.337 70.0209 55.0401C70.2185 54.8579 70.3709 54.6323 70.466 54.3809C70.5612 54.1296 70.5964 53.8595 70.5689 53.5922C70.5838 53.3405 70.5424 53.0886 70.4475 52.855C70.3528 52.6213 70.207 52.4118 70.0209 52.2416C69.6448 51.922 69.1635 51.7533 68.6703 51.7681H68.3963C68.2704 51.7687 68.1448 51.7771 68.02 51.793L68.0126 55.4288ZM63.9956 48.9746C64.7433 48.8616 65.5107 48.7786 66.298 48.7255C67.0853 48.6724 67.8436 48.6442 68.5731 48.6408C69.3089 48.6401 70.0432 48.7095 70.7658 48.8483C71.449 48.9717 72.1022 49.2255 72.6894 49.5958C73.2691 49.9738 73.7426 50.4936 74.065 51.106C74.4018 51.8651 74.5798 52.6852 74.5879 53.5157C74.596 54.3463 74.4341 55.1696 74.1121 55.9353C73.8231 56.5377 73.3961 57.0634 72.8659 57.4701C72.3388 57.8632 71.7393 58.1486 71.1017 58.3098C70.4455 58.4779 69.7706 58.5615 69.0932 58.5589C68.8579 58.5646 68.6225 58.5563 68.3881 58.534C68.2648 58.5281 68.1423 58.5113 68.0219 58.4841V61.4743C67.6483 61.5496 67.2705 61.6029 66.8906 61.6338C66.5585 61.6588 66.2628 61.6713 66.0037 61.6713C65.7445 61.6713 65.448 61.6588 65.1139 61.6338C64.7416 61.6014 64.3714 61.5482 64.0051 61.4743L63.9956 48.9746Z" fill="white"/>
</svg>
