<svg width="82" height="82" viewBox="0 0 82 82" fill="none" xmlns="http://www.w3.org/2000/svg">
<rect x="0.179688" y="0.75" width="80.8383" height="80.8383" rx="10" fill="url(#paint0_linear_1226_966)"/>
<path d="M80.99 39.0183C80.8785 33.3292 80.5124 27.6909 79.6427 22.0633C79.1891 19.1244 78.5364 16.0991 77.5768 13.2631C76.7699 10.8822 75.5925 8.33859 73.5684 6.73612C72.8532 6.1699 71.9842 5.65085 70.9611 5.17894C69.572 4.53771 68.1337 4.00875 66.6601 3.59713C61.4913 2.15139 56.0789 1.50424 50.7395 1.10723L49.2545 1.01569C43.403 0.647851 37.534 0.65105 31.6828 1.02527C31.1545 1.07328 30.6247 1.10037 30.0934 1.10656C29.9928 1.10768 29.9001 1.15454 29.7894 1.16187C25.7964 1.45843 21.666 1.97347 17.7301 2.80364C16.1235 3.14202 14.5366 3.56808 12.9765 4.07991C11.1453 4.68081 9.31514 5.48216 7.75571 6.62909C7.30465 6.95524 6.89598 7.33638 6.5392 7.76367L6.05896 8.33627C5.95537 8.44204 5.87028 8.56434 5.80715 8.69803C5.79754 8.71846 5.78673 8.73822 5.77409 8.75686L5.34841 9.38455C4.30709 11.1435 3.59459 13.0807 3.03688 15.0567C2.56283 16.7379 2.17071 18.4383 1.86054 20.158C0.954547 25.181 0.460084 30.34 0.296835 35.3865C0.252225 36.7616 0.194291 38.1063 0.180443 39.4667C0.123931 44.9571 0.343168 50.4804 0.951104 55.9394C0.9782 56.1851 1.04841 56.4783 1.0669 56.76C1.0878 57.0768 1.11889 57.3925 1.16016 57.7071C1.66301 61.5744 2.36368 65.4587 3.63329 69.156C4.19325 70.7857 4.9023 72.3812 5.88718 73.7771C7.07034 75.455 8.81057 76.5693 10.7333 77.3926C13.8008 78.7063 17.1283 79.4892 20.4105 80.0416C23.8761 80.6254 27.3699 81.0259 30.8776 81.2429C30.9797 81.2519 31.0821 81.2549 31.1845 81.2519C31.2056 81.2519 31.2265 81.2527 31.2473 81.2557L31.581 81.2998C32.8992 81.3724 34.2202 81.46 35.539 81.5034C40.192 81.6554 44.8196 81.5783 49.4669 81.3125C49.5793 81.3028 49.6911 81.2863 49.8017 81.2639C49.8244 81.2594 49.8475 81.2564 49.8708 81.2557L50.2699 81.2459C53.8208 81.0251 57.3574 80.6157 60.8647 80.0191C64.2629 79.4398 67.7484 78.6374 70.8922 77.1883C72.5538 76.4218 74.1456 75.3775 75.1883 73.9268C75.9556 72.8459 76.5851 71.6738 77.0626 70.4372C78.2797 67.3414 79.0424 64.06 79.5678 60.7854C80.1592 57.0825 80.5559 53.351 80.7565 49.6065C80.9548 45.947 81.0559 42.3801 80.99 39.0183ZM2.56203 58.0159C2.56345 58.0154 2.56503 58.0154 2.56646 58.0159H2.56658C2.5672 58.0161 2.56697 58.0166 2.56635 58.0164C2.56491 58.0161 2.56343 58.016 2.56196 58.0159M3.27766 25.4744C3.27711 25.4738 3.27732 25.4735 3.2779 25.474C3.2785 25.4745 3.28015 25.4768 3.28127 25.478L3.27766 25.4744ZM31.1823 80.9563C31.1834 80.9563 31.1845 80.957 31.1856 80.957H31.1858C31.1868 80.957 31.1866 80.9578 31.1856 80.957C31.1846 80.957 31.1836 80.957 31.1824 80.9563M77.8163 56.7129C77.8156 56.7129 77.8156 56.7125 77.8156 56.7125H77.8208C77.8193 56.7126 77.8178 56.7127 77.8163 56.7129ZM77.8298 25.2688C77.8261 25.27 77.8231 25.2705 77.8193 25.2705H77.8186C77.8223 25.2705 77.8261 25.2699 77.8298 25.2688ZM77.8785 57.5913C77.8755 57.5939 77.8725 57.5962 77.8695 57.5981C77.8725 57.596 77.8755 57.5937 77.8777 57.5911C77.8777 57.5908 77.8785 57.591 77.8785 57.5913Z" fill="url(#paint1_linear_1226_966)"/>
<path d="M26.1675 64.1072C26.0794 64.1072 25.9702 64.1072 25.9767 64.08C25.9913 63.8974 25.9976 63.6182 25.9976 63.2928C25.9976 62.2935 25.9431 60.8849 25.9011 60.6671C25.9011 60.6398 25.8886 60.6334 25.8824 60.6334C25.8761 60.6334 25.8425 60.6733 25.8425 60.6733C25.5111 61.4521 25.2306 62.2514 25.0025 63.0664C24.9815 63.1147 24.8116 63.1399 24.7171 63.1399C24.6137 63.1429 24.511 63.122 24.4171 63.0789C24.4171 63.0516 23.63 60.8161 23.5336 60.6922C23.5212 60.6649 23.5065 60.6523 23.5001 60.6523C23.4937 60.6523 23.4877 60.6647 23.4791 60.7007C23.3847 61.4215 23.344 62.1485 23.3574 62.8754C23.3511 63.22 23.3622 63.5647 23.391 63.9082C23.1831 64.0287 22.9445 64.0856 22.7047 64.0719C22.6216 64.0761 22.5386 64.0625 22.4612 64.0322C22.4612 62.7537 22.7195 60.075 22.7195 60.075C22.5817 59.8685 22.4914 59.634 22.455 59.3885C22.4525 59.3817 22.4525 59.3742 22.455 59.3675C22.7469 59.3185 23.0426 59.296 23.3385 59.3004C23.5315 59.296 23.7246 59.3072 23.9157 59.334C23.9703 59.3822 24.5285 60.9921 24.6777 61.454C24.6777 61.454 24.6923 61.4876 24.7112 61.4876C24.7302 61.4876 24.7384 61.4729 24.7449 61.4456C24.989 60.72 25.2863 60.0135 25.6345 59.3317C25.9389 59.2754 26.2488 59.2549 26.5579 59.2709C26.6396 59.2709 26.8918 59.2709 26.8918 59.3045C26.8473 59.5817 26.7646 59.8516 26.6464 60.1063C26.6464 60.1063 26.8836 62.262 26.8836 63.9203C26.669 64.0528 26.4195 64.1179 26.1675 64.107" fill="white"/>
<path d="M29.4694 63.3887V63.3763C29.3744 63.5325 29.2435 63.6639 29.0876 63.7596C28.9318 63.8551 28.7554 63.9123 28.5732 63.9263C27.9623 63.9263 27.8051 63.3217 27.7566 62.8179C27.7566 62.7298 27.7442 62.5598 27.7442 62.3625C27.7353 61.9201 27.7557 61.4776 27.8052 61.0379C27.9754 60.9307 28.1754 60.8807 28.3761 60.8952C28.3761 60.8952 28.5316 60.8952 28.567 60.931C28.567 60.9771 28.5269 61.5229 28.5269 62.0183C28.5269 62.1673 28.5269 62.31 28.5394 62.4381C28.5394 62.4381 28.5394 62.9882 28.9214 62.9882C29.2739 62.9882 29.4776 62.5326 29.4712 62.4718V62.2409C29.4712 61.7581 29.4923 60.95 29.5132 60.9017C29.6833 60.7633 29.8986 60.6929 30.1176 60.7043C30.1756 60.7015 30.2335 60.7108 30.2878 60.7316C30.2878 60.7799 30.2332 61.8819 30.2332 62.6209C30.2275 62.8214 30.2366 63.0221 30.2604 63.2212C30.2752 63.4148 30.338 63.6016 30.443 63.7649C30.2454 63.9755 29.9772 64.1061 29.6896 64.1319C29.6624 64.1319 29.5194 63.9556 29.4797 63.5337L29.4694 63.3887Z" fill="white"/>
<path d="M32.0114 62.6495C32.0114 62.9076 32.0114 63.1197 32.0238 63.2268C32.0397 63.4224 32.1079 63.6101 32.2211 63.7704C32.0235 63.9811 31.7553 64.1117 31.4676 64.1375C31.4404 64.1375 31.2975 63.9612 31.2578 63.5392V62.8257C31.2578 62.1311 31.285 61.4445 31.285 60.3636C31.285 59.6772 31.2578 59.5071 31.2578 59.4317C31.2578 59.3561 31.6523 59.1881 31.8875 59.1881C31.9455 59.185 32.0036 59.1942 32.0577 59.2154C32.0452 59.3161 32.0241 60.4748 32.0241 60.9829C32.0241 61.4909 32.0113 61.9988 32.0113 62.6495" fill="white"/>
<path d="M33.9275 60.2003C34.097 60.1922 34.2669 60.1992 34.4352 60.2212C34.4352 60.5487 34.3135 60.8132 34.238 60.8132H33.919C33.919 61.3149 33.9065 61.8733 33.9065 62.3286C33.9065 62.7841 33.9065 63.1452 33.9275 63.2879C33.9474 63.5078 34.0467 63.7131 34.2068 63.8653C34.1126 63.9738 33.9971 64.0618 33.8675 64.1239C33.7379 64.186 33.5969 64.2208 33.4533 64.2261C33.3656 64.1459 33.295 64.0488 33.2459 63.9406C33.1968 63.8323 33.1703 63.7152 33.1679 63.5964C33.1533 63.4873 33.1533 63.2081 33.1533 62.8681C33.1533 62.1334 33.1679 61.1072 33.1742 60.8361H32.7943C32.7653 60.7606 32.7539 60.6795 32.7608 60.5989C32.7495 60.4713 32.7705 60.3429 32.8218 60.2256L33.1826 60.2108C33.1823 59.9953 33.1682 59.7801 33.1406 59.5664C33.1406 59.4699 33.5477 59.3208 33.7934 59.3208C33.8514 59.318 33.9093 59.3274 33.9636 59.3481C33.9566 59.4322 33.9441 59.7659 33.9275 60.2005" fill="white"/>
<path d="M35.3693 60.6516C35.3164 60.6544 35.2636 60.6467 35.2137 60.6291C35.1638 60.6113 35.1179 60.584 35.0786 60.5486C35.0392 60.5132 35.0072 60.4704 34.9845 60.4226C34.9617 60.3749 34.9486 60.3231 34.9458 60.2702C34.9445 60.2434 34.9458 60.2165 34.9496 60.1898C34.9603 60.068 35.0154 59.9543 35.1044 59.8704C35.1934 59.7864 35.3101 59.738 35.4323 59.7344C35.4875 59.7342 35.5421 59.7449 35.5931 59.7658C35.6441 59.7867 35.6905 59.8175 35.7296 59.8564C35.7687 59.8952 35.7998 59.9414 35.821 59.9923C35.8423 60.0431 35.8533 60.0977 35.8535 60.1529C35.8535 60.1653 35.853 60.1777 35.852 60.1898C35.8423 60.3127 35.7877 60.4276 35.6986 60.5127C35.6096 60.5979 35.4924 60.6473 35.3693 60.6516ZM35.789 61.0714C35.789 61.105 35.7679 61.8944 35.7679 62.5199C35.7609 62.7538 35.7679 62.9878 35.789 63.2209C35.8017 63.4148 35.8647 63.6022 35.9716 63.7645C35.774 63.9752 35.5058 64.1058 35.2181 64.1316C35.1909 64.1316 35.0544 63.9553 35.0083 63.5334C35.0083 63.4452 34.9958 63.2207 34.9958 62.9416C34.9958 62.2404 35.0168 61.2077 35.0419 61.1531C35.2092 61.0573 35.4018 61.0148 35.5938 61.0314C35.5938 61.0314 35.7556 61.0397 35.7894 61.0795L35.789 61.0714Z" fill="white"/>
<path d="M39.6669 64.1063C38.9557 62.663 38.4675 61.1201 38.2188 59.5305C38.4335 59.4061 38.6781 59.343 38.9262 59.3479C38.9262 59.3479 39.0689 59.3479 39.0689 59.3689C39.3044 60.6451 39.6556 61.8972 40.1184 63.1096C40.1184 63.1096 40.1604 63.1914 40.1919 63.1977C40.2234 63.204 40.261 63.1557 40.2675 63.1221C40.7238 62.1214 41.0171 61.0542 41.1363 59.9608C41.1363 59.8517 40.8654 59.69 40.7166 59.6754C40.7133 59.6602 40.7133 59.6445 40.7166 59.6293C40.7207 59.4994 40.753 59.3721 40.8112 59.2559C41.2229 59.1504 41.6454 59.0933 42.0703 59.0859C42.0703 59.0859 42.1711 59.1006 42.1711 59.1132C41.9416 60.7881 41.4701 62.4208 40.7712 63.9601C40.4507 64.085 40.1074 64.1407 39.7638 64.1238C39.7306 64.1279 39.6968 64.1219 39.667 64.1067" fill="white"/>
<path d="M42.7639 62.5201C42.748 62.2978 42.7792 62.0744 42.8557 61.8649C42.932 61.6554 43.0518 61.4645 43.2072 61.3045C43.3626 61.1445 43.55 61.0192 43.7572 60.9368C43.9644 60.8544 44.1867 60.8167 44.4096 60.8262C44.5088 60.8138 44.6096 60.821 44.706 60.8475C44.8025 60.8741 44.8929 60.9194 44.9718 60.9808C45.0508 61.0422 45.117 61.1187 45.1664 61.2056C45.2158 61.2926 45.2477 61.3885 45.2602 61.4877C45.2631 61.5142 45.2652 61.5407 45.2658 61.5672C45.2144 61.9269 45.0551 62.2627 44.809 62.5299C44.5628 62.7972 44.2412 62.9834 43.8869 63.0639C43.8869 63.1038 44.0295 63.2487 44.3821 63.2487C44.6656 63.2586 44.947 63.195 45.1986 63.0639C45.2027 63.0627 45.207 63.0627 45.211 63.0639C45.2235 63.0639 45.2297 63.152 45.2297 63.1941C45.234 63.41 45.1748 63.6223 45.0596 63.8049C44.7822 63.9352 44.4751 63.9895 44.1699 63.9624C43.9786 63.9758 43.7868 63.9474 43.6077 63.8791C43.4286 63.8109 43.2664 63.7044 43.1326 63.5672C42.9988 63.4299 42.8965 63.2651 42.8328 63.0843C42.7691 62.9035 42.7456 62.7109 42.7639 62.5201ZM44.2582 61.4391C43.8911 61.4391 43.5572 61.8757 43.5572 62.411C43.5572 62.4866 43.5572 62.5054 43.5844 62.5054C43.8698 62.5054 44.4679 62.0856 44.4679 61.6364C44.4691 61.6113 44.4654 61.5863 44.4569 61.5627C44.4484 61.5391 44.4354 61.5174 44.4185 61.4987C44.4016 61.4802 44.3813 61.4651 44.3586 61.4544C44.3359 61.4437 44.3113 61.4376 44.2863 61.4364C44.2775 61.4359 44.2688 61.4361 44.2601 61.4368L44.2582 61.4391Z" fill="white"/>
<path d="M46.1428 61.4201C46.1288 61.2674 46.1401 61.1135 46.1764 60.9646C46.3575 60.8372 46.5743 60.7703 46.7957 60.7735C46.8567 60.7735 46.9383 60.786 46.9383 60.8072C46.9383 60.8618 46.9174 61.0317 46.9174 61.1618C46.9174 61.2919 46.9174 61.2982 46.9383 61.2982C46.9593 61.2982 46.9594 61.2858 46.9594 61.2858C47.0623 61.161 47.1901 61.0591 47.3348 60.9868C47.4795 60.9145 47.6377 60.8733 47.7993 60.866C48.6392 60.866 48.6681 61.9807 48.6681 63.1435C48.6681 63.5926 48.6471 63.9391 48.6471 63.9391C48.4687 64.039 48.2656 64.0863 48.0614 64.0756C47.9852 64.0762 47.9094 64.0648 47.8367 64.042C47.881 63.656 47.9034 63.2677 47.9038 62.8792C47.9038 62.22 47.8767 61.7036 47.5029 61.7036C47.0621 61.7036 46.9382 62.1863 46.9382 62.1863V63.0491C46.9481 63.3012 46.9391 63.5539 46.911 63.8047C46.7006 63.9337 46.4566 63.9972 46.2101 63.9873C46.1554 63.9873 46.1094 63.9873 46.1094 63.9662C46.1475 63.6325 46.1636 63.2966 46.1575 62.9607C46.1642 62.4128 46.1431 61.8209 46.1431 61.42" fill="white"/>
<path d="M52.0596 61.7598C52.0596 62.2763 52.0596 62.9291 52.0995 63.1326C52.1177 63.3324 52.196 63.5219 52.3242 63.6762C52.1224 63.885 51.8516 64.0133 51.5623 64.0371C51.4284 63.8985 51.3531 63.7134 51.3525 63.5207C51.3525 63.4997 51.3525 63.4997 51.3378 63.4997C51.3335 63.4998 51.3294 63.501 51.3257 63.5032C51.322 63.5053 51.319 63.5084 51.3168 63.5122C51.2188 63.6439 51.0902 63.7498 50.9421 63.8208C50.794 63.8917 50.6308 63.9256 50.4668 63.9193C50.3253 63.9074 50.1876 63.8678 50.0614 63.8027C49.9353 63.7375 49.8233 63.6482 49.7317 63.5397C49.6401 63.4312 49.5708 63.3059 49.5277 63.1706C49.4845 63.0354 49.4685 62.8929 49.4804 62.7515V62.7501C49.4679 62.5164 49.5015 62.2826 49.5793 62.0619C49.6572 61.8412 49.7778 61.638 49.9341 61.4639C50.0905 61.2898 50.2796 61.1482 50.4907 61.0472C50.7018 60.9461 50.9307 60.8878 51.1644 60.8752C51.2151 60.8726 51.2662 60.8718 51.3168 60.8735C51.3168 60.7979 51.3044 60.2606 51.3044 59.8681C51.2968 59.7202 51.3031 59.5719 51.323 59.4252C51.5018 59.28 51.7227 59.1968 51.9528 59.188C52.0108 59.1852 52.0687 59.1945 52.1229 59.2153C52.0847 59.7823 52.0594 61.0794 52.0594 61.7595M51.3248 61.5895C51.3248 61.5771 51.222 61.5771 51.222 61.5771C51.1033 61.5733 50.9849 61.5929 50.8739 61.6349C50.7627 61.6768 50.6609 61.7403 50.5742 61.8216C50.4876 61.9029 50.4179 62.0005 50.369 62.1087C50.32 62.217 50.2929 62.3339 50.2892 62.4526C50.2879 62.489 50.289 62.5253 50.2923 62.5616C50.2923 62.8743 50.435 63.1324 50.7604 63.1324C51.1549 63.1324 51.3041 62.6707 51.3041 62.5889C51.3041 62.5071 51.3123 61.7534 51.3248 61.5812V61.5895Z" fill="white"/>
<path d="M53.1065 62.4908C53.1006 62.0455 53.2718 61.616 53.5825 61.2969C53.8931 60.9778 54.3178 60.7952 54.7631 60.7892C54.7936 60.7889 54.8244 60.7892 54.8548 60.7905C54.9793 60.7912 55.103 60.8096 55.2223 60.8452C55.233 60.8754 55.2373 60.9076 55.2348 60.9396C55.233 61.0218 55.2261 61.1038 55.2137 61.1852C55.4602 61.2659 55.6716 61.4287 55.8125 61.6464C55.9535 61.8642 56.0155 62.1237 55.9882 62.3817C56.0205 62.77 55.8973 63.1553 55.6455 63.4527C55.3938 63.7502 55.0342 63.9354 54.6459 63.9678C54.6086 63.9709 54.5713 63.9726 54.5339 63.9728C54.3393 63.9821 54.1449 63.9497 53.9639 63.8778C53.7827 63.8059 53.6192 63.6961 53.484 63.5557C53.3488 63.4154 53.2452 63.2477 53.1801 63.0641C53.115 62.8804 53.0899 62.6849 53.1065 62.4908ZM54.6912 61.8043H54.637C54.6273 61.776 54.6231 61.7461 54.6246 61.7161C54.625 61.6499 54.6312 61.5839 54.6432 61.5189C54.5316 61.5302 54.4234 61.5634 54.3246 61.6166C54.2259 61.6698 54.1385 61.7419 54.0676 61.8288C53.9967 61.9158 53.9436 62.0158 53.9114 62.1233C53.8791 62.2308 53.8684 62.3435 53.8797 62.4551L53.8812 62.4698C53.8812 62.5369 53.8812 63.2863 54.5341 63.2863C54.8531 63.2863 55.2079 63.0491 55.2079 62.4463C55.2079 61.8435 54.8341 61.802 54.6915 61.802L54.6912 61.8043Z" fill="white"/>
<path d="M58.624 61.7217C58.5948 61.7158 58.5654 61.7117 58.5359 61.7092C58.3382 61.7023 58.1439 61.7625 57.9847 61.8797C57.8255 61.9971 57.7106 62.1649 57.6586 62.3557V62.954C57.6681 63.2341 57.6619 63.5145 57.64 63.794C57.4143 63.929 57.1531 63.9926 56.8906 63.9765C56.8634 63.9765 56.8359 63.9765 56.8359 63.9555C56.8779 63.5988 56.8939 63.2396 56.8841 62.8806C56.8841 62.337 56.8716 61.7303 56.8716 61.3376C56.8615 61.197 56.8707 61.0558 56.8988 60.9177C57.08 60.7903 57.2966 60.7235 57.5181 60.7267C57.5791 60.7267 57.6608 60.7392 57.6608 60.7602C57.6608 60.8211 57.6422 61.0793 57.6422 61.2557C57.6395 61.3085 57.6436 61.3614 57.6546 61.4132C57.667 61.4132 57.667 61.4132 57.6817 61.3985C57.8003 61.2387 57.9526 61.1071 58.128 61.0131C58.3033 60.9191 58.4972 60.8651 58.6959 60.8548C58.7354 60.9349 58.7541 61.0237 58.7504 61.113C58.7673 61.3237 58.7237 61.5349 58.6248 61.7218" fill="white"/>
<path d="M16.0118 49.4435C16.1089 49.9282 16.3923 50.3555 16.8009 50.6337C17.2544 50.8852 17.7689 51.0057 18.2869 50.9822C18.7347 50.9762 19.181 50.9278 19.6197 50.8374C20.1178 50.7404 20.6055 50.5962 21.0762 50.407C21.2882 50.8123 21.4571 51.2386 21.5802 51.6791C21.725 52.1795 21.8041 52.6968 21.8154 53.2176C20.6213 53.6653 19.3566 53.895 18.0815 53.8959C17.2184 53.9134 16.3594 53.771 15.5481 53.476C14.8931 53.2357 14.3031 52.8462 13.8247 52.3383C13.3728 51.84 13.0366 51.248 12.8404 50.6045C12.4142 49.1712 12.4179 47.6443 12.8509 46.213C13.0541 45.5575 13.389 44.9503 13.8353 44.4289C14.2867 43.912 14.8473 43.5018 15.4766 43.228C16.2021 42.9204 16.9846 42.7702 17.7725 42.7873C18.4374 42.7756 19.0977 42.9013 19.7118 43.1568C20.26 43.3897 20.7529 43.7359 21.1577 44.1729C21.5666 44.6241 21.8774 45.1551 22.0708 45.7325C22.2871 46.3697 22.3942 47.039 22.3878 47.7119C22.3896 48.0443 22.3721 48.3765 22.3352 48.7069C22.3017 49.0008 22.2701 49.2442 22.243 49.4352L16.0118 49.4435ZM17.6529 45.4027C17.238 45.3971 16.8361 45.5468 16.5259 45.8225C16.1824 46.1581 15.9836 46.6146 15.9718 47.0946H19.2523C19.2403 46.657 19.0856 46.2353 18.8116 45.8938C18.6693 45.7281 18.4908 45.5974 18.2899 45.5118C18.0889 45.4263 17.871 45.3882 17.6529 45.4006V45.4027ZM29.8976 44.6429C30.4728 44.8751 30.9892 45.1109 31.4468 45.3502C31.8832 45.5736 32.2813 45.8648 32.6264 46.213C32.9623 46.5586 33.2213 46.9714 33.3862 47.4242C33.7773 48.6239 33.7371 49.9224 33.2727 51.0956C33.0211 51.6745 32.6382 52.187 32.1541 52.5922C31.6195 53.0316 31.0022 53.3593 30.3386 53.5556C29.5371 53.793 28.7041 53.907 27.8684 53.8936C27.1145 53.9011 26.362 53.8308 25.6227 53.6837C24.9076 53.529 24.2059 53.3185 23.5238 53.054C23.5856 52.5388 23.6816 52.0283 23.8112 51.5258C23.9511 50.9856 24.1148 50.4349 24.3024 49.8738C25.3302 50.3656 26.4466 50.6447 27.5849 50.6945C28.1462 50.7232 28.7059 50.6144 29.2157 50.3776C29.4086 50.2704 29.5666 50.1098 29.6704 49.915C29.7743 49.7203 29.8198 49.4997 29.8014 49.2797C29.8065 49.0843 29.764 48.8905 29.6776 48.7151C29.5978 48.5599 29.4863 48.4233 29.3502 48.3142C29.2091 48.2021 29.0538 48.1089 28.8886 48.037C28.7179 47.9614 28.5437 47.8915 28.366 47.8272L27.2179 47.3968C26.75 47.2327 26.2999 47.0218 25.8745 46.7671C25.4851 46.5332 25.1352 46.2393 24.8377 45.896C24.5461 45.554 24.3199 45.1612 24.1703 44.7373C24.0043 44.2417 23.9247 43.7213 23.935 43.1987C23.9225 42.5371 24.0484 41.8801 24.3045 41.27C24.5399 40.7242 24.8933 40.2373 25.3393 39.8444C25.8083 39.4411 26.3568 39.1409 26.949 38.9628C27.6335 38.7565 28.3456 38.6559 29.0604 38.6646C29.7396 38.664 30.417 38.7343 31.0816 38.8745C31.7879 39.0275 32.4834 39.2266 33.1636 39.4706C33.0984 39.9591 32.9987 40.4424 32.8657 40.9169C32.7278 41.4278 32.5459 41.9257 32.3219 42.4051C31.9663 42.2541 31.5466 42.0966 31.0627 41.9328C30.4853 41.7548 29.8827 41.6718 29.2787 41.6873C29.0673 41.686 28.8563 41.7064 28.649 41.7481C28.4621 41.7849 28.2823 41.8507 28.1158 41.9433C27.9593 42.0315 27.8284 42.1589 27.7359 42.3129C27.6353 42.4905 27.5859 42.6924 27.5931 42.8964C27.5807 43.0641 27.6097 43.2324 27.6779 43.3861C27.746 43.54 27.851 43.6745 27.9836 43.778C28.2681 43.9825 28.5786 44.1477 28.907 44.2695L29.8976 44.6429ZM42.1424 49.731H39.1053V53.6291C38.7496 53.6837 38.4285 53.725 38.1419 53.753C37.8553 53.781 37.5958 53.795 37.3634 53.795C37.1311 53.795 36.8716 53.781 36.5847 53.753C36.2973 53.7257 35.9844 53.6858 35.6404 53.6291V43.0432C35.935 42.9755 36.2337 42.9272 36.5346 42.8984C36.8282 42.8704 37.1116 42.8564 37.3847 42.8564C37.6579 42.8564 37.9377 42.8704 38.2243 42.8984C38.5212 42.9255 38.8159 42.9739 39.1059 43.0432V46.6536H42.143V43.0432C42.4368 42.9757 42.7349 42.9272 43.0351 42.8984C43.3288 42.8704 43.6128 42.8564 43.8874 42.8564C44.1621 42.8564 44.4421 42.8704 44.7273 42.8984C45.0243 42.9255 45.3189 42.9739 45.6089 43.0432V53.6291C45.2536 53.6837 44.9325 53.725 44.6456 53.753C44.387 53.7797 44.1271 53.793 43.8671 53.7928C43.6347 53.7928 43.3752 53.7788 43.0884 53.7508C42.8016 53.7228 42.4868 53.6815 42.144 53.6269L42.1424 49.731ZM47.3895 48.3981C47.3805 47.6224 47.4946 46.8501 47.7274 46.1101C47.9336 45.4546 48.2763 44.8502 48.7328 44.3366C49.1887 43.8359 49.7529 43.446 50.3826 43.1968C51.1087 42.9179 51.882 42.7825 52.6596 42.798C53.4442 42.7814 54.2246 42.9168 54.9579 43.1968C55.5881 43.4458 56.1532 43.8357 56.6097 44.3366C57.0661 44.8501 57.4088 45.4545 57.615 46.1099C57.8478 46.8499 57.9618 47.6222 57.9529 48.398C57.9617 49.1599 57.8475 49.9184 57.615 50.6441C57.4072 51.2901 57.0645 51.8847 56.6097 52.3884C56.1521 52.8831 55.587 53.2659 54.9579 53.5073C54.2233 53.781 53.4435 53.9135 52.6597 53.8977C51.8828 53.9124 51.1102 53.7799 50.3826 53.5073C49.7541 53.2659 49.1896 52.8831 48.7329 52.3884C48.2779 51.8848 47.9352 51.2902 47.7275 50.6441C47.4947 49.9185 47.3806 49.1599 47.3896 48.398M54.446 48.398C54.4881 47.6998 54.3356 47.0036 54.0054 46.387C53.865 46.1604 53.6661 45.976 53.4297 45.8529C53.1934 45.7299 52.9281 45.6729 52.6621 45.6879C52.3973 45.6721 52.1332 45.7288 51.8984 45.852C51.6636 45.9751 51.4668 46.1602 51.3293 46.387C51.0064 47.006 50.8578 47.701 50.8991 48.398C50.8591 49.088 51.0078 49.776 51.3293 50.3879C51.467 50.6144 51.6639 50.7989 51.8987 50.9217C52.1336 51.0444 52.3975 51.1009 52.6621 51.0848C52.9279 51.1003 53.1931 51.0437 53.4295 50.9211C53.666 50.7984 53.8649 50.6142 54.0054 50.3879C54.3341 49.7783 54.4866 49.0893 54.446 48.398ZM63.1228 48.5218C63.2074 48.5378 63.2928 48.5483 63.3788 48.5533H63.6347C64.0572 48.571 64.4732 48.4444 64.8142 48.1944C64.9806 48.0409 65.1091 47.8509 65.1892 47.6391C65.2693 47.4275 65.299 47.2 65.2759 46.9748C65.2884 46.7628 65.2535 46.5507 65.1736 46.3538C65.0937 46.157 64.971 45.9805 64.8142 45.8372C64.4975 45.568 64.0922 45.4259 63.6767 45.4383H63.4459C63.3399 45.4388 63.2341 45.4459 63.129 45.4593L63.1228 48.5218ZM59.7393 43.085C60.3691 42.9896 61.0155 42.9197 61.6786 42.8751C62.3416 42.8306 62.9804 42.8069 63.5949 42.8039C64.2146 42.8031 64.8331 42.8614 65.4418 42.9781C66.0172 43.0821 66.5672 43.296 67.0618 43.608C67.5501 43.9264 67.949 44.3643 68.2204 44.8801C68.5042 45.5196 68.6541 46.2104 68.6609 46.91C68.6678 47.6096 68.5314 48.3032 68.2601 48.9481C68.0168 49.4557 67.6573 49.8986 67.2107 50.2412C66.7667 50.5724 66.2618 50.8128 65.7248 50.9486C65.172 51.0902 64.6035 51.1607 64.033 51.1585C63.8347 51.1633 63.6364 51.1563 63.439 51.1374C63.3352 51.1325 63.232 51.1184 63.1306 51.0954V53.6144C62.8159 53.6778 62.4977 53.7227 62.1777 53.7488C61.898 53.7698 61.649 53.7803 61.4306 53.7803C61.2124 53.7803 60.9626 53.7698 60.6813 53.7488C60.3677 53.7215 60.0559 53.6767 59.7474 53.6144L59.7393 43.085Z" fill="white"/>
<path d="M63.1235 18.6237V35.8112C63.1235 35.9476 63.0693 36.0784 62.9729 36.1749C62.8764 36.2714 62.7457 36.3255 62.6093 36.3255H59.9352L59.0746 37.8748V21.2978L54.1845 24.4864L52.2159 23.2017L52.0795 23.1136L50.2427 21.9149L49.2899 21.2853V31.571L52.2178 33.3255V26.6844L54.1865 27.969L56.1511 26.6886V36.3149H45.4283C45.2921 36.3144 45.1616 36.26 45.0653 36.1636C44.969 36.0673 44.9147 35.9368 44.9141 35.8006V18.6237C44.9141 18.4873 44.9683 18.3565 45.0647 18.26C45.1611 18.1636 45.2919 18.1094 45.4283 18.1094H62.6137C62.7501 18.1094 62.8808 18.1636 62.9772 18.26C63.0736 18.3565 63.1278 18.4873 63.1278 18.6237H63.1235Z" fill="white"/>
<defs>
<linearGradient id="paint0_linear_1226_966" x1="0.179687" y1="0.75" x2="81.018" y2="81.5885" gradientUnits="userSpaceOnUse">
<stop stop-color="#FFBD69"/>
<stop offset="1" stop-color="#FF6363"/>
</linearGradient>
<linearGradient id="paint1_linear_1226_966" x1="0.171875" y1="0.742187" x2="81.0102" y2="81.5805" gradientUnits="userSpaceOnUse">
<stop stop-color="#FFBD69"/>
<stop offset="1" stop-color="#FF6363"/>
</linearGradient>
</defs>
</svg>
