<svg width="82" height="82" viewBox="0 0 82 82" fill="none" xmlns="http://www.w3.org/2000/svg">
<rect x="0.835938" y="0.585938" width="80.8383" height="80.8383" rx="10" fill="#0275AA"/>
<mask id="mask0_1226_798" style="mask-type:luminance" maskUnits="userSpaceOnUse" x="0" y="0" width="82" height="82">
<path d="M81.6665 0.59375H0.828125V81.4321H81.6665V0.59375Z" fill="white"/>
</mask>
<g mask="url(#mask0_1226_798)">
<path d="M81.6462 38.8699C81.5347 33.1807 81.1687 27.5425 80.2989 21.9149C79.8453 18.976 79.1927 15.9507 78.2331 13.1146C77.4262 10.7337 76.2488 8.19016 74.2246 6.58769C73.5095 6.02147 72.6404 5.50241 71.6174 5.0305C70.2283 4.38927 68.79 3.86031 67.3164 3.44869C62.1475 2.00296 56.7352 1.3558 51.3957 0.958795L49.9108 0.867253C44.0593 0.499413 38.1903 0.502613 32.3391 0.876834C31.8108 0.924838 31.281 0.951933 30.7496 0.958121C30.649 0.959244 30.5563 1.0061 30.4456 1.01344C26.4526 1.30999 22.3223 1.82504 18.3864 2.6552C16.7798 2.99358 15.1929 3.41964 13.6328 3.93147C11.8016 4.53237 9.97139 5.33372 8.41196 6.48065C7.9609 6.8068 7.55223 7.18794 7.19545 7.61523L6.71521 8.18784C6.60372 8.30168 6.51366 8.43462 6.44935 8.58043L6.00466 9.23612C4.96334 10.9951 4.25084 12.9323 3.69313 14.9083C3.21908 16.5895 2.82696 18.2899 2.51679 20.0095C1.6108 25.0325 1.11633 30.1916 0.953085 35.2381C0.908475 36.6132 0.850541 37.9578 0.836693 39.3183C0.780181 44.8086 0.999418 50.3319 1.60735 55.791C1.63445 56.0366 1.70466 56.3299 1.72315 56.6116C1.74405 56.9284 1.77514 57.2441 1.81641 57.5586C2.31926 61.4259 3.01993 65.3102 4.28954 69.0075C4.8495 70.6373 5.55855 72.2327 6.54343 73.6287C7.72659 75.3065 9.46682 76.4208 11.3896 77.2442C14.4571 78.5578 17.7846 79.3408 21.0667 79.8931C24.5323 80.477 28.0262 80.8774 31.5338 81.0945C31.6464 81.1042 31.7594 81.1065 31.8723 81.1027L32.2373 81.1514C33.5554 81.224 34.8765 81.3116 36.1953 81.355C40.8483 81.5069 45.4758 81.4298 50.1231 81.1641C50.2471 81.1529 50.3704 81.1349 50.4921 81.1087L50.9262 81.0975C54.4771 80.8767 58.0137 80.4673 61.5209 79.8707C64.9192 79.2914 68.4046 78.489 71.5484 77.0399C73.2101 76.2734 74.8019 75.2291 75.8446 73.7783C76.6118 72.6975 77.2413 71.5253 77.7189 70.2888C78.9359 67.1929 79.6986 63.9116 80.2241 60.6369C80.8154 56.934 81.2121 53.2026 81.4127 49.458C81.6111 45.7985 81.7121 42.2317 81.6462 38.8699ZM3.21828 57.8675C3.21973 57.867 3.22133 57.867 3.22277 57.8675C3.22362 57.8676 3.2244 57.868 3.22502 57.8686C3.2228 57.8679 3.22051 57.8676 3.21821 57.8675M3.93243 25.3244C3.93303 25.3244 3.93355 25.325 3.93415 25.3256C3.93475 25.3261 3.9364 25.3284 3.93752 25.3295L3.93243 25.3244ZM31.8385 80.8078C31.8397 80.8078 31.8409 80.8086 31.8419 80.8086C31.8446 80.8093 31.8472 80.8101 31.8494 80.8116C31.8459 80.8101 31.8423 80.8086 31.8387 80.8078M78.4666 56.5652C78.4681 56.5646 78.4703 56.5642 78.4718 56.5641H78.4771C78.4733 56.5643 78.4703 56.5646 78.4666 56.5652ZM78.4808 25.1214C78.4786 25.1219 78.4763 25.1221 78.4748 25.122C78.4786 25.122 78.4823 25.1214 78.4861 25.1203C78.4838 25.121 78.4823 25.1214 78.4808 25.1214ZM78.5347 57.4429C78.5317 57.4455 78.5287 57.4477 78.5257 57.4497C78.5295 57.4473 78.5325 57.4446 78.5347 57.4417C78.5347 57.4423 78.5347 57.4423 78.5347 57.4429Z" fill="#0275AA"/>
<mask id="mask1_1226_798" style="mask-type:luminance" maskUnits="userSpaceOnUse" x="13" y="12" width="57" height="58">
<path d="M69.3252 12.9453H13.1875V69.083H69.3252V12.9453Z" fill="white"/>
</mask>
<g mask="url(#mask1_1226_798)">
<path d="M25.4112 47.1461C23.0418 43.8886 21.7683 39.9633 21.7742 35.9357V25.2331C21.7781 24.5432 21.5085 23.8799 21.0245 23.3882C20.5404 22.8965 19.8813 22.6165 19.1912 22.6094C18.5294 22.6243 17.8994 22.8964 17.435 23.3679C16.9704 23.8395 16.7079 24.4733 16.7031 25.1351V35.9206C16.6947 42.2341 19.166 48.2986 23.5853 52.8089C23.6582 52.8812 23.7493 52.9322 23.849 52.9565C23.9487 52.9809 24.0531 52.9777 24.1511 52.9472C24.2491 52.9166 24.3369 52.86 24.4051 52.7834C24.4734 52.7068 24.5194 52.613 24.5383 52.5122C24.8352 51.0282 25.3519 48.3568 25.5092 47.561C25.5215 47.4887 25.5191 47.4148 25.5022 47.3434C25.4855 47.272 25.4545 47.2048 25.4112 47.1456" fill="white"/>
<path d="M65.7325 25.2329V35.9179C65.7316 48.5445 56.0104 59.0432 43.4176 60.0186V64.0253H47.4495C48.1208 64.0241 48.765 64.2896 49.2405 64.7633C49.716 65.2369 49.9837 65.88 49.9849 66.5511C49.9861 67.2222 49.7206 67.8662 49.2467 68.3415C48.7729 68.8169 48.1296 69.0845 47.4583 69.0857H35.0124C34.3415 69.0868 33.6976 68.8216 33.2225 68.3481C32.7473 67.8748 32.4796 67.2321 32.4785 66.5613C32.4773 65.8907 32.7427 65.247 33.2163 64.7719C33.6898 64.2969 34.3328 64.0294 35.0036 64.0282H38.3464V59.962C35.2119 59.6394 32.172 58.7014 29.4008 57.2017C29.336 57.166 29.2788 57.1177 29.2326 57.0598C29.1863 57.002 29.152 56.9355 29.1315 56.8644C29.111 56.7932 29.1046 56.7187 29.1129 56.6451C29.1212 56.5715 29.1439 56.5002 29.1798 56.4354L29.1811 56.4331C29.2412 56.3251 29.335 56.2396 29.4482 56.1898L34.3447 54.0349C34.4733 53.9785 34.6185 53.9722 34.7515 54.0173C36.7265 54.685 38.7975 55.0249 40.8824 55.0234H41.5563C52.1096 55.0234 60.6648 46.4711 60.6648 35.9211V25.135C60.6695 24.4732 60.932 23.8394 61.3965 23.3678C61.861 22.8964 62.491 22.6243 63.1528 22.6094C63.8423 22.6173 64.5006 22.8977 64.9839 23.3892C65.4673 23.8809 65.7363 24.5437 65.7325 25.2329Z" fill="white"/>
<path d="M56.1064 35.3672V35.5364C56.1065 39.3676 54.5841 43.0418 51.8743 45.7509C49.1644 48.46 45.4891 49.9819 41.6567 49.9821H40.3563C39.6659 49.9825 38.9763 49.9338 38.2927 49.8365L27.4352 54.6182C27.3593 54.6517 27.2775 54.67 27.1945 54.6719C27.1114 54.6738 27.0288 54.6594 26.9513 54.6295C26.8739 54.5995 26.8031 54.5545 26.7431 54.4972C26.683 54.4399 26.6348 54.3713 26.6013 54.2954V54.2947C26.5491 54.1762 26.5346 54.0447 26.5597 53.9178L28.5366 43.8532C26.8177 41.3652 25.9 38.4117 25.9063 35.3881V35.3705H31.598C31.7313 35.3694 31.8629 35.4004 31.9818 35.4608C32.1007 35.5212 32.2032 35.6094 32.2809 35.7178C33.1575 36.9737 34.3249 37.9991 35.6836 38.7066C37.0423 39.414 38.5519 39.7825 40.0838 39.7807H41.2714C42.874 39.7826 44.451 39.3792 45.8558 38.608C47.2605 37.8369 48.4472 36.723 49.3056 35.3701L56.1064 35.3672Z" fill="white"/>
<path d="M56.1054 27.3937V30.7537H25.9141V27.3937C25.9141 26.9693 25.9317 26.5479 25.9677 26.1353H50.6424C50.2597 23.9263 49.1088 21.9234 47.3929 20.48C45.6769 19.0366 43.5061 18.2455 41.2635 18.2461H40.0758C38.7147 18.2443 37.3689 18.5348 36.1299 19.098C34.8907 19.6613 33.7872 20.4842 32.8939 21.511H27.1488C28.2856 18.9606 30.1373 16.7943 32.4801 15.2741C34.8227 13.7539 37.5559 12.945 40.3489 12.9453H41.6493C45.2638 12.9457 48.747 14.3 51.412 16.741C54.0769 19.182 55.7303 22.5326 56.046 26.1321C56.0882 26.5514 56.108 26.9725 56.1054 27.3937Z" fill="white"/>
</g>
</g>
</svg>
