<svg width="82" height="82" viewBox="0 0 82 82" fill="none" xmlns="http://www.w3.org/2000/svg">
<rect x="0.34375" y="0.914062" width="80.8383" height="80.8383" rx="10" fill="#EE2933"/>
<mask id="mask0_1226_812" style="mask-type:luminance" maskUnits="userSpaceOnUse" x="0" y="0" width="82" height="82">
<path d="M81.1821 0.921875H0.34375V81.7602H81.1821V0.921875Z" fill="white"/>
</mask>
<g mask="url(#mask0_1226_812)">
<path d="M81.1619 39.198C81.0503 33.5088 80.6843 27.8706 79.8146 22.243C79.361 19.3041 78.7083 16.2788 77.7487 13.4428C76.9418 11.0618 75.7644 8.51828 73.7402 6.91581C73.0251 6.34959 72.156 5.83054 71.133 5.35863C69.7439 4.7174 68.3056 4.18844 66.832 3.77681C61.6631 2.33108 56.2508 1.68393 50.9113 1.28692L49.4264 1.19538C43.5749 0.827538 37.7059 0.830738 31.8547 1.20496C31.3264 1.25296 30.7966 1.28006 30.2652 1.28625C30.1646 1.28737 30.072 1.33423 29.9613 1.34156C25.9682 1.63812 21.8379 2.15316 17.902 2.98333C16.2954 3.3217 14.7085 3.74777 13.1484 4.2596C11.3172 4.8605 9.48701 5.66185 7.92758 6.80878C7.47652 7.13493 7.06785 7.51607 6.71108 7.94336L6.23084 8.51596C6.11934 8.62981 6.02928 8.76274 5.96497 8.90855L5.52028 9.56424C4.47897 11.3232 3.76647 13.2604 3.20876 15.2364C2.7347 16.9176 2.34259 18.618 2.03241 20.3377C1.12642 25.3606 0.631959 30.5197 0.46871 35.5662C0.4241 36.9413 0.366166 38.2859 0.352318 39.6464C0.295806 45.1368 0.515043 50.66 1.12298 56.1191C1.15007 56.3648 1.22028 56.658 1.23877 56.9397C1.25968 57.2565 1.29076 57.5722 1.33204 57.8868C1.83488 61.7541 2.53555 65.6383 3.80516 69.3356C4.36512 70.9654 5.07418 72.5609 6.05906 73.9568C7.24222 75.6347 8.98245 76.749 10.9052 77.5723C13.9727 78.8859 17.3002 79.6689 20.5824 80.2213C24.0479 80.8051 27.5418 81.2056 31.0494 81.4226C31.162 81.4324 31.275 81.4346 31.3879 81.4309L31.7529 81.4795C33.0711 81.5521 34.3921 81.6397 35.7109 81.6831C40.3639 81.835 44.9914 81.758 49.6387 81.4922C49.7628 81.481 49.886 81.463 50.0077 81.4368L50.4418 81.4256C53.9927 81.2048 57.5293 80.7954 61.0366 80.1988C64.4348 79.6195 67.9203 78.8171 71.064 77.368C72.7257 76.6015 74.3175 75.5572 75.3602 74.1065C76.1274 73.0256 76.7569 71.8535 77.2345 70.6169C78.4515 67.521 79.2143 64.2397 79.7397 60.9651C80.331 57.2621 80.7277 53.5307 80.9283 49.7862C81.1267 46.1267 81.2277 42.5598 81.1619 39.198ZM2.73391 58.1956C2.73535 58.1951 2.73695 58.1951 2.7384 58.1956C2.73924 58.1958 2.74002 58.1961 2.74064 58.1967C2.73843 58.1961 2.73614 58.1957 2.73383 58.1956M3.44805 25.6526C3.44865 25.6526 3.44918 25.6532 3.44978 25.6537C3.45037 25.6542 3.45202 25.6565 3.45314 25.6577L3.44805 25.6526ZM31.3542 81.1359C31.3554 81.1359 31.3565 81.1367 31.3575 81.1367C31.3602 81.1374 31.3628 81.1382 31.365 81.1397C31.3616 81.1382 31.358 81.1367 31.3543 81.1359M77.9822 56.8934C77.9837 56.8927 77.986 56.8923 77.9875 56.8922H77.9927C77.989 56.8924 77.986 56.8928 77.9822 56.8934ZM77.9964 25.4496C77.9942 25.45 77.992 25.4502 77.9905 25.4502C77.9942 25.4502 77.9979 25.4496 78.0017 25.4484C77.9994 25.4491 77.9979 25.4495 77.9964 25.4496ZM78.0503 57.771C78.0474 57.7736 78.0444 57.7758 78.0414 57.7778C78.0451 57.7755 78.0481 57.7728 78.0503 57.7699C78.0503 57.7705 78.0503 57.7705 78.0503 57.771Z" fill="#EE2933"/>
<path d="M16.2496 39.5959H10.8471C10.4162 39.612 9.99579 39.4603 9.67446 39.1727C9.3532 38.8851 9.15597 38.4841 9.12439 38.054C9.05395 37.6237 9.14789 37.1828 9.38748 36.8186C9.62701 36.4544 9.99475 36.1936 10.4177 36.0879C10.5156 36.063 10.6161 36.0492 10.7171 36.0469H21.7875C22.1738 36.0484 22.5466 36.1894 22.8374 36.4437C23.1282 36.6981 23.3174 37.0489 23.3704 37.4316C23.4628 37.8237 23.42 38.2354 23.2492 38.6001C23.0784 38.9648 22.7894 39.2612 22.429 39.4412C22.1601 39.5559 21.8694 39.6102 21.5772 39.6004H16.2521L16.2496 39.5959Z" fill="#F4F5F5"/>
<path d="M28.842 32.4788C28.0048 32.4788 27.1674 32.5029 26.3326 32.4788C26.1133 32.4794 25.8961 32.4368 25.6932 32.3534C25.4905 32.27 25.3061 32.1475 25.1506 31.9929C24.9952 31.8382 24.8717 31.6545 24.7873 31.4521C24.7028 31.2497 24.6591 31.0327 24.6586 30.8134C24.6586 30.7854 24.6592 30.7574 24.6604 30.7294C24.645 30.5107 24.6728 30.2911 24.7423 30.0831C24.8117 29.8751 24.9215 29.6828 25.0652 29.5173C25.209 29.3518 25.384 29.2161 25.5802 29.1182C25.7764 29.0203 25.9899 28.962 26.2087 28.9465C26.2242 28.9454 26.2397 28.9446 26.2553 28.9438C27.0999 28.8885 27.9444 28.9197 28.8009 28.915C29.6574 28.9102 30.4489 28.898 31.2717 28.915C31.559 28.905 31.8443 28.9654 32.1028 29.091C32.3614 29.2166 32.5853 29.4036 32.755 29.6356C32.9247 29.8676 33.0349 30.1377 33.0763 30.4221C33.1176 30.7066 33.0887 30.9969 32.9921 31.2676C32.9134 31.598 32.7298 31.8941 32.4688 32.1116C32.2078 32.329 31.8835 32.4562 31.5444 32.474C30.6468 32.5078 29.7443 32.474 28.8468 32.474L28.842 32.4788Z" fill="#F4F5F5"/>
<path d="M70.3403 33.3039C69.5013 31.7134 68.4394 30.2508 67.1866 28.9607C65.2457 27.0154 62.8735 25.5552 60.2624 24.6987C57.6514 23.8422 54.8751 23.6135 52.1591 24.0312C50.5879 24.2479 49.059 24.7036 47.6254 25.3824C47.5192 25.421 47.4107 25.4548 47.3093 25.503C45.6048 26.2982 44.0429 27.3685 42.6862 28.6711C42.6091 28.7518 42.5155 28.8151 42.4119 28.8567C42.3083 28.8983 42.197 28.9173 42.0855 28.9125H36.9076C36.5376 28.8742 36.1652 28.958 35.8472 29.1509C35.5293 29.3439 35.2831 29.6355 35.1462 29.9814C35.0161 30.2631 34.9621 30.5739 34.9897 30.883C35.0171 31.192 35.1251 31.4885 35.3028 31.7428C35.4805 31.9971 35.7217 32.2005 36.0025 32.3326C36.2832 32.4646 36.5936 32.5209 36.9029 32.4957H43.0701C43.5415 32.4936 43.9945 32.6789 44.3294 33.0108C44.6642 33.3428 44.8535 33.7941 44.8556 34.2655C44.8577 34.737 44.6724 35.19 44.3405 35.5249C44.0085 35.8597 43.5572 36.049 43.0858 36.0511C43.0547 36.05 43.0237 36.048 42.9929 36.0452H27.5364C27.2367 36.063 26.948 36.1647 26.7034 36.3388C26.4588 36.5128 26.2682 36.7523 26.1533 37.0296C26.0162 37.3068 25.9535 37.6151 25.9716 37.9238C25.9895 38.2327 26.0876 38.5315 26.256 38.791C26.4245 39.0504 26.6575 39.2616 26.9322 39.4037C27.207 39.5459 27.5139 39.6141 27.823 39.6018C30.7812 39.5824 33.737 39.6018 36.6928 39.6018C36.8448 39.6018 36.9969 39.6018 37.1489 39.6138C37.559 39.6396 37.9451 39.8158 38.2332 40.1089C38.5213 40.4018 38.6911 40.791 38.71 41.2015C38.7628 41.615 38.6641 42.0338 38.4322 42.3802C38.2001 42.7267 37.8506 42.9774 37.448 43.086C37.1871 43.1403 36.9203 43.1606 36.6542 43.1464H20.3236C19.9461 43.1155 19.5696 43.2158 19.2575 43.4304C18.9454 43.6449 18.7169 43.9604 18.6105 44.3238C18.5043 44.5982 18.4688 44.8949 18.5073 45.1866C18.5457 45.4782 18.657 45.7555 18.8308 45.9929C19.0045 46.2304 19.2352 46.4202 19.5016 46.5452C19.7679 46.6701 20.0614 46.726 20.3551 46.7077H40.8741C41.1102 46.6949 41.3464 46.7323 41.567 46.8176C41.7876 46.9028 41.9875 47.034 42.1536 47.2024C42.3197 47.3707 42.448 47.5724 42.5303 47.7942C42.6126 48.0159 42.6468 48.2526 42.6307 48.4885C42.6416 48.7275 42.6017 48.9661 42.5135 49.1885C42.4254 49.411 42.2909 49.6121 42.1192 49.7786C41.9474 49.9452 41.7421 50.0733 41.5171 50.1545C41.2921 50.2358 41.0523 50.2683 40.8138 50.2499H31.1068C30.9549 50.2499 30.7999 50.2499 30.6507 50.2619C30.3304 50.2776 30.0225 50.3906 29.7681 50.5859C29.5138 50.7812 29.325 51.0494 29.2272 51.3548C29.1083 51.6306 29.0621 51.9324 29.093 52.2313C29.1239 52.5301 29.2308 52.8161 29.4035 53.0619C29.5762 53.3077 29.8091 53.5051 30.0797 53.6354C30.3504 53.7658 30.65 53.8246 30.9498 53.8062H42.066C42.1787 53.8003 42.2915 53.8188 42.3964 53.8604C42.5013 53.9021 42.5961 53.9659 42.6742 54.0476C43.3072 54.6712 43.9952 55.2366 44.7299 55.7366C45.9675 56.6245 47.3283 57.3268 48.769 57.8213C48.8697 57.8714 48.9727 57.9166 49.0779 57.9564C52.8705 59.2606 56.9962 59.2214 60.7634 57.8455C64.2297 56.6156 67.2129 54.3113 69.2784 51.2679C69.8717 50.3943 70.3876 49.4708 70.8204 48.5075C71.8029 46.3952 72.3244 44.0978 72.3501 41.7683C72.4257 38.8202 71.7331 35.9032 70.3403 33.3037" fill="#F4F5F5"/>
<path d="M48.209 38.5713L64.9259 30.2969L56.2405 40.1231L61.9417 44.1181L45.4297 52.4046L53.8304 42.5447L48.209 38.5713Z" fill="#1A2E51"/>
</g>
</svg>
