<svg width="82" height="82" viewBox="0 0 82 82" fill="none" xmlns="http://www.w3.org/2000/svg">
<rect x="0.835938" y="0.257812" width="80.8383" height="80.8383" rx="10" fill="white"/>
<mask id="mask0_1226_1198" style="mask-type:luminance" maskUnits="userSpaceOnUse" x="0" y="0" width="82" height="82">
<path d="M81.6665 0.265625H0.828125V81.104H81.6665V0.265625Z" fill="white"/>
</mask>
<g mask="url(#mask0_1226_1198)">
<path d="M81.6462 38.5417C81.5347 32.8526 81.1687 27.2144 80.2989 21.5867C79.8453 18.6479 79.1927 15.6226 78.2331 12.7865C77.4262 10.4056 76.2488 7.86203 74.2246 6.25956C73.5095 5.69334 72.6404 5.17429 71.6174 4.70238C70.2283 4.06115 68.79 3.53219 67.3164 3.12056C62.1475 1.67483 56.7352 1.02768 51.3957 0.63067L49.9108 0.539128C44.0593 0.171288 38.1903 0.174488 32.3391 0.548709C31.8108 0.596713 31.281 0.623808 30.7496 0.629996C30.649 0.631119 30.5563 0.677975 30.4456 0.685311C26.4526 0.981867 22.3223 1.49691 18.3864 2.32708C16.7798 2.66545 15.1929 3.09152 13.6328 3.60335C11.8016 4.20425 9.97139 5.0056 8.41196 6.15253C7.9609 6.47868 7.55223 6.85982 7.19545 7.28711L6.71521 7.85971C6.60372 7.97356 6.51366 8.10649 6.44935 8.2523L6.00466 8.90799C4.96334 10.667 4.25084 12.6042 3.69313 14.5801C3.21908 16.2614 2.82696 17.9617 2.51679 19.6814C1.6108 24.7044 1.11633 29.8635 0.953085 34.9099C0.908475 36.2851 0.850541 37.6297 0.836693 38.9902C0.780181 44.4805 0.999418 50.0038 1.60735 55.4629C1.63445 55.7085 1.70466 56.0018 1.72315 56.2834C1.74405 56.6003 1.77514 56.9159 1.81641 57.2305C2.31926 61.0978 3.01993 64.9821 4.28954 68.6794C4.8495 70.3092 5.55855 71.9046 6.54343 73.3006C7.72659 74.9784 9.46682 76.0927 11.3896 76.9161C14.4571 78.2297 17.7846 79.0126 21.0667 79.565C24.5323 80.1489 28.0262 80.5493 31.5338 80.7664C31.6464 80.7761 31.7594 80.7783 31.8723 80.7746L32.2373 80.8233C33.5554 80.8959 34.8765 80.9834 36.1953 81.0268C40.8483 81.1788 45.4758 81.1017 50.1231 80.836C50.2471 80.8248 50.3704 80.8068 50.4921 80.7806L50.9262 80.7694C54.4771 80.5486 58.0137 80.1391 61.5209 79.5426C64.9192 78.9632 68.4046 78.1608 71.5484 76.7117C73.2101 75.9453 74.8019 74.901 75.8446 73.4502C76.6118 72.3694 77.2413 71.1972 77.7189 69.9607C78.9359 66.8648 79.6986 63.5834 80.2241 60.3088C80.8154 56.6059 81.2121 52.8745 81.4127 49.1299C81.6111 45.4704 81.7121 41.9036 81.6462 38.5417ZM3.21828 57.5394C3.21973 57.5388 3.22133 57.5388 3.22277 57.5394C3.22362 57.5395 3.2244 57.5399 3.22502 57.5405C3.2228 57.5398 3.22051 57.5394 3.21821 57.5394M3.93243 24.9963C3.93303 24.9963 3.93355 24.9969 3.93415 24.9974C3.93475 24.998 3.9364 25.0003 3.93752 25.0014L3.93243 24.9963ZM31.8385 80.4797C31.8397 80.4797 31.8409 80.4804 31.8419 80.4804C31.8446 80.4812 31.8472 80.4819 31.8494 80.4834C31.8459 80.4819 31.8423 80.4804 31.8387 80.4797M78.4666 56.2371C78.4681 56.2364 78.4703 56.2361 78.4718 56.236H78.4771C78.4733 56.2361 78.4703 56.2365 78.4666 56.2371ZM78.4808 24.7933C78.4786 24.7938 78.4763 24.794 78.4748 24.7939C78.4786 24.7939 78.4823 24.7933 78.4861 24.7922C78.4838 24.7929 78.4823 24.7932 78.4808 24.7933ZM78.5347 57.1147C78.5317 57.1173 78.5287 57.1196 78.5257 57.1215C78.5295 57.1192 78.5325 57.1165 78.5347 57.1136C78.5347 57.1142 78.5347 57.1142 78.5347 57.1147Z" fill="white"/>
<path fill-rule="evenodd" clip-rule="evenodd" d="M30.0216 84.7081C30.532 84.1774 30.5382 82.4618 30.5436 80.9685C30.5468 80.0681 30.5498 79.2492 30.6628 78.8196L30.6623 78.8194C31.0061 77.6474 30.9552 76.3948 30.5175 75.2545C30.0798 74.1144 29.2795 73.1495 28.2397 72.5087C26.7427 71.4039 25.0058 70.6684 23.1706 70.3623L22.9914 70.3094L22.7668 70.2841C22.5379 70.2333 22.309 70.1949 22.0801 70.1565C21.7538 70.1017 21.4276 70.047 21.1011 69.9565C20.382 69.8456 19.7115 69.5256 19.1731 69.0362C18.6346 68.5468 18.2522 67.9098 18.0734 67.2046C17.9981 66.5932 17.9727 65.9767 17.9976 65.3613L18.0734 64.9831C18.1247 64.1211 17.8615 63.2697 17.3324 62.5872C16.8034 61.9046 16.0446 61.4373 15.197 61.2721C13.9579 60.9706 12.671 60.9191 11.4117 61.1205C10.2098 61.29 9.08091 61.7979 8.15666 62.5849C8.04551 62.6957 7.93406 62.8004 7.82597 62.902C7.71242 63.0087 7.60247 63.112 7.50015 63.2156L7.4244 63.2914L7.37388 63.3672C6.99064 63.8554 6.49678 64.2456 5.93301 64.5055C5.39214 64.6962 4.81587 64.7655 4.24513 64.7084L3.21067 64.6326C2.52543 64.6069 1.82708 64.5901 1.11561 64.5821C0.700487 64.5773 0.0781736 64.4382 -0.573683 64.2924C-1.05701 64.1843 -1.55659 64.0727 -2 64.0094C-1.53311 66.8696 -0.904918 69.7101 0.035262 72.448C0.595217 74.0778 1.30427 75.6733 2.28915 77.0692C3.47231 78.7471 5.21258 79.8608 7.13533 80.6841C10.2028 81.9977 13.5303 82.7814 16.8125 83.3338C20.2781 83.9176 23.7719 84.3181 27.2796 84.5352C27.3921 84.5441 27.5052 84.5471 27.618 84.5434L27.983 84.592C28.3223 84.6108 28.6618 84.6302 29.0014 84.6497C29.3414 84.6691 29.6815 84.6894 30.0216 84.7081ZM27.5876 84.2492C27.5866 84.2485 27.5854 84.2485 27.5843 84.2485H27.5844C27.5881 84.2492 27.5917 84.2507 27.5951 84.2522C27.5929 84.2507 27.5903 84.2492 27.5876 84.2492Z" fill="#3FA0E5"/>
<path fill-rule="evenodd" clip-rule="evenodd" d="M47.5708 -3.99988C50.3403 -3.99177 53.1097 -3.90081 55.8751 -3.72697L57.36 -3.63542C62.6995 -3.23842 68.1118 -2.59127 73.2807 -1.14553C74.7543 -0.733907 76.1925 -0.204948 77.5817 0.43628C78.6047 0.908189 79.4738 1.42725 80.1889 1.99347C82.2126 3.59596 83.39 6.13952 84.1969 8.52043C85.1205 11.2475 85.759 14.1495 86.2103 16.9815C85.3264 17.4183 83.7964 16.8916 82.2799 16.3695C80.8694 15.8841 79.4707 15.4026 78.6139 15.7035C77.6694 15.9796 76.6903 16.1197 75.7063 16.1198C74.8903 16.0917 74.0822 16.2868 73.369 16.6841C72.6558 17.0813 72.0645 17.6656 71.6588 18.374C71.3862 18.8799 71.0851 19.3732 70.7874 19.8606C70.6606 20.0683 70.5344 20.2749 70.4115 20.4809C69.8553 21.3943 69.0455 22.1263 68.0807 22.5877C67.5022 22.8704 66.882 23.0579 66.2439 23.1432C66.0417 23.1598 65.837 23.1698 65.6372 23.1698C65.1817 23.1754 64.7274 23.1227 64.2853 23.0131C63.6457 22.8766 63.0227 22.6718 62.4269 22.402C62.0178 22.2241 61.6354 21.9903 61.2906 21.7073C60.571 21.0665 60.043 20.2388 59.7653 19.3162C59.6463 18.8624 59.5809 18.3963 59.5705 17.9274C59.5808 16.7625 59.1439 15.6381 58.3496 14.7859C57.1356 13.8969 55.6963 13.3666 54.1957 13.2552C52.9364 13.1953 51.7139 12.8115 50.6464 12.1409C50.1656 11.7922 49.7519 11.3594 49.4254 10.8632C48.8847 9.79895 48.7194 8.58323 48.9564 7.41325C48.9763 7.24139 49.0158 7.06796 49.058 6.88219C49.0702 6.82867 49.0826 6.77425 49.0948 6.71849C49.2373 6.06325 49.4604 5.42822 49.759 4.82784C50.0711 4.26519 50.3404 3.67987 50.5647 3.0768C50.7073 2.62661 50.7815 2.15756 50.7848 1.68534C50.7879 1.07674 50.645 0.476265 50.3681 -0.0657037C49.7626 -1.10204 48.8433 -1.91908 47.743 -2.39879C47.5729 -2.49825 46.2199 -3.05208 45.1667 -3.48318C44.6427 -3.69763 44.193 -3.88171 44 -3.96439C44.9345 -3.9857 45.8692 -3.99757 46.8038 -4L47.5708 -3.99988Z" fill="#3FA0E5"/>
<path d="M56.122 9.65823H54.8829L54.5246 8.53495H52.7282L52.3724 9.65823H51.1406L52.9803 4.60938H54.3304L56.122 9.65823ZM54.2623 7.6613L53.7197 5.9622C53.6752 5.81414 53.6465 5.66175 53.6339 5.50756H53.5986C53.5864 5.65688 53.5567 5.80426 53.5102 5.9467L52.9602 7.65823L54.2623 7.6613Z" fill="white"/>
<path d="M60.1148 9.65729H59.0044V7.65303C59.0044 7.09412 58.8051 6.8147 58.4064 6.8147C58.3156 6.81291 58.2256 6.83207 58.1433 6.87054C58.061 6.90909 57.9887 6.96598 57.932 7.03686C57.8038 7.19584 57.7375 7.39584 57.7453 7.59988V9.65722H56.6328V6.04996H57.7457V6.62032H57.7607C57.8741 6.41433 58.0424 6.24375 58.2468 6.1275C58.4512 6.01126 58.6839 5.95385 58.9189 5.96164C59.718 5.96164 60.1175 6.45729 60.1175 7.44861L60.1148 9.65729Z" fill="white"/>
<path d="M64.5273 9.65638H63.4145V9.15151H63.3995C63.2824 9.33946 63.1174 9.49283 62.9214 9.59575C62.7253 9.69874 62.5054 9.74762 62.2842 9.73736C62.0788 9.74478 61.8742 9.70578 61.6859 9.62314C61.4976 9.54058 61.3303 9.41656 61.1967 9.26034C60.9019 8.88093 60.7555 8.40713 60.785 7.92756C60.7589 7.41042 60.9201 6.90129 61.239 6.49343C61.383 6.31828 61.5653 6.17846 61.7718 6.08482C61.9782 5.99118 62.2035 5.94612 62.4301 5.95323C62.6234 5.93497 62.818 5.97292 62.9903 6.06244C63.1626 6.15196 63.3055 6.28931 63.4017 6.45802H63.4166V4.3125H64.5295L64.5273 9.65638ZM63.4345 7.88931V7.61656C63.4421 7.40256 63.3692 7.19358 63.2302 7.0307C63.166 6.96094 63.0888 6.90451 63.0028 6.86461C62.9168 6.82472 62.8238 6.80219 62.7291 6.79822C62.6344 6.79425 62.5398 6.809 62.4508 6.84163C62.3618 6.87427 62.2802 6.92404 62.2104 6.98826C62.1771 7.0188 62.1468 7.05241 62.1199 7.08871C61.9692 7.32644 61.8968 7.60548 61.913 7.88654C61.8968 8.14627 61.9679 8.40406 62.1151 8.61873C62.1746 8.69081 62.2477 8.75046 62.3302 8.79433C62.4127 8.83811 62.5032 8.86528 62.5962 8.87419C62.6892 8.8831 62.7831 8.87352 62.8725 8.84612C62.9618 8.81873 63.0449 8.77404 63.1169 8.71454C63.156 8.6822 63.1915 8.64582 63.2229 8.60608C63.37 8.40151 63.4446 8.15368 63.4349 7.90189L63.4345 7.88931Z" fill="white"/>
<path d="M67.8126 7.05271C67.6678 6.97756 67.5063 6.94029 67.3432 6.94425C67.2342 6.93916 67.1255 6.96057 67.0266 7.00675C66.9278 7.05294 66.8415 7.12247 66.7754 7.2093C66.6286 7.42135 66.5567 7.67636 66.5711 7.93385V9.65541H65.4531V6.04807H66.566V6.71708H66.581C66.633 6.50526 66.7554 6.31731 66.9284 6.1843C67.1013 6.05129 67.3142 5.981 67.5323 5.98497C67.626 5.98115 67.7194 5.99568 67.8074 6.02771L67.8126 7.05271Z" fill="white"/>
<path d="M70.0217 9.74285C69.7636 9.75737 69.5052 9.72024 69.2617 9.63356C69.0181 9.54689 68.7944 9.41238 68.6035 9.23805C68.2665 8.85287 68.0823 8.35752 68.086 7.84569C68.0897 7.33394 68.2811 6.84127 68.6237 6.46111C69.0213 6.10871 69.5418 5.92735 70.0722 5.95624C70.3288 5.94157 70.5857 5.97877 70.8276 6.06552C71.0695 6.1522 71.2915 6.28678 71.4803 6.46111C71.6515 6.63768 71.7846 6.84756 71.8715 7.07773C71.9583 7.30781 71.9969 7.55332 71.985 7.79906C71.9989 8.05939 71.9592 8.31979 71.8685 8.56425C71.7778 8.80871 71.6379 9.03199 71.4575 9.22031C71.2653 9.39898 71.0392 9.53731 70.7926 9.62705C70.5459 9.7168 70.2838 9.75609 70.0217 9.7427M70.0495 6.81171C69.9332 6.8055 69.8171 6.82668 69.7106 6.87361C69.6041 6.92054 69.5101 6.99187 69.4362 7.08192C69.2796 7.30235 69.2022 7.56934 69.2167 7.83948C69.2167 8.53282 69.4959 8.8796 70.0545 8.8799C70.5878 8.8799 70.8544 8.52391 70.8544 7.81208C70.8563 7.14547 70.5879 6.81216 70.0495 6.81208V6.81171Z" fill="white"/>
<path d="M73.2739 5.47268C73.1042 5.47949 72.9385 5.41968 72.8122 5.30598C72.7545 5.25419 72.7087 5.19064 72.6779 5.11961C72.647 5.04857 72.6316 4.97178 72.6331 4.89431C72.6307 4.81714 72.6455 4.74035 72.6765 4.66959C72.7075 4.59883 72.7538 4.53586 72.8122 4.48527C72.9446 4.38337 73.1069 4.32812 73.2739 4.32812C73.441 4.32812 73.6033 4.38337 73.7358 4.48527C73.7935 4.53622 73.8393 4.59929 73.8698 4.67C73.9004 4.7407 73.9149 4.81729 73.9124 4.89423C73.915 4.97238 73.9005 5.05007 73.87 5.122C73.8395 5.19393 73.7937 5.25838 73.7358 5.31078C73.6081 5.4217 73.4429 5.47949 73.274 5.4723M73.8242 9.65037H72.7113V6.04348H73.8241L73.8242 9.65037Z" fill="white"/>
<path d="M78.2927 9.65638H77.1798V9.15151H77.1649C77.0478 9.33946 76.8828 9.49275 76.6867 9.59575C76.4907 9.69874 76.2708 9.74762 76.0496 9.73736C75.8441 9.74478 75.6396 9.70578 75.4512 9.62314C75.2629 9.54058 75.0956 9.41656 74.9619 9.26034C74.6673 8.88093 74.521 8.40705 74.5506 7.92756C74.5245 7.41049 74.6858 6.90136 75.0048 6.49365C75.1488 6.31843 75.331 6.17868 75.5375 6.08497C75.7441 5.99133 75.9693 5.94635 76.1959 5.95346C76.3893 5.93519 76.5837 5.97314 76.756 6.06266C76.9283 6.15219 77.0711 6.28954 77.1674 6.45825H77.1824V4.3125H78.2952L78.2927 9.65638ZM77.1999 7.88931V7.61656C77.2074 7.40256 77.1345 7.19358 76.9955 7.0307C76.9314 6.96094 76.8541 6.90451 76.7681 6.86461C76.6821 6.82472 76.5891 6.80219 76.4944 6.79822C76.3997 6.79425 76.3052 6.809 76.2162 6.84163C76.1272 6.87427 76.0455 6.92404 75.9758 6.98826C75.9425 7.0188 75.9121 7.05241 75.8852 7.08871C75.7346 7.32651 75.6623 7.60548 75.6783 7.88654C75.6621 8.14627 75.7333 8.40406 75.8804 8.61873C75.9399 8.69081 76.013 8.75046 76.0955 8.79433C76.1781 8.83811 76.2685 8.86528 76.3615 8.87419C76.4545 8.8831 76.5484 8.87352 76.6378 8.84612C76.7271 8.81873 76.8102 8.77404 76.8823 8.71454C76.9213 8.6822 76.9569 8.64582 76.9883 8.60608C77.1354 8.40151 77.2099 8.15368 77.2003 7.90189L77.1999 7.88931Z" fill="white"/>
<path d="M50.514 46.7955C50.514 49.2698 49.3616 50.5068 47.0568 50.5064C44.8213 50.5064 43.7034 49.2981 43.7031 46.8812V42.125H45.563V46.9064C45.563 48.2393 46.0837 48.9058 47.1251 48.9058C48.1665 48.9058 48.6779 48.2621 48.6595 46.9746V42.1251H50.5143L50.514 46.7955Z" fill="#3FA0E5"/>
<path d="M52.6685 40.5217H50.8516V31.8125H52.6659L52.6685 40.5217Z" fill="#3E3E40"/>
<path d="M61.9599 50.3671H55.3281V49.2993L59.5496 43.6395H55.6336V42.125H61.9422V43.165L57.8138 48.8577H61.9548L61.9599 50.3671Z" fill="#3FA0E5"/>
<path d="M49.4222 40.5219H47.6129V37.2526C47.6129 36.3401 47.2874 35.884 46.6364 35.8844C46.4883 35.8813 46.3414 35.9122 46.2071 35.9748C46.0728 36.0373 45.9546 36.1298 45.8616 36.2452C45.6523 36.5047 45.5439 36.831 45.5562 37.1642V40.5191H43.7344V34.6372H45.5487V35.5687H45.5711C45.7565 35.2327 46.031 34.9544 46.3646 34.7645C46.6981 34.5748 47.0776 34.4809 47.4612 34.4933C48.7633 34.4933 49.4143 35.3011 49.4143 36.9166L49.4222 40.5219Z" fill="#3E3E40"/>
<path d="M54.1607 50.2862H52.3438V42.125H54.1581L54.1607 50.2862Z" fill="#3FA0E5"/>
<path d="M55.1204 33.7123C54.842 33.7246 54.57 33.6266 54.3634 33.4396C54.2695 33.3556 54.1948 33.2524 54.1443 33.137C54.0937 33.0215 54.0687 32.8965 54.0707 32.7706C54.0669 32.6447 54.0913 32.5196 54.1419 32.4043C54.1925 32.289 54.2682 32.1864 54.3634 32.104C54.5818 31.9402 54.8475 31.8516 55.1205 31.8516C55.3934 31.8516 55.6591 31.9402 55.8775 32.104C55.972 32.1869 56.047 32.2896 56.0971 32.4049C56.1473 32.5201 56.1714 32.645 56.1676 32.7706C56.1717 32.8981 56.1478 33.0249 56.0976 33.1423C56.0476 33.2596 55.9724 33.3645 55.8775 33.4498C55.6682 33.6313 55.3971 33.7253 55.1204 33.7123ZM56.0163 40.5283H54.202V34.6463H56.0163V40.5283Z" fill="#3E3E40"/>
<path d="M63.2216 40.5219H61.4123V37.2527C61.4123 36.3402 61.0868 35.8841 60.4357 35.8845C60.2876 35.8813 60.1408 35.9123 60.0065 35.9748C59.8722 36.0374 59.7541 36.1299 59.6611 36.2453C59.4518 36.5048 59.3433 36.8311 59.3557 37.1643V40.5191H57.5312V34.6372H59.3455V35.5688H59.368C59.5531 35.2325 59.8277 34.9542 60.1613 34.7643C60.4948 34.5745 60.8744 34.4807 61.258 34.4933C62.5604 34.4933 63.2115 35.3011 63.2112 36.9167L63.2216 40.5219Z" fill="#3E3E40"/>
<path d="M69.9372 38.0997H66.1016C66.1622 38.953 66.6997 39.3796 67.7141 39.3796C68.3148 39.3924 68.9067 39.2329 69.4199 38.9202V40.2305C68.7595 40.547 68.0318 40.6969 67.3002 40.6671C66.8969 40.7074 66.4896 40.6577 66.1079 40.5216C65.7261 40.3853 65.3794 40.1662 65.0925 39.8797C64.8058 39.5933 64.5861 39.2469 64.4494 38.8653C64.3127 38.4837 64.2625 38.0765 64.3023 37.6731C64.2803 37.2491 64.3443 36.825 64.4904 36.4263C64.6366 36.0276 64.8619 35.6626 65.1527 35.3533C65.4236 35.0749 65.749 34.8553 66.1084 34.7081C66.4678 34.5608 66.8538 34.4891 67.2422 34.4975C67.6089 34.4739 67.9764 34.5293 68.3199 34.66C68.6634 34.7907 68.9748 34.9936 69.2332 35.2549C69.7261 35.8304 69.9782 36.5736 69.9372 37.3302V38.0997ZM68.2538 36.9839C68.2538 36.1427 67.9131 35.7219 67.2318 35.7217C67.0866 35.7222 66.9432 35.7551 66.8122 35.818C66.6812 35.8809 66.566 35.9722 66.4748 36.0853C66.2563 36.3391 66.1207 36.6537 66.0862 36.9867L68.2538 36.9839Z" fill="#3E3E40"/>
<path fill-rule="evenodd" clip-rule="evenodd" d="M27.2544 25.0236C19.2351 25.0236 12.7344 31.527 12.7344 39.5495C12.7344 47.5719 19.2353 54.0753 27.2543 54.0753C30.0172 54.0791 32.7233 53.2906 35.0517 51.8032C37.1115 50.49 38.8073 48.6789 39.9822 46.5371C41.1572 44.3954 41.7735 41.9922 41.7743 39.5493C41.7743 31.527 35.2737 25.0234 27.2545 25.0234L27.2544 25.0236ZM30.8856 49.271C28.4818 50.1788 25.8279 50.1695 23.4306 49.2448C21.0333 48.3201 19.0604 46.5448 17.8889 44.2579C16.7174 41.971 16.4292 39.3328 17.0794 36.8469C17.7295 34.361 19.2725 32.2017 21.4136 30.7812C23.5547 29.3607 26.144 28.7786 28.6871 29.146C31.2303 29.5134 33.5489 30.8046 35.2005 32.773C36.852 34.7414 37.7208 37.2491 37.6407 39.8174C37.5607 42.3856 36.5376 44.8344 34.7667 46.6962C33.6847 47.8373 32.3576 48.7177 30.8856 49.271Z" fill="#3E3E40"/>
<path d="M42.2063 55.803C41.8206 55.8026 41.4426 55.6961 41.1135 55.4951L29.8993 48.6792C29.4232 48.3883 29.0819 47.9205 28.9502 47.3783C28.8185 46.836 28.9072 46.2638 29.1968 45.787C29.4864 45.31 29.9533 44.9675 30.4952 44.8343C31.037 44.7012 31.6095 44.7884 32.0872 45.0767L43.3013 51.8926C43.6943 52.1318 43.9983 52.4928 44.167 52.9207C44.3356 53.3486 44.3598 53.82 44.2358 54.2628C44.1117 54.7058 43.8462 55.096 43.4798 55.3741C43.1135 55.6521 42.6662 55.8027 42.2063 55.803Z" fill="#3FA0E5"/>
</g>
</svg>
