<svg width="81" height="82" viewBox="0 0 81 82" fill="none" xmlns="http://www.w3.org/2000/svg">
<rect y="0.585938" width="80.8383" height="80.8383" rx="10" fill="#13123F"/>
<mask id="mask0_1226_830" style="mask-type:luminance" maskUnits="userSpaceOnUse" x="0" y="0" width="81" height="82">
<path d="M80.8383 0.59375H0V81.4321H80.8383V0.59375Z" fill="white"/>
</mask>
<g mask="url(#mask0_1226_830)">
<path d="M80.8181 38.8699C80.7066 33.1807 80.3406 27.5425 79.4708 21.9149C79.0172 18.976 78.3645 15.9507 77.4049 13.1146C76.5981 10.7337 75.4207 8.19016 73.3965 6.58769C72.6814 6.02147 71.8123 5.50241 70.7892 5.0305C69.4002 4.38927 67.9618 3.86031 66.4883 3.44869C61.3194 2.00296 55.907 1.3558 50.5676 0.958795L49.0826 0.867253C43.2311 0.499413 37.3621 0.502613 31.5109 0.876834C30.9826 0.924838 30.4528 0.951933 29.9215 0.958121C29.8209 0.959244 29.7282 1.0061 29.6175 1.01344C25.6245 1.30999 21.4942 1.82504 17.5582 2.6552C15.9516 2.99358 14.3647 3.41964 12.8046 3.93147C10.9734 4.53237 9.14326 5.33372 7.58383 6.48065C7.13277 6.8068 6.7241 7.18794 6.36733 7.61523L5.88709 8.18784C5.77559 8.30168 5.68553 8.43462 5.62122 8.58043L5.17653 9.23612C4.13522 10.9951 3.42272 12.9323 2.86501 14.9083C2.39095 16.5895 1.99884 18.2899 1.68866 20.0095C0.782672 25.0325 0.288209 30.1916 0.12496 35.2381C0.0803496 36.6132 0.0224156 37.9578 0.00856834 39.3183C-0.0479436 44.8086 0.171293 50.3319 0.779229 55.791C0.806325 56.0366 0.876535 56.3299 0.895023 56.6116C0.915928 56.9284 0.947014 57.2441 0.988286 57.5586C1.49113 61.4259 2.1918 65.3102 3.46141 69.0075C4.02137 70.6373 4.73043 72.2327 5.71531 73.6287C6.89847 75.3065 8.6387 76.4208 10.5615 77.2442C13.629 78.5578 16.9564 79.3408 20.2386 79.8931C23.7042 80.477 27.1981 80.8774 30.7057 81.0945C30.8183 81.1042 30.9313 81.1065 31.0442 81.1027L31.4091 81.1514C32.7273 81.224 34.0484 81.3116 35.3671 81.355C40.0201 81.5069 44.6477 81.4298 49.295 81.1641C49.419 81.1529 49.5423 81.1349 49.6639 81.1087L50.0981 81.0975C53.649 80.8767 57.1856 80.4673 60.6928 79.8707C64.091 79.2914 67.5765 78.489 70.7203 77.0399C72.382 76.2734 73.9737 75.2291 75.0165 73.7783C75.7837 72.6975 76.4132 71.5253 76.8907 70.2888C78.1078 67.1929 78.8705 63.9116 79.396 60.6369C79.9873 56.934 80.384 53.2026 80.5846 49.458C80.7829 45.7985 80.884 42.2317 80.8181 38.8699ZM2.39016 57.8675C2.3916 57.867 2.3932 57.867 2.39465 57.8675C2.39549 57.8676 2.39627 57.868 2.39689 57.8686C2.39468 57.8679 2.39239 57.8676 2.39008 57.8675M3.1043 25.3244C3.1049 25.3244 3.10543 25.325 3.10603 25.3256C3.10662 25.3261 3.10827 25.3284 3.10939 25.3295L3.1043 25.3244ZM31.0104 80.8078C31.0116 80.8078 31.0127 80.8086 31.0138 80.8086C31.0165 80.8093 31.0191 80.8101 31.0213 80.8116C31.0178 80.8101 31.0142 80.8086 31.0106 80.8078M77.6385 56.5652C77.64 56.5646 77.6422 56.5642 77.6437 56.5641H77.649C77.6452 56.5643 77.6422 56.5646 77.6385 56.5652ZM77.6527 25.1214C77.6505 25.1219 77.6482 25.1221 77.6467 25.122C77.6505 25.122 77.6542 25.1214 77.6579 25.1203C77.6557 25.121 77.6542 25.1214 77.6527 25.1214ZM77.7066 57.4429C77.7036 57.4455 77.7006 57.4477 77.6976 57.4497C77.7014 57.4473 77.7044 57.4446 77.7066 57.4417C77.7066 57.4423 77.7066 57.4423 77.7066 57.4429Z" fill="#13123F"/>
<path d="M24.0058 62.8484C22.8928 62.0227 21.8424 61.1157 20.863 60.1349L20.5091 59.7811V41.5755C20.4918 41.2594 20.4844 40.9385 20.4844 40.5865C20.4968 29.5806 29.4069 20.6614 40.4015 20.6484C51.3961 20.6614 60.3062 29.5806 60.3186 40.5865C60.3062 51.5924 51.3961 60.5118 40.4015 60.5248C39.7946 60.5248 39.1841 60.497 38.5908 60.4439L37.4995 60.3427V54.8755L38.83 55.0224C39.352 55.078 39.8764 55.1058 40.4014 55.1058C48.4071 55.0978 54.8954 48.6035 54.9038 40.5891C54.8939 32.5754 48.4062 26.0816 40.4014 26.0723C32.4298 26.0883 25.9596 32.531 25.9014 40.5107V40.5891C25.9014 40.862 25.9014 41.1353 25.9261 41.4132V64.2615L24.0058 62.8484Z" fill="#6A05FE"/>
<path d="M49.1321 48.9287C48.0448 50.08 46.7397 51.0034 45.2927 51.6455C43.8458 52.2875 42.2857 52.6353 40.7033 52.6686H40.4044C40.1211 52.6738 39.8378 52.6638 39.5557 52.6387H39.4928C39.1648 52.6157 38.8396 52.5779 38.5173 52.525L37.5071 52.3679V46.7748L37.6835 46.8122L38.9662 47.0956C39.1254 47.133 39.2894 47.161 39.451 47.1839C39.7678 47.2301 40.0876 47.2529 40.4078 47.2523C41.3232 47.2505 42.2285 47.06 43.0674 46.6928C43.9062 46.3257 44.6605 45.7897 45.2834 45.1182C46.3859 43.9357 47.0154 42.3886 47.0522 40.7715C47.0573 40.5413 47.0507 40.3109 47.0324 40.0813C46.9522 39.0152 46.6131 37.9848 46.0444 37.0798C45.4925 36.1926 44.7403 35.4474 43.8483 34.9041C42.9563 34.361 41.9494 34.0348 40.9086 33.9521C40.7371 33.9397 40.5647 33.9317 40.4028 33.9317C40.2517 33.9289 40.1006 33.9341 39.9501 33.9472C38.3462 34.0555 36.8337 34.7339 35.6855 35.8601C34.5373 36.9863 33.8288 38.4861 33.6881 40.0891V67.4767L32.1722 67.0062C31.4148 66.7735 30.6797 66.5007 29.9521 66.2018C29.64 66.0754 29.3304 65.9425 29.027 65.8024L28.3203 65.4814V40.4681C28.362 37.2881 29.6508 34.252 31.9086 32.0145C34.1663 29.777 37.2123 28.5175 40.3894 28.5078C40.6423 28.5078 40.9148 28.5078 41.1726 28.5331C43.9293 28.7226 46.5386 29.8493 48.5679 31.7266C50.5973 33.6038 51.9247 36.119 52.3303 38.855C52.3857 39.2366 52.4216 39.6137 52.4413 40.0131C52.5267 41.6466 52.2771 43.2803 51.708 44.8136C51.139 46.3469 50.2623 47.7473 49.1321 48.9287Z" fill="#F37B46"/>
<path d="M68.0364 40.5992C68.0178 55.8678 55.6578 68.2417 40.4044 68.2597C39.811 68.2597 39.2092 68.2393 38.6356 68.2041L37.5096 68.1307V62.6863L38.7972 62.7802C39.3325 62.8176 39.8752 62.8382 40.4118 62.8382C52.6806 62.8307 62.6268 52.8805 62.6404 40.5992C62.6433 36.9262 61.7367 33.3098 60.0016 30.0735C58.2664 26.8372 55.757 24.0818 52.6976 22.0539C49.6382 20.026 46.1243 18.7889 42.4705 18.4532C38.8165 18.1175 35.1364 18.6936 31.7593 20.1301C27.7576 21.8337 24.3417 24.6729 21.9333 28.2974C19.5249 31.9218 18.2294 36.1728 18.2067 40.5257V57.4674L15.9532 53.4442L15.878 53.3077L15.8606 53.2645C13.8973 49.4485 12.8484 45.2272 12.7969 40.9351V40.1664C12.9209 32.9115 15.8843 25.9951 21.0498 20.9046C26.2154 15.814 33.1704 12.9561 40.4191 12.9453C55.6641 12.97 68.0154 25.3378 68.0364 40.599" fill="#E035C3"/>
</g>
</svg>
