<svg width="82" height="82" viewBox="0 0 82 82" fill="none" xmlns="http://www.w3.org/2000/svg">
<rect x="0.835938" y="0.75" width="80.8383" height="80.8383" rx="10" fill="#15D871"/>
<mask id="mask0_1226_891" style="mask-type:luminance" maskUnits="userSpaceOnUse" x="0" y="0" width="82" height="82">
<path d="M81.6665 0.742188H0.828125V81.5805H81.6665V0.742188Z" fill="white"/>
</mask>
<g mask="url(#mask0_1226_891)">
<path d="M81.6462 39.0183C81.5347 33.3292 81.1687 27.6909 80.2989 22.0633C79.8453 19.1244 79.1927 16.0991 78.2331 13.2631C77.4262 10.8822 76.2488 8.33859 74.2246 6.73612C73.5095 6.1699 72.6404 5.65085 71.6174 5.17894C70.2283 4.53771 68.79 4.00875 67.3164 3.59713C62.1475 2.15139 56.7352 1.50424 51.3957 1.10723L49.9108 1.01569C44.0593 0.647851 38.1903 0.65105 32.3391 1.02527C31.8108 1.07328 31.281 1.10037 30.7496 1.10656C30.649 1.10768 30.5563 1.15454 30.4456 1.16187C26.4526 1.45843 22.3223 1.97347 18.3864 2.80364C16.7798 3.14202 15.1929 3.56808 13.6328 4.07991C11.8016 4.68081 9.97139 5.48216 8.41196 6.62909C7.9609 6.95524 7.55223 7.33638 7.19545 7.76367L6.71521 8.33627C6.60372 8.45012 6.51366 8.58306 6.44935 8.72886L6.00466 9.38455C4.96334 11.1435 4.25084 13.0807 3.69313 15.0567C3.21908 16.7379 2.82696 18.4383 2.51679 20.158C1.6108 25.181 1.11633 30.34 0.953085 35.3865C0.908475 36.7616 0.850541 38.1063 0.836693 39.4667C0.780181 44.9571 0.999418 50.4804 1.60735 55.9394C1.63445 56.1851 1.70466 56.4783 1.72315 56.76C1.74405 57.0768 1.77514 57.3925 1.81641 57.7071C2.31926 61.5744 3.01993 65.4587 4.28954 69.156C4.8495 70.7857 5.55855 72.3812 6.54343 73.7771C7.72659 75.455 9.46682 76.5693 11.3896 77.3926C14.4571 78.7063 17.7846 79.4892 21.0667 80.0416C24.5323 80.6254 28.0262 81.0259 31.5338 81.2429C31.6464 81.2527 31.7594 81.2549 31.8723 81.2512L32.2373 81.2998C33.5554 81.3724 34.8765 81.46 36.1953 81.5034C40.8483 81.6554 45.4758 81.5783 50.1231 81.3125C50.2471 81.3013 50.3704 81.2834 50.4921 81.2572L50.9262 81.2459C54.4771 81.0251 58.0137 80.6157 61.5209 80.0191C64.9192 79.4398 68.4046 78.6374 71.5484 77.1883C73.2101 76.4218 74.8019 75.3775 75.8446 73.9268C76.6118 72.8459 77.2413 71.6738 77.7189 70.4372C78.9359 67.3414 79.6986 64.06 80.2241 60.7854C80.8154 57.0825 81.2121 53.351 81.4127 49.6065C81.6111 45.947 81.7121 42.3801 81.6462 39.0183ZM3.21828 58.0159C3.21973 58.0154 3.22133 58.0154 3.22277 58.0159C3.22362 58.0161 3.2244 58.0164 3.22502 58.017C3.2228 58.0164 3.22051 58.016 3.21821 58.0159M3.93243 25.4729C3.93303 25.4729 3.93355 25.4735 3.93415 25.474C3.93475 25.4745 3.9364 25.4768 3.93752 25.478L3.93243 25.4729ZM31.8385 80.9563C31.8397 80.9563 31.8409 80.957 31.8419 80.957C31.8446 80.9578 31.8472 80.9585 31.8494 80.96C31.8459 80.9585 31.8423 80.957 31.8387 80.9563M78.4666 56.7137C78.4681 56.713 78.4703 56.7126 78.4718 56.7125H78.4771C78.4733 56.7127 78.4703 56.7131 78.4666 56.7137ZM78.4808 25.2699C78.4786 25.2703 78.4763 25.2706 78.4748 25.2705C78.4786 25.2705 78.4823 25.2699 78.4861 25.2688C78.4838 25.2694 78.4823 25.2698 78.4808 25.2699ZM78.5347 57.5913C78.5317 57.5939 78.5287 57.5962 78.5257 57.5981C78.5295 57.5958 78.5325 57.5931 78.5347 57.5902C78.5347 57.5908 78.5347 57.5908 78.5347 57.5913Z" fill="#15D871"/>
<mask id="mask1_1226_891" style="mask-type:luminance" maskUnits="userSpaceOnUse" x="13" y="13" width="57" height="57">
<path d="M69.3252 13.0859H13.1875V69.2237H69.3252V13.0859Z" fill="white"/>
</mask>
<g mask="url(#mask1_1226_891)">
<path d="M22.1924 62.1655L21.1555 61.5561C21.5957 61.3224 21.992 61.0113 22.3257 60.6372C23.2877 59.4605 23.7746 57.9562 23.6879 56.4284C23.7746 54.8992 23.2878 53.3934 22.3257 52.2149C21.8264 51.6884 21.2205 51.2786 20.5501 51.0139C19.8796 50.7492 19.1605 50.6359 18.4427 50.6818C17.726 50.6375 17.0085 50.7515 16.3394 51.0161C15.6702 51.2808 15.0654 51.6898 14.5666 52.2149C13.6003 53.3915 13.1107 54.898 13.1973 56.4284C13.1108 57.9574 13.6004 59.4625 14.5666 60.6372C15.0662 61.161 15.6713 61.5688 16.3403 61.8326C17.0093 62.0964 17.7264 62.21 18.4427 62.1656C18.5879 62.1656 18.7283 62.1656 18.8687 62.1537L21.5254 63.5606C21.6467 63.6305 21.7838 63.6675 21.9233 63.6678C22.0216 63.6681 22.1189 63.647 22.2085 63.606C22.2981 63.5649 22.3781 63.5048 22.443 63.4297C22.588 63.2756 22.6671 63.0693 22.663 62.856C22.6586 62.707 22.6119 62.5624 22.5284 62.4399C22.4449 62.3173 22.3283 62.2219 22.1926 62.1653M16.1889 59.4063C15.6442 58.5159 15.3865 57.4747 15.4516 56.4282C15.3878 55.383 15.6463 54.3435 16.1912 53.4549C16.449 53.103 16.7897 52.8226 17.182 52.6396C17.5743 52.4565 18.0054 52.3768 18.4359 52.4075C18.8665 52.3765 19.2981 52.4557 19.6909 52.6378C20.0838 52.8199 20.4256 53.0992 20.6851 53.4501C21.2278 54.3413 21.4846 55.382 21.4201 56.4282C21.4855 57.475 21.2269 58.5164 20.6806 59.4062C20.421 59.7557 20.0798 60.0339 19.6879 60.2155C19.296 60.3972 18.8657 60.4766 18.436 60.4466C18.0059 60.477 17.5752 60.3977 17.1829 60.2161C16.7904 60.0344 16.4488 59.7561 16.1889 59.4063Z" fill="#161745"/>
<path d="M25.4893 56.1658C25.7789 55.5864 26.2235 55.1021 26.772 54.7685C27.3704 54.4049 28.0574 54.2201 28.7544 54.2352C29.2812 54.2251 29.8046 54.3247 30.2922 54.528C30.7116 54.7037 31.0815 54.9827 31.3688 55.3397C31.642 55.6868 31.8513 56.0811 31.9867 56.5039C32.1299 56.9562 32.2033 57.4284 32.2044 57.9036C32.2114 58.0731 32.1638 58.2403 32.0687 58.3798C32.0214 58.442 31.9596 58.4912 31.889 58.5232C31.8184 58.5551 31.741 58.5688 31.6639 58.563H26.9336C26.9098 58.8554 26.9499 59.1496 27.0509 59.4245C27.152 59.6993 27.3116 59.948 27.5184 60.1527C27.725 60.3575 27.9737 60.5132 28.2465 60.6088C28.5193 60.7043 28.8095 60.7374 29.0963 60.7055C29.8199 60.6666 30.5134 60.3977 31.0788 59.9366C31.1615 59.868 31.2647 59.8302 31.3714 59.8294C31.4515 59.8312 31.5302 59.8514 31.6015 59.8885C31.6729 59.9256 31.7351 59.9786 31.7834 60.0436C31.899 60.1744 31.9632 60.3439 31.9636 60.5198C31.9646 60.6182 31.9442 60.7155 31.9037 60.8048C31.8632 60.8942 31.8037 60.9733 31.7295 61.0364C30.9605 61.704 29.9786 62.0637 28.9676 62.048C28.4496 62.0733 27.9317 61.9935 27.4443 61.8132C26.9568 61.6329 26.5095 61.3557 26.1285 60.9979C25.761 60.6111 25.4765 60.1509 25.2928 59.6465C25.1092 59.142 25.0303 58.6044 25.0613 58.0675C25.0542 57.408 25.2009 56.7561 25.4894 56.1655M30.6035 57.4938C30.5835 56.9773 30.4096 56.4792 30.1049 56.0654C29.9475 55.8739 29.7477 55.7229 29.522 55.6248C29.2962 55.5268 29.0509 55.4844 28.8059 55.5012C28.5574 55.4891 28.3095 55.5357 28.0818 55.6373C27.8539 55.7389 27.6523 55.8928 27.4928 56.087C27.1709 56.4899 26.9811 56.9852 26.9498 57.5035L30.6035 57.4938Z" fill="#161745"/>
<path d="M33.9355 61.4893C33.6957 61.3021 33.504 61.0585 33.3768 60.7795C33.2497 60.5006 33.1908 60.1944 33.2053 59.8872C33.2012 59.6167 33.2327 59.347 33.2988 59.085C33.3532 58.8724 33.4419 58.6706 33.561 58.4874C33.6827 58.3106 33.8429 58.1648 34.0291 58.0614C34.2359 57.9437 34.4539 57.848 34.68 57.7757C34.9642 57.6911 35.2557 57.6337 35.5506 57.6043C35.9017 57.5647 36.2574 57.5377 36.6178 57.5234C36.9781 57.5091 37.4119 57.5027 37.9192 57.5044V56.9187C37.9357 56.7304 37.9148 56.5405 37.8576 56.3606C37.8005 56.1807 37.7083 56.0142 37.5866 55.8713C37.4506 55.7524 37.293 55.6621 37.1227 55.6052C36.9524 55.5484 36.7728 55.5262 36.594 55.54H36.3062C36.207 55.5433 36.1083 55.556 36.0113 55.5781L35.7492 55.6233C35.6584 55.6396 35.5686 55.6611 35.4801 55.6876L35.2461 55.7566C35.1915 55.7725 35.1135 55.7995 35.0121 55.8376L34.8111 55.909L34.6101 55.9899L34.4463 56.0542C34.3794 56.082 34.3076 56.095 34.2354 56.0922C34.1494 56.0922 34.0645 56.072 33.9874 56.0332C33.9102 55.9944 33.8429 55.938 33.7907 55.8684C33.6717 55.7271 33.6068 55.547 33.6081 55.361C33.6024 55.2483 33.6311 55.1367 33.6901 55.0412C33.7493 54.9459 33.8359 54.8713 33.9382 54.8278C34.8041 54.424 35.7476 54.2215 36.7001 54.235C37.1173 54.2292 37.5333 54.2829 37.936 54.3945C38.2858 54.4945 38.6133 54.6627 38.9002 54.8896C39.1899 55.1282 39.4128 55.4402 39.5463 55.7943C39.7089 56.2239 39.7883 56.6813 39.7802 57.1417V61.0125C39.7889 61.1435 39.7699 61.2751 39.7247 61.3982C39.6796 61.5213 39.6092 61.6332 39.5181 61.7266C39.3491 61.8914 39.1226 61.9813 38.8885 61.9765C38.7654 61.9798 38.6431 61.9567 38.5294 61.9087C38.4157 61.8607 38.3133 61.7889 38.2287 61.698C38.1442 61.607 38.0794 61.4989 38.0386 61.3808C37.9979 61.2627 37.982 61.1372 37.9921 61.0125V60.7601C37.8328 61.1456 37.5628 61.4734 37.2174 61.7004C36.7948 61.9596 36.3061 62.0855 35.813 62.0622C35.1417 62.0905 34.4806 61.8884 33.9357 61.4884M37.3437 60.2672C37.5349 60.0658 37.6843 59.8273 37.7832 59.566C37.8821 59.3047 37.9284 59.0259 37.9194 58.746V58.5247C37.4202 58.5247 37.0246 58.5326 36.7327 58.5486C36.4544 58.5626 36.177 58.592 35.9018 58.6366C35.6955 58.6588 35.497 58.7287 35.3214 58.841C35.1955 58.9356 35.0949 59.0608 35.0288 59.2053C34.9529 59.3864 34.9169 59.5822 34.9235 59.7789C34.9134 59.9286 34.9354 60.0787 34.988 60.2188C35.0405 60.359 35.1224 60.4859 35.2279 60.5907C35.4517 60.7843 35.7396 60.8838 36.033 60.8692C36.2815 60.8655 36.5264 60.8091 36.7521 60.7036C36.9779 60.598 37.1794 60.4456 37.3439 60.2563L37.3437 60.2672Z" fill="#161745"/>
<path d="M42.009 61.7015C41.916 61.5973 41.8446 61.475 41.7991 61.3421C41.7537 61.2091 41.7351 61.0682 41.7446 60.9278V55.2502C41.7377 55.1236 41.7595 54.997 41.8081 54.8803C41.8569 54.7635 41.9312 54.6596 42.0254 54.5765C42.2128 54.4172 42.4507 54.3326 42.6949 54.3385C42.9365 54.3353 43.1712 54.4198 43.3572 54.5765C43.4496 54.6525 43.5226 54.7499 43.5703 54.8604C43.6179 54.971 43.6388 55.0916 43.6312 55.2122L43.6077 55.9954C43.7447 55.5353 44.0117 55.1264 44.3754 54.8194C44.7247 54.5029 45.1762 54.3284 45.644 54.3291C45.7447 54.3236 45.8453 54.3423 45.9375 54.3837C46.0298 54.425 46.1113 54.4879 46.1753 54.5671C46.3015 54.7294 46.3677 54.9315 46.3624 55.1384C46.3657 55.3401 46.3058 55.5377 46.1915 55.7026C46.1395 55.7791 46.0694 55.8411 45.9875 55.8827C45.9057 55.9244 45.8148 55.9442 45.7233 55.9407C45.461 55.9373 45.1991 55.9612 44.9416 56.0121C44.7113 56.0614 44.4902 56.1473 44.2862 56.2667C44.0706 56.395 43.9003 56.5891 43.7993 56.8213C43.6764 57.1095 43.6173 57.4216 43.626 57.7356V60.9469C43.6352 61.0855 43.6165 61.2246 43.5711 61.3555C43.5256 61.4865 43.4543 61.6067 43.3616 61.7088C43.2708 61.7979 43.1633 61.8675 43.0454 61.9133C42.9274 61.9591 42.8017 61.9802 42.6756 61.9754C42.5519 61.9784 42.4289 61.9556 42.3142 61.9085C42.1994 61.8614 42.0954 61.7909 42.0084 61.7014" fill="#161745"/>
<path d="M47.8032 61.6918C47.6186 61.4794 47.5243 61.2012 47.5411 60.9182V55.2925C47.5324 55.1608 47.552 55.0287 47.5985 54.9053C47.645 54.782 47.7172 54.6704 47.8102 54.5783C47.9966 54.4078 48.2407 54.3174 48.4913 54.326C48.7349 54.3143 48.9733 54.3997 49.156 54.5641C49.246 54.6547 49.3159 54.7638 49.3611 54.8841C49.4063 55.0045 49.4258 55.1332 49.4181 55.2618V55.5284C49.6291 55.1065 49.9658 54.7632 50.3801 54.5477C50.8485 54.3135 51.3657 54.1983 51.8875 54.212C52.2331 54.2096 52.5763 54.2701 52.901 54.3906C53.2149 54.5085 53.5035 54.6871 53.7506 54.9167C54.0154 55.1711 54.2182 55.4848 54.3428 55.8328C54.4939 56.2495 54.5677 56.691 54.5605 57.135V60.9035C54.5688 61.0442 54.5493 61.1852 54.503 61.3181C54.4569 61.451 54.3849 61.573 54.2913 61.6771C54.2012 61.7687 54.0938 61.8407 53.9754 61.8886C53.8571 61.9365 53.7304 61.9593 53.6031 61.9557C53.4804 61.9587 53.3584 61.9355 53.2451 61.8876C53.1318 61.8395 53.0297 61.7679 52.9454 61.6771C52.7608 61.4647 52.6665 61.1865 52.6833 60.9035V57.1282C52.6967 56.9128 52.6683 56.6968 52.5996 56.4926C52.531 56.2884 52.4234 56.0999 52.2831 55.9379C52.1502 55.8011 51.991 55.6936 51.8154 55.6224C51.6397 55.551 51.4515 55.5174 51.2625 55.5237C51.0169 55.5233 50.7741 55.577 50.5506 55.681C50.3273 55.7849 50.1286 55.9367 49.9682 56.1259C49.5932 56.557 49.3976 57.1196 49.4227 57.6947V60.9132C49.431 61.0537 49.4116 61.1944 49.3657 61.3272C49.3199 61.46 49.2486 61.5823 49.1559 61.6867C49.0684 61.7785 48.9631 61.8507 48.8466 61.8986C48.7301 61.9465 48.6051 61.9693 48.4795 61.9653C48.3542 61.9706 48.2292 61.9491 48.1127 61.9019C47.9962 61.8548 47.8907 61.7832 47.8032 61.6918Z" fill="#161745"/>
<path d="M56.5207 56.1658C56.8104 55.5864 57.255 55.1021 57.8034 54.7685C58.4019 54.4049 59.0889 54.2201 59.7859 54.2352C60.3128 54.225 60.8362 54.3246 61.3237 54.528C61.7432 54.7036 62.1132 54.9826 62.4004 55.3397C62.6733 55.6869 62.8827 56.0813 63.0183 56.5039C63.1613 56.9563 63.2347 57.4284 63.2359 57.9036C63.2429 58.0731 63.1952 58.2403 63.1001 58.3798C63.0528 58.442 62.991 58.4912 62.9204 58.5232C62.8497 58.5552 62.7723 58.5688 62.6952 58.563H57.9649C57.9411 58.8554 57.9812 59.1496 58.0823 59.4245C58.1834 59.6993 58.343 59.948 58.5497 60.1527C58.7564 60.3575 59.005 60.5132 59.2778 60.6088C59.5507 60.7043 59.8409 60.7374 60.1277 60.7055C60.8513 60.6665 61.5448 60.3976 62.1101 59.9366C62.1928 59.868 62.296 59.8301 62.4028 59.8294C62.4829 59.8312 62.5615 59.8514 62.6329 59.8885C62.7042 59.9256 62.7663 59.9786 62.8147 60.0436C62.9303 60.1744 62.9945 60.3439 62.9948 60.5198C62.9959 60.6182 62.9754 60.7155 62.9349 60.8048C62.8944 60.8942 62.835 60.9733 62.7608 61.0364C61.9918 61.704 61.0098 62.0637 59.9989 62.048C59.4808 62.0733 58.9629 61.9935 58.4754 61.8132C57.988 61.6329 57.5407 61.3557 57.1597 60.9979C56.7923 60.6111 56.5077 60.1509 56.324 59.6465C56.1403 59.142 56.0615 58.6044 56.0925 58.0675C56.0856 57.408 56.2324 56.7562 56.5209 56.1655M61.635 57.4938C61.6151 56.9772 61.4412 56.4791 61.1364 56.0654C60.979 55.8739 60.7793 55.723 60.5535 55.6249C60.3277 55.5268 60.0824 55.4845 59.8374 55.5012C59.589 55.4891 59.3411 55.5356 59.1132 55.6373C58.8854 55.7389 58.6838 55.8928 58.5243 56.087C58.2025 56.4899 58.0126 56.9852 57.9814 57.5035L61.635 57.4938Z" fill="#161745"/>
<path d="M64.9722 61.7015C64.8787 61.5975 64.8069 61.4753 64.761 61.3424C64.7152 61.2094 64.6962 61.0684 64.7054 60.9278V55.2502C64.6985 55.1236 64.7203 54.997 64.7689 54.8802C64.8176 54.7635 64.892 54.6596 64.9862 54.5765C65.1751 54.4225 65.41 54.3385 65.6521 54.3385C65.8942 54.3385 66.1291 54.4225 66.318 54.5765C66.4104 54.6524 66.4834 54.7498 66.5311 54.8604C66.5787 54.971 66.5996 55.0916 66.5918 55.2121L66.5684 55.9954C66.7054 55.5353 66.9724 55.1264 67.3361 54.8194C67.6854 54.5029 68.1369 54.3284 68.6047 54.3291C68.7054 54.3236 68.806 54.3424 68.8982 54.3837C68.9905 54.4251 69.072 54.4879 69.136 54.5671C69.2624 54.7293 69.3286 54.9315 69.3231 55.1384C69.3264 55.3401 69.2666 55.5377 69.1523 55.7026C69.1003 55.7791 69.0302 55.8412 68.9484 55.8828C68.8666 55.9245 68.7757 55.9444 68.6843 55.9407C68.422 55.9374 68.16 55.9614 67.9024 56.0122C67.6722 56.0615 67.451 56.1474 67.2471 56.2668C67.0316 56.3951 66.8613 56.5892 66.7602 56.8215C66.6373 57.1097 66.5782 57.4217 66.587 57.7356V60.947C66.5959 61.0858 66.5768 61.2249 66.5309 61.356C66.485 61.487 66.4133 61.607 66.3201 61.7089C66.2293 61.7981 66.1218 61.8677 66.0039 61.9135C65.886 61.9593 65.7602 61.9804 65.6341 61.9755C65.5113 61.9778 65.3892 61.9546 65.2754 61.9076C65.1616 61.8605 65.0584 61.7904 64.972 61.7016" fill="#161745"/>
<path d="M40.9582 18.5969C33.0385 18.2882 26.366 24.5547 26.0391 32.6087C26.3674 40.662 33.0389 46.9279 40.9582 46.6207C48.8775 46.9279 55.5491 40.6621 55.8773 32.6087C55.5503 24.5547 48.8779 18.2882 40.9582 18.5969ZM54.2879 29.6759H52.4436C52.389 29.414 52.3258 29.1545 52.254 28.8975H54.0586C54.1452 29.152 54.2202 29.412 54.2855 29.6759H54.2879ZM52.4459 25.6671C52.6215 25.9193 52.7893 26.1788 52.9492 26.4455H51.3108C51.1797 26.1813 51.0392 25.9194 50.8918 25.6671H52.4459ZM49.2206 22.4366C49.5671 22.6809 49.9003 22.9404 50.22 23.2151H49.0779C48.8251 22.9437 48.5607 22.6842 48.2845 22.4366H49.2206ZM39.4742 44.7613C37.0928 44.7618 34.7647 44.0441 32.7843 42.6989C30.8039 41.3537 29.2602 39.4413 28.3485 37.2038C27.4367 34.9663 27.198 32.5041 27.6622 30.1285C28.1265 27.7529 29.273 25.5707 30.9568 23.8579C32.6406 22.1451 34.786 20.9785 37.1217 20.5059C39.4574 20.0332 41.8784 20.2755 44.0787 21.2023C46.279 22.129 48.1596 23.6985 49.4827 25.7124C50.8059 27.7261 51.5121 30.0938 51.5121 32.5158C51.5122 35.7631 50.244 38.8774 47.9865 41.1738C45.729 43.4702 42.6671 44.7606 39.4742 44.7613ZM49.478 42.5951H48.2843C48.5581 42.357 48.8226 42.0876 49.0777 41.8166H50.4354C50.1296 42.0895 49.8105 42.3481 49.4781 42.5925L49.478 42.5951ZM52.5698 39.3648H50.8988C51.0462 39.11 51.1891 38.8502 51.3178 38.5863H53.0549C52.905 38.8504 52.7411 39.1123 52.5703 39.3647L52.5698 39.3648ZM54.1193 36.1344H52.2468C52.3171 35.8772 52.3802 35.6177 52.4364 35.3559H54.3254C54.2691 35.6178 54.1989 35.8774 54.1193 36.1342V36.1344ZM52.7313 32.9039V32.1231H54.639V32.8944L52.7313 32.9039Z" fill="#161745"/>
<path d="M43.3589 38.7827L42.3219 38.1732C42.7618 37.9389 43.1579 37.6279 43.4922 37.2544C44.4535 36.0773 44.9403 34.5732 44.8543 33.0455C44.9404 31.5164 44.4537 30.0109 43.4922 28.832C42.9928 28.3056 42.3869 27.896 41.7164 27.6312C41.0459 27.3666 40.3269 27.2532 39.6091 27.299C38.8921 27.2544 38.1742 27.3683 37.5046 27.633C36.8351 27.8976 36.2299 28.3067 35.7307 28.832C34.7651 30.0089 34.2755 31.5151 34.3612 33.0455C34.2754 34.5744 34.765 36.0792 35.7305 37.2543C36.2304 37.7784 36.8358 38.1863 37.5053 38.4502C38.1747 38.7139 38.8923 38.8274 39.6089 38.7827C39.7541 38.7827 39.8945 38.7827 40.0327 38.7707L42.6893 40.1776C42.8107 40.2475 42.9477 40.2844 43.0872 40.2847C43.1858 40.2845 43.2832 40.2633 43.3731 40.2222C43.463 40.1812 43.5435 40.1214 43.6092 40.0466C43.754 39.8925 43.8331 39.6862 43.8292 39.473C43.8245 39.324 43.7775 39.1797 43.6941 39.0572C43.6106 38.9347 43.4941 38.8394 43.3587 38.7827M39.614 37.0639C39.1835 37.0947 38.7523 37.0157 38.3596 36.834C37.9667 36.6523 37.6248 36.3738 37.3647 36.0236C36.8204 35.133 36.5627 34.092 36.6272 33.0455C36.5644 32 36.8238 30.9606 37.3693 30.0722C37.6272 29.7202 37.9679 29.4399 38.3601 29.2569C38.7523 29.0739 39.1835 28.9941 39.614 29.0248C40.0448 28.9928 40.4766 29.0714 40.8697 29.2536C41.2628 29.4359 41.6045 29.7157 41.8633 30.0675C42.4075 30.9581 42.6653 31.999 42.6007 33.0456C42.666 34.0925 42.4074 35.1338 41.8611 36.0236C41.5993 36.374 41.2554 36.6523 40.8609 36.8333C40.4664 37.0141 40.0337 37.0917 39.6021 37.0592L39.614 37.0639Z" fill="#161745"/>
<path d="M29.293 33.4179C29.2125 33.4179 29.1327 33.4018 29.0583 33.3704C28.9839 33.3391 28.9163 33.2932 28.8593 33.2352C28.8024 33.1774 28.7572 33.1086 28.7263 33.0329C28.6956 32.9572 28.6797 32.8761 28.6797 32.7942C28.6827 29.9863 29.7807 27.2943 31.733 25.3087C33.6852 23.3232 36.3321 22.2063 39.093 22.2031C39.1736 22.2031 39.2533 22.2192 39.3277 22.2506C39.4021 22.2819 39.4697 22.3278 39.5267 22.3858C39.5837 22.4437 39.6288 22.5124 39.6596 22.5881C39.6905 22.6638 39.7063 22.7449 39.7063 22.8268C39.7063 22.9087 39.6905 22.9898 39.6596 23.0655C39.6288 23.1411 39.5837 23.2099 39.5267 23.2678C39.4697 23.3257 39.4021 23.3716 39.3277 23.403C39.2533 23.4343 39.1736 23.4504 39.093 23.4504C36.6574 23.4536 34.3224 24.4391 32.6003 26.1907C30.878 27.9423 29.9092 30.317 29.9062 32.7941C29.9062 32.876 29.8903 32.9572 29.8595 33.0328C29.8287 33.1085 29.7835 33.1773 29.7265 33.2352C29.6697 33.2931 29.602 33.3391 29.5276 33.3704C29.4532 33.4018 29.3735 33.4179 29.293 33.4179Z" fill="#161745"/>
</g>
</g>
</svg>
