<svg width="82" height="82" viewBox="0 0 82 82" fill="none" xmlns="http://www.w3.org/2000/svg">
<rect x="0.179688" y="0.421875" width="80.8383" height="80.8383" rx="10" fill="#EB1659"/>
<mask id="mask0_1226_1105" style="mask-type:luminance" maskUnits="userSpaceOnUse" x="0" y="0" width="82" height="82">
<path d="M81.0102 0.421875H0.171875V81.2602H81.0102V0.421875Z" fill="white"/>
</mask>
<g mask="url(#mask0_1226_1105)">
<path d="M80.99 38.698C80.8785 33.0088 80.5124 27.3706 79.6427 21.743C79.1891 18.8041 78.5364 15.7788 77.5768 12.9428C76.7699 10.5618 75.5925 8.01828 73.5684 6.41581C72.8532 5.84959 71.9842 5.33054 70.9611 4.85863C69.572 4.2174 68.1337 3.68844 66.6601 3.27681C61.4913 1.83108 56.0789 1.18393 50.7395 0.78692L49.2545 0.695378C43.403 0.327538 37.534 0.330738 31.6828 0.704959C31.1545 0.752963 30.6247 0.780058 30.0934 0.786246C29.9928 0.787369 29.9001 0.834225 29.7894 0.841561C25.7964 1.13812 21.666 1.65316 17.7301 2.48333C16.1235 2.8217 14.5366 3.24777 12.9765 3.7596C11.1453 4.3605 9.31514 5.16185 7.75571 6.30878C7.30465 6.63493 6.89598 7.01607 6.5392 7.44336L6.05896 8.01596C5.94747 8.12981 5.85741 8.26274 5.7931 8.40855L5.34841 9.06424C4.30709 10.8232 3.59459 12.7604 3.03688 14.7364C2.56283 16.4176 2.17071 18.118 1.86054 19.8377C0.954547 24.8606 0.460084 30.0197 0.296835 35.0662C0.252225 36.4413 0.194291 37.7859 0.180443 39.1464C0.123931 44.6368 0.343168 50.16 0.951104 55.6191C0.9782 55.8648 1.04841 56.158 1.0669 56.4397C1.0878 56.7565 1.11889 57.0722 1.16016 57.3868C1.66301 61.2541 2.36368 65.1383 3.63329 68.8356C4.19325 70.4654 4.9023 72.0609 5.88718 73.4568C7.07034 75.1347 8.81057 76.249 10.7333 77.0723C13.8008 78.3859 17.1283 79.1689 20.4105 79.7213C23.8761 80.3051 27.3699 80.7056 30.8776 80.9226C30.9901 80.9324 31.1032 80.9346 31.216 80.9309L31.581 80.9795C32.8992 81.0521 34.2202 81.1397 35.539 81.1831C40.192 81.335 44.8196 81.258 49.4669 80.9922C49.5909 80.981 49.7142 80.963 49.8358 80.9368L50.2699 80.9256C53.8208 80.7048 57.3574 80.2954 60.8647 79.6988C64.2629 79.1195 67.7484 78.3171 70.8922 76.868C72.5538 76.1015 74.1456 75.0572 75.1883 73.6065C75.9556 72.5256 76.5851 71.3535 77.0626 70.1169C78.2797 67.021 79.0424 63.7397 79.5678 60.4651C80.1592 56.7621 80.5559 53.0307 80.7565 49.2862C80.9548 45.6267 81.0559 42.0598 80.99 38.698ZM2.56203 57.6956C2.56348 57.6951 2.56508 57.6951 2.56652 57.6956C2.56737 57.6958 2.56815 57.6961 2.56877 57.6967C2.56655 57.6961 2.56426 57.6957 2.56196 57.6956M3.27618 25.1526C3.27678 25.1526 3.2773 25.1532 3.2779 25.1537C3.2785 25.1542 3.28015 25.1565 3.28127 25.1577L3.27618 25.1526ZM31.1823 80.6359C31.1835 80.6359 31.1846 80.6367 31.1856 80.6367C31.1883 80.6374 31.191 80.6382 31.1931 80.6397C31.1897 80.6382 31.1861 80.6367 31.1824 80.6359M77.8104 56.3934C77.8119 56.3927 77.8141 56.3923 77.8156 56.3922H77.8208C77.8171 56.3924 77.8141 56.3928 77.8104 56.3934ZM77.8246 24.9496C77.8223 24.95 77.8201 24.9502 77.8186 24.9502C77.8223 24.9502 77.8261 24.9496 77.8298 24.9484C77.8276 24.9491 77.8261 24.9495 77.8246 24.9496ZM77.8785 57.271C77.8755 57.2736 77.8725 57.2758 77.8695 57.2778C77.8732 57.2755 77.8762 57.2728 77.8785 57.2699C77.8785 57.2705 77.8785 57.2705 77.8785 57.271Z" fill="#EB1659"/>
<mask id="mask1_1226_1105" style="mask-type:luminance" maskUnits="userSpaceOnUse" x="12" y="12" width="57" height="57">
<path d="M68.6533 12.7656H12.5156V68.9033H68.6533V12.7656Z" fill="white"/>
</mask>
<g mask="url(#mask1_1226_1105)">
<path d="M28.4399 12.9221C28.7449 13.095 29.0603 13.2489 29.3844 13.3829C29.7169 13.5189 30.0419 13.6727 30.3579 13.8437L32.1968 14.7883C33.0072 15.2029 34.1877 15.8423 35.7384 16.7066C36.8909 17.3188 37.4671 17.823 37.4671 18.2194C37.4507 18.375 37.3945 18.5236 37.3038 18.651C36.2587 20.2718 35.1686 21.9744 34.0336 23.7589C32.8986 25.5435 31.8084 27.3539 30.7634 29.1903L35.3597 29.2455H36.3332C36.7494 29.2392 37.1653 29.2666 37.577 29.3275C37.8968 29.3804 38.0563 29.5332 38.0563 29.7882V29.8963C37.9124 31.4456 37.7957 32.6621 37.7059 33.5459C37.6162 34.4296 37.5531 35.1138 37.5166 35.5984C37.4815 36.0777 37.4542 36.4287 37.4346 36.6514C37.4153 36.8668 37.3989 37.0659 37.3794 37.2463C37.36 37.4268 37.3436 37.6421 37.3242 37.8965C37.3048 38.1509 37.2788 38.5801 37.2423 39.1938C37.2058 39.8074 37.1439 40.6327 37.0529 41.7071C36.962 42.7815 36.8442 44.1838 36.7004 45.9516C36.6827 46.7914 36.5651 47.626 36.35 48.438C36.2531 48.6801 36.0851 48.8873 35.8681 49.0319C35.651 49.1766 35.3953 49.2521 35.1345 49.2484C33.5138 49.2484 31.8204 49.2571 30.0543 49.2745L24.7796 49.3297C23.0324 49.3476 21.303 49.3563 19.5915 49.3557H14.6452C14.0332 49.3557 13.727 48.9233 13.7266 48.0585L14.7001 34.8695C14.8089 34.0397 14.9081 33.3545 14.9975 32.814C15.087 32.2735 15.1775 31.7779 15.2689 31.3273C15.3584 30.8763 15.4662 30.4352 15.5924 30.0039C15.7186 29.5728 15.8712 29.0685 16.0501 28.4912C16.364 27.8089 16.7254 27.1494 17.1317 26.5177C17.6349 25.7074 18.2111 24.8336 18.8604 23.8963C19.5096 22.959 20.185 22.0134 20.8864 21.0594C21.5894 20.0998 22.2471 19.1989 22.8596 18.3567C23.4721 17.5145 24.0123 16.7848 24.4802 16.1677C24.9483 15.5557 25.2546 15.1416 25.3989 14.9257C25.5078 14.7818 25.6427 14.5924 25.8037 14.3575C25.9768 14.1107 26.1665 13.876 26.3718 13.6552C26.584 13.4248 26.8193 13.2167 27.0739 13.0342C27.2909 12.8671 27.5553 12.7731 27.829 12.7656C28.0415 12.7691 28.25 12.8233 28.4373 12.9237L28.4399 12.9221Z" fill="white"/>
<path d="M52.6865 68.7536C52.3806 68.5804 52.0642 68.4265 51.739 68.2929C51.4063 68.1572 51.0813 68.0033 50.7655 67.8321L48.9265 66.8875C48.1162 66.4729 46.9367 65.8334 45.388 64.9691C44.234 64.357 43.6578 63.8528 43.6593 63.4563C43.6755 63.3012 43.7309 63.1527 43.8203 63.0247C44.8654 61.404 45.9555 59.7014 47.0905 57.9169C48.2255 56.1323 49.3157 54.3218 50.3608 52.4855L45.7667 52.4303H44.7934C44.3773 52.4366 43.9613 52.4092 43.5496 52.3483C43.2298 52.2953 43.07 52.1428 43.0703 51.8905V51.7824C43.2142 50.2331 43.331 49.0167 43.4207 48.1329C43.5104 47.2491 43.5735 46.564 43.61 46.0774C43.6451 45.5973 43.6724 45.2463 43.692 45.0244C43.7113 44.809 43.7277 44.6099 43.7472 44.4295C43.7666 44.249 43.783 44.0337 43.8023 43.7793C43.8218 43.5249 43.8478 43.0956 43.8843 42.482C43.9209 41.8684 43.9827 41.0431 44.0737 39.9687C44.1646 38.8944 44.2795 37.4923 44.4259 35.7244C44.4431 34.8846 44.5608 34.0499 44.7763 33.238C44.8733 32.9956 45.0417 32.7882 45.2592 32.6435C45.4766 32.4988 45.7329 32.4236 45.994 32.4277C47.6154 32.4277 49.3087 32.4191 51.0742 32.4016L56.3489 32.3465C58.0961 32.3286 59.8255 32.3199 61.5371 32.3203H66.483C67.095 32.3203 67.4012 32.7528 67.4017 33.6176L66.4278 46.8066C66.319 47.6363 66.2198 48.3215 66.1303 48.862C66.0409 49.4026 65.9504 49.8981 65.859 50.3487C65.7695 50.7998 65.6616 51.2409 65.5354 51.672C65.4093 52.1033 65.2567 52.6075 65.0777 53.1848C64.7639 53.8673 64.4025 54.5268 63.9962 55.1586C63.4931 55.9689 62.9168 56.8427 62.2675 57.78C61.619 58.717 60.9437 59.6625 60.2417 60.6166C59.5388 61.5753 58.881 62.477 58.2685 63.3214C57.656 64.1659 57.1158 64.8956 56.6479 65.5104C56.1798 66.1226 55.8736 66.5366 55.7292 66.7525C55.6204 66.8964 55.4855 67.0858 55.3244 67.3206C55.1514 67.5675 54.9616 67.8021 54.7564 68.0229C54.5441 68.2534 54.3089 68.4615 54.0542 68.644C53.8372 68.811 53.5729 68.9051 53.2991 68.9125C53.0855 68.9088 52.8759 68.8539 52.6878 68.7523L52.6865 68.7536Z" fill="white"/>
<path fill-rule="evenodd" clip-rule="evenodd" d="M20.5666 35.8994H61.1167C61.4383 35.8867 61.7517 36.0023 61.9881 36.2207C62.2245 36.439 62.3644 36.7424 62.3772 37.064C62.3772 37.0751 62.378 37.087 62.378 37.0983V44.9176C62.395 45.2352 62.2852 45.5465 62.0727 45.7831C61.8602 46.0196 61.5625 46.162 61.245 46.1791C61.2023 46.1813 61.1595 46.1813 61.1168 46.1791H20.5667C20.245 46.1755 19.9379 46.0443 19.713 45.8143C19.4881 45.5843 19.3637 45.2743 19.3673 44.9526C19.3673 44.9414 19.3673 44.9295 19.3681 44.9183V37.099C19.3776 36.7841 19.5069 36.4847 19.7296 36.2619C19.9524 36.0391 20.2518 35.9097 20.5667 35.9001L20.5666 35.8994Z" fill="#E7205B"/>
<path d="M28.0701 44.3623C27.7912 44.6164 27.4263 44.7552 27.0489 44.7509C26.8771 44.7512 26.7063 44.7246 26.5428 44.6719C26.3833 44.6175 26.223 44.5588 26.0634 44.4945C25.9025 44.4296 25.7421 44.3699 25.5841 44.317C25.4298 44.2648 25.2679 44.238 25.1049 44.238C24.9478 44.2366 24.7918 44.2633 24.6441 44.317C24.4538 44.3992 24.2781 44.5118 24.1238 44.6503V43.7556C24.2734 43.5959 24.4632 43.4793 24.6732 43.4179C24.3745 43.3985 24.0796 43.3404 23.7959 43.2449C23.5292 43.1541 23.289 42.9993 23.0962 42.7938C22.8809 42.5539 22.7219 42.2689 22.6311 41.9596C22.5076 41.5264 22.4511 41.0768 22.4634 40.6265C22.4462 40.1299 22.5192 39.6343 22.6788 39.1636C22.7956 38.8339 22.9966 38.5404 23.2617 38.3122C23.5111 38.1104 23.8071 37.9743 24.1227 37.9165C24.8221 37.7883 25.5389 37.7883 26.2382 37.9165C26.5538 37.9745 26.8498 38.1106 27.0992 38.3122C27.3641 38.5407 27.565 38.8341 27.6822 39.1636C27.8418 39.6343 27.9147 40.1299 27.8976 40.6265C27.9096 41.077 27.852 41.5267 27.7269 41.9596C27.6328 42.2706 27.4689 42.556 27.2475 42.7938C27.0486 43.0012 26.8015 43.1561 26.5281 43.2449C26.2427 43.3404 25.9459 43.3985 25.6456 43.4179C25.7805 43.4522 25.9128 43.4963 26.0413 43.5499C26.171 43.6028 26.2972 43.6523 26.42 43.6982C26.5427 43.7442 26.6617 43.7835 26.777 43.816C26.8852 43.8481 26.9974 43.8652 27.1102 43.8667C27.2767 43.863 27.4403 43.8228 27.5895 43.7489C27.7561 43.6713 27.9117 43.5719 28.0524 43.4537L28.0711 44.3624L28.0701 44.3623ZM25.1689 42.5401C25.3691 42.5405 25.5692 42.5308 25.7683 42.5111C25.9544 42.4934 26.1309 42.4198 26.2745 42.3001C26.4414 42.1466 26.5626 41.95 26.6248 41.732C26.7977 41.005 26.7977 40.2476 26.6248 39.5206C26.5626 39.3008 26.4397 39.1032 26.27 38.9502C26.1242 38.8312 25.9466 38.7578 25.7593 38.7392C25.5722 38.7206 25.3665 38.7102 25.1697 38.7102C24.9669 38.7102 24.7649 38.7192 24.5629 38.7392C24.3766 38.7566 24.2001 38.8302 24.0567 38.9502C23.8901 39.1039 23.7704 39.3017 23.7116 39.5206C23.5427 40.2481 23.5427 41.0045 23.7116 41.732C23.7706 41.9502 23.8903 42.1472 24.0567 42.3001C24.2001 42.4203 24.3766 42.4939 24.5629 42.5111C24.766 42.5312 24.97 42.5409 25.1742 42.5401H25.1689Z" fill="white"/>
<path d="M33.4349 37.9453H34.5404V41.0819C34.5456 41.4451 34.5173 41.808 34.4561 42.166C34.4145 42.4356 34.301 42.689 34.1274 42.8996C33.9418 43.1016 33.7022 43.2464 33.4371 43.3171C32.6641 43.4961 31.8605 43.4961 31.0875 43.3171C30.8194 43.2472 30.5767 43.1024 30.3879 42.8996C30.2119 42.6896 30.0953 42.4363 30.0502 42.166C29.9861 41.8083 29.9563 41.4452 29.9615 41.0819V37.9453H31.067V41.0625C31.0644 41.2877 31.0771 41.5129 31.105 41.7364C31.1215 41.8993 31.1775 42.0557 31.2682 42.1919C31.3591 42.3133 31.4858 42.403 31.6305 42.4485C32.0426 42.5538 32.4745 42.5538 32.8866 42.4485C33.0303 42.4052 33.1553 42.3148 33.2415 42.1919C33.3268 42.0537 33.3799 41.898 33.3969 41.7364C33.4248 41.5129 33.4376 41.2877 33.4349 41.0625V37.9453Z" fill="white"/>
<path d="M36.479 40.6265C36.4626 40.1299 36.5355 39.6344 36.6944 39.1637C36.8114 38.8341 37.0123 38.5406 37.2774 38.3122C37.5267 38.1104 37.8227 37.9743 38.1383 37.9165C38.8377 37.7883 39.5545 37.7883 40.2539 37.9165C40.5694 37.9745 40.8654 38.1106 41.1149 38.3122C41.3798 38.5407 41.5807 38.8341 41.6978 39.1637C41.9851 40.1177 41.9851 41.1353 41.6978 42.0894C41.5809 42.4191 41.38 42.7126 41.1149 42.9408C40.8655 43.1426 40.5694 43.2787 40.2539 43.3365C39.5548 43.4678 38.8374 43.4678 38.1383 43.3365C37.8228 43.2785 37.5268 43.1425 37.2774 42.9408C37.0124 42.7124 36.8115 42.4189 36.6944 42.0894C36.5349 41.6188 36.4619 41.1231 36.479 40.6265ZM39.1961 38.7082C38.9933 38.7082 38.7913 38.7172 38.5893 38.7373C38.4032 38.7549 38.2268 38.8285 38.0832 38.9483C37.9165 39.102 37.7968 39.2997 37.738 39.5186C37.5691 40.246 37.5691 41.0026 37.738 41.7299C37.797 41.9482 37.9167 42.1452 38.0832 42.2981C38.2265 42.4183 38.403 42.4919 38.5893 42.5091C38.9904 42.5478 39.3944 42.5478 39.7954 42.5091C39.9816 42.4918 40.1582 42.4181 40.3015 42.2981C40.4685 42.1446 40.5898 41.9481 40.6519 41.7299C40.8249 41.003 40.8249 40.2456 40.6519 39.5186C40.5898 39.2989 40.4668 39.1011 40.2971 38.9483C40.1514 38.8292 39.9737 38.7558 39.7864 38.7373C39.5902 38.7192 39.3932 38.7112 39.1961 38.7133V38.7082V38.7082Z" fill="white"/>
<path d="M44.8257 43.3595V38.8467H43.1641L43.2483 37.9453H47.7097L47.6255 38.8467H45.9475V43.3595L44.8257 43.3595Z" fill="white"/>
<path d="M49.1875 43.3595V37.9453H53.2344L53.1502 38.8467H50.2999V40.1029H52.5176V41.0044H50.2999V42.4432H53.2347L53.1504 43.3543L49.1875 43.3595Z" fill="white"/>
<path d="M58.5405 39.0225C58.4615 38.9934 58.3579 38.9628 58.229 38.9292C58.1 38.8957 57.9554 38.8644 57.7995 38.8308C57.6437 38.7972 57.476 38.7756 57.3031 38.754C57.1321 38.7347 56.9601 38.7249 56.788 38.7249C56.5276 38.7115 56.2674 38.7547 56.0254 38.8517C55.9416 38.8928 55.8723 38.9583 55.8265 39.0396C55.7807 39.1209 55.7606 39.2142 55.7689 39.3072C55.7674 39.4058 55.7713 39.5044 55.7809 39.6024C55.7856 39.6632 55.809 39.721 55.848 39.768C55.8942 39.8166 55.9518 39.8531 56.0156 39.874C56.0902 39.903 56.193 39.9365 56.3227 39.9746C56.6426 40.0529 56.9616 40.1252 57.2822 40.1908C57.5801 40.2489 57.8704 40.3407 58.1476 40.4645C58.3977 40.5763 58.6168 40.7475 58.7857 40.9633C58.9662 41.222 59.0563 41.5331 59.0421 41.8482C59.0533 42.1228 58.998 42.3959 58.8811 42.6445C58.7792 42.8421 58.625 43.0079 58.4354 43.1239C58.2243 43.249 57.9904 43.3308 57.7473 43.3642C57.4552 43.4081 57.1601 43.4291 56.8647 43.4268C56.668 43.4268 56.4607 43.4171 56.2416 43.3978C56.0224 43.3784 55.8077 43.3483 55.5968 43.3091C55.3858 43.2699 55.1876 43.2255 55.0019 43.1771C54.8424 43.1392 54.6872 43.0844 54.5391 43.0139C54.5838 42.8446 54.626 42.691 54.6658 42.5531C54.7038 42.4166 54.7501 42.2728 54.8001 42.1266C54.8843 42.1602 54.9961 42.1997 55.1333 42.2444C55.2906 42.2952 55.4507 42.3375 55.6126 42.3711C55.7981 42.4114 56.0039 42.4449 56.2283 42.4718C56.467 42.5003 56.7073 42.514 56.9477 42.5127C57.1071 42.5127 57.2495 42.509 57.374 42.5008C57.4852 42.4955 57.5947 42.471 57.6976 42.4285C57.7849 42.3912 57.8563 42.324 57.8989 42.2391C57.9496 42.1237 57.9725 41.9981 57.9659 41.8722C57.9686 41.7752 57.9572 41.6783 57.9323 41.5845C57.9127 41.5164 57.8727 41.456 57.8176 41.4115C57.7545 41.3646 57.6828 41.3304 57.6067 41.3109C57.5186 41.2855 57.4128 41.2594 57.2906 41.2318C56.8113 41.1312 56.4117 41.04 56.092 40.9582C55.8083 40.896 55.5364 40.789 55.2864 40.6413C55.0894 40.5216 54.9333 40.3452 54.8384 40.1351C54.7349 39.8663 54.6877 39.579 54.6997 39.2911C54.6944 39.0646 54.748 38.8406 54.8552 38.641C54.9594 38.4553 55.1067 38.2972 55.2846 38.1802C55.4788 38.0544 55.6927 37.9619 55.9174 37.9066C56.1666 37.8432 56.4229 37.8118 56.68 37.8133C56.8808 37.8099 57.0816 37.8171 57.2816 37.835C57.4851 37.8566 57.6843 37.8707 57.8763 37.8976C58.0684 37.9245 58.2453 37.9602 58.4108 37.9982C58.5569 38.0311 58.699 38.0794 58.8349 38.1421L58.5405 39.0225Z" fill="white"/>
</g>
</g>
</svg>
