<svg width="82" height="82" viewBox="0 0 82 82" fill="none" xmlns="http://www.w3.org/2000/svg">
<rect x="0.671875" y="0.257812" width="80.8383" height="80.8383" rx="10" fill="#B0506A"/>
<mask id="mask0_1226_1182" style="mask-type:luminance" maskUnits="userSpaceOnUse" x="0" y="0" width="82" height="82">
<path d="M81.5102 0.265625H0.671875V81.104H81.5102V0.265625Z" fill="white"/>
</mask>
<g mask="url(#mask0_1226_1182)">
<path d="M81.49 38.5417C81.3785 32.8526 81.0124 27.2144 80.1427 21.5867C79.6891 18.6479 79.0364 15.6226 78.0768 12.7865C77.2699 10.4056 76.0925 7.86203 74.0684 6.25956C73.3532 5.69334 72.4842 5.17429 71.4611 4.70238C70.072 4.06115 68.6337 3.53219 67.1601 3.12056C61.9913 1.67483 56.5789 1.02768 51.2395 0.63067L49.7545 0.539128C43.903 0.171288 38.034 0.174488 32.1828 0.548709C31.6545 0.596713 31.1247 0.623808 30.5934 0.629996C30.4928 0.631119 30.4001 0.677975 30.2894 0.685311C26.2964 0.981867 22.166 1.49691 18.2301 2.32708C16.6235 2.66545 15.0366 3.09152 13.4765 3.60335C11.6453 4.20425 9.81514 5.0056 8.25571 6.15253C7.80465 6.47868 7.39598 6.85982 7.0392 7.28711L6.55896 7.85971C6.44747 7.97356 6.35741 8.10649 6.2931 8.2523L5.84841 8.90799C4.80709 10.667 4.09459 12.6042 3.53688 14.5801C3.06283 16.2614 2.67071 17.9617 2.36054 19.6814C1.45455 24.7044 0.960084 29.8635 0.796835 34.9099C0.752225 36.2851 0.694291 37.6297 0.680443 38.9902C0.623931 44.4805 0.843168 50.0038 1.4511 55.4629C1.4782 55.7085 1.54841 56.0018 1.5669 56.2834C1.5878 56.6003 1.61889 56.9159 1.66016 57.2305C2.16301 61.0978 2.86368 64.9821 4.13329 68.6794C4.69325 70.3092 5.4023 71.9046 6.38718 73.3006C7.57034 74.9784 9.31057 76.0927 11.2333 76.9161C14.3008 78.2297 17.6283 79.0126 20.9105 79.565C24.3761 80.1489 27.8699 80.5493 31.3776 80.7664C31.4901 80.7761 31.6032 80.7783 31.716 80.7746L32.081 80.8233C33.3992 80.8959 34.7202 80.9834 36.039 81.0268C40.692 81.1788 45.3196 81.1017 49.9669 80.836C50.0909 80.8248 50.2142 80.8068 50.3358 80.7806L50.7699 80.7694C54.3208 80.5486 57.8574 80.1391 61.3647 79.5426C64.7629 78.9632 68.2484 78.1608 71.3922 76.7117C73.0538 75.9453 74.6456 74.901 75.6883 73.4502C76.4556 72.3694 77.0851 71.1972 77.5626 69.9607C78.7797 66.8648 79.5424 63.5834 80.0678 60.3088C80.6592 56.6059 81.0559 52.8745 81.2565 49.1299C81.4548 45.4704 81.5559 41.9036 81.49 38.5417ZM3.06203 57.5394C3.06348 57.5388 3.06508 57.5388 3.06652 57.5394C3.06737 57.5395 3.06815 57.5399 3.06877 57.5405C3.06655 57.5398 3.06426 57.5394 3.06196 57.5394M3.77618 24.9963C3.77678 24.9963 3.7773 24.9969 3.7779 24.9974C3.7785 24.998 3.78015 25.0003 3.78127 25.0014L3.77618 24.9963ZM31.6823 80.4797C31.6835 80.4797 31.6846 80.4804 31.6856 80.4804C31.6883 80.4812 31.691 80.4819 31.6931 80.4834C31.6897 80.4819 31.6861 80.4804 31.6824 80.4797M78.3104 56.2371C78.3119 56.2364 78.3141 56.2361 78.3156 56.236H78.3208C78.3171 56.2361 78.3141 56.2365 78.3104 56.2371ZM78.3246 24.7933C78.3223 24.7938 78.3201 24.794 78.3186 24.7939C78.3223 24.7939 78.3261 24.7933 78.3298 24.7922C78.3276 24.7929 78.3261 24.7932 78.3246 24.7933ZM78.3785 57.1147C78.3755 57.1173 78.3725 57.1196 78.3695 57.1215C78.3732 57.1192 78.3762 57.1165 78.3785 57.1136C78.3785 57.1142 78.3785 57.1142 78.3785 57.1147Z" fill="#B0506A"/>
<mask id="mask1_1226_1182" style="mask-type:luminance" maskUnits="userSpaceOnUse" x="13" y="12" width="57" height="57">
<path d="M69.1612 12.6172H13.0234V68.7549H69.1612V12.6172Z" fill="white"/>
</mask>
<g mask="url(#mask1_1226_1182)">
<mask id="mask2_1226_1182" style="mask-type:luminance" maskUnits="userSpaceOnUse" x="19" y="12" width="44" height="57">
<path d="M62.628 12.6562H19.4922V68.794H62.628V12.6562Z" fill="white"/>
</mask>
<g mask="url(#mask2_1226_1182)">
<path d="M62.4416 68.4016C59.0305 61.7357 55.62 55.0694 52.2051 48.4052C52.1147 48.2287 52.0946 48.1197 52.2726 47.9731C55.1604 45.5891 57.0901 42.5582 58.2231 39.0115C58.5138 38.1011 58.6929 37.1558 58.9238 36.2264C58.8607 36.1169 58.7877 36.0134 58.736 35.8996C58.0407 34.3577 57.0384 33.0545 55.7131 32.0013C54.1309 30.7445 52.3189 29.9681 50.3872 29.4375C49.0314 29.0648 47.6479 28.8436 46.2535 28.6856C45.7428 28.6278 45.2283 28.6039 44.6975 28.5625C44.8336 28.951 44.9822 29.3013 45.0791 29.6652C45.4478 31.055 45.4455 32.4656 45.2273 33.8739C45.0557 34.9793 44.6795 36.0177 43.9815 36.9096C43.3641 37.699 42.5991 38.1305 41.5352 38.1246C36.1455 38.093 30.7553 38.1098 25.3651 38.1104C24.2305 38.1104 23.1699 38.379 22.2394 39.0442C20.3958 40.3626 19.5176 42.2144 19.5095 44.4341C19.4795 52.4516 19.4975 60.469 19.498 68.4865C19.498 68.5824 19.5072 68.6789 19.5116 68.7753C19.5759 68.7846 19.6113 68.7938 19.6467 68.7938C24.3933 68.7949 29.1399 68.796 33.8872 68.7911C34.0494 68.7911 34.2116 68.7906 34.3739 68.7906C34.3799 68.7906 34.3859 68.7906 34.3919 68.79C34.4833 68.7835 34.5862 68.7323 34.6581 68.6734C35.0098 68.3858 35.3947 68.1623 35.8526 68.1346C36.4036 68.1008 36.9574 68.0959 37.51 68.0981C37.725 68.0992 37.8116 68.0528 37.8089 67.8147C37.7975 66.6069 37.7975 65.3991 37.8095 64.1918C37.8116 63.9755 37.7267 63.9079 37.5383 63.8779C37.2263 63.8289 36.9089 63.7902 36.6062 63.7031C33.5833 62.8302 31.5541 60.9894 30.9236 57.8087C30.8528 57.4529 30.849 57.0841 30.812 56.6978C31.425 56.6978 31.969 56.7088 32.5124 56.6924C32.7481 56.6853 32.8238 56.7572 32.8325 56.9953C32.8723 58.0811 33.2523 59.0498 33.9209 59.8981C35.4301 61.8136 38.0681 62.6619 40.4817 61.9597C42.5958 61.344 44.0637 60.0278 44.6343 57.8387C44.7291 57.4758 44.7525 57.0939 44.8124 56.6984C45.4058 56.6984 45.9944 56.6929 46.5824 56.7082C46.6369 56.7098 46.7343 56.8449 46.7333 56.9174C46.7245 57.6202 46.6069 58.3088 46.35 58.9626C45.2316 61.8088 43.0625 63.332 40.125 63.8671C39.8866 63.9101 39.7864 63.9695 39.7897 64.2326C39.8032 65.4126 39.8044 66.5933 39.7891 67.7734C39.7853 68.0469 39.8768 68.1079 40.1305 68.0992C40.6467 68.0806 41.1645 68.0877 41.6817 68.0954C42.2534 68.104 42.763 68.2806 43.204 68.6587C43.2955 68.7377 43.4419 68.79 43.5634 68.79H43.7436C49.9538 68.796 56.1634 68.7954 62.3735 68.7949C62.4487 68.7944 62.5238 68.7829 62.6278 68.7742C62.5543 68.6271 62.4988 68.5138 62.4416 68.4016ZM42.1265 47.6801C41.1203 47.6871 40.1142 47.6823 39.108 47.6823H38.6729C37.5584 47.6823 36.4434 47.6833 35.3283 47.6823C34.6297 47.6811 34.3853 47.4332 34.3848 46.7299C34.3848 46.385 34.3821 46.0402 34.3859 45.6958C34.3907 45.2207 34.6134 44.9734 35.0795 44.9249C35.2058 44.9118 35.3327 44.9075 35.4595 44.9075C37.6167 44.9064 39.7739 44.9064 41.9316 44.908C42.0851 44.908 42.2398 44.9151 42.3922 44.9353C42.7412 44.9811 42.9607 45.2278 42.965 45.5787C42.9705 45.9955 42.9672 46.4128 42.9666 46.8302C42.966 47.4104 42.7124 47.6757 42.1265 47.6801ZM42.9666 49.1892C42.9677 49.5972 42.9677 50.0053 42.9666 50.4134C42.965 50.9348 42.7244 51.1832 42.2065 51.1843C41.0376 51.1876 39.8681 51.1854 38.6991 51.1854C37.5301 51.1854 36.3786 51.187 35.2189 51.1849C34.6385 51.1838 34.3886 50.9353 34.3853 50.3606C34.3831 49.9704 34.3804 49.5804 34.3864 49.1903C34.3934 48.7097 34.6684 48.4254 35.1481 48.4243C37.5045 48.4199 39.861 48.4204 42.218 48.4237C42.7009 48.4249 42.965 48.7032 42.9666 49.1892ZM42.683 44.1556C41.3496 44.1458 40.0162 44.1507 38.6827 44.1507C37.3494 44.1507 36.0339 44.1513 34.7092 44.1507C34.3891 44.1507 34.3663 44.124 34.3881 43.8119C34.4784 42.5288 35.4835 41.4256 36.7684 41.3542C38.0501 41.2829 39.3427 41.2823 40.6244 41.3558C41.925 41.4305 42.959 42.6094 42.971 43.862C42.9732 44.0859 42.9116 44.1573 42.683 44.1556ZM40.3821 59.8861C39.2506 59.9422 38.1143 59.9133 36.9813 59.8932C35.5641 59.8676 34.3962 58.6782 34.3875 57.2618C34.3771 55.5918 34.3864 53.9215 34.3826 52.2516C34.3826 52.0636 34.4022 51.9546 34.6428 51.9558C37.3455 51.9639 40.0488 51.9606 42.7515 51.9612C42.8131 51.9612 42.8746 51.9704 42.9666 51.9775V52.2838C42.9666 53.9356 42.9339 55.588 42.9775 57.2388C43.0102 58.4799 42.0176 59.8055 40.3821 59.8861ZM46.0603 46.8689C46.0526 47.1946 45.8827 47.3853 45.5735 47.4714C45.4684 47.5008 45.3601 47.5602 45.2817 47.6354C44.9419 47.9606 44.5287 48.0865 44.0746 48.1268C43.8568 48.1459 43.7937 48.0593 43.7958 47.8463C43.8045 46.7751 43.8013 45.7034 43.7991 44.6323C43.7953 42.6835 42.4216 41.1069 40.4827 40.9401C39.1488 40.8257 37.797 40.7641 36.469 40.999C34.9276 41.2719 33.7058 42.6209 33.6018 44.1829C33.5229 45.3668 33.5604 46.5588 33.5479 47.7471C33.5441 48.1481 33.5077 48.1786 33.1064 48.1088C32.6937 48.0374 32.3283 47.8795 32.031 47.5738C31.975 47.5166 31.8786 47.4894 31.7958 47.4676C31.4969 47.3891 31.333 47.193 31.3287 46.8835C31.3244 46.5839 31.3244 46.2842 31.3287 45.9846C31.3336 45.6817 31.4909 45.5013 31.7833 45.4251C31.8726 45.4016 31.9543 45.3445 32.0343 45.2943C32.2771 45.1418 32.5058 44.9582 32.7644 44.841C32.9272 44.7674 32.9741 44.6918 32.9827 44.5256C33.0677 42.907 33.8027 41.6767 35.2101 40.865C35.7677 40.5435 36.3813 40.3899 36.9535 40.3517C37.0276 40.2259 37.0515 40.124 37.106 40.1039C37.2562 40.0483 37.418 39.9993 37.5759 39.9971C38.3109 39.9868 39.0459 39.9916 39.7809 39.9933C40.0352 39.9938 40.253 40.0679 40.4376 40.2635C40.5138 40.3447 40.6548 40.3839 40.7729 40.4035C42.8458 40.7549 44.3256 42.4455 44.3702 44.5338C44.3741 44.7124 44.4334 44.7838 44.6006 44.8345C44.7705 44.8857 44.9343 44.9751 45.084 45.0731C45.304 45.218 45.4646 45.4332 45.7538 45.4981C45.9688 45.546 46.0553 45.7732 46.0598 45.9977C46.0663 46.288 46.0673 46.579 46.0603 46.8689Z" fill="white"/>
<path d="M58.9229 36.225C58.5592 34.3432 57.8465 32.6183 56.6187 31.1288C55.2015 29.4093 53.3868 28.2734 51.3156 27.5057C49.6164 26.8759 47.8615 26.5082 46.0675 26.293C44.5169 26.1072 42.9624 26.0271 41.402 26.0277C36.0662 26.0293 30.7299 25.9732 25.3953 26.0495C22.2303 26.0947 20.2441 23.8283 19.7198 21.5591C19.5864 20.9816 19.5129 20.378 19.5064 19.7852C19.4819 17.534 19.4965 15.2817 19.4965 13.03V12.6753C19.6201 12.6694 19.7247 12.6601 19.8298 12.6601C27.4245 12.6596 35.0198 12.6655 42.6151 12.6563C45.1011 12.653 47.4113 13.2709 49.5706 14.4929C52.6392 16.2292 54.8906 18.7517 56.5828 21.8032C57.8285 24.05 58.6458 26.4526 59.0318 28.9936C59.2931 30.7125 59.3421 32.4423 59.1625 34.1743C59.0912 34.8586 59.0035 35.5412 58.9234 36.2244V36.225H58.9229Z" fill="white"/>
</g>
</g>
</g>
</svg>
