<svg width="81" height="82" viewBox="0 0 81 82" fill="none" xmlns="http://www.w3.org/2000/svg">
<rect width="81" height="81" rx="10" fill="#1306A3"/>
<path d="M80.9798 38.3449C80.868 32.6443 80.5013 26.9948 79.6298 21.3559C79.1753 18.4112 78.5213 15.3799 77.5598 12.5381C76.7513 10.1524 75.5715 7.60379 73.5433 5.99811C72.8267 5.43076 71.9559 4.91067 70.9308 4.43781C69.539 3.7953 68.0978 3.26529 66.6212 2.85284C61.442 1.40421 56.0189 0.755762 50.6687 0.357962L49.1808 0.266237C43.3176 -0.102338 37.4369 -0.0991318 31.574 0.275837C31.0446 0.323937 30.5138 0.351087 29.9813 0.357287C29.8805 0.358412 29.7877 0.405362 29.6768 0.412712C25.6757 0.709862 21.5372 1.22594 17.5934 2.05776C15.9836 2.39682 14.3935 2.82373 12.8303 3.33659C10.9954 3.93869 9.16155 4.74164 7.599 5.89086C7.14704 6.21767 6.73755 6.59957 6.38006 7.02771L5.89886 7.60146C5.78714 7.71554 5.6969 7.84874 5.63246 7.99484L5.18689 8.65184C4.14349 10.4143 3.42956 12.3554 2.87074 14.3353C2.39573 16.0199 2.00284 17.7237 1.69204 19.4468C0.784237 24.4798 0.288785 29.6492 0.12521 34.7058C0.0805102 36.0837 0.0224605 37.431 0.00858547 38.7942C-0.0480395 44.2955 0.171635 49.8298 0.780787 55.2998C0.807937 55.546 0.878288 55.8398 0.896813 56.122C0.91776 56.4395 0.948908 56.7558 0.990263 57.071C1.49411 60.946 2.19619 64.8381 3.46834 68.5428C4.02941 70.1758 4.73989 71.7745 5.72674 73.1732C6.91226 74.8544 8.65598 75.9709 10.5826 76.7959C13.6562 78.1122 16.9904 78.8967 20.2791 79.4502C23.7516 80.0352 27.2525 80.4364 30.7671 80.6539C30.8799 80.6637 30.9932 80.6659 31.1063 80.6622L31.472 80.7109C32.7928 80.7837 34.1165 80.8714 35.4379 80.9149C40.1002 81.0672 44.737 80.9899 49.3936 80.7237C49.5179 80.7124 49.6414 80.6944 49.7633 80.6682L50.1983 80.6569C53.7563 80.4357 57.2999 80.0254 60.8142 79.4277C64.2192 78.8472 67.7117 78.0432 70.8617 76.5912C72.5267 75.8232 74.1217 74.7768 75.1665 73.3231C75.9353 72.2401 76.566 71.0656 77.0445 69.8266C78.264 66.7246 79.0283 63.4366 79.5548 60.1555C80.1473 56.4451 80.5448 52.7062 80.7458 48.9542C80.9445 45.2874 81.0458 41.7134 80.9798 38.3449ZM2.39494 57.3805C2.39639 57.3799 2.39799 57.3799 2.39944 57.3805C2.40029 57.3806 2.40107 57.381 2.40169 57.3816C2.39947 57.3809 2.39717 57.3805 2.39486 57.3805M3.11051 24.7723C3.11111 24.7723 3.11164 24.7729 3.11224 24.7735C3.11284 24.774 3.11449 24.7763 3.11561 24.7774L3.11051 24.7723ZM31.0724 80.3667C31.0736 80.3667 31.0748 80.3674 31.0758 80.3674C31.0785 80.3682 31.0811 80.3689 31.0833 80.3704C31.0799 80.3689 31.0763 80.3674 31.0726 80.3667M77.7938 56.0756C77.7953 56.0749 77.7975 56.0746 77.799 56.0745H77.8043C77.8005 56.0746 77.7975 56.075 77.7938 56.0756ZM77.808 24.5689C77.8057 24.5694 77.8035 24.5696 77.802 24.5695C77.8058 24.5695 77.8095 24.5689 77.8133 24.5678C77.811 24.5685 77.8095 24.5689 77.808 24.5689ZM77.862 56.955C77.859 56.9576 77.856 56.9599 77.853 56.9618C77.8568 56.9595 77.8598 56.9568 77.862 56.9539C77.862 56.9545 77.862 56.9545 77.862 56.955Z" fill="#1306A3"/>
<path d="M12 81.0312H68.112V72.4992C68.112 68.3571 64.7541 64.9993 60.612 64.9993H19.5C15.3579 64.9993 12 68.3571 12 72.4993V81.0312Z" fill="white"/>
<path d="M32.3366 75.9424V78.875H30.2969V70.5001H33.586C34.4142 70.4419 35.2325 70.7075 35.868 71.2408C36.1321 71.5 36.3384 71.8121 36.4733 72.1564C36.6083 72.5007 36.6687 72.8697 36.6508 73.239C36.6596 73.7258 36.5391 74.2062 36.3015 74.6314C36.0577 75.047 35.6956 75.3814 35.2613 75.5907C34.7384 75.8382 34.1645 75.9589 33.5861 75.9424H32.3366ZM34.5932 73.2391C34.5932 72.5043 34.1852 72.1369 33.3693 72.1369H32.3366V74.3183H33.3693C34.1868 74.3183 34.5956 73.9586 34.5957 73.2391H34.5932Z" fill="#1306A3"/>
<path d="M41.2689 72.5518C41.6623 72.316 42.113 72.1927 42.5719 72.1954V74.3644H41.9882C41.5441 74.3371 41.1035 74.458 40.7359 74.7081C40.5757 74.8532 40.4519 75.0342 40.3744 75.2352C40.2969 75.4369 40.2679 75.6537 40.2896 75.8689V78.8929H38.25V72.2743H40.2897V73.519C40.533 73.1223 40.8689 72.7903 41.2688 72.5517" fill="#1306A3"/>
<path d="M48.8811 72.5973C49.3942 72.8642 49.8192 73.2735 50.1049 73.7758C50.3964 74.332 50.5486 74.9504 50.5486 75.5779C50.5486 76.2056 50.3964 76.8244 50.1049 77.3801C49.8195 77.8834 49.3944 78.2936 48.8811 78.5614C48.3312 78.8306 47.7267 78.9709 47.1141 78.9709C46.5014 78.9709 45.8969 78.8306 45.347 78.5614C44.8313 78.2944 44.4043 77.8841 44.118 77.3801C43.8249 76.8244 43.6718 76.2056 43.6719 75.5779C43.6718 74.9497 43.8249 74.3312 44.118 73.7755C44.4045 73.2721 44.8316 72.8627 45.347 72.5973C45.8969 72.3277 46.5014 72.1875 47.1141 72.1875C47.7267 72.1875 48.3312 72.3277 48.8811 72.5973ZM46.1372 74.3637C45.8514 74.7024 45.7088 75.1384 45.7394 75.5801C45.7081 76.0196 45.8509 76.4539 46.1372 76.7899C46.262 76.9234 46.4137 77.0299 46.5824 77.1011C46.7512 77.1731 46.933 77.2084 47.1163 77.2046C47.299 77.2091 47.4805 77.1746 47.6485 77.1026C47.8165 77.0314 47.9672 76.9241 48.0903 76.7899C48.3731 76.4524 48.5139 76.0189 48.483 75.5801C48.5132 75.1399 48.3726 74.704 48.0903 74.3637C47.9676 74.228 47.8172 74.1203 47.6491 74.0478C47.4811 73.9754 47.2993 73.9399 47.1163 73.9438C46.9326 73.9402 46.7503 73.976 46.5814 74.0483C46.4125 74.1208 46.2611 74.2282 46.1372 74.3637Z" fill="#1306A3"/>
<mask id="mask0_1226_1087" style="mask-type:luminance" maskUnits="userSpaceOnUse" x="15" y="9" width="51" height="51">
<path d="M65.5453 9.8125H15.4453V59.9125H65.5453V9.8125Z" fill="white"/>
</mask>
<g mask="url(#mask0_1226_1087)">
<path d="M37.7934 48.6435V48.6549L22.021 59.9099C21.7995 59.9117 21.5798 59.8698 21.3744 59.7867C21.169 59.7036 20.982 59.5809 20.8241 59.4255C20.6662 59.2701 20.5404 59.085 20.454 58.881C20.3675 58.677 20.3221 58.4579 20.3203 58.2363C20.3203 58.2309 20.3203 58.2256 20.3203 58.2201V50.5143L30.1627 43.4895C30.3079 43.3834 30.4059 43.2246 30.4354 43.0472C30.465 42.8697 30.4239 42.6878 30.321 42.5403C30.3094 42.5289 30.2957 42.5036 30.2843 42.4922L37.4175 47.6094C37.5763 47.7245 37.697 47.8845 37.764 48.0688C37.831 48.2531 37.8412 48.4533 37.7934 48.6435" fill="#EFEFEF"/>
<path d="M45.1833 43.3232C45.1352 43.3959 45.0729 43.4582 45.0003 43.5064L37.7934 48.6469C37.8412 48.4567 37.8309 48.2565 37.764 48.0722C37.6969 47.8879 37.5762 47.7279 37.4175 47.6128L30.2843 42.4956C30.2466 42.4559 30.2059 42.4191 30.1627 42.3855L20.3203 35.3607V24.75L45 42.374C45.1492 42.4763 45.2521 42.6333 45.2864 42.811C45.3207 42.9886 45.2835 43.1726 45.1831 43.3232" fill="white"/>
<path d="M60.7099 11.5022V19.2081L50.867 26.2329C50.7218 26.339 50.624 26.4978 50.5944 26.6751C50.5648 26.8526 50.6059 27.0345 50.7089 27.1821C50.7341 27.2073 50.757 27.2417 50.7822 27.2669L43.6009 22.1496C43.4357 22.0347 43.3106 21.8711 43.2432 21.6815C43.1758 21.492 43.1694 21.286 43.2249 21.0927L59.0088 9.81251C59.4584 9.81123 59.89 9.98846 60.2089 10.3053C60.5279 10.6221 60.7081 11.0526 60.7099 11.5022Z" fill="#EFEFEF"/>
<path d="M60.7121 34.3661V44.9768L36.0324 27.3529C35.9426 27.2884 35.8695 27.2036 35.819 27.1054C35.7685 27.0071 35.7422 26.8982 35.7422 26.7877C35.7422 26.6772 35.7685 26.5683 35.819 26.47C35.8695 26.3718 35.9426 26.2869 36.0324 26.2226L43.2252 21.0938C43.1696 21.2872 43.176 21.493 43.2434 21.6826C43.3108 21.8722 43.4359 22.0359 43.6011 22.1507L50.7825 27.2681L60.7121 34.3661Z" fill="white"/>
</g>
</svg>
