<svg width="82" height="82" viewBox="0 0 82 82" fill="none" xmlns="http://www.w3.org/2000/svg">
<rect x="0.507812" y="0.75" width="80.8383" height="80.8383" rx="10" fill="#22282B"/>
<mask id="mask0_1226_864" style="mask-type:luminance" maskUnits="userSpaceOnUse" x="0" y="0" width="82" height="82">
<path d="M81.3383 0.742188H0.5V81.5805H81.3383V0.742188Z" fill="white"/>
</mask>
<g mask="url(#mask0_1226_864)">
<path d="M81.3181 39.0183C81.2066 33.3292 80.8406 27.6909 79.9708 22.0633C79.5172 19.1244 78.8645 16.0991 77.9049 13.2631C77.0981 10.8822 75.9207 8.33859 73.8965 6.73612C73.1814 6.1699 72.3123 5.65085 71.2892 5.17894C69.9002 4.53771 68.4618 4.00875 66.9883 3.59713C61.8194 2.15139 56.407 1.50424 51.0676 1.10723L49.5826 1.01569C43.7311 0.647851 37.8621 0.65105 32.0109 1.02527C31.4826 1.07328 30.9528 1.10037 30.4215 1.10656C30.3209 1.10768 30.2282 1.15454 30.1175 1.16187C26.1245 1.45843 21.9942 1.97347 18.0582 2.80364C16.4516 3.14202 14.8647 3.56808 13.3046 4.07991C11.4734 4.68081 9.64326 5.48216 8.08383 6.62909C7.63277 6.95524 7.2241 7.33638 6.86733 7.76367L6.38709 8.33627C6.27559 8.45012 6.18553 8.58306 6.12122 8.72886L5.67653 9.38455C4.63522 11.1435 3.92272 13.0807 3.36501 15.0567C2.89095 16.7379 2.49884 18.4383 2.18866 20.158C1.28267 25.181 0.788209 30.34 0.62496 35.3865C0.58035 36.7616 0.522416 38.1063 0.508568 39.4667C0.452056 44.9571 0.671293 50.4804 1.27923 55.9394C1.30632 56.1851 1.37653 56.4783 1.39502 56.76C1.41593 57.0768 1.44701 57.3925 1.48829 57.7071C1.99113 61.5744 2.6918 65.4587 3.96141 69.156C4.52137 70.7857 5.23043 72.3812 6.21531 73.7771C7.39847 75.455 9.1387 76.5693 11.0615 77.3926C14.129 78.7063 17.4564 79.4892 20.7386 80.0416C24.2042 80.6254 27.6981 81.0259 31.2057 81.2429C31.3183 81.2527 31.4313 81.2549 31.5442 81.2512L31.9091 81.2998C33.2273 81.3724 34.5484 81.46 35.8671 81.5034C40.5201 81.6554 45.1477 81.5783 49.795 81.3125C49.919 81.3013 50.0423 81.2834 50.1639 81.2572L50.5981 81.2459C54.149 81.0251 57.6856 80.6157 61.1928 80.0191C64.591 79.4398 68.0765 78.6374 71.2203 77.1883C72.882 76.4218 74.4737 75.3775 75.5165 73.9268C76.2837 72.8459 76.9132 71.6738 77.3907 70.4372C78.6078 67.3414 79.3705 64.06 79.896 60.7854C80.4873 57.0825 80.884 53.351 81.0846 49.6065C81.2829 45.947 81.384 42.3801 81.3181 39.0183ZM2.89016 58.0159C2.8916 58.0154 2.8932 58.0154 2.89465 58.0159C2.89549 58.0161 2.89627 58.0164 2.89689 58.017C2.89468 58.0164 2.89239 58.016 2.89008 58.0159M3.6043 25.4729C3.6049 25.4729 3.60543 25.4735 3.60603 25.474C3.60662 25.4745 3.60827 25.4768 3.60939 25.478L3.6043 25.4729ZM31.5104 80.9563C31.5116 80.9563 31.5127 80.957 31.5138 80.957C31.5165 80.9578 31.5191 80.9585 31.5213 80.96C31.5178 80.9585 31.5142 80.957 31.5106 80.9563M78.1385 56.7137C78.14 56.713 78.1422 56.7126 78.1437 56.7125H78.149C78.1452 56.7127 78.1422 56.7131 78.1385 56.7137ZM78.1527 25.2699C78.1505 25.2703 78.1482 25.2706 78.1467 25.2705C78.1505 25.2705 78.1542 25.2699 78.1579 25.2688C78.1557 25.2694 78.1542 25.2698 78.1527 25.2699ZM78.2066 57.5913C78.2036 57.5939 78.2006 57.5962 78.1976 57.5981C78.2014 57.5958 78.2044 57.5931 78.2066 57.5902C78.2066 57.5908 78.2066 57.5908 78.2066 57.5913Z" fill="#22282B"/>
<path d="M67.4102 50.2315H53.1526V32.1012H67.4102C68.2875 32.1012 68.9893 31.3919 68.9893 30.5148C68.9893 29.6452 68.2799 28.9359 67.4102 28.9359H53.1526V14.6803C53.1526 13.8032 52.4432 13.1014 51.5736 13.0938C50.7039 13.0862 49.9945 13.8032 49.9868 14.6727C49.9868 14.6727 49.9868 14.6727 49.9868 14.6803V28.9359H31.8617V14.6803C31.854 13.8032 31.1446 13.1014 30.2673 13.1091C29.4053 13.1167 28.7034 13.8184 28.6959 14.6803V28.9359H14.4307C13.5534 28.9359 12.8516 29.6452 12.8516 30.5148C12.8516 31.3919 13.561 32.0937 14.4307 32.0937H28.6959V50.224H14.4307C13.5534 50.224 12.8516 50.9333 12.8516 51.8028C12.8516 52.6723 13.561 53.3817 14.4307 53.3817H28.6959V67.6373C28.6882 68.5144 29.39 69.2238 30.2673 69.2314C31.1446 69.239 31.854 68.5373 31.8617 67.6601C31.8617 67.6525 31.8617 67.6449 31.8617 67.6373V53.3893H49.9868V67.6449C49.9868 68.522 50.6962 69.2238 51.5659 69.2314C52.4355 69.239 53.145 68.522 53.1526 67.6525C53.1526 67.6525 53.1526 67.6525 53.1526 67.6449V53.3893H67.4102C68.2875 53.3893 68.9893 52.68 68.9893 51.8104C68.9893 50.9409 68.2799 50.2239 67.4102 50.2315ZM49.9868 50.2315H31.8617V32.1012H49.9868V50.2315Z" fill="white"/>
<path d="M46.8999 23.2467C47.5178 23.8645 47.5178 24.8637 46.8999 25.4815C46.6024 25.779 46.1981 25.9468 45.7785 25.9468C45.3589 25.9544 44.9546 25.7866 44.6571 25.4815L41.1481 21.9729L37.6466 25.4815C37.0363 26.107 36.0293 26.1146 35.4115 25.4968C34.7859 24.8865 34.7783 23.8797 35.3962 23.2619C35.4038 23.2543 35.4038 23.2543 35.4115 23.2467L38.9205 19.7381L35.4115 16.2371C34.7936 15.6193 34.7936 14.6125 35.4115 13.9946C36.0293 13.3768 37.0363 13.3768 37.6542 13.9946L41.1557 17.5032L44.6647 13.9946C45.2903 13.3844 46.2896 13.3921 46.8999 14.0099C47.5102 14.6277 47.5025 15.6193 46.8999 16.2295L43.3908 19.7381L46.8999 23.2467Z" fill="white"/>
<path d="M25.6081 65.9185C26.226 66.5363 26.226 67.5355 25.6157 68.1533C25.3182 68.4508 24.9139 68.6186 24.4944 68.6186C24.0748 68.6186 23.6781 68.4584 23.3806 68.161L19.8715 64.6523L16.3624 68.1686C15.7445 68.7864 14.7376 68.7788 14.1197 68.161C13.5094 67.5431 13.5094 66.544 14.1197 65.9261L17.6287 62.4252L14.1197 58.9013C13.5018 58.2835 13.5018 57.2843 14.1197 56.6665C14.7376 56.0487 15.7369 56.0487 16.3548 56.6665L19.8639 60.1904L23.373 56.6894C24.0214 56.1097 25.0207 56.163 25.6081 56.8114C26.1421 57.4139 26.1421 58.3217 25.6081 58.9166L22.1066 62.4175L25.6081 65.9185Z" fill="white"/>
<path d="M61.5208 67.1804C58.0651 67.1804 55.2578 64.3812 55.2578 60.9183C55.2578 57.4631 58.0574 54.6562 61.5208 54.6562C64.9764 54.6562 67.7837 57.4555 67.7837 60.9183C67.7761 64.3812 64.9764 67.1804 61.5208 67.1804ZM61.5208 57.669C59.7205 57.669 58.2558 59.1335 58.2558 60.9336C58.2558 62.7336 59.7205 64.1981 61.5208 64.1981C63.3211 64.1981 64.7857 62.7336 64.7857 60.9336C64.7857 59.1259 63.3287 57.6614 61.5208 57.669C61.5208 57.6614 61.5208 57.6614 61.5208 57.669Z" fill="white"/>
<path d="M41.3176 46.9851C37.862 46.9851 35.0547 44.1859 35.0547 40.7231C35.0547 37.2678 37.8543 34.4609 41.3176 34.4609C44.7733 34.4609 47.5806 37.2602 47.5806 40.7231C47.573 44.1783 44.7733 46.9851 41.3176 46.9851ZM41.3176 37.4662C39.5173 37.4662 38.0527 38.9306 38.0527 40.7307C38.0527 42.5308 39.5173 43.9952 41.3176 43.9952C43.1179 43.9952 44.5826 42.5308 44.5826 40.7307C44.5826 38.923 43.1179 37.4662 41.3176 37.4662C41.3176 37.4585 41.3176 37.4585 41.3176 37.4662Z" fill="white"/>
<path d="M21.2004 26.7195C17.7448 26.7195 14.9375 23.9202 14.9375 20.4574C14.9375 16.9946 17.7371 14.1953 21.2004 14.1953C24.6638 14.1953 27.4634 16.9946 27.4634 20.4574C27.4634 23.9127 24.6561 26.7195 21.2004 26.7195ZM21.2004 17.2006C19.4001 17.2006 17.9355 18.665 17.9355 20.4651C17.9355 22.2651 19.4001 23.7296 21.2004 23.7296C23.0007 23.7296 24.4654 22.2651 24.4654 20.4651C24.4654 18.665 23.0084 17.2006 21.2004 17.2006C21.2004 17.1929 21.2004 17.1929 21.2004 17.2006Z" fill="white"/>
</g>
</svg>
